<?xml version="1.0" encoding="utf-8" standalone="no"?>
<!DOCTYPE svg PUBLIC "-//W3C//DTD SVG 1.1//EN"
  "http://www.w3.org/Graphics/SVG/1.1/DTD/svg11.dtd">
<svg xmlns:xlink="http://www.w3.org/1999/xlink" width="433.595826pt" height="291.864087pt" viewBox="0 0 433.595826 291.864087" xmlns="http://www.w3.org/2000/svg" version="1.1">
 <metadata>
  <rdf:RDF xmlns:dc="http://purl.org/dc/elements/1.1/" xmlns:cc="http://creativecommons.org/ns#" xmlns:rdf="http://www.w3.org/1999/02/22-rdf-syntax-ns#">
   <cc:Work>
    <dc:type rdf:resource="http://purl.org/dc/dcmitype/StillImage"/>
    <dc:date>2022-09-21T18:19:16.881335</dc:date>
    <dc:format>image/svg+xml</dc:format>
    <dc:creator>
     <cc:Agent>
      <dc:title>Matplotlib v3.5.1, https://matplotlib.org/</dc:title>
     </cc:Agent>
    </dc:creator>
   </cc:Work>
  </rdf:RDF>
 </metadata>
 <defs>
  <style type="text/css">*{stroke-linejoin: round; stroke-linecap: butt}</style>
 </defs>
 <g id="figure_1">
  <g id="patch_1">
   <path d="M 0 291.864087 
L 433.595826 291.864087 
L 433.595826 0 
L 0 0 
z
" style="fill: #ffffff"/>
  </g>
  <g id="axes_1">
   <g id="patch_2">
    <path d="M 64.839375 242.129712 
L 416.685137 242.129712 
L 416.685137 7.2 
L 64.839375 7.2 
z
" style="fill: #ffffff"/>
   </g>
   <g id="matplotlib.axis_1">
    <g id="xtick_1">
     <g id="line2d_1">
      <path d="M 66.581186 242.129712 
L 66.581186 7.2 
" clip-path="url(#pd1e61c81af)" style="fill: none; stroke: #cccccc; stroke-linecap: round"/>
     </g>
     <g id="line2d_2">
      <defs>
       <path id="ma0e5194301" d="M 0 0 
L 0 6 
" style="stroke: #262626; stroke-width: 1.25"/>
      </defs>
      <g>
       <use xlink:href="#ma0e5194301" x="66.581186" y="242.129712" style="fill: #262626; stroke: #262626; stroke-width: 1.25"/>
      </g>
     </g>
     <g id="text_1">
      <!-- 0 -->
      <g style="fill: #262626" transform="translate(62.763686 260.747837)scale(0.12 -0.12)">
       <defs>
        <path id="DejaVuSans-30" d="M 2034 4250 
Q 1547 4250 1301 3770 
Q 1056 3291 1056 2328 
Q 1056 1369 1301 889 
Q 1547 409 2034 409 
Q 2525 409 2770 889 
Q 3016 1369 3016 2328 
Q 3016 3291 2770 3770 
Q 2525 4250 2034 4250 
z
M 2034 4750 
Q 2819 4750 3233 4129 
Q 3647 3509 3647 2328 
Q 3647 1150 3233 529 
Q 2819 -91 2034 -91 
Q 1250 -91 836 529 
Q 422 1150 422 2328 
Q 422 3509 836 4129 
Q 1250 4750 2034 4750 
z
" transform="scale(0.015625)"/>
       </defs>
       <use xlink:href="#DejaVuSans-30"/>
      </g>
     </g>
    </g>
    <g id="xtick_2">
     <g id="line2d_3">
      <path d="M 110.126453 242.129712 
L 110.126453 7.2 
" clip-path="url(#pd1e61c81af)" style="fill: none; stroke: #cccccc; stroke-linecap: round"/>
     </g>
     <g id="line2d_4">
      <g>
       <use xlink:href="#ma0e5194301" x="110.126453" y="242.129712" style="fill: #262626; stroke: #262626; stroke-width: 1.25"/>
      </g>
     </g>
     <g id="text_2">
      <!-- 25 -->
      <g style="fill: #262626" transform="translate(102.491453 260.747837)scale(0.12 -0.12)">
       <defs>
        <path id="DejaVuSans-32" d="M 1228 531 
L 3431 531 
L 3431 0 
L 469 0 
L 469 531 
Q 828 903 1448 1529 
Q 2069 2156 2228 2338 
Q 2531 2678 2651 2914 
Q 2772 3150 2772 3378 
Q 2772 3750 2511 3984 
Q 2250 4219 1831 4219 
Q 1534 4219 1204 4116 
Q 875 4013 500 3803 
L 500 4441 
Q 881 4594 1212 4672 
Q 1544 4750 1819 4750 
Q 2544 4750 2975 4387 
Q 3406 4025 3406 3419 
Q 3406 3131 3298 2873 
Q 3191 2616 2906 2266 
Q 2828 2175 2409 1742 
Q 1991 1309 1228 531 
z
" transform="scale(0.015625)"/>
        <path id="DejaVuSans-35" d="M 691 4666 
L 3169 4666 
L 3169 4134 
L 1269 4134 
L 1269 2991 
Q 1406 3038 1543 3061 
Q 1681 3084 1819 3084 
Q 2600 3084 3056 2656 
Q 3513 2228 3513 1497 
Q 3513 744 3044 326 
Q 2575 -91 1722 -91 
Q 1428 -91 1123 -41 
Q 819 9 494 109 
L 494 744 
Q 775 591 1075 516 
Q 1375 441 1709 441 
Q 2250 441 2565 725 
Q 2881 1009 2881 1497 
Q 2881 1984 2565 2268 
Q 2250 2553 1709 2553 
Q 1456 2553 1204 2497 
Q 953 2441 691 2322 
L 691 4666 
z
" transform="scale(0.015625)"/>
       </defs>
       <use xlink:href="#DejaVuSans-32"/>
       <use xlink:href="#DejaVuSans-35" x="63.623047"/>
      </g>
     </g>
    </g>
    <g id="xtick_3">
     <g id="line2d_5">
      <path d="M 153.671721 242.129712 
L 153.671721 7.2 
" clip-path="url(#pd1e61c81af)" style="fill: none; stroke: #cccccc; stroke-linecap: round"/>
     </g>
     <g id="line2d_6">
      <g>
       <use xlink:href="#ma0e5194301" x="153.671721" y="242.129712" style="fill: #262626; stroke: #262626; stroke-width: 1.25"/>
      </g>
     </g>
     <g id="text_3">
      <!-- 50 -->
      <g style="fill: #262626" transform="translate(146.036721 260.747837)scale(0.12 -0.12)">
       <use xlink:href="#DejaVuSans-35"/>
       <use xlink:href="#DejaVuSans-30" x="63.623047"/>
      </g>
     </g>
    </g>
    <g id="xtick_4">
     <g id="line2d_7">
      <path d="M 197.216988 242.129712 
L 197.216988 7.2 
" clip-path="url(#pd1e61c81af)" style="fill: none; stroke: #cccccc; stroke-linecap: round"/>
     </g>
     <g id="line2d_8">
      <g>
       <use xlink:href="#ma0e5194301" x="197.216988" y="242.129712" style="fill: #262626; stroke: #262626; stroke-width: 1.25"/>
      </g>
     </g>
     <g id="text_4">
      <!-- 75 -->
      <g style="fill: #262626" transform="translate(189.581988 260.747837)scale(0.12 -0.12)">
       <defs>
        <path id="DejaVuSans-37" d="M 525 4666 
L 3525 4666 
L 3525 4397 
L 1831 0 
L 1172 0 
L 2766 4134 
L 525 4134 
L 525 4666 
z
" transform="scale(0.015625)"/>
       </defs>
       <use xlink:href="#DejaVuSans-37"/>
       <use xlink:href="#DejaVuSans-35" x="63.623047"/>
      </g>
     </g>
    </g>
    <g id="xtick_5">
     <g id="line2d_9">
      <path d="M 240.762256 242.129712 
L 240.762256 7.2 
" clip-path="url(#pd1e61c81af)" style="fill: none; stroke: #cccccc; stroke-linecap: round"/>
     </g>
     <g id="line2d_10">
      <g>
       <use xlink:href="#ma0e5194301" x="240.762256" y="242.129712" style="fill: #262626; stroke: #262626; stroke-width: 1.25"/>
      </g>
     </g>
     <g id="text_5">
      <!-- 100 -->
      <g style="fill: #262626" transform="translate(229.309756 260.747837)scale(0.12 -0.12)">
       <defs>
        <path id="DejaVuSans-31" d="M 794 531 
L 1825 531 
L 1825 4091 
L 703 3866 
L 703 4441 
L 1819 4666 
L 2450 4666 
L 2450 531 
L 3481 531 
L 3481 0 
L 794 0 
L 794 531 
z
" transform="scale(0.015625)"/>
       </defs>
       <use xlink:href="#DejaVuSans-31"/>
       <use xlink:href="#DejaVuSans-30" x="63.623047"/>
       <use xlink:href="#DejaVuSans-30" x="127.246094"/>
      </g>
     </g>
    </g>
    <g id="xtick_6">
     <g id="line2d_11">
      <path d="M 284.307523 242.129712 
L 284.307523 7.2 
" clip-path="url(#pd1e61c81af)" style="fill: none; stroke: #cccccc; stroke-linecap: round"/>
     </g>
     <g id="line2d_12">
      <g>
       <use xlink:href="#ma0e5194301" x="284.307523" y="242.129712" style="fill: #262626; stroke: #262626; stroke-width: 1.25"/>
      </g>
     </g>
     <g id="text_6">
      <!-- 125 -->
      <g style="fill: #262626" transform="translate(272.855023 260.747837)scale(0.12 -0.12)">
       <use xlink:href="#DejaVuSans-31"/>
       <use xlink:href="#DejaVuSans-32" x="63.623047"/>
       <use xlink:href="#DejaVuSans-35" x="127.246094"/>
      </g>
     </g>
    </g>
    <g id="xtick_7">
     <g id="line2d_13">
      <path d="M 327.852791 242.129712 
L 327.852791 7.2 
" clip-path="url(#pd1e61c81af)" style="fill: none; stroke: #cccccc; stroke-linecap: round"/>
     </g>
     <g id="line2d_14">
      <g>
       <use xlink:href="#ma0e5194301" x="327.852791" y="242.129712" style="fill: #262626; stroke: #262626; stroke-width: 1.25"/>
      </g>
     </g>
     <g id="text_7">
      <!-- 150 -->
      <g style="fill: #262626" transform="translate(316.400291 260.747837)scale(0.12 -0.12)">
       <use xlink:href="#DejaVuSans-31"/>
       <use xlink:href="#DejaVuSans-35" x="63.623047"/>
       <use xlink:href="#DejaVuSans-30" x="127.246094"/>
      </g>
     </g>
    </g>
    <g id="xtick_8">
     <g id="line2d_15">
      <path d="M 371.398059 242.129712 
L 371.398059 7.2 
" clip-path="url(#pd1e61c81af)" style="fill: none; stroke: #cccccc; stroke-linecap: round"/>
     </g>
     <g id="line2d_16">
      <g>
       <use xlink:href="#ma0e5194301" x="371.398059" y="242.129712" style="fill: #262626; stroke: #262626; stroke-width: 1.25"/>
      </g>
     </g>
     <g id="text_8">
      <!-- 175 -->
      <g style="fill: #262626" transform="translate(359.945559 260.747837)scale(0.12 -0.12)">
       <use xlink:href="#DejaVuSans-31"/>
       <use xlink:href="#DejaVuSans-37" x="63.623047"/>
       <use xlink:href="#DejaVuSans-35" x="127.246094"/>
      </g>
     </g>
    </g>
    <g id="xtick_9">
     <g id="line2d_17">
      <path d="M 414.943326 242.129712 
L 414.943326 7.2 
" clip-path="url(#pd1e61c81af)" style="fill: none; stroke: #cccccc; stroke-linecap: round"/>
     </g>
     <g id="line2d_18">
      <g>
       <use xlink:href="#ma0e5194301" x="414.943326" y="242.129712" style="fill: #262626; stroke: #262626; stroke-width: 1.25"/>
      </g>
     </g>
     <g id="text_9">
      <!-- 200 -->
      <g style="fill: #262626" transform="translate(403.490826 260.747837)scale(0.12 -0.12)">
       <use xlink:href="#DejaVuSans-32"/>
       <use xlink:href="#DejaVuSans-30" x="63.623047"/>
       <use xlink:href="#DejaVuSans-30" x="127.246094"/>
      </g>
     </g>
    </g>
    <g id="text_10">
     <!-- Epoch -->
     <g style="fill: #262626" transform="translate(213.202568 280.920649)scale(0.18 -0.18)">
      <defs>
       <path id="DejaVuSans-45" d="M 628 4666 
L 3578 4666 
L 3578 4134 
L 1259 4134 
L 1259 2753 
L 3481 2753 
L 3481 2222 
L 1259 2222 
L 1259 531 
L 3634 531 
L 3634 0 
L 628 0 
L 628 4666 
z
" transform="scale(0.015625)"/>
       <path id="DejaVuSans-70" d="M 1159 525 
L 1159 -1331 
L 581 -1331 
L 581 3500 
L 1159 3500 
L 1159 2969 
Q 1341 3281 1617 3432 
Q 1894 3584 2278 3584 
Q 2916 3584 3314 3078 
Q 3713 2572 3713 1747 
Q 3713 922 3314 415 
Q 2916 -91 2278 -91 
Q 1894 -91 1617 61 
Q 1341 213 1159 525 
z
M 3116 1747 
Q 3116 2381 2855 2742 
Q 2594 3103 2138 3103 
Q 1681 3103 1420 2742 
Q 1159 2381 1159 1747 
Q 1159 1113 1420 752 
Q 1681 391 2138 391 
Q 2594 391 2855 752 
Q 3116 1113 3116 1747 
z
" transform="scale(0.015625)"/>
       <path id="DejaVuSans-6f" d="M 1959 3097 
Q 1497 3097 1228 2736 
Q 959 2375 959 1747 
Q 959 1119 1226 758 
Q 1494 397 1959 397 
Q 2419 397 2687 759 
Q 2956 1122 2956 1747 
Q 2956 2369 2687 2733 
Q 2419 3097 1959 3097 
z
M 1959 3584 
Q 2709 3584 3137 3096 
Q 3566 2609 3566 1747 
Q 3566 888 3137 398 
Q 2709 -91 1959 -91 
Q 1206 -91 779 398 
Q 353 888 353 1747 
Q 353 2609 779 3096 
Q 1206 3584 1959 3584 
z
" transform="scale(0.015625)"/>
       <path id="DejaVuSans-63" d="M 3122 3366 
L 3122 2828 
Q 2878 2963 2633 3030 
Q 2388 3097 2138 3097 
Q 1578 3097 1268 2742 
Q 959 2388 959 1747 
Q 959 1106 1268 751 
Q 1578 397 2138 397 
Q 2388 397 2633 464 
Q 2878 531 3122 666 
L 3122 134 
Q 2881 22 2623 -34 
Q 2366 -91 2075 -91 
Q 1284 -91 818 406 
Q 353 903 353 1747 
Q 353 2603 823 3093 
Q 1294 3584 2113 3584 
Q 2378 3584 2631 3529 
Q 2884 3475 3122 3366 
z
" transform="scale(0.015625)"/>
       <path id="DejaVuSans-68" d="M 3513 2113 
L 3513 0 
L 2938 0 
L 2938 2094 
Q 2938 2591 2744 2837 
Q 2550 3084 2163 3084 
Q 1697 3084 1428 2787 
Q 1159 2491 1159 1978 
L 1159 0 
L 581 0 
L 581 4863 
L 1159 4863 
L 1159 2956 
Q 1366 3272 1645 3428 
Q 1925 3584 2291 3584 
Q 2894 3584 3203 3211 
Q 3513 2838 3513 2113 
z
" transform="scale(0.015625)"/>
      </defs>
      <use xlink:href="#DejaVuSans-45"/>
      <use xlink:href="#DejaVuSans-70" x="63.183594"/>
      <use xlink:href="#DejaVuSans-6f" x="126.660156"/>
      <use xlink:href="#DejaVuSans-63" x="187.841797"/>
      <use xlink:href="#DejaVuSans-68" x="242.822266"/>
     </g>
    </g>
   </g>
   <g id="matplotlib.axis_2">
    <g id="ytick_1">
     <g id="line2d_19">
      <path d="M 64.839375 242.129712 
L 416.685137 242.129712 
" clip-path="url(#pd1e61c81af)" style="fill: none; stroke: #cccccc; stroke-linecap: round"/>
     </g>
     <g id="line2d_20">
      <defs>
       <path id="m20ec379b76" d="M 0 0 
L -6 0 
" style="stroke: #262626; stroke-width: 1.25"/>
      </defs>
      <g>
       <use xlink:href="#m20ec379b76" x="64.839375" y="242.129712" style="fill: #262626; stroke: #262626; stroke-width: 1.25"/>
      </g>
     </g>
     <g id="text_11">
      <!-- 0.00 -->
      <g style="fill: #262626" transform="translate(28.620625 246.688774)scale(0.12 -0.12)">
       <defs>
        <path id="DejaVuSans-2e" d="M 684 794 
L 1344 794 
L 1344 0 
L 684 0 
L 684 794 
z
" transform="scale(0.015625)"/>
       </defs>
       <use xlink:href="#DejaVuSans-30"/>
       <use xlink:href="#DejaVuSans-2e" x="63.623047"/>
       <use xlink:href="#DejaVuSans-30" x="95.410156"/>
       <use xlink:href="#DejaVuSans-30" x="159.033203"/>
      </g>
     </g>
    </g>
    <g id="ytick_2">
     <g id="line2d_21">
      <path d="M 64.839375 193.186022 
L 416.685137 193.186022 
" clip-path="url(#pd1e61c81af)" style="fill: none; stroke: #cccccc; stroke-linecap: round"/>
     </g>
     <g id="line2d_22">
      <g>
       <use xlink:href="#m20ec379b76" x="64.839375" y="193.186022" style="fill: #262626; stroke: #262626; stroke-width: 1.25"/>
      </g>
     </g>
     <g id="text_12">
      <!-- 0.25 -->
      <g style="fill: #262626" transform="translate(28.620625 197.745084)scale(0.12 -0.12)">
       <use xlink:href="#DejaVuSans-30"/>
       <use xlink:href="#DejaVuSans-2e" x="63.623047"/>
       <use xlink:href="#DejaVuSans-32" x="95.410156"/>
       <use xlink:href="#DejaVuSans-35" x="159.033203"/>
      </g>
     </g>
    </g>
    <g id="ytick_3">
     <g id="line2d_23">
      <path d="M 64.839375 144.242332 
L 416.685137 144.242332 
" clip-path="url(#pd1e61c81af)" style="fill: none; stroke: #cccccc; stroke-linecap: round"/>
     </g>
     <g id="line2d_24">
      <g>
       <use xlink:href="#m20ec379b76" x="64.839375" y="144.242332" style="fill: #262626; stroke: #262626; stroke-width: 1.25"/>
      </g>
     </g>
     <g id="text_13">
      <!-- 0.50 -->
      <g style="fill: #262626" transform="translate(28.620625 148.801394)scale(0.12 -0.12)">
       <use xlink:href="#DejaVuSans-30"/>
       <use xlink:href="#DejaVuSans-2e" x="63.623047"/>
       <use xlink:href="#DejaVuSans-35" x="95.410156"/>
       <use xlink:href="#DejaVuSans-30" x="159.033203"/>
      </g>
     </g>
    </g>
    <g id="ytick_4">
     <g id="line2d_25">
      <path d="M 64.839375 95.298642 
L 416.685137 95.298642 
" clip-path="url(#pd1e61c81af)" style="fill: none; stroke: #cccccc; stroke-linecap: round"/>
     </g>
     <g id="line2d_26">
      <g>
       <use xlink:href="#m20ec379b76" x="64.839375" y="95.298642" style="fill: #262626; stroke: #262626; stroke-width: 1.25"/>
      </g>
     </g>
     <g id="text_14">
      <!-- 0.75 -->
      <g style="fill: #262626" transform="translate(28.620625 99.857704)scale(0.12 -0.12)">
       <use xlink:href="#DejaVuSans-30"/>
       <use xlink:href="#DejaVuSans-2e" x="63.623047"/>
       <use xlink:href="#DejaVuSans-37" x="95.410156"/>
       <use xlink:href="#DejaVuSans-35" x="159.033203"/>
      </g>
     </g>
    </g>
    <g id="ytick_5">
     <g id="line2d_27">
      <path d="M 64.839375 46.354952 
L 416.685137 46.354952 
" clip-path="url(#pd1e61c81af)" style="fill: none; stroke: #cccccc; stroke-linecap: round"/>
     </g>
     <g id="line2d_28">
      <g>
       <use xlink:href="#m20ec379b76" x="64.839375" y="46.354952" style="fill: #262626; stroke: #262626; stroke-width: 1.25"/>
      </g>
     </g>
     <g id="text_15">
      <!-- 1.00 -->
      <g style="fill: #262626" transform="translate(28.620625 50.914014)scale(0.12 -0.12)">
       <use xlink:href="#DejaVuSans-31"/>
       <use xlink:href="#DejaVuSans-2e" x="63.623047"/>
       <use xlink:href="#DejaVuSans-30" x="95.410156"/>
       <use xlink:href="#DejaVuSans-30" x="159.033203"/>
      </g>
     </g>
    </g>
    <g id="text_16">
     <!-- MAE / eV -->
     <g style="fill: #262626" transform="translate(20.877188 164.720481)rotate(-90)scale(0.18 -0.18)">
      <defs>
       <path id="DejaVuSans-4d" d="M 628 4666 
L 1569 4666 
L 2759 1491 
L 3956 4666 
L 4897 4666 
L 4897 0 
L 4281 0 
L 4281 4097 
L 3078 897 
L 2444 897 
L 1241 4097 
L 1241 0 
L 628 0 
L 628 4666 
z
" transform="scale(0.015625)"/>
       <path id="DejaVuSans-41" d="M 2188 4044 
L 1331 1722 
L 3047 1722 
L 2188 4044 
z
M 1831 4666 
L 2547 4666 
L 4325 0 
L 3669 0 
L 3244 1197 
L 1141 1197 
L 716 0 
L 50 0 
L 1831 4666 
z
" transform="scale(0.015625)"/>
       <path id="DejaVuSans-20" transform="scale(0.015625)"/>
       <path id="DejaVuSans-2f" d="M 1625 4666 
L 2156 4666 
L 531 -594 
L 0 -594 
L 1625 4666 
z
" transform="scale(0.015625)"/>
       <path id="DejaVuSans-65" d="M 3597 1894 
L 3597 1613 
L 953 1613 
Q 991 1019 1311 708 
Q 1631 397 2203 397 
Q 2534 397 2845 478 
Q 3156 559 3463 722 
L 3463 178 
Q 3153 47 2828 -22 
Q 2503 -91 2169 -91 
Q 1331 -91 842 396 
Q 353 884 353 1716 
Q 353 2575 817 3079 
Q 1281 3584 2069 3584 
Q 2775 3584 3186 3129 
Q 3597 2675 3597 1894 
z
M 3022 2063 
Q 3016 2534 2758 2815 
Q 2500 3097 2075 3097 
Q 1594 3097 1305 2825 
Q 1016 2553 972 2059 
L 3022 2063 
z
" transform="scale(0.015625)"/>
       <path id="DejaVuSans-56" d="M 1831 0 
L 50 4666 
L 709 4666 
L 2188 738 
L 3669 4666 
L 4325 4666 
L 2547 0 
L 1831 0 
z
" transform="scale(0.015625)"/>
      </defs>
      <use xlink:href="#DejaVuSans-4d"/>
      <use xlink:href="#DejaVuSans-41" x="86.279297"/>
      <use xlink:href="#DejaVuSans-45" x="154.6875"/>
      <use xlink:href="#DejaVuSans-20" x="217.871094"/>
      <use xlink:href="#DejaVuSans-2f" x="249.658203"/>
      <use xlink:href="#DejaVuSans-20" x="283.349609"/>
      <use xlink:href="#DejaVuSans-65" x="315.136719"/>
      <use xlink:href="#DejaVuSans-56" x="376.660156"/>
     </g>
    </g>
   </g>
   <g id="line2d_29">
    <path d="M 91.193838 -1 
L 92.708346 17.349829 
L 93.022857 -1 
M 98.904227 -1 
L 99.675589 47.781572 
L 100.611689 -1 
M 103.847807 -1 
L 104.901021 27.820609 
L 106.642832 14.514465 
L 108.384643 43.833173 
L 110.126453 17.303946 
L 111.868264 15.531873 
L 113.610075 59.793992 
L 117.093696 104.575386 
L 118.835507 96.717994 
L 120.577317 115.737278 
L 122.319128 124.914947 
L 124.060939 125.72754 
L 125.80275 130.883245 
L 127.54456 99.633326 
L 129.286371 130.322665 
L 131.028182 120.300546 
L 132.769992 104.48631 
L 134.511803 117.291408 
L 136.253614 87.836734 
L 137.995424 109.284262 
L 139.737235 142.041807 
L 141.479046 137.313038 
L 143.220857 136.616986 
L 144.962667 106.378916 
L 146.704478 132.082963 
L 148.446289 136.115121 
L 150.188099 123.295855 
L 151.92991 98.676794 
L 153.671721 120.449619 
L 155.413532 153.727797 
L 157.155342 118.889 
L 158.897153 122.933881 
L 160.638964 145.255905 
L 162.380774 156.596566 
L 164.122585 154.397344 
L 165.864396 167.898475 
L 167.606206 110.983496 
L 169.348017 152.081863 
L 171.089828 167.594406 
L 172.831639 152.755972 
L 174.573449 154.058043 
L 176.31526 178.140395 
L 178.057071 184.994466 
L 179.798881 188.85298 
L 181.540692 188.484683 
L 183.282503 177.637031 
L 185.024313 169.580608 
L 186.766124 186.269853 
L 188.507935 181.702561 
L 190.249746 184.157124 
L 191.991556 184.599245 
L 193.733367 194.799682 
L 195.475178 192.01589 
L 197.216988 193.664172 
L 198.958799 194.671898 
L 200.70061 186.278055 
L 202.44242 196.027457 
L 204.184231 191.332968 
L 205.926042 201.3114 
L 207.667853 205.242513 
L 209.409663 205.088102 
L 211.151474 200.056161 
L 212.893285 201.89901 
L 214.635095 195.541938 
L 216.376906 204.90684 
L 218.118717 206.371895 
L 219.860527 208.091011 
L 221.602338 208.169582 
L 223.344149 204.669331 
L 225.08596 208.549514 
L 226.82777 209.737948 
L 228.569581 198.824314 
L 230.311392 205.527344 
L 232.053202 202.439325 
L 233.795013 210.642701 
L 235.536824 210.361332 
L 237.278635 209.133837 
L 239.020445 213.397403 
L 240.762256 212.151864 
L 242.504067 209.475 
L 244.245877 210.656599 
L 245.987688 212.388101 
L 247.729499 210.436269 
L 249.471309 214.304534 
L 251.21312 214.607528 
L 254.696742 214.225587 
L 256.438552 213.811912 
L 258.180363 211.606565 
L 259.922174 216.474829 
L 261.663984 216.469401 
L 263.405795 212.56559 
L 265.147606 213.886005 
L 266.889416 213.54832 
L 268.631227 213.82795 
L 270.373038 213.842061 
L 272.114849 216.38341 
L 273.856659 214.965054 
L 275.59847 215.592724 
L 277.340281 215.199608 
L 279.082091 216.857754 
L 280.823902 216.543464 
L 282.565713 215.697857 
L 284.307523 215.249995 
L 286.049334 217.03799 
L 287.791145 216.955396 
L 289.532956 217.921061 
L 293.016577 217.395563 
L 294.758388 218.090646 
L 296.500198 218.189523 
L 298.242009 217.687439 
L 299.98382 218.1072 
L 303.467441 219.185992 
L 305.209252 218.88268 
L 306.951063 219.035064 
L 308.692873 219.013401 
L 312.176495 219.58433 
L 313.918305 218.750516 
L 315.660116 219.164855 
L 317.401927 218.920607 
L 319.143738 219.415283 
L 320.885548 219.758699 
L 324.36917 219.792304 
L 326.11098 219.453223 
L 327.852791 219.806419 
L 329.594602 219.52894 
L 331.336412 219.791399 
L 333.078223 219.710796 
L 334.820034 219.131605 
L 336.561845 220.059636 
L 340.045466 219.965159 
L 343.529087 219.716533 
L 345.270898 220.317117 
L 347.012709 220.365573 
L 348.754519 220.127774 
L 357.463573 220.3438 
L 359.205384 220.177601 
L 360.947194 220.464029 
L 362.689005 220.47018 
L 364.430816 220.057149 
L 366.172626 220.532684 
L 367.914437 220.42834 
L 369.656248 220.500177 
L 371.398059 220.785109 
L 373.139869 220.443467 
L 374.88168 220.654766 
L 378.365301 220.791975 
L 381.848923 220.494924 
L 383.590733 220.730821 
L 388.816166 220.773702 
L 390.557976 220.641964 
L 392.299787 220.963457 
L 394.041598 220.836144 
L 399.26703 220.963093 
L 404.492462 220.982965 
L 406.234273 221.156447 
L 407.976083 220.882533 
L 409.717894 220.894277 
L 411.459705 221.094004 
L 413.201515 220.91739 
L 413.201515 220.91739 
" clip-path="url(#pd1e61c81af)" style="fill: none; stroke: #5fbcd3; stroke-width: 2; stroke-linecap: round"/>
   </g>
   <g id="line2d_30">
    <path d="M 88.065638 -1 
L 89.224725 51.437208 
L 90.966536 20.058924 
L 92.708346 55.117092 
L 93.433522 -1 
M 95.362459 -1 
L 96.191968 70.531797 
L 97.667912 -1 
M 98.109358 -1 
L 99.675589 113.940779 
L 101.4174 137.000731 
L 102.897372 -1 
M 105.196561 -1 
L 106.642832 20.54875 
L 108.384643 98.730599 
L 110.126453 104.592021 
L 111.868264 69.545211 
L 112.576136 -1 
M 114.38038 -1 
L 115.351885 128.953984 
L 117.093696 113.543656 
L 118.835507 95.03037 
L 120.577317 131.685228 
L 122.319128 148.593291 
L 124.060939 128.763553 
L 125.80275 161.485675 
L 127.54456 119.5132 
L 129.286371 115.080512 
L 131.028182 163.694125 
L 132.769992 161.381962 
L 133.458039 -1 
M 135.547877 -1 
L 136.253614 168.400887 
L 137.995424 157.404032 
L 139.737235 83.303923 
L 141.479046 138.219866 
L 143.220857 170.349579 
L 144.771201 -1 
M 145.356889 -1 
L 146.704478 71.337613 
L 148.446289 137.417915 
L 150.188099 101.594863 
L 151.438174 -1 
M 152.318063 -1 
L 153.671721 139.743295 
L 154.675981 -1 
M 156.099052 -1 
L 157.155342 158.270872 
L 158.897153 180.857617 
L 160.638964 85.309291 
L 162.380774 90.191917 
L 164.122585 189.865996 
L 165.864396 137.833935 
L 167.606206 181.020107 
L 169.348017 172.981813 
L 171.089828 154.027476 
L 172.831639 171.453709 
L 174.573449 151.940291 
L 176.31526 97.062283 
L 178.057071 191.128794 
L 179.798881 176.618097 
L 181.540692 200.884398 
L 183.282503 178.868648 
L 185.024313 184.819574 
L 186.766124 181.034991 
L 188.507935 192.260366 
L 191.991556 198.510133 
L 193.733367 183.419996 
L 195.475178 172.808638 
L 197.216988 198.405068 
L 198.958799 199.804241 
L 200.70061 193.577482 
L 202.44242 144.485409 
L 204.184231 203.099962 
L 205.926042 182.605349 
L 207.667853 206.413247 
L 209.409663 205.428113 
L 211.151474 199.46602 
L 212.893285 203.272287 
L 214.635095 169.676371 
L 216.376906 201.64217 
L 218.118717 194.226663 
L 219.860527 205.637684 
L 221.602338 207.240547 
L 223.344149 209.057183 
L 225.08596 207.619141 
L 226.82777 183.355829 
L 228.569581 208.284843 
L 230.311392 183.950137 
L 232.053202 208.817269 
L 233.795013 208.698564 
L 235.536824 198.769733 
L 237.278635 211.360183 
L 239.020445 208.3575 
L 240.762256 207.819095 
L 242.504067 205.118583 
L 244.245877 208.131864 
L 245.987688 208.145399 
L 247.729499 204.378893 
L 249.471309 203.373434 
L 251.21312 209.666978 
L 252.954931 207.83682 
L 254.696742 199.866739 
L 256.438552 196.97135 
L 258.180363 212.031898 
L 259.922174 212.108456 
L 261.663984 206.042053 
L 263.405795 210.442084 
L 265.147606 211.362517 
L 266.889416 211.52961 
L 268.631227 210.140186 
L 270.373038 210.108833 
L 272.114849 212.013825 
L 273.856659 205.296113 
L 275.59847 212.156287 
L 277.340281 213.223743 
L 279.082091 212.813693 
L 280.823902 205.466382 
L 282.565713 212.507522 
L 284.307523 212.86746 
L 286.049334 212.067349 
L 287.791145 212.599134 
L 289.532956 212.516834 
L 291.274766 209.292144 
L 293.016577 209.777162 
L 294.758388 212.415031 
L 296.500198 206.053186 
L 298.242009 212.854504 
L 299.98382 212.704022 
L 301.72563 212.794952 
L 303.467441 210.948771 
L 305.209252 213.575017 
L 308.692873 212.897166 
L 310.434684 213.004763 
L 312.176495 211.293484 
L 313.918305 213.155715 
L 315.660116 213.002541 
L 317.401927 213.723566 
L 319.143738 213.834212 
L 320.885548 213.273234 
L 322.627359 213.319724 
L 324.36917 213.853355 
L 326.11098 211.183868 
L 327.852791 213.531436 
L 329.594602 211.458964 
L 331.336412 213.571189 
L 333.078223 213.664118 
L 334.820034 213.387725 
L 336.561845 212.694182 
L 338.303655 213.433649 
L 340.045466 212.887406 
L 341.787277 214.019581 
L 345.270898 213.507644 
L 347.012709 211.459028 
L 348.754519 214.192044 
L 350.49633 213.755691 
L 352.238141 213.636015 
L 357.463573 214.141469 
L 360.947194 213.506675 
L 362.689005 213.95279 
L 364.430816 213.749896 
L 366.172626 213.162421 
L 367.914437 214.081885 
L 369.656248 214.03109 
L 371.398059 214.227737 
L 374.88168 214.096786 
L 378.365301 214.096761 
L 380.107112 213.885535 
L 381.848923 214.218479 
L 383.590733 213.546175 
L 385.332544 213.816555 
L 388.816166 214.00447 
L 390.557976 214.198717 
L 392.299787 214.039611 
L 394.041598 214.187746 
L 395.783408 213.904529 
L 397.525219 214.051608 
L 399.26703 213.969082 
L 402.750651 214.053439 
L 404.492462 213.834359 
L 406.234273 213.779902 
L 407.976083 214.083352 
L 413.201515 213.925242 
L 413.201515 213.925242 
" clip-path="url(#pd1e61c81af)" style="fill: none; stroke: #de8787; stroke-width: 2; stroke-linecap: round"/>
   </g>
   <g id="line2d_31">
    <path d="M 87.973503 -1 
L 89.224725 57.089496 
L 90.966536 26.32795 
L 92.708346 46.661563 
L 93.499299 -1 
M 95.208485 -1 
L 96.191968 73.309212 
L 97.441848 -1 
M 98.270264 -1 
L 99.675589 121.148569 
L 101.4174 140.170338 
L 102.881375 -1 
M 104.4276 -1 
L 104.901021 8.999831 
L 106.642832 21.499868 
L 108.384643 97.126267 
L 110.126453 101.44875 
L 111.868264 61.628641 
L 112.489672 -1 
M 114.432181 -1 
L 115.351885 125.325275 
L 117.093696 106.873996 
L 118.835507 92.771695 
L 120.577317 137.080589 
L 122.319128 145.96597 
L 124.060939 125.900557 
L 125.80275 171.694532 
L 127.54456 122.424841 
L 129.286371 113.00014 
L 131.028182 156.18411 
L 132.769992 159.061869 
L 133.437452 -1 
M 135.565309 -1 
L 136.253614 167.326548 
L 137.995424 152.143118 
L 139.737235 73.113327 
L 141.479046 141.943068 
L 143.220857 162.580848 
L 144.687778 -1 
M 145.506216 -1 
L 146.704478 66.57648 
L 148.446289 136.863224 
L 150.188099 94.990942 
L 151.373057 -1 
M 152.359722 -1 
L 153.671721 136.696575 
L 154.621244 -1 
M 156.136584 -1 
L 157.155342 160.883277 
L 158.897153 181.123549 
L 160.638964 83.581872 
L 162.380774 84.550994 
L 164.122585 183.86484 
L 165.864396 143.245172 
L 167.606206 175.260109 
L 169.348017 170.80542 
L 171.089828 152.508397 
L 172.831639 167.659045 
L 174.573449 153.225776 
L 176.31526 94.356696 
L 178.057071 190.940364 
L 179.798881 173.028767 
L 181.540692 198.954122 
L 183.282503 172.385937 
L 185.024313 182.2247 
L 186.766124 174.314738 
L 188.507935 185.184728 
L 190.249746 189.925622 
L 191.991556 196.745078 
L 193.733367 183.334244 
L 195.475178 166.879916 
L 197.216988 194.683796 
L 198.958799 198.84399 
L 200.70061 190.388837 
L 202.44242 145.014989 
L 204.184231 201.701687 
L 205.926042 180.669028 
L 207.667853 204.134887 
L 209.409663 205.394401 
L 211.151474 199.279055 
L 212.893285 200.442254 
L 214.635095 165.987133 
L 216.376906 195.471675 
L 218.118717 189.117153 
L 219.860527 203.195227 
L 221.602338 203.051596 
L 223.344149 205.015138 
L 225.08596 204.729759 
L 226.82777 180.940786 
L 228.569581 204.319385 
L 230.311392 183.61527 
L 232.053202 205.336564 
L 233.795013 205.400201 
L 235.536824 194.832348 
L 237.278635 206.86703 
L 239.020445 204.109524 
L 240.762256 204.112702 
L 242.504067 201.762135 
L 244.245877 204.305711 
L 245.987688 204.2229 
L 247.729499 201.773145 
L 249.471309 201.508987 
L 251.21312 206.78334 
L 252.954931 204.130886 
L 254.696742 196.790263 
L 256.438552 192.574224 
L 258.180363 208.767236 
L 259.922174 209.438992 
L 261.663984 202.200606 
L 263.405795 206.502494 
L 265.147606 207.687668 
L 268.631227 207.776987 
L 270.373038 207.093098 
L 272.114849 208.885942 
L 273.856659 201.923115 
L 275.59847 208.77063 
L 277.340281 209.067425 
L 279.082091 208.547346 
L 280.823902 201.197326 
L 282.565713 209.125061 
L 284.307523 208.8111 
L 286.049334 208.078267 
L 287.791145 209.30207 
L 289.532956 209.524754 
L 291.274766 205.700018 
L 293.016577 206.865018 
L 294.758388 208.261101 
L 296.500198 203.373952 
L 298.242009 209.421918 
L 299.98382 209.541711 
L 301.72563 209.172636 
L 303.467441 206.587867 
L 305.209252 209.68996 
L 306.951063 209.634275 
L 308.692873 209.332314 
L 310.434684 209.641493 
L 312.176495 207.875859 
L 313.918305 209.751375 
L 315.660116 209.429124 
L 317.401927 210.410824 
L 319.143738 210.179531 
L 320.885548 209.670782 
L 322.627359 210.103416 
L 324.36917 210.278891 
L 326.11098 207.896495 
L 327.852791 209.844018 
L 329.594602 208.104438 
L 331.336412 209.954083 
L 333.078223 210.255322 
L 334.820034 210.121907 
L 336.561845 208.918441 
L 338.303655 209.895562 
L 340.045466 209.677918 
L 341.787277 210.476792 
L 345.270898 210.428116 
L 347.012709 208.208276 
L 348.754519 210.867459 
L 350.49633 210.208748 
L 352.238141 210.526917 
L 353.979952 210.539418 
L 355.721762 210.333709 
L 357.463573 210.446122 
L 359.205384 210.30154 
L 360.947194 209.828706 
L 362.689005 210.374926 
L 364.430816 209.996937 
L 366.172626 209.930242 
L 367.914437 210.546522 
L 371.398059 210.689752 
L 374.88168 210.436747 
L 376.623491 210.673377 
L 378.365301 210.665289 
L 380.107112 210.367972 
L 381.848923 210.590179 
L 383.590733 209.985622 
L 385.332544 210.343356 
L 388.816166 210.633209 
L 390.557976 210.69689 
L 395.783408 210.50152 
L 397.525219 210.647808 
L 399.26703 210.573582 
L 402.750651 210.64376 
L 406.234273 210.299985 
L 407.976083 210.674672 
L 413.201515 210.536915 
L 413.201515 210.536915 
" clip-path="url(#pd1e61c81af)" style="fill: none; stroke: #ffd42a; stroke-width: 2; stroke-linecap: round"/>
   </g>
   <g id="patch_3">
    <path d="M 64.839375 242.129712 
L 64.839375 7.2 
" style="fill: none; stroke: #262626; stroke-width: 1.25; stroke-linejoin: miter; stroke-linecap: square"/>
   </g>
   <g id="patch_4">
    <path d="M 64.839375 242.129712 
L 416.685137 242.129712 
" style="fill: none; stroke: #262626; stroke-width: 1.25; stroke-linejoin: miter; stroke-linecap: square"/>
   </g>
   <g id="legend_1">
    <g id="patch_5">
     <path d="M 310.627637 69.64125 
L 408.285137 69.64125 
Q 410.685137 69.64125 410.685137 67.24125 
L 410.685137 15.6 
Q 410.685137 13.2 408.285137 13.2 
L 310.627637 13.2 
Q 308.227637 13.2 308.227637 15.6 
L 308.227637 67.24125 
Q 308.227637 69.64125 310.627637 69.64125 
z
" style="fill: #ffffff; opacity: 0.8; stroke: #cccccc; stroke-linejoin: miter"/>
    </g>
    <g id="line2d_32">
     <path d="M 313.027637 22.918125 
L 325.027637 22.918125 
L 337.027637 22.918125 
" style="fill: none; stroke: #5fbcd3; stroke-width: 2; stroke-linecap: round"/>
    </g>
    <g id="text_17">
     <!-- Train -->
     <g style="fill: #262626" transform="translate(346.627637 27.118125)scale(0.12 -0.12)">
      <defs>
       <path id="DejaVuSans-54" d="M -19 4666 
L 3928 4666 
L 3928 4134 
L 2272 4134 
L 2272 0 
L 1638 0 
L 1638 4134 
L -19 4134 
L -19 4666 
z
" transform="scale(0.015625)"/>
       <path id="DejaVuSans-72" d="M 2631 2963 
Q 2534 3019 2420 3045 
Q 2306 3072 2169 3072 
Q 1681 3072 1420 2755 
Q 1159 2438 1159 1844 
L 1159 0 
L 581 0 
L 581 3500 
L 1159 3500 
L 1159 2956 
Q 1341 3275 1631 3429 
Q 1922 3584 2338 3584 
Q 2397 3584 2469 3576 
Q 2541 3569 2628 3553 
L 2631 2963 
z
" transform="scale(0.015625)"/>
       <path id="DejaVuSans-61" d="M 2194 1759 
Q 1497 1759 1228 1600 
Q 959 1441 959 1056 
Q 959 750 1161 570 
Q 1363 391 1709 391 
Q 2188 391 2477 730 
Q 2766 1069 2766 1631 
L 2766 1759 
L 2194 1759 
z
M 3341 1997 
L 3341 0 
L 2766 0 
L 2766 531 
Q 2569 213 2275 61 
Q 1981 -91 1556 -91 
Q 1019 -91 701 211 
Q 384 513 384 1019 
Q 384 1609 779 1909 
Q 1175 2209 1959 2209 
L 2766 2209 
L 2766 2266 
Q 2766 2663 2505 2880 
Q 2244 3097 1772 3097 
Q 1472 3097 1187 3025 
Q 903 2953 641 2809 
L 641 3341 
Q 956 3463 1253 3523 
Q 1550 3584 1831 3584 
Q 2591 3584 2966 3190 
Q 3341 2797 3341 1997 
z
" transform="scale(0.015625)"/>
       <path id="DejaVuSans-69" d="M 603 3500 
L 1178 3500 
L 1178 0 
L 603 0 
L 603 3500 
z
M 603 4863 
L 1178 4863 
L 1178 4134 
L 603 4134 
L 603 4863 
z
" transform="scale(0.015625)"/>
       <path id="DejaVuSans-6e" d="M 3513 2113 
L 3513 0 
L 2938 0 
L 2938 2094 
Q 2938 2591 2744 2837 
Q 2550 3084 2163 3084 
Q 1697 3084 1428 2787 
Q 1159 2491 1159 1978 
L 1159 0 
L 581 0 
L 581 3500 
L 1159 3500 
L 1159 2956 
Q 1366 3272 1645 3428 
Q 1925 3584 2291 3584 
Q 2894 3584 3203 3211 
Q 3513 2838 3513 2113 
z
" transform="scale(0.015625)"/>
      </defs>
      <use xlink:href="#DejaVuSans-54"/>
      <use xlink:href="#DejaVuSans-72" x="46.333984"/>
      <use xlink:href="#DejaVuSans-61" x="87.447266"/>
      <use xlink:href="#DejaVuSans-69" x="148.726562"/>
      <use xlink:href="#DejaVuSans-6e" x="176.509766"/>
     </g>
    </g>
    <g id="line2d_33">
     <path d="M 313.027637 40.531875 
L 325.027637 40.531875 
L 337.027637 40.531875 
" style="fill: none; stroke: #de8787; stroke-width: 2; stroke-linecap: round"/>
    </g>
    <g id="text_18">
     <!-- Validation -->
     <g style="fill: #262626" transform="translate(346.627637 44.731875)scale(0.12 -0.12)">
      <defs>
       <path id="DejaVuSans-6c" d="M 603 4863 
L 1178 4863 
L 1178 0 
L 603 0 
L 603 4863 
z
" transform="scale(0.015625)"/>
       <path id="DejaVuSans-64" d="M 2906 2969 
L 2906 4863 
L 3481 4863 
L 3481 0 
L 2906 0 
L 2906 525 
Q 2725 213 2448 61 
Q 2172 -91 1784 -91 
Q 1150 -91 751 415 
Q 353 922 353 1747 
Q 353 2572 751 3078 
Q 1150 3584 1784 3584 
Q 2172 3584 2448 3432 
Q 2725 3281 2906 2969 
z
M 947 1747 
Q 947 1113 1208 752 
Q 1469 391 1925 391 
Q 2381 391 2643 752 
Q 2906 1113 2906 1747 
Q 2906 2381 2643 2742 
Q 2381 3103 1925 3103 
Q 1469 3103 1208 2742 
Q 947 2381 947 1747 
z
" transform="scale(0.015625)"/>
       <path id="DejaVuSans-74" d="M 1172 4494 
L 1172 3500 
L 2356 3500 
L 2356 3053 
L 1172 3053 
L 1172 1153 
Q 1172 725 1289 603 
Q 1406 481 1766 481 
L 2356 481 
L 2356 0 
L 1766 0 
Q 1100 0 847 248 
Q 594 497 594 1153 
L 594 3053 
L 172 3053 
L 172 3500 
L 594 3500 
L 594 4494 
L 1172 4494 
z
" transform="scale(0.015625)"/>
      </defs>
      <use xlink:href="#DejaVuSans-56"/>
      <use xlink:href="#DejaVuSans-61" x="60.658203"/>
      <use xlink:href="#DejaVuSans-6c" x="121.9375"/>
      <use xlink:href="#DejaVuSans-69" x="149.720703"/>
      <use xlink:href="#DejaVuSans-64" x="177.503906"/>
      <use xlink:href="#DejaVuSans-61" x="240.980469"/>
      <use xlink:href="#DejaVuSans-74" x="302.259766"/>
      <use xlink:href="#DejaVuSans-69" x="341.46875"/>
      <use xlink:href="#DejaVuSans-6f" x="369.251953"/>
      <use xlink:href="#DejaVuSans-6e" x="430.433594"/>
     </g>
    </g>
    <g id="line2d_34">
     <path d="M 313.027637 58.145625 
L 325.027637 58.145625 
L 337.027637 58.145625 
" style="fill: none; stroke: #ffd42a; stroke-width: 2; stroke-linecap: round"/>
    </g>
    <g id="text_19">
     <!-- Test -->
     <g style="fill: #262626" transform="translate(346.627637 62.345625)scale(0.12 -0.12)">
      <defs>
       <path id="DejaVuSans-73" d="M 2834 3397 
L 2834 2853 
Q 2591 2978 2328 3040 
Q 2066 3103 1784 3103 
Q 1356 3103 1142 2972 
Q 928 2841 928 2578 
Q 928 2378 1081 2264 
Q 1234 2150 1697 2047 
L 1894 2003 
Q 2506 1872 2764 1633 
Q 3022 1394 3022 966 
Q 3022 478 2636 193 
Q 2250 -91 1575 -91 
Q 1294 -91 989 -36 
Q 684 19 347 128 
L 347 722 
Q 666 556 975 473 
Q 1284 391 1588 391 
Q 1994 391 2212 530 
Q 2431 669 2431 922 
Q 2431 1156 2273 1281 
Q 2116 1406 1581 1522 
L 1381 1569 
Q 847 1681 609 1914 
Q 372 2147 372 2553 
Q 372 3047 722 3315 
Q 1072 3584 1716 3584 
Q 2034 3584 2315 3537 
Q 2597 3491 2834 3397 
z
" transform="scale(0.015625)"/>
      </defs>
      <use xlink:href="#DejaVuSans-54"/>
      <use xlink:href="#DejaVuSans-65" x="44.083984"/>
      <use xlink:href="#DejaVuSans-73" x="105.607422"/>
      <use xlink:href="#DejaVuSans-74" x="157.707031"/>
     </g>
    </g>
   </g>
  </g>
 </g>
 <defs>
  <clipPath id="pd1e61c81af">
   <rect x="64.839375" y="7.2" width="351.845762" height="234.929712"/>
  </clipPath>
 </defs>
</svg>
