<?xml version="1.0" encoding="utf-8" standalone="no"?>
<!DOCTYPE svg PUBLIC "-//W3C//DTD SVG 1.1//EN"
  "http://www.w3.org/Graphics/SVG/1.1/DTD/svg11.dtd">
<svg xmlns:xlink="http://www.w3.org/1999/xlink" width="288pt" height="288pt" viewBox="0 0 288 288" xmlns="http://www.w3.org/2000/svg" version="1.1">
 <metadata>
  <rdf:RDF xmlns:dc="http://purl.org/dc/elements/1.1/" xmlns:cc="http://creativecommons.org/ns#" xmlns:rdf="http://www.w3.org/1999/02/22-rdf-syntax-ns#">
   <cc:Work>
    <dc:type rdf:resource="http://purl.org/dc/dcmitype/StillImage"/>
    <dc:date>2022-09-21T17:34:13.216431</dc:date>
    <dc:format>image/svg+xml</dc:format>
    <dc:creator>
     <cc:Agent>
      <dc:title>Matplotlib v3.5.1, https://matplotlib.org/</dc:title>
     </cc:Agent>
    </dc:creator>
   </cc:Work>
  </rdf:RDF>
 </metadata>
 <defs>
  <style type="text/css">*{stroke-linejoin: round; stroke-linecap: butt}</style>
 </defs>
 <g id="figure_1">
  <g id="patch_1">
   <path d="M 0 288 
L 288 288 
L 288 0 
L 0 0 
z
" style="fill: #ffffff"/>
  </g>
  <g id="axes_1">
   <g id="patch_2">
    <path d="M 36 256.32 
L 259.2 256.32 
L 259.2 34.56 
L 36 34.56 
z
" style="fill: #ffffff"/>
   </g>
   <g id="matplotlib.axis_1">
    <g id="xtick_1"/>
    <g id="xtick_2"/>
    <g id="xtick_3"/>
    <g id="xtick_4"/>
    <g id="xtick_5"/>
   </g>
   <g id="matplotlib.axis_2">
    <g id="ytick_1"/>
    <g id="ytick_2"/>
    <g id="ytick_3"/>
    <g id="ytick_4"/>
    <g id="ytick_5"/>
    <g id="ytick_6"/>
    <g id="ytick_7"/>
    <g id="ytick_8"/>
    <g id="ytick_9"/>
   </g>
   <g id="LineCollection_1">
    <path d="M 196.235699 87.806554 
L 177.841103 105.120228 
" clip-path="url(#p9a57e18358)" style="fill: none; stroke: #1a1a1a; stroke-opacity: 0.9; stroke-width: 1.2"/>
    <path d="M 196.235699 87.806554 
L 194.795227 56.972021 
" clip-path="url(#p9a57e18358)" style="fill: none; stroke: #1a1a1a; stroke-opacity: 0.9; stroke-width: 1.2"/>
    <path d="M 196.235699 87.806554 
L 156.603851 114.146874 
" clip-path="url(#p9a57e18358)" style="fill: none; stroke: #1a1a1a; stroke-opacity: 0.9; stroke-width: 1.2"/>
    <path d="M 196.235699 87.806554 
L 207.56008 126.841028 
" clip-path="url(#p9a57e18358)" style="fill: none; stroke: #1a1a1a; stroke-opacity: 0.9; stroke-width: 1.2"/>
    <path d="M 177.841103 105.120228 
L 194.795227 56.972021 
" clip-path="url(#p9a57e18358)" style="fill: none; stroke: #1a1a1a; stroke-opacity: 0.9; stroke-width: 1.2"/>
    <path d="M 177.841103 105.120228 
L 177.086377 154.339657 
" clip-path="url(#p9a57e18358)" style="fill: none; stroke: #1a1a1a; stroke-opacity: 0.9; stroke-width: 1.2"/>
    <path d="M 177.841103 105.120228 
L 135.769328 110.476659 
" clip-path="url(#p9a57e18358)" style="fill: none; stroke: #1a1a1a; stroke-opacity: 0.9; stroke-width: 1.2"/>
    <path d="M 177.841103 105.120228 
L 156.603851 114.146874 
" clip-path="url(#p9a57e18358)" style="fill: none; stroke: #1a1a1a; stroke-opacity: 0.9; stroke-width: 1.2"/>
    <path d="M 177.841103 105.120228 
L 207.56008 126.841028 
" clip-path="url(#p9a57e18358)" style="fill: none; stroke: #1a1a1a; stroke-opacity: 0.9; stroke-width: 1.2"/>
    <path d="M 177.086377 154.339657 
L 204.185304 163.014299 
" clip-path="url(#p9a57e18358)" style="fill: none; stroke: #1a1a1a; stroke-opacity: 0.9; stroke-width: 1.2"/>
    <path d="M 177.086377 154.339657 
L 200.991799 194.889342 
" clip-path="url(#p9a57e18358)" style="fill: none; stroke: #1a1a1a; stroke-opacity: 0.9; stroke-width: 1.2"/>
    <path d="M 177.086377 154.339657 
L 142.804729 188.973393 
" clip-path="url(#p9a57e18358)" style="fill: none; stroke: #1a1a1a; stroke-opacity: 0.9; stroke-width: 1.2"/>
    <path d="M 177.086377 154.339657 
L 156.603851 114.146874 
" clip-path="url(#p9a57e18358)" style="fill: none; stroke: #1a1a1a; stroke-opacity: 0.9; stroke-width: 1.2"/>
    <path d="M 177.086377 154.339657 
L 154.580851 155.274204 
" clip-path="url(#p9a57e18358)" style="fill: none; stroke: #1a1a1a; stroke-opacity: 0.9; stroke-width: 1.2"/>
    <path d="M 177.086377 154.339657 
L 207.56008 126.841028 
" clip-path="url(#p9a57e18358)" style="fill: none; stroke: #1a1a1a; stroke-opacity: 0.9; stroke-width: 1.2"/>
    <path d="M 204.185304 163.014299 
L 200.991799 194.889342 
" clip-path="url(#p9a57e18358)" style="fill: none; stroke: #1a1a1a; stroke-opacity: 0.9; stroke-width: 1.2"/>
    <path d="M 204.185304 163.014299 
L 154.580851 155.274204 
" clip-path="url(#p9a57e18358)" style="fill: none; stroke: #1a1a1a; stroke-opacity: 0.9; stroke-width: 1.2"/>
    <path d="M 204.185304 163.014299 
L 207.56008 126.841028 
" clip-path="url(#p9a57e18358)" style="fill: none; stroke: #1a1a1a; stroke-opacity: 0.9; stroke-width: 1.2"/>
    <path d="M 204.185304 163.014299 
L 239.831405 140.053035 
" clip-path="url(#p9a57e18358)" style="fill: none; stroke: #1a1a1a; stroke-opacity: 0.9; stroke-width: 1.2"/>
    <path d="M 204.185304 163.014299 
L 238.217283 191.790228 
" clip-path="url(#p9a57e18358)" style="fill: none; stroke: #1a1a1a; stroke-opacity: 0.9; stroke-width: 1.2"/>
    <path d="M 78.527051 128.581037 
L 100.545762 134.597403 
" clip-path="url(#p9a57e18358)" style="fill: none; stroke: #1a1a1a; stroke-opacity: 0.9; stroke-width: 1.2"/>
    <path d="M 78.527051 128.581037 
L 55.368595 117.322568 
" clip-path="url(#p9a57e18358)" style="fill: none; stroke: #1a1a1a; stroke-opacity: 0.9; stroke-width: 1.2"/>
    <path d="M 78.527051 128.581037 
L 111.529156 96.863064 
" clip-path="url(#p9a57e18358)" style="fill: none; stroke: #1a1a1a; stroke-opacity: 0.9; stroke-width: 1.2"/>
    <path d="M 78.527051 128.581037 
L 93.367615 173.850086 
" clip-path="url(#p9a57e18358)" style="fill: none; stroke: #1a1a1a; stroke-opacity: 0.9; stroke-width: 1.2"/>
    <path d="M 100.545762 134.597403 
L 55.368595 117.322568 
" clip-path="url(#p9a57e18358)" style="fill: none; stroke: #1a1a1a; stroke-opacity: 0.9; stroke-width: 1.2"/>
    <path d="M 100.545762 134.597403 
L 135.769328 110.476659 
" clip-path="url(#p9a57e18358)" style="fill: none; stroke: #1a1a1a; stroke-opacity: 0.9; stroke-width: 1.2"/>
    <path d="M 100.545762 134.597403 
L 111.529156 96.863064 
" clip-path="url(#p9a57e18358)" style="fill: none; stroke: #1a1a1a; stroke-opacity: 0.9; stroke-width: 1.2"/>
    <path d="M 100.545762 134.597403 
L 118.211853 178.278889 
" clip-path="url(#p9a57e18358)" style="fill: none; stroke: #1a1a1a; stroke-opacity: 0.9; stroke-width: 1.2"/>
    <path d="M 100.545762 134.597403 
L 93.367615 173.850086 
" clip-path="url(#p9a57e18358)" style="fill: none; stroke: #1a1a1a; stroke-opacity: 0.9; stroke-width: 1.2"/>
    <path d="M 94.081012 53.803636 
L 111.529156 96.863064 
" clip-path="url(#p9a57e18358)" style="fill: none; stroke: #1a1a1a; stroke-opacity: 0.9; stroke-width: 1.2"/>
    <path d="M 94.081012 53.803636 
L 124.538237 63.15039 
" clip-path="url(#p9a57e18358)" style="fill: none; stroke: #1a1a1a; stroke-opacity: 0.9; stroke-width: 1.2"/>
    <path d="M 135.769328 110.476659 
L 111.529156 96.863064 
" clip-path="url(#p9a57e18358)" style="fill: none; stroke: #1a1a1a; stroke-opacity: 0.9; stroke-width: 1.2"/>
    <path d="M 135.769328 110.476659 
L 124.538237 63.15039 
" clip-path="url(#p9a57e18358)" style="fill: none; stroke: #1a1a1a; stroke-opacity: 0.9; stroke-width: 1.2"/>
    <path d="M 135.769328 110.476659 
L 156.603851 114.146874 
" clip-path="url(#p9a57e18358)" style="fill: none; stroke: #1a1a1a; stroke-opacity: 0.9; stroke-width: 1.2"/>
    <path d="M 135.769328 110.476659 
L 154.580851 155.274204 
" clip-path="url(#p9a57e18358)" style="fill: none; stroke: #1a1a1a; stroke-opacity: 0.9; stroke-width: 1.2"/>
    <path d="M 111.529156 96.863064 
L 124.538237 63.15039 
" clip-path="url(#p9a57e18358)" style="fill: none; stroke: #1a1a1a; stroke-opacity: 0.9; stroke-width: 1.2"/>
    <path d="M 111.529156 96.863064 
L 156.603851 114.146874 
" clip-path="url(#p9a57e18358)" style="fill: none; stroke: #1a1a1a; stroke-opacity: 0.9; stroke-width: 1.2"/>
    <path d="M 118.211853 178.278889 
L 93.367615 173.850086 
" clip-path="url(#p9a57e18358)" style="fill: none; stroke: #1a1a1a; stroke-opacity: 0.9; stroke-width: 1.2"/>
    <path d="M 118.211853 178.278889 
L 86.342799 210.27851 
" clip-path="url(#p9a57e18358)" style="fill: none; stroke: #1a1a1a; stroke-opacity: 0.9; stroke-width: 1.2"/>
    <path d="M 118.211853 178.278889 
L 142.804729 188.973393 
" clip-path="url(#p9a57e18358)" style="fill: none; stroke: #1a1a1a; stroke-opacity: 0.9; stroke-width: 1.2"/>
    <path d="M 118.211853 178.278889 
L 124.455395 222.229898 
" clip-path="url(#p9a57e18358)" style="fill: none; stroke: #1a1a1a; stroke-opacity: 0.9; stroke-width: 1.2"/>
    <path d="M 118.211853 178.278889 
L 154.580851 155.274204 
" clip-path="url(#p9a57e18358)" style="fill: none; stroke: #1a1a1a; stroke-opacity: 0.9; stroke-width: 1.2"/>
    <path d="M 57.870523 198.710125 
L 93.367615 173.850086 
" clip-path="url(#p9a57e18358)" style="fill: none; stroke: #1a1a1a; stroke-opacity: 0.9; stroke-width: 1.2"/>
    <path d="M 57.870523 198.710125 
L 86.342799 210.27851 
" clip-path="url(#p9a57e18358)" style="fill: none; stroke: #1a1a1a; stroke-opacity: 0.9; stroke-width: 1.2"/>
    <path d="M 93.367615 173.850086 
L 86.342799 210.27851 
" clip-path="url(#p9a57e18358)" style="fill: none; stroke: #1a1a1a; stroke-opacity: 0.9; stroke-width: 1.2"/>
    <path d="M 93.367615 173.850086 
L 142.804729 188.973393 
" clip-path="url(#p9a57e18358)" style="fill: none; stroke: #1a1a1a; stroke-opacity: 0.9; stroke-width: 1.2"/>
    <path d="M 142.804729 188.973393 
L 124.455395 222.229898 
" clip-path="url(#p9a57e18358)" style="fill: none; stroke: #1a1a1a; stroke-opacity: 0.9; stroke-width: 1.2"/>
    <path d="M 142.804729 188.973393 
L 154.580851 155.274204 
" clip-path="url(#p9a57e18358)" style="fill: none; stroke: #1a1a1a; stroke-opacity: 0.9; stroke-width: 1.2"/>
    <path d="M 142.804729 188.973393 
L 154.738373 237.076364 
" clip-path="url(#p9a57e18358)" style="fill: none; stroke: #1a1a1a; stroke-opacity: 0.9; stroke-width: 1.2"/>
    <path d="M 156.603851 114.146874 
L 154.580851 155.274204 
" clip-path="url(#p9a57e18358)" style="fill: none; stroke: #1a1a1a; stroke-opacity: 0.9; stroke-width: 1.2"/>
    <path d="M 207.56008 126.841028 
L 239.831405 140.053035 
" clip-path="url(#p9a57e18358)" style="fill: none; stroke: #1a1a1a; stroke-opacity: 0.9; stroke-width: 1.2"/>
   </g>
   <g id="PathCollection_1">
    <defs>
     <path id="C0_0_363beb6fa7" d="M 0 10 
C 2.652031 10 5.195799 8.946337 7.071068 7.071068 
C 8.946337 5.195799 10 2.652031 10 -0 
C 10 -2.652031 8.946337 -5.195799 7.071068 -7.071068 
C 5.195799 -8.946337 2.652031 -10 0 -10 
C -2.652031 -10 -5.195799 -8.946337 -7.071068 -7.071068 
C -8.946337 -5.195799 -10 -2.652031 -10 0 
C -10 2.652031 -8.946337 5.195799 -7.071068 7.071068 
C -5.195799 8.946337 -2.652031 10 0 10 
z
"/>
    </defs>
    <g clip-path="url(#p9a57e18358)">
     <use xlink:href="#C0_0_363beb6fa7" x="196.235699" y="87.806554" style="fill: #0a7d8c; fill-opacity: 0.9; stroke: #0a7d8c; stroke-opacity: 0.9"/>
    </g>
    <g clip-path="url(#p9a57e18358)">
     <use xlink:href="#C0_0_363beb6fa7" x="177.841103" y="105.120228" style="fill: #666666; fill-opacity: 0.9; stroke: #666666; stroke-opacity: 0.9"/>
    </g>
    <g clip-path="url(#p9a57e18358)">
     <use xlink:href="#C0_0_363beb6fa7" x="194.795227" y="56.972021" style="fill: #bfbfbf; fill-opacity: 0.9; stroke: #bfbfbf; stroke-opacity: 0.9"/>
    </g>
    <g clip-path="url(#p9a57e18358)">
     <use xlink:href="#C0_0_363beb6fa7" x="177.086377" y="154.339657" style="fill: #0a7d8c; fill-opacity: 0.9; stroke: #0a7d8c; stroke-opacity: 0.9"/>
    </g>
    <g clip-path="url(#p9a57e18358)">
     <use xlink:href="#C0_0_363beb6fa7" x="204.185304" y="163.014299" style="fill: #666666; fill-opacity: 0.9; stroke: #666666; stroke-opacity: 0.9"/>
    </g>
    <g clip-path="url(#p9a57e18358)">
     <use xlink:href="#C0_0_363beb6fa7" x="200.991799" y="194.889342" style="fill: #bfbfbf; fill-opacity: 0.9; stroke: #bfbfbf; stroke-opacity: 0.9"/>
    </g>
    <g clip-path="url(#p9a57e18358)">
     <use xlink:href="#C0_0_363beb6fa7" x="78.527051" y="128.581037" style="fill: #0a7d8c; fill-opacity: 0.9; stroke: #0a7d8c; stroke-opacity: 0.9"/>
    </g>
    <g clip-path="url(#p9a57e18358)">
     <use xlink:href="#C0_0_363beb6fa7" x="100.545762" y="134.597403" style="fill: #666666; fill-opacity: 0.9; stroke: #666666; stroke-opacity: 0.9"/>
    </g>
    <g clip-path="url(#p9a57e18358)">
     <use xlink:href="#C0_0_363beb6fa7" x="55.368595" y="117.322568" style="fill: #bfbfbf; fill-opacity: 0.9; stroke: #bfbfbf; stroke-opacity: 0.9"/>
    </g>
    <g clip-path="url(#p9a57e18358)">
     <use xlink:href="#C0_0_363beb6fa7" x="94.081012" y="53.803636" style="fill: #0a7d8c; fill-opacity: 0.9; stroke: #0a7d8c; stroke-opacity: 0.9"/>
    </g>
    <g clip-path="url(#p9a57e18358)">
     <use xlink:href="#C0_0_363beb6fa7" x="135.769328" y="110.476659" style="fill: #0a7d8c; fill-opacity: 0.9; stroke: #0a7d8c; stroke-opacity: 0.9"/>
    </g>
    <g clip-path="url(#p9a57e18358)">
     <use xlink:href="#C0_0_363beb6fa7" x="111.529156" y="96.863064" style="fill: #666666; fill-opacity: 0.9; stroke: #666666; stroke-opacity: 0.9"/>
    </g>
    <g clip-path="url(#p9a57e18358)">
     <use xlink:href="#C0_0_363beb6fa7" x="124.538237" y="63.15039" style="fill: #bfbfbf; fill-opacity: 0.9; stroke: #bfbfbf; stroke-opacity: 0.9"/>
    </g>
    <g clip-path="url(#p9a57e18358)">
     <use xlink:href="#C0_0_363beb6fa7" x="118.211853" y="178.278889" style="fill: #0a7d8c; fill-opacity: 0.9; stroke: #0a7d8c; stroke-opacity: 0.9"/>
    </g>
    <g clip-path="url(#p9a57e18358)">
     <use xlink:href="#C0_0_363beb6fa7" x="57.870523" y="198.710125" style="fill: #0a7d8c; fill-opacity: 0.9; stroke: #0a7d8c; stroke-opacity: 0.9"/>
    </g>
    <g clip-path="url(#p9a57e18358)">
     <use xlink:href="#C0_0_363beb6fa7" x="93.367615" y="173.850086" style="fill: #666666; fill-opacity: 0.9; stroke: #666666; stroke-opacity: 0.9"/>
    </g>
    <g clip-path="url(#p9a57e18358)">
     <use xlink:href="#C0_0_363beb6fa7" x="86.342799" y="210.27851" style="fill: #bfbfbf; fill-opacity: 0.9; stroke: #bfbfbf; stroke-opacity: 0.9"/>
    </g>
    <g clip-path="url(#p9a57e18358)">
     <use xlink:href="#C0_0_363beb6fa7" x="142.804729" y="188.973393" style="fill: #666666; fill-opacity: 0.9; stroke: #666666; stroke-opacity: 0.9"/>
    </g>
    <g clip-path="url(#p9a57e18358)">
     <use xlink:href="#C0_0_363beb6fa7" x="124.455395" y="222.229898" style="fill: #bfbfbf; fill-opacity: 0.9; stroke: #bfbfbf; stroke-opacity: 0.9"/>
    </g>
    <g clip-path="url(#p9a57e18358)">
     <use xlink:href="#C0_0_363beb6fa7" x="156.603851" y="114.146874" style="fill: #666666; fill-opacity: 0.9; stroke: #666666; stroke-opacity: 0.9"/>
    </g>
    <g clip-path="url(#p9a57e18358)">
     <use xlink:href="#C0_0_363beb6fa7" x="154.580851" y="155.274204" style="fill: #666666; fill-opacity: 0.9; stroke: #666666; stroke-opacity: 0.9"/>
    </g>
    <g clip-path="url(#p9a57e18358)">
     <use xlink:href="#C0_0_363beb6fa7" x="154.738373" y="237.076364" style="fill: #0a7d8c; fill-opacity: 0.9; stroke: #0a7d8c; stroke-opacity: 0.9"/>
    </g>
    <g clip-path="url(#p9a57e18358)">
     <use xlink:href="#C0_0_363beb6fa7" x="207.56008" y="126.841028" style="fill: #ff0d0d; fill-opacity: 0.9; stroke: #ff0d0d; stroke-opacity: 0.9"/>
    </g>
    <g clip-path="url(#p9a57e18358)">
     <use xlink:href="#C0_0_363beb6fa7" x="239.831405" y="140.053035" style="fill: #0a7d8c; fill-opacity: 0.9; stroke: #0a7d8c; stroke-opacity: 0.9"/>
    </g>
    <g clip-path="url(#p9a57e18358)">
     <use xlink:href="#C0_0_363beb6fa7" x="238.217283" y="191.790228" style="fill: #0a7d8c; fill-opacity: 0.9; stroke: #0a7d8c; stroke-opacity: 0.9"/>
    </g>
   </g>
   <g id="patch_3">
    <path d="M 36 256.32 
L 36 34.56 
" style="fill: none; stroke: #262626; stroke-width: 1.25; stroke-linejoin: miter; stroke-linecap: square"/>
   </g>
   <g id="patch_4">
    <path d="M 36 256.32 
L 259.2 256.32 
" style="fill: none; stroke: #262626; stroke-width: 1.25; stroke-linejoin: miter; stroke-linecap: square"/>
   </g>
   <g id="text_1">
    <g clip-path="url(#p9a57e18358)">
     <!-- Rh -->
     <g style="fill: #ffffff; opacity: 0.9" transform="translate(187.344449 91.117804)scale(0.12 -0.12)">
      <defs>
       <path id="DejaVuSans-Bold-52" d="M 2297 2597 
Q 2675 2597 2839 2737 
Q 3003 2878 3003 3200 
Q 3003 3519 2839 3656 
Q 2675 3794 2297 3794 
L 1791 3794 
L 1791 2597 
L 2297 2597 
z
M 1791 1766 
L 1791 0 
L 588 0 
L 588 4666 
L 2425 4666 
Q 3347 4666 3776 4356 
Q 4206 4047 4206 3378 
Q 4206 2916 3982 2619 
Q 3759 2322 3309 2181 
Q 3556 2125 3751 1926 
Q 3947 1728 4147 1325 
L 4800 0 
L 3519 0 
L 2950 1159 
Q 2778 1509 2601 1637 
Q 2425 1766 2131 1766 
L 1791 1766 
z
" transform="scale(0.015625)"/>
       <path id="DejaVuSans-Bold-68" d="M 4056 2131 
L 4056 0 
L 2931 0 
L 2931 347 
L 2931 1625 
Q 2931 2084 2911 2256 
Q 2891 2428 2841 2509 
Q 2775 2619 2662 2680 
Q 2550 2741 2406 2741 
Q 2056 2741 1856 2470 
Q 1656 2200 1656 1722 
L 1656 0 
L 538 0 
L 538 4863 
L 1656 4863 
L 1656 2988 
Q 1909 3294 2193 3439 
Q 2478 3584 2822 3584 
Q 3428 3584 3742 3212 
Q 4056 2841 4056 2131 
z
" transform="scale(0.015625)"/>
      </defs>
      <use xlink:href="#DejaVuSans-Bold-52"/>
      <use xlink:href="#DejaVuSans-Bold-68" x="77.001953"/>
     </g>
    </g>
   </g>
   <g id="text_2">
    <g clip-path="url(#p9a57e18358)">
     <!-- C -->
     <g style="fill: #ffffff; opacity: 0.9" transform="translate(173.437665 108.431478)scale(0.12 -0.12)">
      <defs>
       <path id="DejaVuSans-Bold-43" d="M 4288 256 
Q 3956 84 3597 -3 
Q 3238 -91 2847 -91 
Q 1681 -91 1000 561 
Q 319 1213 319 2328 
Q 319 3447 1000 4098 
Q 1681 4750 2847 4750 
Q 3238 4750 3597 4662 
Q 3956 4575 4288 4403 
L 4288 3438 
Q 3953 3666 3628 3772 
Q 3303 3878 2944 3878 
Q 2300 3878 1931 3465 
Q 1563 3053 1563 2328 
Q 1563 1606 1931 1193 
Q 2300 781 2944 781 
Q 3303 781 3628 887 
Q 3953 994 4288 1222 
L 4288 256 
z
" transform="scale(0.015625)"/>
      </defs>
      <use xlink:href="#DejaVuSans-Bold-43"/>
     </g>
    </g>
   </g>
   <g id="text_3">
    <g clip-path="url(#p9a57e18358)">
     <!-- H -->
     <g style="fill: #ffffff; opacity: 0.9" transform="translate(189.773977 60.283271)scale(0.12 -0.12)">
      <defs>
       <path id="DejaVuSans-Bold-48" d="M 588 4666 
L 1791 4666 
L 1791 2888 
L 3566 2888 
L 3566 4666 
L 4769 4666 
L 4769 0 
L 3566 0 
L 3566 1978 
L 1791 1978 
L 1791 0 
L 588 0 
L 588 4666 
z
" transform="scale(0.015625)"/>
      </defs>
      <use xlink:href="#DejaVuSans-Bold-48"/>
     </g>
    </g>
   </g>
   <g id="text_4">
    <g clip-path="url(#p9a57e18358)">
     <!-- Rh -->
     <g style="fill: #ffffff; opacity: 0.9" transform="translate(168.195127 157.650907)scale(0.12 -0.12)">
      <use xlink:href="#DejaVuSans-Bold-52"/>
      <use xlink:href="#DejaVuSans-Bold-68" x="77.001953"/>
     </g>
    </g>
   </g>
   <g id="text_5">
    <g clip-path="url(#p9a57e18358)">
     <!-- C -->
     <g style="fill: #ffffff; opacity: 0.9" transform="translate(199.781866 166.325549)scale(0.12 -0.12)">
      <use xlink:href="#DejaVuSans-Bold-43"/>
     </g>
    </g>
   </g>
   <g id="text_6">
    <g clip-path="url(#p9a57e18358)">
     <!-- H -->
     <g style="fill: #ffffff; opacity: 0.9" transform="translate(195.970549 198.200592)scale(0.12 -0.12)">
      <use xlink:href="#DejaVuSans-Bold-48"/>
     </g>
    </g>
   </g>
   <g id="text_7">
    <g clip-path="url(#p9a57e18358)">
     <!-- Rh -->
     <g style="fill: #ffffff; opacity: 0.9" transform="translate(69.635801 131.892287)scale(0.12 -0.12)">
      <use xlink:href="#DejaVuSans-Bold-52"/>
      <use xlink:href="#DejaVuSans-Bold-68" x="77.001953"/>
     </g>
    </g>
   </g>
   <g id="text_8">
    <g clip-path="url(#p9a57e18358)">
     <!-- C -->
     <g style="fill: #ffffff; opacity: 0.9" transform="translate(96.142325 137.908653)scale(0.12 -0.12)">
      <use xlink:href="#DejaVuSans-Bold-43"/>
     </g>
    </g>
   </g>
   <g id="text_9">
    <g clip-path="url(#p9a57e18358)">
     <!-- H -->
     <g style="fill: #ffffff; opacity: 0.9" transform="translate(50.347345 120.633818)scale(0.12 -0.12)">
      <use xlink:href="#DejaVuSans-Bold-48"/>
     </g>
    </g>
   </g>
   <g id="text_10">
    <g clip-path="url(#p9a57e18358)">
     <!-- Rh -->
     <g style="fill: #ffffff; opacity: 0.9" transform="translate(85.189762 57.114886)scale(0.12 -0.12)">
      <use xlink:href="#DejaVuSans-Bold-52"/>
      <use xlink:href="#DejaVuSans-Bold-68" x="77.001953"/>
     </g>
    </g>
   </g>
   <g id="text_11">
    <g clip-path="url(#p9a57e18358)">
     <!-- Rh -->
     <g style="fill: #ffffff; opacity: 0.9" transform="translate(126.878078 113.787909)scale(0.12 -0.12)">
      <use xlink:href="#DejaVuSans-Bold-52"/>
      <use xlink:href="#DejaVuSans-Bold-68" x="77.001953"/>
     </g>
    </g>
   </g>
   <g id="text_12">
    <g clip-path="url(#p9a57e18358)">
     <!-- C -->
     <g style="fill: #ffffff; opacity: 0.9" transform="translate(107.125718 100.174314)scale(0.12 -0.12)">
      <use xlink:href="#DejaVuSans-Bold-43"/>
     </g>
    </g>
   </g>
   <g id="text_13">
    <g clip-path="url(#p9a57e18358)">
     <!-- H -->
     <g style="fill: #ffffff; opacity: 0.9" transform="translate(119.516987 66.46164)scale(0.12 -0.12)">
      <use xlink:href="#DejaVuSans-Bold-48"/>
     </g>
    </g>
   </g>
   <g id="text_14">
    <g clip-path="url(#p9a57e18358)">
     <!-- Rh -->
     <g style="fill: #ffffff; opacity: 0.9" transform="translate(109.320603 181.590139)scale(0.12 -0.12)">
      <use xlink:href="#DejaVuSans-Bold-52"/>
      <use xlink:href="#DejaVuSans-Bold-68" x="77.001953"/>
     </g>
    </g>
   </g>
   <g id="text_15">
    <g clip-path="url(#p9a57e18358)">
     <!-- Rh -->
     <g style="fill: #ffffff; opacity: 0.9" transform="translate(48.979273 202.021375)scale(0.12 -0.12)">
      <use xlink:href="#DejaVuSans-Bold-52"/>
      <use xlink:href="#DejaVuSans-Bold-68" x="77.001953"/>
     </g>
    </g>
   </g>
   <g id="text_16">
    <g clip-path="url(#p9a57e18358)">
     <!-- C -->
     <g style="fill: #ffffff; opacity: 0.9" transform="translate(88.964178 177.161336)scale(0.12 -0.12)">
      <use xlink:href="#DejaVuSans-Bold-43"/>
     </g>
    </g>
   </g>
   <g id="text_17">
    <g clip-path="url(#p9a57e18358)">
     <!-- H -->
     <g style="fill: #ffffff; opacity: 0.9" transform="translate(81.321549 213.58976)scale(0.12 -0.12)">
      <use xlink:href="#DejaVuSans-Bold-48"/>
     </g>
    </g>
   </g>
   <g id="text_18">
    <g clip-path="url(#p9a57e18358)">
     <!-- C -->
     <g style="fill: #ffffff; opacity: 0.9" transform="translate(138.401291 192.284643)scale(0.12 -0.12)">
      <use xlink:href="#DejaVuSans-Bold-43"/>
     </g>
    </g>
   </g>
   <g id="text_19">
    <g clip-path="url(#p9a57e18358)">
     <!-- H -->
     <g style="fill: #ffffff; opacity: 0.9" transform="translate(119.434145 225.541148)scale(0.12 -0.12)">
      <use xlink:href="#DejaVuSans-Bold-48"/>
     </g>
    </g>
   </g>
   <g id="text_20">
    <g clip-path="url(#p9a57e18358)">
     <!-- C -->
     <g style="fill: #ffffff; opacity: 0.9" transform="translate(152.200414 117.458124)scale(0.12 -0.12)">
      <use xlink:href="#DejaVuSans-Bold-43"/>
     </g>
    </g>
   </g>
   <g id="text_21">
    <g clip-path="url(#p9a57e18358)">
     <!-- C -->
     <g style="fill: #ffffff; opacity: 0.9" transform="translate(150.177413 158.585454)scale(0.12 -0.12)">
      <use xlink:href="#DejaVuSans-Bold-43"/>
     </g>
    </g>
   </g>
   <g id="text_22">
    <g clip-path="url(#p9a57e18358)">
     <!-- Rh -->
     <g style="fill: #ffffff; opacity: 0.9" transform="translate(145.847123 240.387614)scale(0.12 -0.12)">
      <use xlink:href="#DejaVuSans-Bold-52"/>
      <use xlink:href="#DejaVuSans-Bold-68" x="77.001953"/>
     </g>
    </g>
   </g>
   <g id="text_23">
    <g clip-path="url(#p9a57e18358)">
     <!-- O -->
     <g style="fill: #ffffff; opacity: 0.9" transform="translate(202.459143 130.152278)scale(0.12 -0.12)">
      <defs>
       <path id="DejaVuSans-Bold-4f" d="M 2719 3878 
Q 2169 3878 1866 3472 
Q 1563 3066 1563 2328 
Q 1563 1594 1866 1187 
Q 2169 781 2719 781 
Q 3272 781 3575 1187 
Q 3878 1594 3878 2328 
Q 3878 3066 3575 3472 
Q 3272 3878 2719 3878 
z
M 2719 4750 
Q 3844 4750 4481 4106 
Q 5119 3463 5119 2328 
Q 5119 1197 4481 553 
Q 3844 -91 2719 -91 
Q 1597 -91 958 553 
Q 319 1197 319 2328 
Q 319 3463 958 4106 
Q 1597 4750 2719 4750 
z
" transform="scale(0.015625)"/>
      </defs>
      <use xlink:href="#DejaVuSans-Bold-4f"/>
     </g>
    </g>
   </g>
   <g id="text_24">
    <g clip-path="url(#p9a57e18358)">
     <!-- Rh -->
     <g style="fill: #ffffff; opacity: 0.9" transform="translate(230.940155 143.364285)scale(0.12 -0.12)">
      <use xlink:href="#DejaVuSans-Bold-52"/>
      <use xlink:href="#DejaVuSans-Bold-68" x="77.001953"/>
     </g>
    </g>
   </g>
   <g id="text_25">
    <g clip-path="url(#p9a57e18358)">
     <!-- Rh -->
     <g style="fill: #ffffff; opacity: 0.9" transform="translate(229.326033 195.101478)scale(0.12 -0.12)">
      <use xlink:href="#DejaVuSans-Bold-52"/>
      <use xlink:href="#DejaVuSans-Bold-68" x="77.001953"/>
     </g>
    </g>
   </g>
  </g>
 </g>
 <defs>
  <clipPath id="p9a57e18358">
   <rect x="36" y="34.56" width="223.2" height="221.76"/>
  </clipPath>
 </defs>
</svg>
