<?xml version="1.0" encoding="utf-8" standalone="no"?>
<!DOCTYPE svg PUBLIC "-//W3C//DTD SVG 1.1//EN"
  "http://www.w3.org/Graphics/SVG/1.1/DTD/svg11.dtd">
<svg xmlns:xlink="http://www.w3.org/1999/xlink" width="288pt" height="288pt" viewBox="0 0 288 288" xmlns="http://www.w3.org/2000/svg" version="1.1">
 <metadata>
  <rdf:RDF xmlns:dc="http://purl.org/dc/elements/1.1/" xmlns:cc="http://creativecommons.org/ns#" xmlns:rdf="http://www.w3.org/1999/02/22-rdf-syntax-ns#">
   <cc:Work>
    <dc:type rdf:resource="http://purl.org/dc/dcmitype/StillImage"/>
    <dc:date>2022-09-21T17:34:13.057617</dc:date>
    <dc:format>image/svg+xml</dc:format>
    <dc:creator>
     <cc:Agent>
      <dc:title>Matplotlib v3.5.1, https://matplotlib.org/</dc:title>
     </cc:Agent>
    </dc:creator>
   </cc:Work>
  </rdf:RDF>
 </metadata>
 <defs>
  <style type="text/css">*{stroke-linejoin: round; stroke-linecap: butt}</style>
 </defs>
 <g id="figure_1">
  <g id="patch_1">
   <path d="M 0 288 
L 288 288 
L 288 0 
L 0 0 
z
" style="fill: #ffffff"/>
  </g>
  <g id="axes_1">
   <g id="patch_2">
    <path d="M 36 256.32 
L 259.2 256.32 
L 259.2 34.56 
L 36 34.56 
z
" style="fill: #ffffff"/>
   </g>
   <g id="matplotlib.axis_1">
    <g id="xtick_1"/>
    <g id="xtick_2"/>
    <g id="xtick_3"/>
    <g id="xtick_4"/>
    <g id="xtick_5"/>
   </g>
   <g id="matplotlib.axis_2">
    <g id="ytick_1"/>
    <g id="ytick_2"/>
    <g id="ytick_3"/>
    <g id="ytick_4"/>
    <g id="ytick_5"/>
    <g id="ytick_6"/>
    <g id="ytick_7"/>
    <g id="ytick_8"/>
   </g>
   <g id="LineCollection_1">
    <path d="M 214.627724 213.367617 
L 224.739477 173.04142 
" clip-path="url(#p6fba5e5a6c)" style="fill: none; stroke: #1a1a1a; stroke-opacity: 0.9; stroke-width: 1.2"/>
    <path d="M 214.627724 213.367617 
L 181.924266 194.24545 
" clip-path="url(#p6fba5e5a6c)" style="fill: none; stroke: #1a1a1a; stroke-opacity: 0.9; stroke-width: 1.2"/>
    <path d="M 203.427427 131.897169 
L 199.628533 164.141987 
" clip-path="url(#p6fba5e5a6c)" style="fill: none; stroke: #1a1a1a; stroke-opacity: 0.9; stroke-width: 1.2"/>
    <path d="M 203.427427 131.897169 
L 224.739477 173.04142 
" clip-path="url(#p6fba5e5a6c)" style="fill: none; stroke: #1a1a1a; stroke-opacity: 0.9; stroke-width: 1.2"/>
    <path d="M 203.427427 131.897169 
L 181.075363 130.978701 
" clip-path="url(#p6fba5e5a6c)" style="fill: none; stroke: #1a1a1a; stroke-opacity: 0.9; stroke-width: 1.2"/>
    <path d="M 203.427427 131.897169 
L 208.203041 99.065182 
" clip-path="url(#p6fba5e5a6c)" style="fill: none; stroke: #1a1a1a; stroke-opacity: 0.9; stroke-width: 1.2"/>
    <path d="M 203.427427 131.897169 
L 161.576303 133.218437 
" clip-path="url(#p6fba5e5a6c)" style="fill: none; stroke: #1a1a1a; stroke-opacity: 0.9; stroke-width: 1.2"/>
    <path d="M 199.628533 164.141987 
L 224.739477 173.04142 
" clip-path="url(#p6fba5e5a6c)" style="fill: none; stroke: #1a1a1a; stroke-opacity: 0.9; stroke-width: 1.2"/>
    <path d="M 199.628533 164.141987 
L 239.831405 154.010814 
" clip-path="url(#p6fba5e5a6c)" style="fill: none; stroke: #1a1a1a; stroke-opacity: 0.9; stroke-width: 1.2"/>
    <path d="M 199.628533 164.141987 
L 166.257231 174.520478 
" clip-path="url(#p6fba5e5a6c)" style="fill: none; stroke: #1a1a1a; stroke-opacity: 0.9; stroke-width: 1.2"/>
    <path d="M 199.628533 164.141987 
L 181.924266 194.24545 
" clip-path="url(#p6fba5e5a6c)" style="fill: none; stroke: #1a1a1a; stroke-opacity: 0.9; stroke-width: 1.2"/>
    <path d="M 199.628533 164.141987 
L 181.075363 130.978701 
" clip-path="url(#p6fba5e5a6c)" style="fill: none; stroke: #1a1a1a; stroke-opacity: 0.9; stroke-width: 1.2"/>
    <path d="M 93.481169 111.650626 
L 109.330938 126.021465 
" clip-path="url(#p6fba5e5a6c)" style="fill: none; stroke: #1a1a1a; stroke-opacity: 0.9; stroke-width: 1.2"/>
    <path d="M 93.481169 111.650626 
L 77.572614 92.212361 
" clip-path="url(#p6fba5e5a6c)" style="fill: none; stroke: #1a1a1a; stroke-opacity: 0.9; stroke-width: 1.2"/>
    <path d="M 93.481169 111.650626 
L 130.165738 98.486392 
" clip-path="url(#p6fba5e5a6c)" style="fill: none; stroke: #1a1a1a; stroke-opacity: 0.9; stroke-width: 1.2"/>
    <path d="M 93.481169 111.650626 
L 91.849039 156.793636 
" clip-path="url(#p6fba5e5a6c)" style="fill: none; stroke: #1a1a1a; stroke-opacity: 0.9; stroke-width: 1.2"/>
    <path d="M 109.330938 126.021465 
L 77.572614 92.212361 
" clip-path="url(#p6fba5e5a6c)" style="fill: none; stroke: #1a1a1a; stroke-opacity: 0.9; stroke-width: 1.2"/>
    <path d="M 109.330938 126.021465 
L 145.581284 119.229855 
" clip-path="url(#p6fba5e5a6c)" style="fill: none; stroke: #1a1a1a; stroke-opacity: 0.9; stroke-width: 1.2"/>
    <path d="M 109.330938 126.021465 
L 130.165738 98.486392 
" clip-path="url(#p6fba5e5a6c)" style="fill: none; stroke: #1a1a1a; stroke-opacity: 0.9; stroke-width: 1.2"/>
    <path d="M 109.330938 126.021465 
L 109.595229 171.501084 
" clip-path="url(#p6fba5e5a6c)" style="fill: none; stroke: #1a1a1a; stroke-opacity: 0.9; stroke-width: 1.2"/>
    <path d="M 109.330938 126.021465 
L 91.849039 156.793636 
" clip-path="url(#p6fba5e5a6c)" style="fill: none; stroke: #1a1a1a; stroke-opacity: 0.9; stroke-width: 1.2"/>
    <path d="M 127.914009 53.803636 
L 130.165738 98.486392 
" clip-path="url(#p6fba5e5a6c)" style="fill: none; stroke: #1a1a1a; stroke-opacity: 0.9; stroke-width: 1.2"/>
    <path d="M 127.914009 53.803636 
L 149.824747 73.553777 
" clip-path="url(#p6fba5e5a6c)" style="fill: none; stroke: #1a1a1a; stroke-opacity: 0.9; stroke-width: 1.2"/>
    <path d="M 145.581284 119.229855 
L 130.165738 98.486392 
" clip-path="url(#p6fba5e5a6c)" style="fill: none; stroke: #1a1a1a; stroke-opacity: 0.9; stroke-width: 1.2"/>
    <path d="M 145.581284 119.229855 
L 149.824747 73.553777 
" clip-path="url(#p6fba5e5a6c)" style="fill: none; stroke: #1a1a1a; stroke-opacity: 0.9; stroke-width: 1.2"/>
    <path d="M 145.581284 119.229855 
L 181.075363 130.978701 
" clip-path="url(#p6fba5e5a6c)" style="fill: none; stroke: #1a1a1a; stroke-opacity: 0.9; stroke-width: 1.2"/>
    <path d="M 145.581284 119.229855 
L 161.576303 133.218437 
" clip-path="url(#p6fba5e5a6c)" style="fill: none; stroke: #1a1a1a; stroke-opacity: 0.9; stroke-width: 1.2"/>
    <path d="M 145.581284 119.229855 
L 145.670403 165.595183 
" clip-path="url(#p6fba5e5a6c)" style="fill: none; stroke: #1a1a1a; stroke-opacity: 0.9; stroke-width: 1.2"/>
    <path d="M 130.165738 98.486392 
L 149.824747 73.553777 
" clip-path="url(#p6fba5e5a6c)" style="fill: none; stroke: #1a1a1a; stroke-opacity: 0.9; stroke-width: 1.2"/>
    <path d="M 130.165738 98.486392 
L 161.576303 133.218437 
" clip-path="url(#p6fba5e5a6c)" style="fill: none; stroke: #1a1a1a; stroke-opacity: 0.9; stroke-width: 1.2"/>
    <path d="M 55.368595 162.799938 
L 91.849039 156.793636 
" clip-path="url(#p6fba5e5a6c)" style="fill: none; stroke: #1a1a1a; stroke-opacity: 0.9; stroke-width: 1.2"/>
    <path d="M 55.368595 162.799938 
L 74.157282 185.429686 
" clip-path="url(#p6fba5e5a6c)" style="fill: none; stroke: #1a1a1a; stroke-opacity: 0.9; stroke-width: 1.2"/>
    <path d="M 109.595229 171.501084 
L 91.849039 156.793636 
" clip-path="url(#p6fba5e5a6c)" style="fill: none; stroke: #1a1a1a; stroke-opacity: 0.9; stroke-width: 1.2"/>
    <path d="M 109.595229 171.501084 
L 74.157282 185.429686 
" clip-path="url(#p6fba5e5a6c)" style="fill: none; stroke: #1a1a1a; stroke-opacity: 0.9; stroke-width: 1.2"/>
    <path d="M 109.595229 171.501084 
L 128.134451 190.411103 
" clip-path="url(#p6fba5e5a6c)" style="fill: none; stroke: #1a1a1a; stroke-opacity: 0.9; stroke-width: 1.2"/>
    <path d="M 109.595229 171.501084 
L 103.480308 212.042081 
" clip-path="url(#p6fba5e5a6c)" style="fill: none; stroke: #1a1a1a; stroke-opacity: 0.9; stroke-width: 1.2"/>
    <path d="M 109.595229 171.501084 
L 145.670403 165.595183 
" clip-path="url(#p6fba5e5a6c)" style="fill: none; stroke: #1a1a1a; stroke-opacity: 0.9; stroke-width: 1.2"/>
    <path d="M 91.849039 156.793636 
L 74.157282 185.429686 
" clip-path="url(#p6fba5e5a6c)" style="fill: none; stroke: #1a1a1a; stroke-opacity: 0.9; stroke-width: 1.2"/>
    <path d="M 91.849039 156.793636 
L 128.134451 190.411103 
" clip-path="url(#p6fba5e5a6c)" style="fill: none; stroke: #1a1a1a; stroke-opacity: 0.9; stroke-width: 1.2"/>
    <path d="M 128.134451 190.411103 
L 103.480308 212.042081 
" clip-path="url(#p6fba5e5a6c)" style="fill: none; stroke: #1a1a1a; stroke-opacity: 0.9; stroke-width: 1.2"/>
    <path d="M 128.134451 190.411103 
L 166.257231 174.520478 
" clip-path="url(#p6fba5e5a6c)" style="fill: none; stroke: #1a1a1a; stroke-opacity: 0.9; stroke-width: 1.2"/>
    <path d="M 128.134451 190.411103 
L 145.670403 165.595183 
" clip-path="url(#p6fba5e5a6c)" style="fill: none; stroke: #1a1a1a; stroke-opacity: 0.9; stroke-width: 1.2"/>
    <path d="M 128.134451 190.411103 
L 124.475819 237.076364 
" clip-path="url(#p6fba5e5a6c)" style="fill: none; stroke: #1a1a1a; stroke-opacity: 0.9; stroke-width: 1.2"/>
    <path d="M 166.257231 174.520478 
L 181.924266 194.24545 
" clip-path="url(#p6fba5e5a6c)" style="fill: none; stroke: #1a1a1a; stroke-opacity: 0.9; stroke-width: 1.2"/>
    <path d="M 166.257231 174.520478 
L 173.820259 222.520601 
" clip-path="url(#p6fba5e5a6c)" style="fill: none; stroke: #1a1a1a; stroke-opacity: 0.9; stroke-width: 1.2"/>
    <path d="M 166.257231 174.520478 
L 181.075363 130.978701 
" clip-path="url(#p6fba5e5a6c)" style="fill: none; stroke: #1a1a1a; stroke-opacity: 0.9; stroke-width: 1.2"/>
    <path d="M 166.257231 174.520478 
L 161.576303 133.218437 
" clip-path="url(#p6fba5e5a6c)" style="fill: none; stroke: #1a1a1a; stroke-opacity: 0.9; stroke-width: 1.2"/>
    <path d="M 166.257231 174.520478 
L 145.670403 165.595183 
" clip-path="url(#p6fba5e5a6c)" style="fill: none; stroke: #1a1a1a; stroke-opacity: 0.9; stroke-width: 1.2"/>
    <path d="M 181.924266 194.24545 
L 173.820259 222.520601 
" clip-path="url(#p6fba5e5a6c)" style="fill: none; stroke: #1a1a1a; stroke-opacity: 0.9; stroke-width: 1.2"/>
    <path d="M 181.924266 194.24545 
L 145.670403 165.595183 
" clip-path="url(#p6fba5e5a6c)" style="fill: none; stroke: #1a1a1a; stroke-opacity: 0.9; stroke-width: 1.2"/>
    <path d="M 181.075363 130.978701 
L 208.203041 99.065182 
" clip-path="url(#p6fba5e5a6c)" style="fill: none; stroke: #1a1a1a; stroke-opacity: 0.9; stroke-width: 1.2"/>
    <path d="M 181.075363 130.978701 
L 161.576303 133.218437 
" clip-path="url(#p6fba5e5a6c)" style="fill: none; stroke: #1a1a1a; stroke-opacity: 0.9; stroke-width: 1.2"/>
    <path d="M 161.576303 133.218437 
L 145.670403 165.595183 
" clip-path="url(#p6fba5e5a6c)" style="fill: none; stroke: #1a1a1a; stroke-opacity: 0.9; stroke-width: 1.2"/>
   </g>
   <g id="PathCollection_1">
    <defs>
     <path id="C0_0_f08f6add37" d="M 0 10 
C 2.652031 10 5.195799 8.946337 7.071068 7.071068 
C 8.946337 5.195799 10 2.652031 10 -0 
C 10 -2.652031 8.946337 -5.195799 7.071068 -7.071068 
C 5.195799 -8.946337 2.652031 -10 0 -10 
C -2.652031 -10 -5.195799 -8.946337 -7.071068 -7.071068 
C -8.946337 -5.195799 -10 -2.652031 -10 0 
C -10 2.652031 -8.946337 5.195799 -7.071068 7.071068 
C -5.195799 8.946337 -2.652031 10 0 10 
z
"/>
    </defs>
    <g clip-path="url(#p6fba5e5a6c)">
     <use xlink:href="#C0_0_f08f6add37" x="214.627724" y="213.367617" style="fill: #006985; fill-opacity: 0.9; stroke: #006985; stroke-opacity: 0.9"/>
    </g>
    <g clip-path="url(#p6fba5e5a6c)">
     <use xlink:href="#C0_0_f08f6add37" x="203.427427" y="131.897169" style="fill: #006985; fill-opacity: 0.9; stroke: #006985; stroke-opacity: 0.9"/>
    </g>
    <g clip-path="url(#p6fba5e5a6c)">
     <use xlink:href="#C0_0_f08f6add37" x="199.628533" y="164.141987" style="fill: #666666; fill-opacity: 0.9; stroke: #666666; stroke-opacity: 0.9"/>
    </g>
    <g clip-path="url(#p6fba5e5a6c)">
     <use xlink:href="#C0_0_f08f6add37" x="224.739477" y="173.04142" style="fill: #bfbfbf; fill-opacity: 0.9; stroke: #bfbfbf; stroke-opacity: 0.9"/>
    </g>
    <g clip-path="url(#p6fba5e5a6c)">
     <use xlink:href="#C0_0_f08f6add37" x="239.831405" y="154.010814" style="fill: #bfbfbf; fill-opacity: 0.9; stroke: #bfbfbf; stroke-opacity: 0.9"/>
    </g>
    <g clip-path="url(#p6fba5e5a6c)">
     <use xlink:href="#C0_0_f08f6add37" x="93.481169" y="111.650626" style="fill: #006985; fill-opacity: 0.9; stroke: #006985; stroke-opacity: 0.9"/>
    </g>
    <g clip-path="url(#p6fba5e5a6c)">
     <use xlink:href="#C0_0_f08f6add37" x="109.330938" y="126.021465" style="fill: #666666; fill-opacity: 0.9; stroke: #666666; stroke-opacity: 0.9"/>
    </g>
    <g clip-path="url(#p6fba5e5a6c)">
     <use xlink:href="#C0_0_f08f6add37" x="77.572614" y="92.212361" style="fill: #bfbfbf; fill-opacity: 0.9; stroke: #bfbfbf; stroke-opacity: 0.9"/>
    </g>
    <g clip-path="url(#p6fba5e5a6c)">
     <use xlink:href="#C0_0_f08f6add37" x="127.914009" y="53.803636" style="fill: #006985; fill-opacity: 0.9; stroke: #006985; stroke-opacity: 0.9"/>
    </g>
    <g clip-path="url(#p6fba5e5a6c)">
     <use xlink:href="#C0_0_f08f6add37" x="145.581284" y="119.229855" style="fill: #006985; fill-opacity: 0.9; stroke: #006985; stroke-opacity: 0.9"/>
    </g>
    <g clip-path="url(#p6fba5e5a6c)">
     <use xlink:href="#C0_0_f08f6add37" x="130.165738" y="98.486392" style="fill: #666666; fill-opacity: 0.9; stroke: #666666; stroke-opacity: 0.9"/>
    </g>
    <g clip-path="url(#p6fba5e5a6c)">
     <use xlink:href="#C0_0_f08f6add37" x="149.824747" y="73.553777" style="fill: #bfbfbf; fill-opacity: 0.9; stroke: #bfbfbf; stroke-opacity: 0.9"/>
    </g>
    <g clip-path="url(#p6fba5e5a6c)">
     <use xlink:href="#C0_0_f08f6add37" x="55.368595" y="162.799938" style="fill: #006985; fill-opacity: 0.9; stroke: #006985; stroke-opacity: 0.9"/>
    </g>
    <g clip-path="url(#p6fba5e5a6c)">
     <use xlink:href="#C0_0_f08f6add37" x="109.595229" y="171.501084" style="fill: #006985; fill-opacity: 0.9; stroke: #006985; stroke-opacity: 0.9"/>
    </g>
    <g clip-path="url(#p6fba5e5a6c)">
     <use xlink:href="#C0_0_f08f6add37" x="91.849039" y="156.793636" style="fill: #666666; fill-opacity: 0.9; stroke: #666666; stroke-opacity: 0.9"/>
    </g>
    <g clip-path="url(#p6fba5e5a6c)">
     <use xlink:href="#C0_0_f08f6add37" x="74.157282" y="185.429686" style="fill: #bfbfbf; fill-opacity: 0.9; stroke: #bfbfbf; stroke-opacity: 0.9"/>
    </g>
    <g clip-path="url(#p6fba5e5a6c)">
     <use xlink:href="#C0_0_f08f6add37" x="128.134451" y="190.411103" style="fill: #666666; fill-opacity: 0.9; stroke: #666666; stroke-opacity: 0.9"/>
    </g>
    <g clip-path="url(#p6fba5e5a6c)">
     <use xlink:href="#C0_0_f08f6add37" x="103.480308" y="212.042081" style="fill: #bfbfbf; fill-opacity: 0.9; stroke: #bfbfbf; stroke-opacity: 0.9"/>
    </g>
    <g clip-path="url(#p6fba5e5a6c)">
     <use xlink:href="#C0_0_f08f6add37" x="166.257231" y="174.520478" style="fill: #006985; fill-opacity: 0.9; stroke: #006985; stroke-opacity: 0.9"/>
    </g>
    <g clip-path="url(#p6fba5e5a6c)">
     <use xlink:href="#C0_0_f08f6add37" x="181.924266" y="194.24545" style="fill: #666666; fill-opacity: 0.9; stroke: #666666; stroke-opacity: 0.9"/>
    </g>
    <g clip-path="url(#p6fba5e5a6c)">
     <use xlink:href="#C0_0_f08f6add37" x="173.820259" y="222.520601" style="fill: #bfbfbf; fill-opacity: 0.9; stroke: #bfbfbf; stroke-opacity: 0.9"/>
    </g>
    <g clip-path="url(#p6fba5e5a6c)">
     <use xlink:href="#C0_0_f08f6add37" x="181.075363" y="130.978701" style="fill: #666666; fill-opacity: 0.9; stroke: #666666; stroke-opacity: 0.9"/>
    </g>
    <g clip-path="url(#p6fba5e5a6c)">
     <use xlink:href="#C0_0_f08f6add37" x="208.203041" y="99.065182" style="fill: #bfbfbf; fill-opacity: 0.9; stroke: #bfbfbf; stroke-opacity: 0.9"/>
    </g>
    <g clip-path="url(#p6fba5e5a6c)">
     <use xlink:href="#C0_0_f08f6add37" x="161.576303" y="133.218437" style="fill: #666666; fill-opacity: 0.9; stroke: #666666; stroke-opacity: 0.9"/>
    </g>
    <g clip-path="url(#p6fba5e5a6c)">
     <use xlink:href="#C0_0_f08f6add37" x="145.670403" y="165.595183" style="fill: #666666; fill-opacity: 0.9; stroke: #666666; stroke-opacity: 0.9"/>
    </g>
    <g clip-path="url(#p6fba5e5a6c)">
     <use xlink:href="#C0_0_f08f6add37" x="124.475819" y="237.076364" style="fill: #006985; fill-opacity: 0.9; stroke: #006985; stroke-opacity: 0.9"/>
    </g>
   </g>
   <g id="patch_3">
    <path d="M 36 256.32 
L 36 34.56 
" style="fill: none; stroke: #262626; stroke-width: 1.25; stroke-linejoin: miter; stroke-linecap: square"/>
   </g>
   <g id="patch_4">
    <path d="M 36 256.32 
L 259.2 256.32 
" style="fill: none; stroke: #262626; stroke-width: 1.25; stroke-linejoin: miter; stroke-linecap: square"/>
   </g>
   <g id="text_1">
    <g clip-path="url(#p6fba5e5a6c)">
     <!-- Pd -->
     <g style="fill: #ffffff; opacity: 0.9" transform="translate(205.935224 216.678867)scale(0.12 -0.12)">
      <defs>
       <path id="DejaVuSans-Bold-50" d="M 588 4666 
L 2584 4666 
Q 3475 4666 3951 4270 
Q 4428 3875 4428 3144 
Q 4428 2409 3951 2014 
Q 3475 1619 2584 1619 
L 1791 1619 
L 1791 0 
L 588 0 
L 588 4666 
z
M 1791 3794 
L 1791 2491 
L 2456 2491 
Q 2806 2491 2997 2661 
Q 3188 2831 3188 3144 
Q 3188 3456 2997 3625 
Q 2806 3794 2456 3794 
L 1791 3794 
z
" transform="scale(0.015625)"/>
       <path id="DejaVuSans-Bold-64" d="M 2919 2988 
L 2919 4863 
L 4044 4863 
L 4044 0 
L 2919 0 
L 2919 506 
Q 2688 197 2409 53 
Q 2131 -91 1766 -91 
Q 1119 -91 703 423 
Q 288 938 288 1747 
Q 288 2556 703 3070 
Q 1119 3584 1766 3584 
Q 2128 3584 2408 3439 
Q 2688 3294 2919 2988 
z
M 2181 722 
Q 2541 722 2730 984 
Q 2919 1247 2919 1747 
Q 2919 2247 2730 2509 
Q 2541 2772 2181 2772 
Q 1825 2772 1636 2509 
Q 1447 2247 1447 1747 
Q 1447 1247 1636 984 
Q 1825 722 2181 722 
z
" transform="scale(0.015625)"/>
      </defs>
      <use xlink:href="#DejaVuSans-Bold-50"/>
      <use xlink:href="#DejaVuSans-Bold-64" x="73.291016"/>
     </g>
    </g>
   </g>
   <g id="text_2">
    <g clip-path="url(#p6fba5e5a6c)">
     <!-- Pd -->
     <g style="fill: #ffffff; opacity: 0.9" transform="translate(194.734927 135.208419)scale(0.12 -0.12)">
      <use xlink:href="#DejaVuSans-Bold-50"/>
      <use xlink:href="#DejaVuSans-Bold-64" x="73.291016"/>
     </g>
    </g>
   </g>
   <g id="text_3">
    <g clip-path="url(#p6fba5e5a6c)">
     <!-- C -->
     <g style="fill: #ffffff; opacity: 0.9" transform="translate(195.225095 167.453237)scale(0.12 -0.12)">
      <defs>
       <path id="DejaVuSans-Bold-43" d="M 4288 256 
Q 3956 84 3597 -3 
Q 3238 -91 2847 -91 
Q 1681 -91 1000 561 
Q 319 1213 319 2328 
Q 319 3447 1000 4098 
Q 1681 4750 2847 4750 
Q 3238 4750 3597 4662 
Q 3956 4575 4288 4403 
L 4288 3438 
Q 3953 3666 3628 3772 
Q 3303 3878 2944 3878 
Q 2300 3878 1931 3465 
Q 1563 3053 1563 2328 
Q 1563 1606 1931 1193 
Q 2300 781 2944 781 
Q 3303 781 3628 887 
Q 3953 994 4288 1222 
L 4288 256 
z
" transform="scale(0.015625)"/>
      </defs>
      <use xlink:href="#DejaVuSans-Bold-43"/>
     </g>
    </g>
   </g>
   <g id="text_4">
    <g clip-path="url(#p6fba5e5a6c)">
     <!-- H -->
     <g style="fill: #ffffff; opacity: 0.9" transform="translate(219.718227 176.35267)scale(0.12 -0.12)">
      <defs>
       <path id="DejaVuSans-Bold-48" d="M 588 4666 
L 1791 4666 
L 1791 2888 
L 3566 2888 
L 3566 4666 
L 4769 4666 
L 4769 0 
L 3566 0 
L 3566 1978 
L 1791 1978 
L 1791 0 
L 588 0 
L 588 4666 
z
" transform="scale(0.015625)"/>
      </defs>
      <use xlink:href="#DejaVuSans-Bold-48"/>
     </g>
    </g>
   </g>
   <g id="text_5">
    <g clip-path="url(#p6fba5e5a6c)">
     <!-- H -->
     <g style="fill: #ffffff; opacity: 0.9" transform="translate(234.810155 157.322064)scale(0.12 -0.12)">
      <use xlink:href="#DejaVuSans-Bold-48"/>
     </g>
    </g>
   </g>
   <g id="text_6">
    <g clip-path="url(#p6fba5e5a6c)">
     <!-- Pd -->
     <g style="fill: #ffffff; opacity: 0.9" transform="translate(84.788669 114.961876)scale(0.12 -0.12)">
      <use xlink:href="#DejaVuSans-Bold-50"/>
      <use xlink:href="#DejaVuSans-Bold-64" x="73.291016"/>
     </g>
    </g>
   </g>
   <g id="text_7">
    <g clip-path="url(#p6fba5e5a6c)">
     <!-- C -->
     <g style="fill: #ffffff; opacity: 0.9" transform="translate(104.927501 129.332715)scale(0.12 -0.12)">
      <use xlink:href="#DejaVuSans-Bold-43"/>
     </g>
    </g>
   </g>
   <g id="text_8">
    <g clip-path="url(#p6fba5e5a6c)">
     <!-- H -->
     <g style="fill: #ffffff; opacity: 0.9" transform="translate(72.551364 95.523611)scale(0.12 -0.12)">
      <use xlink:href="#DejaVuSans-Bold-48"/>
     </g>
    </g>
   </g>
   <g id="text_9">
    <g clip-path="url(#p6fba5e5a6c)">
     <!-- Pd -->
     <g style="fill: #ffffff; opacity: 0.9" transform="translate(119.221509 57.114886)scale(0.12 -0.12)">
      <use xlink:href="#DejaVuSans-Bold-50"/>
      <use xlink:href="#DejaVuSans-Bold-64" x="73.291016"/>
     </g>
    </g>
   </g>
   <g id="text_10">
    <g clip-path="url(#p6fba5e5a6c)">
     <!-- Pd -->
     <g style="fill: #ffffff; opacity: 0.9" transform="translate(136.888784 122.541105)scale(0.12 -0.12)">
      <use xlink:href="#DejaVuSans-Bold-50"/>
      <use xlink:href="#DejaVuSans-Bold-64" x="73.291016"/>
     </g>
    </g>
   </g>
   <g id="text_11">
    <g clip-path="url(#p6fba5e5a6c)">
     <!-- C -->
     <g style="fill: #ffffff; opacity: 0.9" transform="translate(125.762301 101.797642)scale(0.12 -0.12)">
      <use xlink:href="#DejaVuSans-Bold-43"/>
     </g>
    </g>
   </g>
   <g id="text_12">
    <g clip-path="url(#p6fba5e5a6c)">
     <!-- H -->
     <g style="fill: #ffffff; opacity: 0.9" transform="translate(144.803497 76.865027)scale(0.12 -0.12)">
      <use xlink:href="#DejaVuSans-Bold-48"/>
     </g>
    </g>
   </g>
   <g id="text_13">
    <g clip-path="url(#p6fba5e5a6c)">
     <!-- Pd -->
     <g style="fill: #ffffff; opacity: 0.9" transform="translate(46.676095 166.111188)scale(0.12 -0.12)">
      <use xlink:href="#DejaVuSans-Bold-50"/>
      <use xlink:href="#DejaVuSans-Bold-64" x="73.291016"/>
     </g>
    </g>
   </g>
   <g id="text_14">
    <g clip-path="url(#p6fba5e5a6c)">
     <!-- Pd -->
     <g style="fill: #ffffff; opacity: 0.9" transform="translate(100.902729 174.812334)scale(0.12 -0.12)">
      <use xlink:href="#DejaVuSans-Bold-50"/>
      <use xlink:href="#DejaVuSans-Bold-64" x="73.291016"/>
     </g>
    </g>
   </g>
   <g id="text_15">
    <g clip-path="url(#p6fba5e5a6c)">
     <!-- C -->
     <g style="fill: #ffffff; opacity: 0.9" transform="translate(87.445602 160.104886)scale(0.12 -0.12)">
      <use xlink:href="#DejaVuSans-Bold-43"/>
     </g>
    </g>
   </g>
   <g id="text_16">
    <g clip-path="url(#p6fba5e5a6c)">
     <!-- H -->
     <g style="fill: #ffffff; opacity: 0.9" transform="translate(69.136032 188.740936)scale(0.12 -0.12)">
      <use xlink:href="#DejaVuSans-Bold-48"/>
     </g>
    </g>
   </g>
   <g id="text_17">
    <g clip-path="url(#p6fba5e5a6c)">
     <!-- C -->
     <g style="fill: #ffffff; opacity: 0.9" transform="translate(123.731013 193.722353)scale(0.12 -0.12)">
      <use xlink:href="#DejaVuSans-Bold-43"/>
     </g>
    </g>
   </g>
   <g id="text_18">
    <g clip-path="url(#p6fba5e5a6c)">
     <!-- H -->
     <g style="fill: #ffffff; opacity: 0.9" transform="translate(98.459058 215.353331)scale(0.12 -0.12)">
      <use xlink:href="#DejaVuSans-Bold-48"/>
     </g>
    </g>
   </g>
   <g id="text_19">
    <g clip-path="url(#p6fba5e5a6c)">
     <!-- Pd -->
     <g style="fill: #ffffff; opacity: 0.9" transform="translate(157.564731 177.831728)scale(0.12 -0.12)">
      <use xlink:href="#DejaVuSans-Bold-50"/>
      <use xlink:href="#DejaVuSans-Bold-64" x="73.291016"/>
     </g>
    </g>
   </g>
   <g id="text_20">
    <g clip-path="url(#p6fba5e5a6c)">
     <!-- C -->
     <g style="fill: #ffffff; opacity: 0.9" transform="translate(177.520829 197.5567)scale(0.12 -0.12)">
      <use xlink:href="#DejaVuSans-Bold-43"/>
     </g>
    </g>
   </g>
   <g id="text_21">
    <g clip-path="url(#p6fba5e5a6c)">
     <!-- H -->
     <g style="fill: #ffffff; opacity: 0.9" transform="translate(168.799009 225.831851)scale(0.12 -0.12)">
      <use xlink:href="#DejaVuSans-Bold-48"/>
     </g>
    </g>
   </g>
   <g id="text_22">
    <g clip-path="url(#p6fba5e5a6c)">
     <!-- C -->
     <g style="fill: #ffffff; opacity: 0.9" transform="translate(176.671926 134.289951)scale(0.12 -0.12)">
      <use xlink:href="#DejaVuSans-Bold-43"/>
     </g>
    </g>
   </g>
   <g id="text_23">
    <g clip-path="url(#p6fba5e5a6c)">
     <!-- H -->
     <g style="fill: #ffffff; opacity: 0.9" transform="translate(203.181791 102.376432)scale(0.12 -0.12)">
      <use xlink:href="#DejaVuSans-Bold-48"/>
     </g>
    </g>
   </g>
   <g id="text_24">
    <g clip-path="url(#p6fba5e5a6c)">
     <!-- C -->
     <g style="fill: #ffffff; opacity: 0.9" transform="translate(157.172865 136.529687)scale(0.12 -0.12)">
      <use xlink:href="#DejaVuSans-Bold-43"/>
     </g>
    </g>
   </g>
   <g id="text_25">
    <g clip-path="url(#p6fba5e5a6c)">
     <!-- C -->
     <g style="fill: #ffffff; opacity: 0.9" transform="translate(141.266966 168.906433)scale(0.12 -0.12)">
      <use xlink:href="#DejaVuSans-Bold-43"/>
     </g>
    </g>
   </g>
   <g id="text_26">
    <g clip-path="url(#p6fba5e5a6c)">
     <!-- Pd -->
     <g style="fill: #ffffff; opacity: 0.9" transform="translate(115.783319 240.387614)scale(0.12 -0.12)">
      <use xlink:href="#DejaVuSans-Bold-50"/>
      <use xlink:href="#DejaVuSans-Bold-64" x="73.291016"/>
     </g>
    </g>
   </g>
  </g>
 </g>
 <defs>
  <clipPath id="p6fba5e5a6c">
   <rect x="36" y="34.56" width="223.2" height="221.76"/>
  </clipPath>
 </defs>
</svg>
