<?xml version="1.0" encoding="utf-8" standalone="no"?>
<!DOCTYPE svg PUBLIC "-//W3C//DTD SVG 1.1//EN"
  "http://www.w3.org/Graphics/SVG/1.1/DTD/svg11.dtd">
<svg xmlns:xlink="http://www.w3.org/1999/xlink" width="292.182813pt" height="277.378125pt" viewBox="0 0 292.182813 277.378125" xmlns="http://www.w3.org/2000/svg" version="1.1">
 <metadata>
  <rdf:RDF xmlns:dc="http://purl.org/dc/elements/1.1/" xmlns:cc="http://creativecommons.org/ns#" xmlns:rdf="http://www.w3.org/1999/02/22-rdf-syntax-ns#">
   <cc:Work>
    <dc:type rdf:resource="http://purl.org/dc/dcmitype/StillImage"/>
    <dc:date>2022-07-20T10:56:42.456960</dc:date>
    <dc:format>image/svg+xml</dc:format>
    <dc:creator>
     <cc:Agent>
      <dc:title>Matplotlib v3.5.1, https://matplotlib.org/</dc:title>
     </cc:Agent>
    </dc:creator>
   </cc:Work>
  </rdf:RDF>
 </metadata>
 <defs>
  <style type="text/css">*{stroke-linejoin: round; stroke-linecap: butt}</style>
 </defs>
 <g id="figure_1">
  <g id="patch_1">
   <path d="M 0 277.378125 
L 292.182813 277.378125 
L 292.182813 0 
L 0 0 
L 0 277.378125 
z
" style="fill: none"/>
  </g>
  <g id="axes_1">
   <g id="patch_2">
    <path d="M 54.582813 237.6 
L 229.412081 237.6 
L 229.412081 62.770732 
L 54.582813 62.770732 
z
" style="fill: #ffffff"/>
   </g>
   <g id="matplotlib.axis_1">
    <g id="xtick_1">
     <g id="line2d_1">
      <defs>
       <path id="mc21f5cce7b" d="M 0 0 
L 0 3.5 
" style="stroke: #000000; stroke-width: 0.8"/>
      </defs>
      <g>
       <use xlink:href="#mc21f5cce7b" x="75.634462" y="237.6" style="stroke: #000000; stroke-width: 0.8"/>
      </g>
     </g>
     <g id="text_1">
      <!-- −4.5 -->
      <g transform="translate(63.493056 252.198438)scale(0.1 -0.1)">
       <defs>
        <path id="DejaVuSans-2212" d="M 678 2272 
L 4684 2272 
L 4684 1741 
L 678 1741 
L 678 2272 
z
" transform="scale(0.015625)"/>
        <path id="DejaVuSans-34" d="M 2419 4116 
L 825 1625 
L 2419 1625 
L 2419 4116 
z
M 2253 4666 
L 3047 4666 
L 3047 1625 
L 3713 1625 
L 3713 1100 
L 3047 1100 
L 3047 0 
L 2419 0 
L 2419 1100 
L 313 1100 
L 313 1709 
L 2253 4666 
z
" transform="scale(0.015625)"/>
        <path id="DejaVuSans-2e" d="M 684 794 
L 1344 794 
L 1344 0 
L 684 0 
L 684 794 
z
" transform="scale(0.015625)"/>
        <path id="DejaVuSans-35" d="M 691 4666 
L 3169 4666 
L 3169 4134 
L 1269 4134 
L 1269 2991 
Q 1406 3038 1543 3061 
Q 1681 3084 1819 3084 
Q 2600 3084 3056 2656 
Q 3513 2228 3513 1497 
Q 3513 744 3044 326 
Q 2575 -91 1722 -91 
Q 1428 -91 1123 -41 
Q 819 9 494 109 
L 494 744 
Q 775 591 1075 516 
Q 1375 441 1709 441 
Q 2250 441 2565 725 
Q 2881 1009 2881 1497 
Q 2881 1984 2565 2268 
Q 2250 2553 1709 2553 
Q 1456 2553 1204 2497 
Q 953 2441 691 2322 
L 691 4666 
z
" transform="scale(0.015625)"/>
       </defs>
       <use xlink:href="#DejaVuSans-2212"/>
       <use xlink:href="#DejaVuSans-34" x="83.789062"/>
       <use xlink:href="#DejaVuSans-2e" x="147.412109"/>
       <use xlink:href="#DejaVuSans-35" x="179.199219"/>
      </g>
     </g>
    </g>
    <g id="xtick_2">
     <g id="line2d_2">
      <g>
       <use xlink:href="#mc21f5cce7b" x="123.479064" y="237.6" style="stroke: #000000; stroke-width: 0.8"/>
      </g>
     </g>
     <g id="text_2">
      <!-- −3.0 -->
      <g transform="translate(111.337657 252.198438)scale(0.1 -0.1)">
       <defs>
        <path id="DejaVuSans-33" d="M 2597 2516 
Q 3050 2419 3304 2112 
Q 3559 1806 3559 1356 
Q 3559 666 3084 287 
Q 2609 -91 1734 -91 
Q 1441 -91 1130 -33 
Q 819 25 488 141 
L 488 750 
Q 750 597 1062 519 
Q 1375 441 1716 441 
Q 2309 441 2620 675 
Q 2931 909 2931 1356 
Q 2931 1769 2642 2001 
Q 2353 2234 1838 2234 
L 1294 2234 
L 1294 2753 
L 1863 2753 
Q 2328 2753 2575 2939 
Q 2822 3125 2822 3475 
Q 2822 3834 2567 4026 
Q 2313 4219 1838 4219 
Q 1578 4219 1281 4162 
Q 984 4106 628 3988 
L 628 4550 
Q 988 4650 1302 4700 
Q 1616 4750 1894 4750 
Q 2613 4750 3031 4423 
Q 3450 4097 3450 3541 
Q 3450 3153 3228 2886 
Q 3006 2619 2597 2516 
z
" transform="scale(0.015625)"/>
        <path id="DejaVuSans-30" d="M 2034 4250 
Q 1547 4250 1301 3770 
Q 1056 3291 1056 2328 
Q 1056 1369 1301 889 
Q 1547 409 2034 409 
Q 2525 409 2770 889 
Q 3016 1369 3016 2328 
Q 3016 3291 2770 3770 
Q 2525 4250 2034 4250 
z
M 2034 4750 
Q 2819 4750 3233 4129 
Q 3647 3509 3647 2328 
Q 3647 1150 3233 529 
Q 2819 -91 2034 -91 
Q 1250 -91 836 529 
Q 422 1150 422 2328 
Q 422 3509 836 4129 
Q 1250 4750 2034 4750 
z
" transform="scale(0.015625)"/>
       </defs>
       <use xlink:href="#DejaVuSans-2212"/>
       <use xlink:href="#DejaVuSans-33" x="83.789062"/>
       <use xlink:href="#DejaVuSans-2e" x="147.412109"/>
       <use xlink:href="#DejaVuSans-30" x="179.199219"/>
      </g>
     </g>
    </g>
    <g id="xtick_3">
     <g id="line2d_3">
      <g>
       <use xlink:href="#mc21f5cce7b" x="171.323665" y="237.6" style="stroke: #000000; stroke-width: 0.8"/>
      </g>
     </g>
     <g id="text_3">
      <!-- −1.5 -->
      <g transform="translate(159.182259 252.198438)scale(0.1 -0.1)">
       <defs>
        <path id="DejaVuSans-31" d="M 794 531 
L 1825 531 
L 1825 4091 
L 703 3866 
L 703 4441 
L 1819 4666 
L 2450 4666 
L 2450 531 
L 3481 531 
L 3481 0 
L 794 0 
L 794 531 
z
" transform="scale(0.015625)"/>
       </defs>
       <use xlink:href="#DejaVuSans-2212"/>
       <use xlink:href="#DejaVuSans-31" x="83.789062"/>
       <use xlink:href="#DejaVuSans-2e" x="147.412109"/>
       <use xlink:href="#DejaVuSans-35" x="179.199219"/>
      </g>
     </g>
    </g>
    <g id="xtick_4">
     <g id="line2d_4">
      <g>
       <use xlink:href="#mc21f5cce7b" x="219.168267" y="237.6" style="stroke: #000000; stroke-width: 0.8"/>
      </g>
     </g>
     <g id="text_4">
      <!-- 0.0 -->
      <g transform="translate(211.216704 252.198438)scale(0.1 -0.1)">
       <use xlink:href="#DejaVuSans-30"/>
       <use xlink:href="#DejaVuSans-2e" x="63.623047"/>
       <use xlink:href="#DejaVuSans-30" x="95.410156"/>
      </g>
     </g>
    </g>
    <g id="text_5">
     <!-- $\mathit{E}_{ads}^{DFT}$ / eV -->
     <g transform="translate(120.097447 267.278125)scale(0.1 -0.1)">
      <defs>
       <path id="DejaVuSans-Oblique-45" d="M 1081 4666 
L 4031 4666 
L 3928 4134 
L 1606 4134 
L 1338 2753 
L 3566 2753 
L 3463 2222 
L 1234 2222 
L 909 531 
L 3284 531 
L 3181 0 
L 172 0 
L 1081 4666 
z
" transform="scale(0.015625)"/>
       <path id="DejaVuSans-44" d="M 1259 4147 
L 1259 519 
L 2022 519 
Q 2988 519 3436 956 
Q 3884 1394 3884 2338 
Q 3884 3275 3436 3711 
Q 2988 4147 2022 4147 
L 1259 4147 
z
M 628 4666 
L 1925 4666 
Q 3281 4666 3915 4102 
Q 4550 3538 4550 2338 
Q 4550 1131 3912 565 
Q 3275 0 1925 0 
L 628 0 
L 628 4666 
z
" transform="scale(0.015625)"/>
       <path id="DejaVuSans-46" d="M 628 4666 
L 3309 4666 
L 3309 4134 
L 1259 4134 
L 1259 2759 
L 3109 2759 
L 3109 2228 
L 1259 2228 
L 1259 0 
L 628 0 
L 628 4666 
z
" transform="scale(0.015625)"/>
       <path id="DejaVuSans-54" d="M -19 4666 
L 3928 4666 
L 3928 4134 
L 2272 4134 
L 2272 0 
L 1638 0 
L 1638 4134 
L -19 4134 
L -19 4666 
z
" transform="scale(0.015625)"/>
       <path id="DejaVuSans-61" d="M 2194 1759 
Q 1497 1759 1228 1600 
Q 959 1441 959 1056 
Q 959 750 1161 570 
Q 1363 391 1709 391 
Q 2188 391 2477 730 
Q 2766 1069 2766 1631 
L 2766 1759 
L 2194 1759 
z
M 3341 1997 
L 3341 0 
L 2766 0 
L 2766 531 
Q 2569 213 2275 61 
Q 1981 -91 1556 -91 
Q 1019 -91 701 211 
Q 384 513 384 1019 
Q 384 1609 779 1909 
Q 1175 2209 1959 2209 
L 2766 2209 
L 2766 2266 
Q 2766 2663 2505 2880 
Q 2244 3097 1772 3097 
Q 1472 3097 1187 3025 
Q 903 2953 641 2809 
L 641 3341 
Q 956 3463 1253 3523 
Q 1550 3584 1831 3584 
Q 2591 3584 2966 3190 
Q 3341 2797 3341 1997 
z
" transform="scale(0.015625)"/>
       <path id="DejaVuSans-64" d="M 2906 2969 
L 2906 4863 
L 3481 4863 
L 3481 0 
L 2906 0 
L 2906 525 
Q 2725 213 2448 61 
Q 2172 -91 1784 -91 
Q 1150 -91 751 415 
Q 353 922 353 1747 
Q 353 2572 751 3078 
Q 1150 3584 1784 3584 
Q 2172 3584 2448 3432 
Q 2725 3281 2906 2969 
z
M 947 1747 
Q 947 1113 1208 752 
Q 1469 391 1925 391 
Q 2381 391 2643 752 
Q 2906 1113 2906 1747 
Q 2906 2381 2643 2742 
Q 2381 3103 1925 3103 
Q 1469 3103 1208 2742 
Q 947 2381 947 1747 
z
" transform="scale(0.015625)"/>
       <path id="DejaVuSans-73" d="M 2834 3397 
L 2834 2853 
Q 2591 2978 2328 3040 
Q 2066 3103 1784 3103 
Q 1356 3103 1142 2972 
Q 928 2841 928 2578 
Q 928 2378 1081 2264 
Q 1234 2150 1697 2047 
L 1894 2003 
Q 2506 1872 2764 1633 
Q 3022 1394 3022 966 
Q 3022 478 2636 193 
Q 2250 -91 1575 -91 
Q 1294 -91 989 -36 
Q 684 19 347 128 
L 347 722 
Q 666 556 975 473 
Q 1284 391 1588 391 
Q 1994 391 2212 530 
Q 2431 669 2431 922 
Q 2431 1156 2273 1281 
Q 2116 1406 1581 1522 
L 1381 1569 
Q 847 1681 609 1914 
Q 372 2147 372 2553 
Q 372 3047 722 3315 
Q 1072 3584 1716 3584 
Q 2034 3584 2315 3537 
Q 2597 3491 2834 3397 
z
" transform="scale(0.015625)"/>
       <path id="DejaVuSans-20" transform="scale(0.015625)"/>
       <path id="DejaVuSans-2f" d="M 1625 4666 
L 2156 4666 
L 531 -594 
L 0 -594 
L 1625 4666 
z
" transform="scale(0.015625)"/>
       <path id="DejaVuSans-65" d="M 3597 1894 
L 3597 1613 
L 953 1613 
Q 991 1019 1311 708 
Q 1631 397 2203 397 
Q 2534 397 2845 478 
Q 3156 559 3463 722 
L 3463 178 
Q 3153 47 2828 -22 
Q 2503 -91 2169 -91 
Q 1331 -91 842 396 
Q 353 884 353 1716 
Q 353 2575 817 3079 
Q 1281 3584 2069 3584 
Q 2775 3584 3186 3129 
Q 3597 2675 3597 1894 
z
M 3022 2063 
Q 3016 2534 2758 2815 
Q 2500 3097 2075 3097 
Q 1594 3097 1305 2825 
Q 1016 2553 972 2059 
L 3022 2063 
z
" transform="scale(0.015625)"/>
       <path id="DejaVuSans-56" d="M 1831 0 
L 50 4666 
L 709 4666 
L 2188 738 
L 3669 4666 
L 4325 4666 
L 2547 0 
L 1831 0 
z
" transform="scale(0.015625)"/>
      </defs>
      <use xlink:href="#DejaVuSans-Oblique-45" transform="translate(0 0.620313)"/>
      <use xlink:href="#DejaVuSans-44" transform="translate(70.200365 38.965625)scale(0.7)"/>
      <use xlink:href="#DejaVuSans-46" transform="translate(124.101732 38.965625)scale(0.7)"/>
      <use xlink:href="#DejaVuSans-54" transform="translate(164.365404 38.965625)scale(0.7)"/>
      <use xlink:href="#DejaVuSans-61" transform="translate(63.183594 -26.723437)scale(0.7)"/>
      <use xlink:href="#DejaVuSans-64" transform="translate(106.079102 -26.723437)scale(0.7)"/>
      <use xlink:href="#DejaVuSans-73" transform="translate(150.512695 -26.723437)scale(0.7)"/>
      <use xlink:href="#DejaVuSans-20" transform="translate(209.858568 0.620313)"/>
      <use xlink:href="#DejaVuSans-2f" transform="translate(241.645677 0.620313)"/>
      <use xlink:href="#DejaVuSans-20" transform="translate(275.337083 0.620313)"/>
      <use xlink:href="#DejaVuSans-65" transform="translate(307.124193 0.620313)"/>
      <use xlink:href="#DejaVuSans-56" transform="translate(368.64763 0.620313)"/>
     </g>
    </g>
   </g>
   <g id="matplotlib.axis_2">
    <g id="ytick_1">
     <g id="line2d_5">
      <defs>
       <path id="me82e9eff0b" d="M 0 0 
L -3.5 0 
" style="stroke: #000000; stroke-width: 0.8"/>
      </defs>
      <g>
       <use xlink:href="#me82e9eff0b" x="54.582813" y="216.548351" style="stroke: #000000; stroke-width: 0.8"/>
      </g>
     </g>
     <g id="text_6">
      <!-- −4.5 -->
      <g transform="translate(23.3 220.347569)scale(0.1 -0.1)">
       <use xlink:href="#DejaVuSans-2212"/>
       <use xlink:href="#DejaVuSans-34" x="83.789062"/>
       <use xlink:href="#DejaVuSans-2e" x="147.412109"/>
       <use xlink:href="#DejaVuSans-35" x="179.199219"/>
      </g>
     </g>
    </g>
    <g id="ytick_2">
     <g id="line2d_6">
      <g>
       <use xlink:href="#me82e9eff0b" x="54.582813" y="168.703749" style="stroke: #000000; stroke-width: 0.8"/>
      </g>
     </g>
     <g id="text_7">
      <!-- −3.0 -->
      <g transform="translate(23.3 172.502968)scale(0.1 -0.1)">
       <use xlink:href="#DejaVuSans-2212"/>
       <use xlink:href="#DejaVuSans-33" x="83.789062"/>
       <use xlink:href="#DejaVuSans-2e" x="147.412109"/>
       <use xlink:href="#DejaVuSans-30" x="179.199219"/>
      </g>
     </g>
    </g>
    <g id="ytick_3">
     <g id="line2d_7">
      <g>
       <use xlink:href="#me82e9eff0b" x="54.582813" y="120.859147" style="stroke: #000000; stroke-width: 0.8"/>
      </g>
     </g>
     <g id="text_8">
      <!-- −1.5 -->
      <g transform="translate(23.3 124.658366)scale(0.1 -0.1)">
       <use xlink:href="#DejaVuSans-2212"/>
       <use xlink:href="#DejaVuSans-31" x="83.789062"/>
       <use xlink:href="#DejaVuSans-2e" x="147.412109"/>
       <use xlink:href="#DejaVuSans-35" x="179.199219"/>
      </g>
     </g>
    </g>
    <g id="ytick_4">
     <g id="line2d_8">
      <g>
       <use xlink:href="#me82e9eff0b" x="54.582813" y="73.014546" style="stroke: #000000; stroke-width: 0.8"/>
      </g>
     </g>
     <g id="text_9">
      <!-- 0.0 -->
      <g transform="translate(31.679688 76.813764)scale(0.1 -0.1)">
       <use xlink:href="#DejaVuSans-30"/>
       <use xlink:href="#DejaVuSans-2e" x="63.623047"/>
       <use xlink:href="#DejaVuSans-30" x="95.410156"/>
      </g>
     </g>
    </g>
    <g id="text_10">
     <!-- $\mathit{E}_{ads}^{GNN}$ / eV -->
     <g transform="translate(16.4 173.185366)rotate(-90)scale(0.1 -0.1)">
      <defs>
       <path id="DejaVuSans-47" d="M 3809 666 
L 3809 1919 
L 2778 1919 
L 2778 2438 
L 4434 2438 
L 4434 434 
Q 4069 175 3628 42 
Q 3188 -91 2688 -91 
Q 1594 -91 976 548 
Q 359 1188 359 2328 
Q 359 3472 976 4111 
Q 1594 4750 2688 4750 
Q 3144 4750 3555 4637 
Q 3966 4525 4313 4306 
L 4313 3634 
Q 3963 3931 3569 4081 
Q 3175 4231 2741 4231 
Q 1884 4231 1454 3753 
Q 1025 3275 1025 2328 
Q 1025 1384 1454 906 
Q 1884 428 2741 428 
Q 3075 428 3337 486 
Q 3600 544 3809 666 
z
" transform="scale(0.015625)"/>
       <path id="DejaVuSans-4e" d="M 628 4666 
L 1478 4666 
L 3547 763 
L 3547 4666 
L 4159 4666 
L 4159 0 
L 3309 0 
L 1241 3903 
L 1241 0 
L 628 0 
L 628 4666 
z
" transform="scale(0.015625)"/>
      </defs>
      <use xlink:href="#DejaVuSans-Oblique-45" transform="translate(0 0.70625)"/>
      <use xlink:href="#DejaVuSans-47" transform="translate(70.200365 40.046875)scale(0.7)"/>
      <use xlink:href="#DejaVuSans-4e" transform="translate(124.443529 40.046875)scale(0.7)"/>
      <use xlink:href="#DejaVuSans-4e" transform="translate(176.80681 40.046875)scale(0.7)"/>
      <use xlink:href="#DejaVuSans-61" transform="translate(63.183594 -26.6375)scale(0.7)"/>
      <use xlink:href="#DejaVuSans-64" transform="translate(106.079102 -26.6375)scale(0.7)"/>
      <use xlink:href="#DejaVuSans-73" transform="translate(150.512695 -26.6375)scale(0.7)"/>
      <use xlink:href="#DejaVuSans-20" transform="translate(231.904466 0.70625)"/>
      <use xlink:href="#DejaVuSans-2f" transform="translate(263.691576 0.70625)"/>
      <use xlink:href="#DejaVuSans-20" transform="translate(297.382982 0.70625)"/>
      <use xlink:href="#DejaVuSans-65" transform="translate(329.170091 0.70625)"/>
      <use xlink:href="#DejaVuSans-56" transform="translate(390.693529 0.70625)"/>
     </g>
    </g>
   </g>
   <g id="line2d_9">
    <path d="M 54.582813 237.6 
L 229.412081 62.770732 
" clip-path="url(#p1fac7b879c)" style="fill: none; stroke: #000000; stroke-opacity: 0.75; stroke-width: 0.8; stroke-linecap: square"/>
   </g>
   <g id="PathCollection_1">
    <defs>
     <path id="mb6339b0664" d="M -0 2.345208 
L 2.345208 -2.345208 
L -2.345208 -2.345208 
z
" style="stroke: #000000; stroke-opacity: 0.85; stroke-width: 0.25"/>
    </defs>
    <g clip-path="url(#p1fac7b879c)">
     <use xlink:href="#mb6339b0664" x="127.794" y="189.731222" style="fill: #ff0000; fill-opacity: 0.85; stroke: #000000; stroke-opacity: 0.85; stroke-width: 0.25"/>
     <use xlink:href="#mb6339b0664" x="142.958724" y="193.699432" style="fill: #ff0000; fill-opacity: 0.85; stroke: #000000; stroke-opacity: 0.85; stroke-width: 0.25"/>
     <use xlink:href="#mb6339b0664" x="130.288158" y="167.091709" style="fill: #ff0000; fill-opacity: 0.85; stroke: #000000; stroke-opacity: 0.85; stroke-width: 0.25"/>
     <use xlink:href="#mb6339b0664" x="157.996114" y="124.883273" style="fill: #ff0000; fill-opacity: 0.85; stroke: #000000; stroke-opacity: 0.85; stroke-width: 0.25"/>
     <use xlink:href="#mb6339b0664" x="168.182416" y="136.12963" style="fill: #ff0000; fill-opacity: 0.85; stroke: #000000; stroke-opacity: 0.85; stroke-width: 0.25"/>
     <use xlink:href="#mb6339b0664" x="102.794948" y="215.034002" style="fill: #ff0000; fill-opacity: 0.85; stroke: #000000; stroke-opacity: 0.85; stroke-width: 0.25"/>
     <use xlink:href="#mb6339b0664" x="118.623093" y="224.602037" style="fill: #ff0000; fill-opacity: 0.85; stroke: #000000; stroke-opacity: 0.85; stroke-width: 0.25"/>
     <use xlink:href="#mb6339b0664" x="110.288952" y="180.654064" style="fill: #ff0000; fill-opacity: 0.85; stroke: #000000; stroke-opacity: 0.85; stroke-width: 0.25"/>
     <use xlink:href="#mb6339b0664" x="139.469763" y="153.816278" style="fill: #ff0000; fill-opacity: 0.85; stroke: #000000; stroke-opacity: 0.85; stroke-width: 0.25"/>
     <use xlink:href="#mb6339b0664" x="155.615632" y="151.194498" style="fill: #ff0000; fill-opacity: 0.85; stroke: #000000; stroke-opacity: 0.85; stroke-width: 0.25"/>
    </g>
   </g>
   <g id="PathCollection_2">
    <defs>
     <path id="m7fe8390b17" d="M -0 2.345208 
L 2.345208 -2.345208 
L -2.345208 -2.345208 
z
" style="stroke: #000000; stroke-opacity: 0.85; stroke-width: 0.25"/>
    </defs>
    <g clip-path="url(#p1fac7b879c)">
     <use xlink:href="#m7fe8390b17" x="181.777274" y="71.492015" style="fill: #00a789; fill-opacity: 0.85; stroke: #000000; stroke-opacity: 0.85; stroke-width: 0.25"/>
     <use xlink:href="#m7fe8390b17" x="189.527478" y="73.014546" style="fill: #00a789; fill-opacity: 0.85; stroke: #000000; stroke-opacity: 0.85; stroke-width: 0.25"/>
     <use xlink:href="#m7fe8390b17" x="191.598273" y="73.014546" style="fill: #00a789; fill-opacity: 0.85; stroke: #000000; stroke-opacity: 0.85; stroke-width: 0.25"/>
     <use xlink:href="#m7fe8390b17" x="125.019534" y="163.70257" style="fill: #00a789; fill-opacity: 0.85; stroke: #000000; stroke-opacity: 0.85; stroke-width: 0.25"/>
     <use xlink:href="#m7fe8390b17" x="128.007174" y="136.424098" style="fill: #00a789; fill-opacity: 0.85; stroke: #000000; stroke-opacity: 0.85; stroke-width: 0.25"/>
     <use xlink:href="#m7fe8390b17" x="213.392014" y="73.014546" style="fill: #00a789; fill-opacity: 0.85; stroke: #000000; stroke-opacity: 0.85; stroke-width: 0.25"/>
     <use xlink:href="#m7fe8390b17" x="219.952428" y="73.014546" style="fill: #00a789; fill-opacity: 0.85; stroke: #000000; stroke-opacity: 0.85; stroke-width: 0.25"/>
     <use xlink:href="#m7fe8390b17" x="221.659825" y="73.014546" style="fill: #00a789; fill-opacity: 0.85; stroke: #000000; stroke-opacity: 0.85; stroke-width: 0.25"/>
     <use xlink:href="#m7fe8390b17" x="120.169381" y="203.105292" style="fill: #00a789; fill-opacity: 0.85; stroke: #000000; stroke-opacity: 0.85; stroke-width: 0.25"/>
     <use xlink:href="#m7fe8390b17" x="66.614707" y="229.690096" style="fill: #00a789; fill-opacity: 0.85; stroke: #000000; stroke-opacity: 0.85; stroke-width: 0.25"/>
    </g>
   </g>
   <g id="PathCollection_3">
    <defs>
     <path id="m637d835848" d="M -0 2.345208 
L 2.345208 -2.345208 
L -2.345208 -2.345208 
z
" style="stroke: #000000; stroke-opacity: 0.85; stroke-width: 0.25"/>
    </defs>
    <g clip-path="url(#p1fac7b879c)">
     <use xlink:href="#m637d835848" x="195.147439" y="73.014546" style="fill: #f4b200; fill-opacity: 0.85; stroke: #000000; stroke-opacity: 0.85; stroke-width: 0.25"/>
     <use xlink:href="#m637d835848" x="193.450161" y="75.351722" style="fill: #f4b200; fill-opacity: 0.85; stroke: #000000; stroke-opacity: 0.85; stroke-width: 0.25"/>
     <use xlink:href="#m637d835848" x="194.507557" y="73.811785" style="fill: #f4b200; fill-opacity: 0.85; stroke: #000000; stroke-opacity: 0.85; stroke-width: 0.25"/>
     <use xlink:href="#m637d835848" x="192.238619" y="76.048001" style="fill: #f4b200; fill-opacity: 0.85; stroke: #000000; stroke-opacity: 0.85; stroke-width: 0.25"/>
     <use xlink:href="#m637d835848" x="183.779962" y="76.802884" style="fill: #f4b200; fill-opacity: 0.85; stroke: #000000; stroke-opacity: 0.85; stroke-width: 0.25"/>
     <use xlink:href="#m637d835848" x="203.124326" y="76.38178" style="fill: #f4b200; fill-opacity: 0.85; stroke: #000000; stroke-opacity: 0.85; stroke-width: 0.25"/>
     <use xlink:href="#m637d835848" x="206.387838" y="73.602901" style="fill: #f4b200; fill-opacity: 0.85; stroke: #000000; stroke-opacity: 0.85; stroke-width: 0.25"/>
     <use xlink:href="#m637d835848" x="207.681979" y="73.014546" style="fill: #f4b200; fill-opacity: 0.85; stroke: #000000; stroke-opacity: 0.85; stroke-width: 0.25"/>
     <use xlink:href="#m637d835848" x="206.843331" y="73.014546" style="fill: #f4b200; fill-opacity: 0.85; stroke: #000000; stroke-opacity: 0.85; stroke-width: 0.25"/>
     <use xlink:href="#m637d835848" x="192.461505" y="75.450942" style="fill: #f4b200; fill-opacity: 0.85; stroke: #000000; stroke-opacity: 0.85; stroke-width: 0.25"/>
    </g>
   </g>
   <g id="patch_3">
    <path d="M 54.582813 237.6 
L 54.582813 62.770732 
" style="fill: none; stroke: #000000; stroke-width: 0.8; stroke-linejoin: miter; stroke-linecap: square"/>
   </g>
   <g id="patch_4">
    <path d="M 229.412081 237.6 
L 229.412081 62.770732 
" style="fill: none; stroke: #000000; stroke-width: 0.8; stroke-linejoin: miter; stroke-linecap: square"/>
   </g>
   <g id="patch_5">
    <path d="M 54.582813 237.6 
L 229.412081 237.6 
" style="fill: none; stroke: #000000; stroke-width: 0.8; stroke-linejoin: miter; stroke-linecap: square"/>
   </g>
   <g id="patch_6">
    <path d="M 54.582813 62.770732 
L 229.412081 62.770732 
" style="fill: none; stroke: #000000; stroke-width: 0.8; stroke-linejoin: miter; stroke-linecap: square"/>
   </g>
   <g id="text_11">
    <g id="patch_7">
     <path d="M 60.624276 103.328883 
L 133.48912 103.328883 
L 133.48912 68.561883 
L 60.624276 68.561883 
z
" style="fill: #ffffff; stroke: #000000; stroke-linejoin: miter"/>
    </g>
    <!-- 2heads_seq1 -->
    <g transform="translate(63.324276 78.350789)scale(0.09 -0.09)">
     <defs>
      <path id="DejaVuSans-32" d="M 1228 531 
L 3431 531 
L 3431 0 
L 469 0 
L 469 531 
Q 828 903 1448 1529 
Q 2069 2156 2228 2338 
Q 2531 2678 2651 2914 
Q 2772 3150 2772 3378 
Q 2772 3750 2511 3984 
Q 2250 4219 1831 4219 
Q 1534 4219 1204 4116 
Q 875 4013 500 3803 
L 500 4441 
Q 881 4594 1212 4672 
Q 1544 4750 1819 4750 
Q 2544 4750 2975 4387 
Q 3406 4025 3406 3419 
Q 3406 3131 3298 2873 
Q 3191 2616 2906 2266 
Q 2828 2175 2409 1742 
Q 1991 1309 1228 531 
z
" transform="scale(0.015625)"/>
      <path id="DejaVuSans-68" d="M 3513 2113 
L 3513 0 
L 2938 0 
L 2938 2094 
Q 2938 2591 2744 2837 
Q 2550 3084 2163 3084 
Q 1697 3084 1428 2787 
Q 1159 2491 1159 1978 
L 1159 0 
L 581 0 
L 581 4863 
L 1159 4863 
L 1159 2956 
Q 1366 3272 1645 3428 
Q 1925 3584 2291 3584 
Q 2894 3584 3203 3211 
Q 3513 2838 3513 2113 
z
" transform="scale(0.015625)"/>
      <path id="DejaVuSans-5f" d="M 3263 -1063 
L 3263 -1509 
L -63 -1509 
L -63 -1063 
L 3263 -1063 
z
" transform="scale(0.015625)"/>
      <path id="DejaVuSans-71" d="M 947 1747 
Q 947 1113 1208 752 
Q 1469 391 1925 391 
Q 2381 391 2643 752 
Q 2906 1113 2906 1747 
Q 2906 2381 2643 2742 
Q 2381 3103 1925 3103 
Q 1469 3103 1208 2742 
Q 947 2381 947 1747 
z
M 2906 525 
Q 2725 213 2448 61 
Q 2172 -91 1784 -91 
Q 1150 -91 751 415 
Q 353 922 353 1747 
Q 353 2572 751 3078 
Q 1150 3584 1784 3584 
Q 2172 3584 2448 3432 
Q 2725 3281 2906 2969 
L 2906 3500 
L 3481 3500 
L 3481 -1331 
L 2906 -1331 
L 2906 525 
z
" transform="scale(0.015625)"/>
     </defs>
     <use xlink:href="#DejaVuSans-32"/>
     <use xlink:href="#DejaVuSans-68" x="63.623047"/>
     <use xlink:href="#DejaVuSans-65" x="127.001953"/>
     <use xlink:href="#DejaVuSans-61" x="188.525391"/>
     <use xlink:href="#DejaVuSans-64" x="249.804688"/>
     <use xlink:href="#DejaVuSans-73" x="313.28125"/>
     <use xlink:href="#DejaVuSans-5f" x="365.380859"/>
     <use xlink:href="#DejaVuSans-73" x="415.380859"/>
     <use xlink:href="#DejaVuSans-65" x="467.480469"/>
     <use xlink:href="#DejaVuSans-71" x="529.003906"/>
     <use xlink:href="#DejaVuSans-31" x="592.480469"/>
    </g>
    <!-- MAE = 0.65 eV -->
    <g transform="translate(63.324276 88.679133)scale(0.09 -0.09)">
     <defs>
      <path id="DejaVuSans-4d" d="M 628 4666 
L 1569 4666 
L 2759 1491 
L 3956 4666 
L 4897 4666 
L 4897 0 
L 4281 0 
L 4281 4097 
L 3078 897 
L 2444 897 
L 1241 4097 
L 1241 0 
L 628 0 
L 628 4666 
z
" transform="scale(0.015625)"/>
      <path id="DejaVuSans-41" d="M 2188 4044 
L 1331 1722 
L 3047 1722 
L 2188 4044 
z
M 1831 4666 
L 2547 4666 
L 4325 0 
L 3669 0 
L 3244 1197 
L 1141 1197 
L 716 0 
L 50 0 
L 1831 4666 
z
" transform="scale(0.015625)"/>
      <path id="DejaVuSans-45" d="M 628 4666 
L 3578 4666 
L 3578 4134 
L 1259 4134 
L 1259 2753 
L 3481 2753 
L 3481 2222 
L 1259 2222 
L 1259 531 
L 3634 531 
L 3634 0 
L 628 0 
L 628 4666 
z
" transform="scale(0.015625)"/>
      <path id="DejaVuSans-3d" d="M 678 2906 
L 4684 2906 
L 4684 2381 
L 678 2381 
L 678 2906 
z
M 678 1631 
L 4684 1631 
L 4684 1100 
L 678 1100 
L 678 1631 
z
" transform="scale(0.015625)"/>
      <path id="DejaVuSans-36" d="M 2113 2584 
Q 1688 2584 1439 2293 
Q 1191 2003 1191 1497 
Q 1191 994 1439 701 
Q 1688 409 2113 409 
Q 2538 409 2786 701 
Q 3034 994 3034 1497 
Q 3034 2003 2786 2293 
Q 2538 2584 2113 2584 
z
M 3366 4563 
L 3366 3988 
Q 3128 4100 2886 4159 
Q 2644 4219 2406 4219 
Q 1781 4219 1451 3797 
Q 1122 3375 1075 2522 
Q 1259 2794 1537 2939 
Q 1816 3084 2150 3084 
Q 2853 3084 3261 2657 
Q 3669 2231 3669 1497 
Q 3669 778 3244 343 
Q 2819 -91 2113 -91 
Q 1303 -91 875 529 
Q 447 1150 447 2328 
Q 447 3434 972 4092 
Q 1497 4750 2381 4750 
Q 2619 4750 2861 4703 
Q 3103 4656 3366 4563 
z
" transform="scale(0.015625)"/>
     </defs>
     <use xlink:href="#DejaVuSans-4d"/>
     <use xlink:href="#DejaVuSans-41" x="86.279297"/>
     <use xlink:href="#DejaVuSans-45" x="154.6875"/>
     <use xlink:href="#DejaVuSans-20" x="217.871094"/>
     <use xlink:href="#DejaVuSans-3d" x="249.658203"/>
     <use xlink:href="#DejaVuSans-20" x="333.447266"/>
     <use xlink:href="#DejaVuSans-30" x="365.234375"/>
     <use xlink:href="#DejaVuSans-2e" x="428.857422"/>
     <use xlink:href="#DejaVuSans-36" x="460.644531"/>
     <use xlink:href="#DejaVuSans-35" x="524.267578"/>
     <use xlink:href="#DejaVuSans-20" x="587.890625"/>
     <use xlink:href="#DejaVuSans-65" x="619.677734"/>
     <use xlink:href="#DejaVuSans-56" x="681.201172"/>
    </g>
    <!-- $\mathit{R}^{2}$ = 0.68 -->
    <g transform="translate(63.324276 98.757164)scale(0.09 -0.09)">
     <defs>
      <path id="DejaVuSans-Oblique-52" d="M 1613 4147 
L 1294 2491 
L 2106 2491 
Q 2584 2491 2879 2755 
Q 3175 3019 3175 3444 
Q 3175 3784 2976 3965 
Q 2778 4147 2406 4147 
L 1613 4147 
z
M 2772 2241 
Q 2972 2194 3105 2009 
Q 3238 1825 3413 1275 
L 3809 0 
L 3144 0 
L 2778 1197 
Q 2638 1659 2453 1815 
Q 2269 1972 1888 1972 
L 1191 1972 
L 806 0 
L 172 0 
L 1081 4666 
L 2503 4666 
Q 3150 4666 3495 4373 
Q 3841 4081 3841 3531 
Q 3841 3044 3547 2687 
Q 3253 2331 2772 2241 
z
" transform="scale(0.015625)"/>
      <path id="DejaVuSans-38" d="M 2034 2216 
Q 1584 2216 1326 1975 
Q 1069 1734 1069 1313 
Q 1069 891 1326 650 
Q 1584 409 2034 409 
Q 2484 409 2743 651 
Q 3003 894 3003 1313 
Q 3003 1734 2745 1975 
Q 2488 2216 2034 2216 
z
M 1403 2484 
Q 997 2584 770 2862 
Q 544 3141 544 3541 
Q 544 4100 942 4425 
Q 1341 4750 2034 4750 
Q 2731 4750 3128 4425 
Q 3525 4100 3525 3541 
Q 3525 3141 3298 2862 
Q 3072 2584 2669 2484 
Q 3125 2378 3379 2068 
Q 3634 1759 3634 1313 
Q 3634 634 3220 271 
Q 2806 -91 2034 -91 
Q 1263 -91 848 271 
Q 434 634 434 1313 
Q 434 1759 690 2068 
Q 947 2378 1403 2484 
z
M 1172 3481 
Q 1172 3119 1398 2916 
Q 1625 2713 2034 2713 
Q 2441 2713 2670 2916 
Q 2900 3119 2900 3481 
Q 2900 3844 2670 4047 
Q 2441 4250 2034 4250 
Q 1625 4250 1398 4047 
Q 1172 3844 1172 3481 
z
" transform="scale(0.015625)"/>
     </defs>
     <use xlink:href="#DejaVuSans-Oblique-52" transform="translate(0 0.765625)"/>
     <use xlink:href="#DejaVuSans-32" transform="translate(76.499193 39.046875)scale(0.7)"/>
     <use xlink:href="#DejaVuSans-20" transform="translate(123.769701 0.765625)"/>
     <use xlink:href="#DejaVuSans-3d" transform="translate(155.55681 0.765625)"/>
     <use xlink:href="#DejaVuSans-20" transform="translate(239.345872 0.765625)"/>
     <use xlink:href="#DejaVuSans-30" transform="translate(271.132982 0.765625)"/>
     <use xlink:href="#DejaVuSans-2e" transform="translate(334.756029 0.765625)"/>
     <use xlink:href="#DejaVuSans-36" transform="translate(366.543138 0.765625)"/>
     <use xlink:href="#DejaVuSans-38" transform="translate(430.166185 0.765625)"/>
    </g>
   </g>
   <g id="legend_1">
    <g id="patch_8">
     <path d="M 137.6613 233.1 
L 223.112081 233.1 
Q 224.912081 233.1 224.912081 231.3 
L 224.912081 192.569063 
Q 224.912081 190.769063 223.112081 190.769063 
L 137.6613 190.769063 
Q 135.8613 190.769063 135.8613 192.569063 
L 135.8613 231.3 
Q 135.8613 233.1 137.6613 233.1 
z
" style="fill: #ffffff; opacity: 0.8; stroke: #cccccc; stroke-linejoin: miter"/>
    </g>
    <g id="PathCollection_4">
     <g>
      <use xlink:href="#mb6339b0664" x="148.4613" y="198.845156" style="fill: #ff0000; fill-opacity: 0.85; stroke: #000000; stroke-opacity: 0.85; stroke-width: 0.25"/>
     </g>
    </g>
    <g id="text_12">
     <!-- Biomass -->
     <g transform="translate(157.4613 201.207656)scale(0.09 -0.09)">
      <defs>
       <path id="DejaVuSans-42" d="M 1259 2228 
L 1259 519 
L 2272 519 
Q 2781 519 3026 730 
Q 3272 941 3272 1375 
Q 3272 1813 3026 2020 
Q 2781 2228 2272 2228 
L 1259 2228 
z
M 1259 4147 
L 1259 2741 
L 2194 2741 
Q 2656 2741 2882 2914 
Q 3109 3088 3109 3444 
Q 3109 3797 2882 3972 
Q 2656 4147 2194 4147 
L 1259 4147 
z
M 628 4666 
L 2241 4666 
Q 2963 4666 3353 4366 
Q 3744 4066 3744 3513 
Q 3744 3084 3544 2831 
Q 3344 2578 2956 2516 
Q 3422 2416 3680 2098 
Q 3938 1781 3938 1306 
Q 3938 681 3513 340 
Q 3088 0 2303 0 
L 628 0 
L 628 4666 
z
" transform="scale(0.015625)"/>
       <path id="DejaVuSans-69" d="M 603 3500 
L 1178 3500 
L 1178 0 
L 603 0 
L 603 3500 
z
M 603 4863 
L 1178 4863 
L 1178 4134 
L 603 4134 
L 603 4863 
z
" transform="scale(0.015625)"/>
       <path id="DejaVuSans-6f" d="M 1959 3097 
Q 1497 3097 1228 2736 
Q 959 2375 959 1747 
Q 959 1119 1226 758 
Q 1494 397 1959 397 
Q 2419 397 2687 759 
Q 2956 1122 2956 1747 
Q 2956 2369 2687 2733 
Q 2419 3097 1959 3097 
z
M 1959 3584 
Q 2709 3584 3137 3096 
Q 3566 2609 3566 1747 
Q 3566 888 3137 398 
Q 2709 -91 1959 -91 
Q 1206 -91 779 398 
Q 353 888 353 1747 
Q 353 2609 779 3096 
Q 1206 3584 1959 3584 
z
" transform="scale(0.015625)"/>
       <path id="DejaVuSans-6d" d="M 3328 2828 
Q 3544 3216 3844 3400 
Q 4144 3584 4550 3584 
Q 5097 3584 5394 3201 
Q 5691 2819 5691 2113 
L 5691 0 
L 5113 0 
L 5113 2094 
Q 5113 2597 4934 2840 
Q 4756 3084 4391 3084 
Q 3944 3084 3684 2787 
Q 3425 2491 3425 1978 
L 3425 0 
L 2847 0 
L 2847 2094 
Q 2847 2600 2669 2842 
Q 2491 3084 2119 3084 
Q 1678 3084 1418 2786 
Q 1159 2488 1159 1978 
L 1159 0 
L 581 0 
L 581 3500 
L 1159 3500 
L 1159 2956 
Q 1356 3278 1631 3431 
Q 1906 3584 2284 3584 
Q 2666 3584 2933 3390 
Q 3200 3197 3328 2828 
z
" transform="scale(0.015625)"/>
      </defs>
      <use xlink:href="#DejaVuSans-42"/>
      <use xlink:href="#DejaVuSans-69" x="68.603516"/>
      <use xlink:href="#DejaVuSans-6f" x="96.386719"/>
      <use xlink:href="#DejaVuSans-6d" x="157.568359"/>
      <use xlink:href="#DejaVuSans-61" x="254.980469"/>
      <use xlink:href="#DejaVuSans-73" x="316.259766"/>
      <use xlink:href="#DejaVuSans-73" x="368.359375"/>
     </g>
    </g>
    <g id="PathCollection_5">
     <g>
      <use xlink:href="#m7fe8390b17" x="148.4613" y="212.055469" style="fill: #00a789; fill-opacity: 0.85; stroke: #000000; stroke-opacity: 0.85; stroke-width: 0.25"/>
     </g>
    </g>
    <g id="text_13">
     <!-- Plastics -->
     <g transform="translate(157.4613 214.417969)scale(0.09 -0.09)">
      <defs>
       <path id="DejaVuSans-50" d="M 1259 4147 
L 1259 2394 
L 2053 2394 
Q 2494 2394 2734 2622 
Q 2975 2850 2975 3272 
Q 2975 3691 2734 3919 
Q 2494 4147 2053 4147 
L 1259 4147 
z
M 628 4666 
L 2053 4666 
Q 2838 4666 3239 4311 
Q 3641 3956 3641 3272 
Q 3641 2581 3239 2228 
Q 2838 1875 2053 1875 
L 1259 1875 
L 1259 0 
L 628 0 
L 628 4666 
z
" transform="scale(0.015625)"/>
       <path id="DejaVuSans-6c" d="M 603 4863 
L 1178 4863 
L 1178 0 
L 603 0 
L 603 4863 
z
" transform="scale(0.015625)"/>
       <path id="DejaVuSans-74" d="M 1172 4494 
L 1172 3500 
L 2356 3500 
L 2356 3053 
L 1172 3053 
L 1172 1153 
Q 1172 725 1289 603 
Q 1406 481 1766 481 
L 2356 481 
L 2356 0 
L 1766 0 
Q 1100 0 847 248 
Q 594 497 594 1153 
L 594 3053 
L 172 3053 
L 172 3500 
L 594 3500 
L 594 4494 
L 1172 4494 
z
" transform="scale(0.015625)"/>
       <path id="DejaVuSans-63" d="M 3122 3366 
L 3122 2828 
Q 2878 2963 2633 3030 
Q 2388 3097 2138 3097 
Q 1578 3097 1268 2742 
Q 959 2388 959 1747 
Q 959 1106 1268 751 
Q 1578 397 2138 397 
Q 2388 397 2633 464 
Q 2878 531 3122 666 
L 3122 134 
Q 2881 22 2623 -34 
Q 2366 -91 2075 -91 
Q 1284 -91 818 406 
Q 353 903 353 1747 
Q 353 2603 823 3093 
Q 1294 3584 2113 3584 
Q 2378 3584 2631 3529 
Q 2884 3475 3122 3366 
z
" transform="scale(0.015625)"/>
      </defs>
      <use xlink:href="#DejaVuSans-50"/>
      <use xlink:href="#DejaVuSans-6c" x="60.302734"/>
      <use xlink:href="#DejaVuSans-61" x="88.085938"/>
      <use xlink:href="#DejaVuSans-73" x="149.365234"/>
      <use xlink:href="#DejaVuSans-74" x="201.464844"/>
      <use xlink:href="#DejaVuSans-69" x="240.673828"/>
      <use xlink:href="#DejaVuSans-63" x="268.457031"/>
      <use xlink:href="#DejaVuSans-73" x="323.4375"/>
     </g>
    </g>
    <g id="PathCollection_6">
     <g>
      <use xlink:href="#m637d835848" x="148.4613" y="225.265781" style="fill: #f4b200; fill-opacity: 0.85; stroke: #000000; stroke-opacity: 0.85; stroke-width: 0.25"/>
     </g>
    </g>
    <g id="text_14">
     <!-- Polyurethanes -->
     <g transform="translate(157.4613 227.628281)scale(0.09 -0.09)">
      <defs>
       <path id="DejaVuSans-79" d="M 2059 -325 
Q 1816 -950 1584 -1140 
Q 1353 -1331 966 -1331 
L 506 -1331 
L 506 -850 
L 844 -850 
Q 1081 -850 1212 -737 
Q 1344 -625 1503 -206 
L 1606 56 
L 191 3500 
L 800 3500 
L 1894 763 
L 2988 3500 
L 3597 3500 
L 2059 -325 
z
" transform="scale(0.015625)"/>
       <path id="DejaVuSans-75" d="M 544 1381 
L 544 3500 
L 1119 3500 
L 1119 1403 
Q 1119 906 1312 657 
Q 1506 409 1894 409 
Q 2359 409 2629 706 
Q 2900 1003 2900 1516 
L 2900 3500 
L 3475 3500 
L 3475 0 
L 2900 0 
L 2900 538 
Q 2691 219 2414 64 
Q 2138 -91 1772 -91 
Q 1169 -91 856 284 
Q 544 659 544 1381 
z
M 1991 3584 
L 1991 3584 
z
" transform="scale(0.015625)"/>
       <path id="DejaVuSans-72" d="M 2631 2963 
Q 2534 3019 2420 3045 
Q 2306 3072 2169 3072 
Q 1681 3072 1420 2755 
Q 1159 2438 1159 1844 
L 1159 0 
L 581 0 
L 581 3500 
L 1159 3500 
L 1159 2956 
Q 1341 3275 1631 3429 
Q 1922 3584 2338 3584 
Q 2397 3584 2469 3576 
Q 2541 3569 2628 3553 
L 2631 2963 
z
" transform="scale(0.015625)"/>
       <path id="DejaVuSans-6e" d="M 3513 2113 
L 3513 0 
L 2938 0 
L 2938 2094 
Q 2938 2591 2744 2837 
Q 2550 3084 2163 3084 
Q 1697 3084 1428 2787 
Q 1159 2491 1159 1978 
L 1159 0 
L 581 0 
L 581 3500 
L 1159 3500 
L 1159 2956 
Q 1366 3272 1645 3428 
Q 1925 3584 2291 3584 
Q 2894 3584 3203 3211 
Q 3513 2838 3513 2113 
z
" transform="scale(0.015625)"/>
      </defs>
      <use xlink:href="#DejaVuSans-50"/>
      <use xlink:href="#DejaVuSans-6f" x="56.677734"/>
      <use xlink:href="#DejaVuSans-6c" x="117.859375"/>
      <use xlink:href="#DejaVuSans-79" x="145.642578"/>
      <use xlink:href="#DejaVuSans-75" x="204.822266"/>
      <use xlink:href="#DejaVuSans-72" x="268.201172"/>
      <use xlink:href="#DejaVuSans-65" x="307.064453"/>
      <use xlink:href="#DejaVuSans-74" x="368.587891"/>
      <use xlink:href="#DejaVuSans-68" x="407.796875"/>
      <use xlink:href="#DejaVuSans-61" x="471.175781"/>
      <use xlink:href="#DejaVuSans-6e" x="532.455078"/>
      <use xlink:href="#DejaVuSans-65" x="595.833984"/>
      <use xlink:href="#DejaVuSans-73" x="657.357422"/>
     </g>
    </g>
   </g>
  </g>
  <g id="axes_2">
   <g id="patch_9">
    <path d="M 54.582813 57.15122 
L 229.412081 57.15122 
L 229.412081 7.2 
L 54.582813 7.2 
z
" style="fill: #ffffff"/>
   </g>
   <g id="PolyCollection_1">
    <defs>
     <path id="mff6dc3e923" d="M 4.259725 -220.226905 
L 4.259725 -220.226905 
L 7.085534 -220.226905 
L 9.911343 -220.226905 
L 12.737152 -220.226905 
L 15.562961 -220.226905 
L 18.38877 -220.226905 
L 21.214579 -220.226905 
L 24.040388 -220.226905 
L 26.866197 -220.226905 
L 29.692005 -220.226905 
L 32.517814 -220.226905 
L 35.343623 -220.226905 
L 38.169432 -220.226905 
L 40.995241 -220.226905 
L 43.82105 -220.226905 
L 46.646859 -220.226905 
L 49.472668 -220.226905 
L 52.298477 -220.226905 
L 55.124286 -220.226905 
L 57.950094 -220.226905 
L 60.775903 -220.226905 
L 63.601712 -220.226905 
L 66.427521 -220.226905 
L 69.25333 -220.226905 
L 72.079139 -220.226905 
L 74.904948 -220.226905 
L 77.730757 -220.226905 
L 80.556566 -220.226905 
L 83.382375 -220.226905 
L 86.208183 -220.226905 
L 89.033992 -220.226905 
L 91.859801 -220.226905 
L 94.68561 -220.226905 
L 97.511419 -220.226905 
L 100.337228 -220.226905 
L 103.163037 -220.226905 
L 105.988846 -220.226905 
L 108.814655 -220.226905 
L 111.640464 -220.226905 
L 114.466272 -220.226905 
L 117.292081 -220.226905 
L 120.11789 -220.226905 
L 122.943699 -220.226905 
L 125.769508 -220.226905 
L 128.595317 -220.226905 
L 131.421126 -220.226905 
L 134.246935 -220.226905 
L 137.072744 -220.226905 
L 139.898553 -220.226905 
L 142.724361 -220.226905 
L 145.55017 -220.226905 
L 148.375979 -220.226905 
L 151.201788 -220.226905 
L 154.027597 -220.226905 
L 156.853406 -220.226905 
L 159.679215 -220.226905 
L 162.505024 -220.226905 
L 165.330833 -220.226905 
L 168.156642 -220.226905 
L 170.98245 -220.226905 
L 173.808259 -220.226905 
L 176.634068 -220.226905 
L 179.459877 -220.226905 
L 182.285686 -220.226905 
L 185.111495 -220.226905 
L 187.937304 -220.226905 
L 190.763113 -220.226905 
L 193.588922 -220.226905 
L 196.414731 -220.226905 
L 199.240539 -220.226905 
L 202.066348 -220.226905 
L 204.892157 -220.226905 
L 207.717966 -220.226905 
L 210.543775 -220.226905 
L 213.369584 -220.226905 
L 216.195393 -220.226905 
L 219.021202 -220.226905 
L 221.847011 -220.226905 
L 224.67282 -220.226905 
L 227.498628 -220.226905 
L 230.324437 -220.226905 
L 233.150246 -220.226905 
L 235.976055 -220.226905 
L 238.801864 -220.226905 
L 241.627673 -220.226905 
L 244.453482 -220.226905 
L 247.279291 -220.226905 
L 250.1051 -220.226905 
L 252.930909 -220.226905 
L 255.756718 -220.226905 
L 258.582526 -220.226905 
L 261.408335 -220.226905 
L 264.234144 -220.226905 
L 267.059953 -220.226905 
L 269.885762 -220.226905 
L 272.711571 -220.226905 
L 275.53738 -220.226905 
L 278.363189 -220.226905 
L 281.188998 -220.226905 
L 284.014807 -220.226905 
L 284.014807 -220.226905 
L 284.014807 -220.226905 
L 281.188998 -220.226905 
L 278.363189 -220.226905 
L 275.53738 -220.226905 
L 272.711571 -220.226905 
L 269.885762 -220.226905 
L 267.059953 -220.226905 
L 264.234144 -220.226905 
L 261.408335 -220.226905 
L 258.582526 -220.226905 
L 255.756718 -220.226905 
L 252.930909 -220.226905 
L 250.1051 -220.226905 
L 247.279291 -220.226905 
L 244.453482 -220.226905 
L 241.627673 -220.226905 
L 238.801864 -220.226906 
L 235.976055 -220.226908 
L 233.150246 -220.226949 
L 230.324437 -220.227565 
L 227.498628 -220.234309 
L 224.67282 -220.287937 
L 221.847011 -220.596716 
L 219.021202 -221.876723 
L 216.195393 -225.65993 
L 213.369584 -233.488578 
L 210.543775 -244.407357 
L 207.717966 -253.756058 
L 204.892157 -257.339683 
L 202.066348 -257.172886 
L 199.240539 -259.360659 
L 196.414731 -265.060933 
L 193.588922 -267.799495 
L 190.763113 -262.208055 
L 187.937304 -251.043299 
L 185.111495 -240.459538 
L 182.285686 -232.886229 
L 179.459877 -227.507674 
L 176.634068 -223.719343 
L 173.808259 -221.524557 
L 170.98245 -220.587187 
L 168.156642 -220.300572 
L 165.330833 -220.237938 
L 162.505024 -220.228113 
L 159.679215 -220.227002 
L 156.853406 -220.226911 
L 154.027597 -220.226906 
L 151.201788 -220.226905 
L 148.375979 -220.226905 
L 145.55017 -220.226905 
L 142.724361 -220.226905 
L 139.898553 -220.226905 
L 137.072744 -220.226905 
L 134.246935 -220.226905 
L 131.421126 -220.226905 
L 128.595317 -220.226905 
L 125.769508 -220.226905 
L 122.943699 -220.226905 
L 120.11789 -220.226905 
L 117.292081 -220.226905 
L 114.466272 -220.226905 
L 111.640464 -220.226905 
L 108.814655 -220.226905 
L 105.988846 -220.226905 
L 103.163037 -220.226905 
L 100.337228 -220.226905 
L 97.511419 -220.226905 
L 94.68561 -220.226905 
L 91.859801 -220.226905 
L 89.033992 -220.226905 
L 86.208183 -220.226905 
L 83.382375 -220.226905 
L 80.556566 -220.226905 
L 77.730757 -220.226905 
L 74.904948 -220.226905 
L 72.079139 -220.226905 
L 69.25333 -220.226905 
L 66.427521 -220.226905 
L 63.601712 -220.226905 
L 60.775903 -220.226905 
L 57.950094 -220.226905 
L 55.124286 -220.226905 
L 52.298477 -220.226905 
L 49.472668 -220.226905 
L 46.646859 -220.226905 
L 43.82105 -220.226905 
L 40.995241 -220.226905 
L 38.169432 -220.226905 
L 35.343623 -220.226905 
L 32.517814 -220.226905 
L 29.692005 -220.226905 
L 26.866197 -220.226905 
L 24.040388 -220.226905 
L 21.214579 -220.226905 
L 18.38877 -220.226905 
L 15.562961 -220.226905 
L 12.737152 -220.226905 
L 9.911343 -220.226905 
L 7.085534 -220.226905 
L 4.259725 -220.226905 
z
"/>
    </defs>
    <g clip-path="url(#p4a8f8ec9ea)">
     <use xlink:href="#mff6dc3e923" x="0" y="277.378125" style="fill: #f4b200; fill-opacity: 0.6"/>
    </g>
   </g>
   <g id="PolyCollection_2">
    <defs>
     <path id="meb5f7301d6" d="M 4.259725 -220.465863 
L 4.259725 -220.226905 
L 7.085534 -220.226905 
L 9.911343 -220.226905 
L 12.737152 -220.226905 
L 15.562961 -220.226905 
L 18.38877 -220.226905 
L 21.214579 -220.226905 
L 24.040388 -220.226905 
L 26.866197 -220.226905 
L 29.692005 -220.226905 
L 32.517814 -220.226905 
L 35.343623 -220.226905 
L 38.169432 -220.226905 
L 40.995241 -220.226905 
L 43.82105 -220.226905 
L 46.646859 -220.226905 
L 49.472668 -220.226905 
L 52.298477 -220.226905 
L 55.124286 -220.226905 
L 57.950094 -220.226905 
L 60.775903 -220.226905 
L 63.601712 -220.226905 
L 66.427521 -220.226905 
L 69.25333 -220.226905 
L 72.079139 -220.226905 
L 74.904948 -220.226905 
L 77.730757 -220.226905 
L 80.556566 -220.226905 
L 83.382375 -220.226905 
L 86.208183 -220.226905 
L 89.033992 -220.226905 
L 91.859801 -220.226905 
L 94.68561 -220.226905 
L 97.511419 -220.226905 
L 100.337228 -220.226905 
L 103.163037 -220.226905 
L 105.988846 -220.226905 
L 108.814655 -220.226905 
L 111.640464 -220.226905 
L 114.466272 -220.226905 
L 117.292081 -220.226905 
L 120.11789 -220.226905 
L 122.943699 -220.226905 
L 125.769508 -220.226905 
L 128.595317 -220.226905 
L 131.421126 -220.226905 
L 134.246935 -220.226905 
L 137.072744 -220.226905 
L 139.898553 -220.226905 
L 142.724361 -220.226905 
L 145.55017 -220.226905 
L 148.375979 -220.226905 
L 151.201788 -220.226905 
L 154.027597 -220.226905 
L 156.853406 -220.226905 
L 159.679215 -220.226905 
L 162.505024 -220.226905 
L 165.330833 -220.226905 
L 168.156642 -220.226905 
L 170.98245 -220.226905 
L 173.808259 -220.226905 
L 176.634068 -220.226905 
L 179.459877 -220.226905 
L 182.285686 -220.226905 
L 185.111495 -220.226905 
L 187.937304 -220.226905 
L 190.763113 -220.226905 
L 193.588922 -220.226905 
L 196.414731 -220.226905 
L 199.240539 -220.226905 
L 202.066348 -220.226905 
L 204.892157 -220.226905 
L 207.717966 -220.226905 
L 210.543775 -220.226905 
L 213.369584 -220.226905 
L 216.195393 -220.226905 
L 219.021202 -220.226905 
L 221.847011 -220.226905 
L 224.67282 -220.226905 
L 227.498628 -220.226905 
L 230.324437 -220.226905 
L 233.150246 -220.226905 
L 235.976055 -220.226905 
L 238.801864 -220.226905 
L 241.627673 -220.226905 
L 244.453482 -220.226905 
L 247.279291 -220.226905 
L 250.1051 -220.226905 
L 252.930909 -220.226905 
L 255.756718 -220.226905 
L 258.582526 -220.226905 
L 261.408335 -220.226905 
L 264.234144 -220.226905 
L 267.059953 -220.226905 
L 269.885762 -220.226905 
L 272.711571 -220.226905 
L 275.53738 -220.226905 
L 278.363189 -220.226905 
L 281.188998 -220.226905 
L 284.014807 -220.226905 
L 284.014807 -220.875161 
L 284.014807 -220.875161 
L 281.188998 -220.99642 
L 278.363189 -221.134317 
L 275.53738 -221.289886 
L 272.711571 -221.46398 
L 269.885762 -221.657228 
L 267.059953 -221.869985 
L 264.234144 -222.10228 
L 261.408335 -222.353785 
L 258.582526 -222.62377 
L 255.756718 -222.911086 
L 252.930909 -223.214144 
L 250.1051 -223.530915 
L 247.279291 -223.858939 
L 244.453482 -224.195353 
L 241.627673 -224.536929 
L 238.801864 -224.88013 
L 235.976055 -225.221177 
L 233.150246 -225.556126 
L 230.324437 -225.88096 
L 227.498628 -226.191687 
L 224.67282 -226.484435 
L 221.847011 -226.75556 
L 219.021202 -227.001738 
L 216.195393 -227.220068 
L 213.369584 -227.408148 
L 210.543775 -227.564152 
L 207.717966 -227.686886 
L 204.892157 -227.775827 
L 202.066348 -227.831144 
L 199.240539 -227.853698 
L 196.414731 -227.845017 
L 193.588922 -227.807255 
L 190.763113 -227.743124 
L 187.937304 -227.655812 
L 185.111495 -227.548883 
L 182.285686 -227.426157 
L 179.459877 -227.291593 
L 176.634068 -227.149153 
L 173.808259 -227.002677 
L 170.98245 -226.855752 
L 168.156642 -226.7116 
L 165.330833 -226.572975 
L 162.505024 -226.442085 
L 159.679215 -226.32053 
L 156.853406 -226.209272 
L 154.027597 -226.108628 
L 151.201788 -226.018293 
L 148.375979 -225.937393 
L 145.55017 -225.864551 
L 142.724361 -225.797985 
L 139.898553 -225.735615 
L 137.072744 -225.675183 
L 134.246935 -225.614371 
L 131.421126 -225.550922 
L 128.595317 -225.482749 
L 125.769508 -225.408032 
L 122.943699 -225.325293 
L 120.11789 -225.233449 
L 117.292081 -225.131846 
L 114.466272 -225.020264 
L 111.640464 -224.898899 
L 108.814655 -224.768326 
L 105.988846 -224.629445 
L 103.163037 -224.483411 
L 100.337228 -224.331559 
L 97.511419 -224.175324 
L 94.68561 -224.016168 
L 91.859801 -223.855503 
L 89.033992 -223.694638 
L 86.208183 -223.534728 
L 83.382375 -223.376742 
L 80.556566 -223.221448 
L 77.730757 -223.069407 
L 74.904948 -222.920986 
L 72.079139 -222.77638 
L 69.25333 -222.635641 
L 66.427521 -222.498715 
L 63.601712 -222.365477 
L 60.775903 -222.23577 
L 57.950094 -222.10944 
L 55.124286 -221.986359 
L 52.298477 -221.866455 
L 49.472668 -221.749717 
L 46.646859 -221.636207 
L 43.82105 -221.526059 
L 40.995241 -221.419468 
L 38.169432 -221.316683 
L 35.343623 -221.217984 
L 32.517814 -221.12367 
L 29.692005 -221.034034 
L 26.866197 -220.94935 
L 24.040388 -220.869854 
L 21.214579 -220.795729 
L 18.38877 -220.727099 
L 15.562961 -220.664018 
L 12.737152 -220.60647 
L 9.911343 -220.554372 
L 7.085534 -220.507573 
L 4.259725 -220.465863 
z
"/>
    </defs>
    <g clip-path="url(#p4a8f8ec9ea)">
     <use xlink:href="#meb5f7301d6" x="0" y="277.378125" style="fill: #00a789; fill-opacity: 0.6"/>
    </g>
   </g>
   <g id="PolyCollection_3">
    <defs>
     <path id="m4864e8243b" d="M 4.259725 -220.226905 
L 4.259725 -220.226905 
L 7.085534 -220.226905 
L 9.911343 -220.226905 
L 12.737152 -220.226905 
L 15.562961 -220.226905 
L 18.38877 -220.226905 
L 21.214579 -220.226905 
L 24.040388 -220.226905 
L 26.866197 -220.226905 
L 29.692005 -220.226905 
L 32.517814 -220.226905 
L 35.343623 -220.226905 
L 38.169432 -220.226905 
L 40.995241 -220.226905 
L 43.82105 -220.226905 
L 46.646859 -220.226905 
L 49.472668 -220.226905 
L 52.298477 -220.226905 
L 55.124286 -220.226905 
L 57.950094 -220.226905 
L 60.775903 -220.226905 
L 63.601712 -220.226905 
L 66.427521 -220.226905 
L 69.25333 -220.226905 
L 72.079139 -220.226905 
L 74.904948 -220.226905 
L 77.730757 -220.226905 
L 80.556566 -220.226905 
L 83.382375 -220.226905 
L 86.208183 -220.226905 
L 89.033992 -220.226905 
L 91.859801 -220.226905 
L 94.68561 -220.226905 
L 97.511419 -220.226905 
L 100.337228 -220.226905 
L 103.163037 -220.226905 
L 105.988846 -220.226905 
L 108.814655 -220.226905 
L 111.640464 -220.226905 
L 114.466272 -220.226905 
L 117.292081 -220.226905 
L 120.11789 -220.226905 
L 122.943699 -220.226905 
L 125.769508 -220.226905 
L 128.595317 -220.226905 
L 131.421126 -220.226905 
L 134.246935 -220.226905 
L 137.072744 -220.226905 
L 139.898553 -220.226905 
L 142.724361 -220.226905 
L 145.55017 -220.226905 
L 148.375979 -220.226905 
L 151.201788 -220.226905 
L 154.027597 -220.226905 
L 156.853406 -220.226905 
L 159.679215 -220.226905 
L 162.505024 -220.226905 
L 165.330833 -220.226905 
L 168.156642 -220.226905 
L 170.98245 -220.226905 
L 173.808259 -220.226905 
L 176.634068 -220.226905 
L 179.459877 -220.226905 
L 182.285686 -220.226905 
L 185.111495 -220.226905 
L 187.937304 -220.226905 
L 190.763113 -220.226905 
L 193.588922 -220.226905 
L 196.414731 -220.226905 
L 199.240539 -220.226905 
L 202.066348 -220.226905 
L 204.892157 -220.226905 
L 207.717966 -220.226905 
L 210.543775 -220.226905 
L 213.369584 -220.226905 
L 216.195393 -220.226905 
L 219.021202 -220.226905 
L 221.847011 -220.226905 
L 224.67282 -220.226905 
L 227.498628 -220.226905 
L 230.324437 -220.226905 
L 233.150246 -220.226905 
L 235.976055 -220.226905 
L 238.801864 -220.226905 
L 241.627673 -220.226905 
L 244.453482 -220.226905 
L 247.279291 -220.226905 
L 250.1051 -220.226905 
L 252.930909 -220.226905 
L 255.756718 -220.226905 
L 258.582526 -220.226905 
L 261.408335 -220.226905 
L 264.234144 -220.226905 
L 267.059953 -220.226905 
L 269.885762 -220.226905 
L 272.711571 -220.226905 
L 275.53738 -220.226905 
L 278.363189 -220.226905 
L 281.188998 -220.226905 
L 284.014807 -220.226905 
L 284.014807 -220.226905 
L 284.014807 -220.226905 
L 281.188998 -220.226905 
L 278.363189 -220.226905 
L 275.53738 -220.226905 
L 272.711571 -220.226905 
L 269.885762 -220.226905 
L 267.059953 -220.226905 
L 264.234144 -220.226905 
L 261.408335 -220.226905 
L 258.582526 -220.226905 
L 255.756718 -220.226905 
L 252.930909 -220.226905 
L 250.1051 -220.226906 
L 247.279291 -220.226906 
L 244.453482 -220.226906 
L 241.627673 -220.226907 
L 238.801864 -220.226909 
L 235.976055 -220.226917 
L 233.150246 -220.226938 
L 230.324437 -220.226994 
L 227.498628 -220.227133 
L 224.67282 -220.227467 
L 221.847011 -220.228233 
L 219.021202 -220.229913 
L 216.195393 -220.233442 
L 213.369584 -220.24053 
L 210.543775 -220.254147 
L 207.717966 -220.279179 
L 204.892157 -220.323213 
L 202.066348 -220.397341 
L 199.240539 -220.516783 
L 196.414731 -220.701013 
L 193.588922 -220.973071 
L 190.763113 -221.357758 
L 187.937304 -221.878639 
L 185.111495 -222.554059 
L 182.285686 -223.39277 
L 179.459877 -224.390079 
L 176.634068 -225.525571 
L 173.808259 -226.763349 
L 170.98245 -228.05524 
L 168.156642 -229.34673 
L 165.330833 -230.584594 
L 162.505024 -231.724579 
L 159.679215 -232.737259 
L 156.853406 -233.61055 
L 154.027597 -234.348192 
L 151.201788 -234.964702 
L 148.375979 -235.478316 
L 145.55017 -235.904058 
L 142.724361 -236.248939 
L 139.898553 -236.510492 
L 137.072744 -236.678665 
L 134.246935 -236.739978 
L 131.421126 -236.682177 
L 128.595317 -236.497671 
L 125.769508 -236.18466 
L 122.943699 -235.745889 
L 120.11789 -235.185959 
L 117.292081 -234.508668 
L 114.466272 -233.715833 
L 111.640464 -232.808428 
L 108.814655 -231.789828 
L 105.988846 -230.670052 
L 103.163037 -229.469314 
L 100.337228 -228.219347 
L 97.511419 -226.961631 
L 94.68561 -225.742745 
L 91.859801 -224.608 
L 89.033992 -223.595041 
L 86.208183 -222.729053 
L 83.382375 -222.020586 
L 80.556566 -221.466203 
L 77.730757 -221.05138 
L 74.904948 -220.75461 
L 72.079139 -220.551631 
L 69.25333 -220.418904 
L 66.427521 -220.33593 
L 63.601712 -220.286336 
L 60.775903 -220.257993 
L 57.950094 -220.242506 
L 55.124286 -220.234414 
L 52.298477 -220.23037 
L 49.472668 -220.228438 
L 46.646859 -220.227555 
L 43.82105 -220.22717 
L 40.995241 -220.227008 
L 38.169432 -220.226944 
L 35.343623 -220.226919 
L 32.517814 -220.22691 
L 29.692005 -220.226907 
L 26.866197 -220.226906 
L 24.040388 -220.226906 
L 21.214579 -220.226906 
L 18.38877 -220.226905 
L 15.562961 -220.226905 
L 12.737152 -220.226905 
L 9.911343 -220.226905 
L 7.085534 -220.226905 
L 4.259725 -220.226905 
z
"/>
    </defs>
    <g clip-path="url(#p4a8f8ec9ea)">
     <use xlink:href="#m4864e8243b" x="0" y="277.378125" style="fill: #ff0000; fill-opacity: 0.6"/>
    </g>
   </g>
   <g id="matplotlib.axis_3">
    <g id="xtick_5"/>
    <g id="xtick_6"/>
    <g id="xtick_7"/>
    <g id="xtick_8"/>
   </g>
   <g id="matplotlib.axis_4">
    <g id="ytick_5"/>
    <g id="ytick_6"/>
   </g>
   <g id="patch_10">
    <path d="M 54.582813 57.15122 
L 229.412081 57.15122 
" style="fill: none; stroke: #000000; stroke-width: 0.8; stroke-linejoin: miter; stroke-linecap: square"/>
   </g>
  </g>
  <g id="axes_3">
   <g id="patch_11">
    <path d="M 235.031593 237.6 
L 284.982813 237.6 
L 284.982813 62.770732 
L 235.031593 62.770732 
z
" style="fill: #ffffff"/>
   </g>
   <g id="PolyCollection_4">
    <defs>
     <path id="me4d1eb6cc2" d="M 235.173531 -197.715295 
L 235.031593 -197.715295 
L 235.031593 -197.811338 
L 235.031593 -197.907381 
L 235.031593 -198.003423 
L 235.031593 -198.099466 
L 235.031593 -198.195509 
L 235.031593 -198.291552 
L 235.031593 -198.387594 
L 235.031593 -198.483637 
L 235.031593 -198.57968 
L 235.031593 -198.675722 
L 235.031593 -198.771765 
L 235.031593 -198.867808 
L 235.031593 -198.963851 
L 235.031593 -199.059893 
L 235.031593 -199.155936 
L 235.031593 -199.251979 
L 235.031593 -199.348022 
L 235.031593 -199.444064 
L 235.031593 -199.540107 
L 235.031593 -199.63615 
L 235.031593 -199.732192 
L 235.031593 -199.828235 
L 235.031593 -199.924278 
L 235.031593 -200.020321 
L 235.031593 -200.116363 
L 235.031593 -200.212406 
L 235.031593 -200.308449 
L 235.031593 -200.404492 
L 235.031593 -200.500534 
L 235.031593 -200.596577 
L 235.031593 -200.69262 
L 235.031593 -200.788662 
L 235.031593 -200.884705 
L 235.031593 -200.980748 
L 235.031593 -201.076791 
L 235.031593 -201.172833 
L 235.031593 -201.268876 
L 235.031593 -201.364919 
L 235.031593 -201.460962 
L 235.031593 -201.557004 
L 235.031593 -201.653047 
L 235.031593 -201.74909 
L 235.031593 -201.845133 
L 235.031593 -201.941175 
L 235.031593 -202.037218 
L 235.031593 -202.133261 
L 235.031593 -202.229303 
L 235.031593 -202.325346 
L 235.031593 -202.421389 
L 235.031593 -202.517432 
L 235.031593 -202.613474 
L 235.031593 -202.709517 
L 235.031593 -202.80556 
L 235.031593 -202.901603 
L 235.031593 -202.997645 
L 235.031593 -203.093688 
L 235.031593 -203.189731 
L 235.031593 -203.285773 
L 235.031593 -203.381816 
L 235.031593 -203.477859 
L 235.031593 -203.573902 
L 235.031593 -203.669944 
L 235.031593 -203.765987 
L 235.031593 -203.86203 
L 235.031593 -203.958073 
L 235.031593 -204.054115 
L 235.031593 -204.150158 
L 235.031593 -204.246201 
L 235.031593 -204.342243 
L 235.031593 -204.438286 
L 235.031593 -204.534329 
L 235.031593 -204.630372 
L 235.031593 -204.726414 
L 235.031593 -204.822457 
L 235.031593 -204.9185 
L 235.031593 -205.014543 
L 235.031593 -205.110585 
L 235.031593 -205.206628 
L 235.031593 -205.302671 
L 235.031593 -205.398713 
L 235.031593 -205.494756 
L 235.031593 -205.590799 
L 235.031593 -205.686842 
L 235.031593 -205.782884 
L 235.031593 -205.878927 
L 235.031593 -205.97497 
L 235.031593 -206.071013 
L 235.031593 -206.167055 
L 235.031593 -206.263098 
L 235.031593 -206.359141 
L 235.031593 -206.455184 
L 235.031593 -206.551226 
L 235.031593 -206.647269 
L 235.031593 -206.743312 
L 235.031593 -206.839354 
L 235.031593 -206.935397 
L 235.031593 -207.03144 
L 235.031593 -207.127483 
L 235.031593 -207.223525 
L 235.374969 -207.223525 
L 235.374969 -207.223525 
L 235.495729 -207.127483 
L 235.652803 -207.03144 
L 235.85489 -206.935397 
L 236.112053 -206.839354 
L 236.435714 -206.743312 
L 236.838574 -206.647269 
L 237.334448 -206.551226 
L 237.937986 -206.455184 
L 238.664288 -206.359141 
L 239.528384 -206.263098 
L 240.544605 -206.167055 
L 241.72584 -206.071013 
L 243.082708 -205.97497 
L 244.622678 -205.878927 
L 246.349179 -205.782884 
L 248.26076 -205.686842 
L 250.350342 -205.590799 
L 252.604652 -205.494756 
L 255.003872 -205.398713 
L 257.521573 -205.302671 
L 260.12498 -205.206628 
L 262.77558 -205.110585 
L 265.430087 -205.014543 
L 268.041749 -204.9185 
L 270.561948 -204.822457 
L 272.942029 -204.726414 
L 275.135277 -204.630372 
L 277.098936 -204.534329 
L 278.796156 -204.438286 
L 280.197757 -204.342243 
L 281.28371 -204.246201 
L 282.044221 -204.150158 
L 282.48036 -204.054115 
L 282.604183 -203.958073 
L 282.438317 -203.86203 
L 282.015035 -203.765987 
L 281.374851 -203.669944 
L 280.564718 -203.573902 
L 279.635908 -203.477859 
L 278.641706 -203.381816 
L 277.635028 -203.285773 
L 276.666081 -203.189731 
L 275.780215 -203.093688 
L 275.016034 -202.997645 
L 274.40389 -202.901603 
L 273.964805 -202.80556 
L 273.709861 -202.709517 
L 273.640078 -202.613474 
L 273.746755 -202.517432 
L 274.01223 -202.421389 
L 274.411007 -202.325346 
L 274.911169 -202.229303 
L 275.475987 -202.133261 
L 276.06564 -202.037218 
L 276.638963 -201.941175 
L 277.155133 -201.845133 
L 277.575243 -201.74909 
L 277.863686 -201.653047 
L 277.989327 -201.557004 
L 277.926437 -201.460962 
L 277.655366 -201.364919 
L 277.16296 -201.268876 
L 276.442733 -201.172833 
L 275.494811 -201.076791 
L 274.325655 -200.980748 
L 272.947608 -200.884705 
L 271.378272 -200.788662 
L 269.639762 -200.69262 
L 267.757845 -200.596577 
L 265.761018 -200.500534 
L 263.679539 -200.404492 
L 261.544453 -200.308449 
L 259.386642 -200.212406 
L 257.235935 -200.116363 
L 255.120297 -200.020321 
L 253.06514 -199.924278 
L 251.092761 -199.828235 
L 249.221932 -199.732192 
L 247.467644 -199.63615 
L 245.841008 -199.540107 
L 244.349307 -199.444064 
L 242.996179 -199.348022 
L 241.781914 -199.251979 
L 240.703846 -199.155936 
L 239.7568 -199.059893 
L 238.933583 -198.963851 
L 238.225477 -198.867808 
L 237.622722 -198.771765 
L 237.114964 -198.675722 
L 236.691656 -198.57968 
L 236.342393 -198.483637 
L 236.057193 -198.387594 
L 235.8267 -198.291552 
L 235.642335 -198.195509 
L 235.49638 -198.099466 
L 235.382017 -198.003423 
L 235.293326 -197.907381 
L 235.22525 -197.811338 
L 235.173531 -197.715295 
z
"/>
    </defs>
    <g clip-path="url(#pef9e4ac5b9)">
     <use xlink:href="#me4d1eb6cc2" x="0" y="277.378125" style="fill: #f4b200; fill-opacity: 0.6"/>
    </g>
   </g>
   <g id="PolyCollection_5">
    <path d="M 235.0345 346.742727 
L 235.031593 346.742727 
L 235.031593 342.780067 
L 235.031593 338.817407 
L 235.031593 334.854747 
L 235.031593 330.892087 
L 235.031593 326.929427 
L 235.031593 322.966767 
L 235.031593 319.004107 
L 235.031593 315.041447 
L 235.031593 311.078787 
L 235.031593 307.116127 
L 235.031593 303.153467 
L 235.031593 299.190807 
L 235.031593 295.228147 
L 235.031593 291.265487 
L 235.031593 287.302827 
L 235.031593 283.340167 
L 235.031593 279.377507 
L 235.031593 275.414847 
L 235.031593 271.452187 
L 235.031593 267.489527 
L 235.031593 263.526867 
L 235.031593 259.564207 
L 235.031593 255.601546 
L 235.031593 251.638886 
L 235.031593 247.676226 
L 235.031593 243.713566 
L 235.031593 239.750906 
L 235.031593 235.788246 
L 235.031593 231.825586 
L 235.031593 227.862926 
L 235.031593 223.900266 
L 235.031593 219.937606 
L 235.031593 215.974946 
L 235.031593 212.012286 
L 235.031593 208.049626 
L 235.031593 204.086966 
L 235.031593 200.124306 
L 235.031593 196.161646 
L 235.031593 192.198986 
L 235.031593 188.236326 
L 235.031593 184.273666 
L 235.031593 180.311006 
L 235.031593 176.348346 
L 235.031593 172.385686 
L 235.031593 168.423026 
L 235.031593 164.460366 
L 235.031593 160.497706 
L 235.031593 156.535046 
L 235.031593 152.572386 
L 235.031593 148.609726 
L 235.031593 144.647066 
L 235.031593 140.684406 
L 235.031593 136.721746 
L 235.031593 132.759086 
L 235.031593 128.796426 
L 235.031593 124.833766 
L 235.031593 120.871105 
L 235.031593 116.908445 
L 235.031593 112.945785 
L 235.031593 108.983125 
L 235.031593 105.020465 
L 235.031593 101.057805 
L 235.031593 97.095145 
L 235.031593 93.132485 
L 235.031593 89.169825 
L 235.031593 85.207165 
L 235.031593 81.244505 
L 235.031593 77.281845 
L 235.031593 73.319185 
L 235.031593 69.356525 
L 235.031593 65.393865 
L 235.031593 61.431205 
L 235.031593 57.468545 
L 235.031593 53.505885 
L 235.031593 49.543225 
L 235.031593 45.580565 
L 235.031593 41.617905 
L 235.031593 37.655245 
L 235.031593 33.692585 
L 235.031593 29.729925 
L 235.031593 25.767265 
L 235.031593 21.804605 
L 235.031593 17.841945 
L 235.031593 13.879285 
L 235.031593 9.916625 
L 235.031593 5.953965 
L 235.031593 1.991305 
L 235.031593 -1.971355 
L 235.031593 -5.934015 
L 235.031593 -9.896675 
L 235.031593 -13.859335 
L 235.031593 -17.821996 
L 235.031593 -21.784656 
L 235.031593 -25.747316 
L 235.031593 -29.709976 
L 235.031593 -33.672636 
L 235.031593 -37.635296 
L 235.031593 -41.597956 
L 235.031593 -45.560616 
L 235.045929 -45.560616 
L 235.045929 -45.560616 
L 235.050999 -41.597956 
L 235.057593 -37.635296 
L 235.066071 -33.672636 
L 235.076844 -29.709976 
L 235.090377 -25.747316 
L 235.107174 -21.784656 
L 235.127776 -17.821996 
L 235.152742 -13.859335 
L 235.182628 -9.896675 
L 235.217963 -5.934015 
L 235.259217 -1.971355 
L 235.306766 1.991305 
L 235.36086 5.953965 
L 235.421579 9.916625 
L 235.488802 13.879285 
L 235.562178 17.841945 
L 235.6411 21.804605 
L 235.724699 25.767265 
L 235.811838 29.729925 
L 235.901134 33.692585 
L 235.99099 37.655245 
L 236.07964 41.617905 
L 236.165211 45.580565 
L 236.245799 49.543225 
L 236.319547 53.505885 
L 236.384732 57.468545 
L 236.439843 61.431205 
L 236.483659 65.393865 
L 236.515307 69.356525 
L 236.534306 73.319185 
L 236.54059 77.281845 
L 236.534512 81.244505 
L 236.516817 85.207165 
L 236.488601 89.169825 
L 236.451252 93.132485 
L 236.406375 97.095145 
L 236.355709 101.057805 
L 236.301042 105.020465 
L 236.24413 108.983125 
L 236.186621 112.945785 
L 236.129997 116.908445 
L 236.075524 120.871105 
L 236.024222 124.833766 
L 235.976852 128.796426 
L 235.93392 132.759086 
L 235.895688 136.721746 
L 235.862205 140.684406 
L 235.833332 144.647066 
L 235.808788 148.609726 
L 235.788178 152.572386 
L 235.771036 156.535046 
L 235.756849 160.497706 
L 235.745085 164.460366 
L 235.735214 168.423026 
L 235.726719 172.385686 
L 235.719109 176.348346 
L 235.71192 180.311006 
L 235.70472 184.273666 
L 235.69711 188.236326 
L 235.688725 192.198986 
L 235.679237 196.161646 
L 235.668354 200.124306 
L 235.65583 204.086966 
L 235.641465 208.049626 
L 235.625113 212.012286 
L 235.606687 215.974946 
L 235.586164 219.937606 
L 235.563589 223.900266 
L 235.539075 227.862926 
L 235.512798 231.825586 
L 235.484998 235.788246 
L 235.455965 239.750906 
L 235.426034 243.713566 
L 235.395568 247.676226 
L 235.364947 251.638886 
L 235.334551 255.601546 
L 235.304749 259.564207 
L 235.275884 263.526867 
L 235.248262 267.489527 
L 235.222143 271.452187 
L 235.197735 275.414847 
L 235.175193 279.377507 
L 235.154615 283.340167 
L 235.136045 287.302827 
L 235.119477 291.265487 
L 235.104864 295.228147 
L 235.092118 299.190807 
L 235.081126 303.153467 
L 235.071752 307.116127 
L 235.063846 311.078787 
L 235.057251 315.041447 
L 235.051811 319.004107 
L 235.047371 322.966767 
L 235.043789 326.929427 
L 235.040928 330.892087 
L 235.03867 334.854747 
L 235.036905 338.817407 
L 235.035542 342.780067 
L 235.0345 346.742727 
z
" clip-path="url(#pef9e4ac5b9)" style="fill: #00a789; fill-opacity: 0.6"/>
   </g>
   <g id="PolyCollection_6">
    <defs>
     <path id="m58dab39474" d="M 235.037684 9.509936 
L 235.031593 9.509936 
L 235.031593 7.244372 
L 235.031593 4.978808 
L 235.031593 2.713244 
L 235.031593 0.447681 
L 235.031593 -1.817883 
L 235.031593 -4.083447 
L 235.031593 -6.349011 
L 235.031593 -8.614574 
L 235.031593 -10.880138 
L 235.031593 -13.145702 
L 235.031593 -15.411266 
L 235.031593 -17.676829 
L 235.031593 -19.942393 
L 235.031593 -22.207957 
L 235.031593 -24.473521 
L 235.031593 -26.739084 
L 235.031593 -29.004648 
L 235.031593 -31.270212 
L 235.031593 -33.535776 
L 235.031593 -35.801339 
L 235.031593 -38.066903 
L 235.031593 -40.332467 
L 235.031593 -42.598031 
L 235.031593 -44.863594 
L 235.031593 -47.129158 
L 235.031593 -49.394722 
L 235.031593 -51.660286 
L 235.031593 -53.925849 
L 235.031593 -56.191413 
L 235.031593 -58.456977 
L 235.031593 -60.722541 
L 235.031593 -62.988104 
L 235.031593 -65.253668 
L 235.031593 -67.519232 
L 235.031593 -69.784796 
L 235.031593 -72.050359 
L 235.031593 -74.315923 
L 235.031593 -76.581487 
L 235.031593 -78.847051 
L 235.031593 -81.112614 
L 235.031593 -83.378178 
L 235.031593 -85.643742 
L 235.031593 -87.909306 
L 235.031593 -90.174869 
L 235.031593 -92.440433 
L 235.031593 -94.705997 
L 235.031593 -96.971561 
L 235.031593 -99.237125 
L 235.031593 -101.502688 
L 235.031593 -103.768252 
L 235.031593 -106.033816 
L 235.031593 -108.29938 
L 235.031593 -110.564943 
L 235.031593 -112.830507 
L 235.031593 -115.096071 
L 235.031593 -117.361635 
L 235.031593 -119.627198 
L 235.031593 -121.892762 
L 235.031593 -124.158326 
L 235.031593 -126.42389 
L 235.031593 -128.689453 
L 235.031593 -130.955017 
L 235.031593 -133.220581 
L 235.031593 -135.486145 
L 235.031593 -137.751708 
L 235.031593 -140.017272 
L 235.031593 -142.282836 
L 235.031593 -144.5484 
L 235.031593 -146.813963 
L 235.031593 -149.079527 
L 235.031593 -151.345091 
L 235.031593 -153.610655 
L 235.031593 -155.876218 
L 235.031593 -158.141782 
L 235.031593 -160.407346 
L 235.031593 -162.67291 
L 235.031593 -164.938473 
L 235.031593 -167.204037 
L 235.031593 -169.469601 
L 235.031593 -171.735165 
L 235.031593 -174.000728 
L 235.031593 -176.266292 
L 235.031593 -178.531856 
L 235.031593 -180.79742 
L 235.031593 -183.062983 
L 235.031593 -185.328547 
L 235.031593 -187.594111 
L 235.031593 -189.859675 
L 235.031593 -192.125238 
L 235.031593 -194.390802 
L 235.031593 -196.656366 
L 235.031593 -198.92193 
L 235.031593 -201.187493 
L 235.031593 -203.453057 
L 235.031593 -205.718621 
L 235.031593 -207.984185 
L 235.031593 -210.249748 
L 235.031593 -212.515312 
L 235.031593 -214.780876 
L 235.037461 -214.780876 
L 235.037461 -214.780876 
L 235.039773 -212.515312 
L 235.042869 -210.249748 
L 235.046965 -207.984185 
L 235.052319 -205.718621 
L 235.059232 -203.453057 
L 235.068051 -201.187493 
L 235.079165 -198.92193 
L 235.093003 -196.656366 
L 235.110026 -194.390802 
L 235.130716 -192.125238 
L 235.155563 -189.859675 
L 235.185044 -187.594111 
L 235.21961 -185.328547 
L 235.259658 -183.062983 
L 235.305512 -180.79742 
L 235.357397 -178.531856 
L 235.415424 -176.266292 
L 235.479569 -174.000728 
L 235.549661 -171.735165 
L 235.625379 -169.469601 
L 235.706247 -167.204037 
L 235.791646 -164.938473 
L 235.880823 -162.67291 
L 235.972915 -160.407346 
L 236.066969 -158.141782 
L 236.161974 -155.876218 
L 236.256891 -153.610655 
L 236.350683 -151.345091 
L 236.442346 -149.079527 
L 236.530939 -146.813963 
L 236.615608 -144.5484 
L 236.695608 -142.282836 
L 236.770321 -140.017272 
L 236.839265 -137.751708 
L 236.902106 -135.486145 
L 236.958654 -133.220581 
L 237.008862 -130.955017 
L 237.052813 -128.689453 
L 237.090709 -126.42389 
L 237.122844 -124.158326 
L 237.149583 -121.892762 
L 237.171333 -119.627198 
L 237.188511 -117.361635 
L 237.201515 -115.096071 
L 237.210702 -112.830507 
L 237.216358 -110.564943 
L 237.218687 -108.29938 
L 237.217806 -106.033816 
L 237.213742 -103.768252 
L 237.206444 -101.502688 
L 237.195804 -99.237125 
L 237.181673 -96.971561 
L 237.163894 -94.705997 
L 237.14232 -92.440433 
L 237.116839 -90.174869 
L 237.087389 -87.909306 
L 237.053965 -85.643742 
L 237.016621 -83.378178 
L 236.975456 -81.112614 
L 236.93061 -78.847051 
L 236.882235 -76.581487 
L 236.830491 -74.315923 
L 236.775519 -72.050359 
L 236.717441 -69.784796 
L 236.656354 -67.519232 
L 236.592338 -65.253668 
L 236.525469 -62.988104 
L 236.455838 -60.722541 
L 236.383579 -58.456977 
L 236.308888 -56.191413 
L 236.232046 -53.925849 
L 236.153431 -51.660286 
L 236.073529 -49.394722 
L 235.992927 -47.129158 
L 235.912302 -44.863594 
L 235.832396 -42.598031 
L 235.753989 -40.332467 
L 235.677863 -38.066903 
L 235.604769 -35.801339 
L 235.535391 -33.535776 
L 235.470317 -31.270212 
L 235.410016 -29.004648 
L 235.354823 -26.739084 
L 235.304932 -24.473521 
L 235.260399 -22.207957 
L 235.221147 -19.942393 
L 235.186988 -17.676829 
L 235.157636 -15.411266 
L 235.132736 -13.145702 
L 235.111878 -10.880138 
L 235.094628 -8.614574 
L 235.080542 -6.349011 
L 235.069185 -4.083447 
L 235.060142 -1.817883 
L 235.053033 0.447681 
L 235.047514 2.713244 
L 235.043283 4.978808 
L 235.040079 7.244372 
L 235.037684 9.509936 
z
"/>
    </defs>
    <g clip-path="url(#pef9e4ac5b9)">
     <use xlink:href="#m58dab39474" x="0" y="277.378125" style="fill: #ff0000; fill-opacity: 0.6"/>
    </g>
   </g>
   <g id="matplotlib.axis_5">
    <g id="xtick_9"/>
    <g id="xtick_10"/>
   </g>
   <g id="matplotlib.axis_6">
    <g id="ytick_7"/>
    <g id="ytick_8"/>
    <g id="ytick_9"/>
    <g id="ytick_10"/>
   </g>
   <g id="patch_12">
    <path d="M 235.031593 237.6 
L 235.031593 62.770732 
" style="fill: none; stroke: #000000; stroke-width: 0.8; stroke-linejoin: miter; stroke-linecap: square"/>
   </g>
  </g>
 </g>
 <defs>
  <clipPath id="p1fac7b879c">
   <rect x="54.582813" y="62.770732" width="174.829268" height="174.829268"/>
  </clipPath>
  <clipPath id="p4a8f8ec9ea">
   <rect x="54.582813" y="7.2" width="174.829268" height="49.95122"/>
  </clipPath>
  <clipPath id="pef9e4ac5b9">
   <rect x="235.031593" y="62.770732" width="49.95122" height="174.829268"/>
  </clipPath>
 </defs>
</svg>
