<?xml version="1.0" encoding="utf-8" standalone="no"?>
<!DOCTYPE svg PUBLIC "-//W3C//DTD SVG 1.1//EN"
  "http://www.w3.org/Graphics/SVG/1.1/DTD/svg11.dtd">
<svg xmlns:xlink="http://www.w3.org/1999/xlink" width="288pt" height="288pt" viewBox="0 0 288 288" xmlns="http://www.w3.org/2000/svg" version="1.1">
 <metadata>
  <rdf:RDF xmlns:dc="http://purl.org/dc/elements/1.1/" xmlns:cc="http://creativecommons.org/ns#" xmlns:rdf="http://www.w3.org/1999/02/22-rdf-syntax-ns#">
   <cc:Work>
    <dc:type rdf:resource="http://purl.org/dc/dcmitype/StillImage"/>
    <dc:date>2022-09-21T17:42:35.389220</dc:date>
    <dc:format>image/svg+xml</dc:format>
    <dc:creator>
     <cc:Agent>
      <dc:title>Matplotlib v3.5.1, https://matplotlib.org/</dc:title>
     </cc:Agent>
    </dc:creator>
   </cc:Work>
  </rdf:RDF>
 </metadata>
 <defs>
  <style type="text/css">*{stroke-linejoin: round; stroke-linecap: butt}</style>
 </defs>
 <g id="figure_1">
  <g id="patch_1">
   <path d="M 0 288 
L 288 288 
L 288 0 
L 0 0 
z
" style="fill: #ffffff"/>
  </g>
  <g id="axes_1">
   <g id="patch_2">
    <path d="M 36 256.32 
L 259.2 256.32 
L 259.2 34.56 
L 36 34.56 
z
" style="fill: #ffffff"/>
   </g>
   <g id="matplotlib.axis_1">
    <g id="xtick_1"/>
    <g id="xtick_2"/>
    <g id="xtick_3"/>
    <g id="xtick_4"/>
    <g id="xtick_5"/>
   </g>
   <g id="matplotlib.axis_2">
    <g id="ytick_1"/>
    <g id="ytick_2"/>
    <g id="ytick_3"/>
    <g id="ytick_4"/>
    <g id="ytick_5"/>
   </g>
   <g id="LineCollection_1">
    <path d="M 195.356885 97.532612 
L 239.831405 102.373262 
" clip-path="url(#p389ef07c27)" style="fill: none; stroke: #1a1a1a; stroke-opacity: 0.9; stroke-width: 1.2"/>
    <path d="M 195.356885 97.532612 
L 225.309244 66.55263 
" clip-path="url(#p389ef07c27)" style="fill: none; stroke: #1a1a1a; stroke-opacity: 0.9; stroke-width: 1.2"/>
    <path d="M 195.356885 97.532612 
L 188.015254 53.803636 
" clip-path="url(#p389ef07c27)" style="fill: none; stroke: #1a1a1a; stroke-opacity: 0.9; stroke-width: 1.2"/>
    <path d="M 195.356885 97.532612 
L 162.674176 131.282843 
" clip-path="url(#p389ef07c27)" style="fill: none; stroke: #1a1a1a; stroke-opacity: 0.9; stroke-width: 1.2"/>
    <path d="M 115.70892 54.9981 
L 138.856713 93.203792 
" clip-path="url(#p389ef07c27)" style="fill: none; stroke: #1a1a1a; stroke-opacity: 0.9; stroke-width: 1.2"/>
    <path d="M 162.674176 131.282843 
L 138.856713 93.203792 
" clip-path="url(#p389ef07c27)" style="fill: none; stroke: #1a1a1a; stroke-opacity: 0.9; stroke-width: 1.2"/>
    <path d="M 162.674176 131.282843 
L 120.935259 155.884288 
" clip-path="url(#p389ef07c27)" style="fill: none; stroke: #1a1a1a; stroke-opacity: 0.9; stroke-width: 1.2"/>
    <path d="M 162.674176 131.282843 
L 196.809544 162.472201 
" clip-path="url(#p389ef07c27)" style="fill: none; stroke: #1a1a1a; stroke-opacity: 0.9; stroke-width: 1.2"/>
    <path d="M 120.935259 155.884288 
L 88.482672 124.370705 
" clip-path="url(#p389ef07c27)" style="fill: none; stroke: #1a1a1a; stroke-opacity: 0.9; stroke-width: 1.2"/>
    <path d="M 120.935259 155.884288 
L 78.786447 150.28632 
" clip-path="url(#p389ef07c27)" style="fill: none; stroke: #1a1a1a; stroke-opacity: 0.9; stroke-width: 1.2"/>
    <path d="M 120.935259 155.884288 
L 102.095757 198.547548 
" clip-path="url(#p389ef07c27)" style="fill: none; stroke: #1a1a1a; stroke-opacity: 0.9; stroke-width: 1.2"/>
    <path d="M 102.095757 198.547548 
L 55.368595 201.81352 
" clip-path="url(#p389ef07c27)" style="fill: none; stroke: #1a1a1a; stroke-opacity: 0.9; stroke-width: 1.2"/>
    <path d="M 102.095757 198.547548 
L 80.836827 234.763981 
" clip-path="url(#p389ef07c27)" style="fill: none; stroke: #1a1a1a; stroke-opacity: 0.9; stroke-width: 1.2"/>
    <path d="M 102.095757 198.547548 
L 122.193182 237.076364 
" clip-path="url(#p389ef07c27)" style="fill: none; stroke: #1a1a1a; stroke-opacity: 0.9; stroke-width: 1.2"/>
    <path d="M 218.30443 198.933771 
L 196.809544 162.472201 
" clip-path="url(#p389ef07c27)" style="fill: none; stroke: #1a1a1a; stroke-opacity: 0.9; stroke-width: 1.2"/>
    <path d="M 218.30443 198.933771 
L 239.022759 174.509991 
" clip-path="url(#p389ef07c27)" style="fill: none; stroke: #1a1a1a; stroke-opacity: 0.9; stroke-width: 1.2"/>
    <path d="M 196.809544 162.472201 
L 239.022759 174.509991 
" clip-path="url(#p389ef07c27)" style="fill: none; stroke: #1a1a1a; stroke-opacity: 0.9; stroke-width: 1.2"/>
   </g>
   <g id="PathCollection_1">
    <defs>
     <path id="C0_0_49ec02db0d" d="M 0 10 
C 2.652031 10 5.195799 8.946337 7.071068 7.071068 
C 8.946337 5.195799 10 2.652031 10 -0 
C 10 -2.652031 8.946337 -5.195799 7.071068 -7.071068 
C 5.195799 -8.946337 2.652031 -10 0 -10 
C -2.652031 -10 -5.195799 -8.946337 -7.071068 -7.071068 
C -8.946337 -5.195799 -10 -2.652031 -10 0 
C -10 2.652031 -8.946337 5.195799 -7.071068 7.071068 
C -5.195799 8.946337 -2.652031 10 0 10 
z
"/>
    </defs>
    <g clip-path="url(#p389ef07c27)">
     <use xlink:href="#C0_0_49ec02db0d" x="195.356885" y="97.532612" style="fill: #666666; fill-opacity: 0.9; stroke: #666666; stroke-opacity: 0.9"/>
    </g>
    <g clip-path="url(#p389ef07c27)">
     <use xlink:href="#C0_0_49ec02db0d" x="239.831405" y="102.373262" style="fill: #bfbfbf; fill-opacity: 0.9; stroke: #bfbfbf; stroke-opacity: 0.9"/>
    </g>
    <g clip-path="url(#p389ef07c27)">
     <use xlink:href="#C0_0_49ec02db0d" x="225.309244" y="66.55263" style="fill: #bfbfbf; fill-opacity: 0.9; stroke: #bfbfbf; stroke-opacity: 0.9"/>
    </g>
    <g clip-path="url(#p389ef07c27)">
     <use xlink:href="#C0_0_49ec02db0d" x="188.015254" y="53.803636" style="fill: #bfbfbf; fill-opacity: 0.9; stroke: #bfbfbf; stroke-opacity: 0.9"/>
    </g>
    <g clip-path="url(#p389ef07c27)">
     <use xlink:href="#C0_0_49ec02db0d" x="115.70892" y="54.9981" style="fill: #e6d9ad; fill-opacity: 0.9; stroke: #e6d9ad; stroke-opacity: 0.9"/>
    </g>
    <g clip-path="url(#p389ef07c27)">
     <use xlink:href="#C0_0_49ec02db0d" x="162.674176" y="131.282843" style="fill: #666666; fill-opacity: 0.9; stroke: #666666; stroke-opacity: 0.9"/>
    </g>
    <g clip-path="url(#p389ef07c27)">
     <use xlink:href="#C0_0_49ec02db0d" x="138.856713" y="93.203792" style="fill: #bfbfbf; fill-opacity: 0.9; stroke: #bfbfbf; stroke-opacity: 0.9"/>
    </g>
    <g clip-path="url(#p389ef07c27)">
     <use xlink:href="#C0_0_49ec02db0d" x="120.935259" y="155.884288" style="fill: #666666; fill-opacity: 0.9; stroke: #666666; stroke-opacity: 0.9"/>
    </g>
    <g clip-path="url(#p389ef07c27)">
     <use xlink:href="#C0_0_49ec02db0d" x="88.482672" y="124.370705" style="fill: #bfbfbf; fill-opacity: 0.9; stroke: #bfbfbf; stroke-opacity: 0.9"/>
    </g>
    <g clip-path="url(#p389ef07c27)">
     <use xlink:href="#C0_0_49ec02db0d" x="78.786447" y="150.28632" style="fill: #bfbfbf; fill-opacity: 0.9; stroke: #bfbfbf; stroke-opacity: 0.9"/>
    </g>
    <g clip-path="url(#p389ef07c27)">
     <use xlink:href="#C0_0_49ec02db0d" x="102.095757" y="198.547548" style="fill: #666666; fill-opacity: 0.9; stroke: #666666; stroke-opacity: 0.9"/>
    </g>
    <g clip-path="url(#p389ef07c27)">
     <use xlink:href="#C0_0_49ec02db0d" x="55.368595" y="201.81352" style="fill: #bfbfbf; fill-opacity: 0.9; stroke: #bfbfbf; stroke-opacity: 0.9"/>
    </g>
    <g clip-path="url(#p389ef07c27)">
     <use xlink:href="#C0_0_49ec02db0d" x="80.836827" y="234.763981" style="fill: #bfbfbf; fill-opacity: 0.9; stroke: #bfbfbf; stroke-opacity: 0.9"/>
    </g>
    <g clip-path="url(#p389ef07c27)">
     <use xlink:href="#C0_0_49ec02db0d" x="122.193182" y="237.076364" style="fill: #bfbfbf; fill-opacity: 0.9; stroke: #bfbfbf; stroke-opacity: 0.9"/>
    </g>
    <g clip-path="url(#p389ef07c27)">
     <use xlink:href="#C0_0_49ec02db0d" x="218.30443" y="198.933771" style="fill: #e6d9ad; fill-opacity: 0.9; stroke: #e6d9ad; stroke-opacity: 0.9"/>
    </g>
    <g clip-path="url(#p389ef07c27)">
     <use xlink:href="#C0_0_49ec02db0d" x="196.809544" y="162.472201" style="fill: #b2b200; fill-opacity: 0.9; stroke: #b2b200; stroke-opacity: 0.9"/>
    </g>
    <g clip-path="url(#p389ef07c27)">
     <use xlink:href="#C0_0_49ec02db0d" x="239.022759" y="174.509991" style="fill: #bfbfbf; fill-opacity: 0.9; stroke: #bfbfbf; stroke-opacity: 0.9"/>
    </g>
   </g>
   <g id="patch_3">
    <path d="M 36 256.32 
L 36 34.56 
" style="fill: none; stroke: #262626; stroke-width: 1.25; stroke-linejoin: miter; stroke-linecap: square"/>
   </g>
   <g id="patch_4">
    <path d="M 36 256.32 
L 259.2 256.32 
" style="fill: none; stroke: #262626; stroke-width: 1.25; stroke-linejoin: miter; stroke-linecap: square"/>
   </g>
   <g id="text_1">
    <g clip-path="url(#p389ef07c27)">
     <!-- C -->
     <g style="fill: #ffffff; opacity: 0.9" transform="translate(190.953447 100.843862)scale(0.12 -0.12)">
      <defs>
       <path id="DejaVuSans-Bold-43" d="M 4288 256 
Q 3956 84 3597 -3 
Q 3238 -91 2847 -91 
Q 1681 -91 1000 561 
Q 319 1213 319 2328 
Q 319 3447 1000 4098 
Q 1681 4750 2847 4750 
Q 3238 4750 3597 4662 
Q 3956 4575 4288 4403 
L 4288 3438 
Q 3953 3666 3628 3772 
Q 3303 3878 2944 3878 
Q 2300 3878 1931 3465 
Q 1563 3053 1563 2328 
Q 1563 1606 1931 1193 
Q 2300 781 2944 781 
Q 3303 781 3628 887 
Q 3953 994 4288 1222 
L 4288 256 
z
" transform="scale(0.015625)"/>
      </defs>
      <use xlink:href="#DejaVuSans-Bold-43"/>
     </g>
    </g>
   </g>
   <g id="text_2">
    <g clip-path="url(#p389ef07c27)">
     <!-- H -->
     <g style="fill: #ffffff; opacity: 0.9" transform="translate(234.810155 105.684512)scale(0.12 -0.12)">
      <defs>
       <path id="DejaVuSans-Bold-48" d="M 588 4666 
L 1791 4666 
L 1791 2888 
L 3566 2888 
L 3566 4666 
L 4769 4666 
L 4769 0 
L 3566 0 
L 3566 1978 
L 1791 1978 
L 1791 0 
L 588 0 
L 588 4666 
z
" transform="scale(0.015625)"/>
      </defs>
      <use xlink:href="#DejaVuSans-Bold-48"/>
     </g>
    </g>
   </g>
   <g id="text_3">
    <g clip-path="url(#p389ef07c27)">
     <!-- H -->
     <g style="fill: #ffffff; opacity: 0.9" transform="translate(220.287994 69.86388)scale(0.12 -0.12)">
      <use xlink:href="#DejaVuSans-Bold-48"/>
     </g>
    </g>
   </g>
   <g id="text_4">
    <g clip-path="url(#p389ef07c27)">
     <!-- H -->
     <g style="fill: #ffffff; opacity: 0.9" transform="translate(182.994004 57.114886)scale(0.12 -0.12)">
      <use xlink:href="#DejaVuSans-Bold-48"/>
     </g>
    </g>
   </g>
   <g id="text_5">
    <g clip-path="url(#p389ef07c27)">
     <!-- Pt -->
     <g style="fill: #ffffff; opacity: 0.9" transform="translate(108.443295 58.30935)scale(0.12 -0.12)">
      <defs>
       <path id="DejaVuSans-Bold-50" d="M 588 4666 
L 2584 4666 
Q 3475 4666 3951 4270 
Q 4428 3875 4428 3144 
Q 4428 2409 3951 2014 
Q 3475 1619 2584 1619 
L 1791 1619 
L 1791 0 
L 588 0 
L 588 4666 
z
M 1791 3794 
L 1791 2491 
L 2456 2491 
Q 2806 2491 2997 2661 
Q 3188 2831 3188 3144 
Q 3188 3456 2997 3625 
Q 2806 3794 2456 3794 
L 1791 3794 
z
" transform="scale(0.015625)"/>
       <path id="DejaVuSans-Bold-74" d="M 1759 4494 
L 1759 3500 
L 2913 3500 
L 2913 2700 
L 1759 2700 
L 1759 1216 
Q 1759 972 1856 886 
Q 1953 800 2241 800 
L 2816 800 
L 2816 0 
L 1856 0 
Q 1194 0 917 276 
Q 641 553 641 1216 
L 641 2700 
L 84 2700 
L 84 3500 
L 641 3500 
L 641 4494 
L 1759 4494 
z
" transform="scale(0.015625)"/>
      </defs>
      <use xlink:href="#DejaVuSans-Bold-50"/>
      <use xlink:href="#DejaVuSans-Bold-74" x="73.291016"/>
     </g>
    </g>
   </g>
   <g id="text_6">
    <g clip-path="url(#p389ef07c27)">
     <!-- C -->
     <g style="fill: #ffffff; opacity: 0.9" transform="translate(158.270739 134.594093)scale(0.12 -0.12)">
      <use xlink:href="#DejaVuSans-Bold-43"/>
     </g>
    </g>
   </g>
   <g id="text_7">
    <g clip-path="url(#p389ef07c27)">
     <!-- H -->
     <g style="fill: #ffffff; opacity: 0.9" transform="translate(133.835463 96.515042)scale(0.12 -0.12)">
      <use xlink:href="#DejaVuSans-Bold-48"/>
     </g>
    </g>
   </g>
   <g id="text_8">
    <g clip-path="url(#p389ef07c27)">
     <!-- C -->
     <g style="fill: #ffffff; opacity: 0.9" transform="translate(116.531822 159.195538)scale(0.12 -0.12)">
      <use xlink:href="#DejaVuSans-Bold-43"/>
     </g>
    </g>
   </g>
   <g id="text_9">
    <g clip-path="url(#p389ef07c27)">
     <!-- H -->
     <g style="fill: #ffffff; opacity: 0.9" transform="translate(83.461422 127.681955)scale(0.12 -0.12)">
      <use xlink:href="#DejaVuSans-Bold-48"/>
     </g>
    </g>
   </g>
   <g id="text_10">
    <g clip-path="url(#p389ef07c27)">
     <!-- H -->
     <g style="fill: #ffffff; opacity: 0.9" transform="translate(73.765197 153.59757)scale(0.12 -0.12)">
      <use xlink:href="#DejaVuSans-Bold-48"/>
     </g>
    </g>
   </g>
   <g id="text_11">
    <g clip-path="url(#p389ef07c27)">
     <!-- C -->
     <g style="fill: #ffffff; opacity: 0.9" transform="translate(97.69232 201.858798)scale(0.12 -0.12)">
      <use xlink:href="#DejaVuSans-Bold-43"/>
     </g>
    </g>
   </g>
   <g id="text_12">
    <g clip-path="url(#p389ef07c27)">
     <!-- H -->
     <g style="fill: #ffffff; opacity: 0.9" transform="translate(50.347345 205.12477)scale(0.12 -0.12)">
      <use xlink:href="#DejaVuSans-Bold-48"/>
     </g>
    </g>
   </g>
   <g id="text_13">
    <g clip-path="url(#p389ef07c27)">
     <!-- H -->
     <g style="fill: #ffffff; opacity: 0.9" transform="translate(75.815577 238.075231)scale(0.12 -0.12)">
      <use xlink:href="#DejaVuSans-Bold-48"/>
     </g>
    </g>
   </g>
   <g id="text_14">
    <g clip-path="url(#p389ef07c27)">
     <!-- H -->
     <g style="fill: #ffffff; opacity: 0.9" transform="translate(117.171932 240.387614)scale(0.12 -0.12)">
      <use xlink:href="#DejaVuSans-Bold-48"/>
     </g>
    </g>
   </g>
   <g id="text_15">
    <g clip-path="url(#p389ef07c27)">
     <!-- Pt -->
     <g style="fill: #ffffff; opacity: 0.9" transform="translate(211.038805 202.245021)scale(0.12 -0.12)">
      <use xlink:href="#DejaVuSans-Bold-50"/>
      <use xlink:href="#DejaVuSans-Bold-74" x="73.291016"/>
     </g>
    </g>
   </g>
   <g id="text_16">
    <g clip-path="url(#p389ef07c27)">
     <!-- S -->
     <g style="fill: #ffffff; opacity: 0.9" transform="translate(192.488606 165.783451)scale(0.12 -0.12)">
      <defs>
       <path id="DejaVuSans-Bold-53" d="M 3834 4519 
L 3834 3531 
Q 3450 3703 3084 3790 
Q 2719 3878 2394 3878 
Q 1963 3878 1756 3759 
Q 1550 3641 1550 3391 
Q 1550 3203 1689 3098 
Q 1828 2994 2194 2919 
L 2706 2816 
Q 3484 2659 3812 2340 
Q 4141 2022 4141 1434 
Q 4141 663 3683 286 
Q 3225 -91 2284 -91 
Q 1841 -91 1394 -6 
Q 947 78 500 244 
L 500 1259 
Q 947 1022 1364 901 
Q 1781 781 2169 781 
Q 2563 781 2772 912 
Q 2981 1044 2981 1288 
Q 2981 1506 2839 1625 
Q 2697 1744 2272 1838 
L 1806 1941 
Q 1106 2091 782 2419 
Q 459 2747 459 3303 
Q 459 4000 909 4375 
Q 1359 4750 2203 4750 
Q 2588 4750 2994 4692 
Q 3400 4634 3834 4519 
z
" transform="scale(0.015625)"/>
      </defs>
      <use xlink:href="#DejaVuSans-Bold-53"/>
     </g>
    </g>
   </g>
   <g id="text_17">
    <g clip-path="url(#p389ef07c27)">
     <!-- H -->
     <g style="fill: #ffffff; opacity: 0.9" transform="translate(234.001509 177.821241)scale(0.12 -0.12)">
      <use xlink:href="#DejaVuSans-Bold-48"/>
     </g>
    </g>
   </g>
  </g>
 </g>
 <defs>
  <clipPath id="p389ef07c27">
   <rect x="36" y="34.56" width="223.2" height="221.76"/>
  </clipPath>
 </defs>
</svg>
