<?xml version="1.0" encoding="utf-8" standalone="no"?>
<!DOCTYPE svg PUBLIC "-//W3C//DTD SVG 1.1//EN"
  "http://www.w3.org/Graphics/SVG/1.1/DTD/svg11.dtd">
<svg xmlns:xlink="http://www.w3.org/1999/xlink" width="288pt" height="288pt" viewBox="0 0 288 288" xmlns="http://www.w3.org/2000/svg" version="1.1">
 <metadata>
  <rdf:RDF xmlns:dc="http://purl.org/dc/elements/1.1/" xmlns:cc="http://creativecommons.org/ns#" xmlns:rdf="http://www.w3.org/1999/02/22-rdf-syntax-ns#">
   <cc:Work>
    <dc:type rdf:resource="http://purl.org/dc/dcmitype/StillImage"/>
    <dc:date>2022-09-21T17:42:35.443764</dc:date>
    <dc:format>image/svg+xml</dc:format>
    <dc:creator>
     <cc:Agent>
      <dc:title>Matplotlib v3.5.1, https://matplotlib.org/</dc:title>
     </cc:Agent>
    </dc:creator>
   </cc:Work>
  </rdf:RDF>
 </metadata>
 <defs>
  <style type="text/css">*{stroke-linejoin: round; stroke-linecap: butt}</style>
 </defs>
 <g id="figure_1">
  <g id="patch_1">
   <path d="M 0 288 
L 288 288 
L 288 0 
L 0 0 
z
" style="fill: #ffffff"/>
  </g>
  <g id="axes_1">
   <g id="patch_2">
    <path d="M 36 256.32 
L 259.2 256.32 
L 259.2 34.56 
L 36 34.56 
z
" style="fill: #ffffff"/>
   </g>
   <g id="matplotlib.axis_1">
    <g id="xtick_1"/>
    <g id="xtick_2"/>
    <g id="xtick_3"/>
   </g>
   <g id="matplotlib.axis_2">
    <g id="ytick_1"/>
    <g id="ytick_2"/>
    <g id="ytick_3"/>
    <g id="ytick_4"/>
    <g id="ytick_5"/>
   </g>
   <g id="LineCollection_1">
    <path d="M 153.769105 125.052466 
L 239.831405 111.595836 
" clip-path="url(#p7dbd4a2f70)" style="fill: none; stroke: #1a1a1a; stroke-opacity: 0.9; stroke-width: 1.2"/>
    <path d="M 153.769105 125.052466 
L 188.57506 100.19836 
" clip-path="url(#p7dbd4a2f70)" style="fill: none; stroke: #1a1a1a; stroke-opacity: 0.9; stroke-width: 1.2"/>
    <path d="M 153.769105 125.052466 
L 121.405942 167.266104 
" clip-path="url(#p7dbd4a2f70)" style="fill: none; stroke: #1a1a1a; stroke-opacity: 0.9; stroke-width: 1.2"/>
    <path d="M 188.57506 100.19836 
L 177.425064 53.803636 
" clip-path="url(#p7dbd4a2f70)" style="fill: none; stroke: #1a1a1a; stroke-opacity: 0.9; stroke-width: 1.2"/>
    <path d="M 188.57506 100.19836 
L 219.358721 152.805037 
" clip-path="url(#p7dbd4a2f70)" style="fill: none; stroke: #1a1a1a; stroke-opacity: 0.9; stroke-width: 1.2"/>
    <path d="M 121.405942 167.266104 
L 55.368595 177.293051 
" clip-path="url(#p7dbd4a2f70)" style="fill: none; stroke: #1a1a1a; stroke-opacity: 0.9; stroke-width: 1.2"/>
    <path d="M 121.405942 167.266104 
L 178.839799 193.097789 
" clip-path="url(#p7dbd4a2f70)" style="fill: none; stroke: #1a1a1a; stroke-opacity: 0.9; stroke-width: 1.2"/>
    <path d="M 178.839799 193.097789 
L 197.621365 237.076364 
" clip-path="url(#p7dbd4a2f70)" style="fill: none; stroke: #1a1a1a; stroke-opacity: 0.9; stroke-width: 1.2"/>
    <path d="M 178.839799 193.097789 
L 219.358721 152.805037 
" clip-path="url(#p7dbd4a2f70)" style="fill: none; stroke: #1a1a1a; stroke-opacity: 0.9; stroke-width: 1.2"/>
   </g>
   <g id="PathCollection_1">
    <defs>
     <path id="C0_0_6675cf99c7" d="M 0 10 
C 2.652031 10 5.195799 8.946337 7.071068 7.071068 
C 8.946337 5.195799 10 2.652031 10 -0 
C 10 -2.652031 8.946337 -5.195799 7.071068 -7.071068 
C 5.195799 -8.946337 2.652031 -10 0 -10 
C -2.652031 -10 -5.195799 -8.946337 -7.071068 -7.071068 
C -8.946337 -5.195799 -10 -2.652031 -10 0 
C -10 2.652031 -8.946337 5.195799 -7.071068 7.071068 
C -5.195799 8.946337 -2.652031 10 0 10 
z
"/>
    </defs>
    <g clip-path="url(#p7dbd4a2f70)">
     <use xlink:href="#C0_0_6675cf99c7" x="153.769105" y="125.052466" style="fill: #666666; fill-opacity: 0.9; stroke: #666666; stroke-opacity: 0.9"/>
    </g>
    <g clip-path="url(#p7dbd4a2f70)">
     <use xlink:href="#C0_0_6675cf99c7" x="239.831405" y="111.595836" style="fill: #bfbfbf; fill-opacity: 0.9; stroke: #bfbfbf; stroke-opacity: 0.9"/>
    </g>
    <g clip-path="url(#p7dbd4a2f70)">
     <use xlink:href="#C0_0_6675cf99c7" x="188.57506" y="100.19836" style="fill: #666666; fill-opacity: 0.9; stroke: #666666; stroke-opacity: 0.9"/>
    </g>
    <g clip-path="url(#p7dbd4a2f70)">
     <use xlink:href="#C0_0_6675cf99c7" x="177.425064" y="53.803636" style="fill: #bfbfbf; fill-opacity: 0.9; stroke: #bfbfbf; stroke-opacity: 0.9"/>
    </g>
    <g clip-path="url(#p7dbd4a2f70)">
     <use xlink:href="#C0_0_6675cf99c7" x="121.405942" y="167.266104" style="fill: #666666; fill-opacity: 0.9; stroke: #666666; stroke-opacity: 0.9"/>
    </g>
    <g clip-path="url(#p7dbd4a2f70)">
     <use xlink:href="#C0_0_6675cf99c7" x="55.368595" y="177.293051" style="fill: #bfbfbf; fill-opacity: 0.9; stroke: #bfbfbf; stroke-opacity: 0.9"/>
    </g>
    <g clip-path="url(#p7dbd4a2f70)">
     <use xlink:href="#C0_0_6675cf99c7" x="178.839799" y="193.097789" style="fill: #666666; fill-opacity: 0.9; stroke: #666666; stroke-opacity: 0.9"/>
    </g>
    <g clip-path="url(#p7dbd4a2f70)">
     <use xlink:href="#C0_0_6675cf99c7" x="197.621365" y="237.076364" style="fill: #bfbfbf; fill-opacity: 0.9; stroke: #bfbfbf; stroke-opacity: 0.9"/>
    </g>
    <g clip-path="url(#p7dbd4a2f70)">
     <use xlink:href="#C0_0_6675cf99c7" x="219.358721" y="152.805037" style="fill: #b2b200; fill-opacity: 0.9; stroke: #b2b200; stroke-opacity: 0.9"/>
    </g>
   </g>
   <g id="patch_3">
    <path d="M 36 256.32 
L 36 34.56 
" style="fill: none; stroke: #262626; stroke-width: 1.25; stroke-linejoin: miter; stroke-linecap: square"/>
   </g>
   <g id="patch_4">
    <path d="M 36 256.32 
L 259.2 256.32 
" style="fill: none; stroke: #262626; stroke-width: 1.25; stroke-linejoin: miter; stroke-linecap: square"/>
   </g>
   <g id="text_1">
    <g clip-path="url(#p7dbd4a2f70)">
     <!-- C -->
     <g style="fill: #ffffff; opacity: 0.9" transform="translate(149.365667 128.363716)scale(0.12 -0.12)">
      <defs>
       <path id="DejaVuSans-Bold-43" d="M 4288 256 
Q 3956 84 3597 -3 
Q 3238 -91 2847 -91 
Q 1681 -91 1000 561 
Q 319 1213 319 2328 
Q 319 3447 1000 4098 
Q 1681 4750 2847 4750 
Q 3238 4750 3597 4662 
Q 3956 4575 4288 4403 
L 4288 3438 
Q 3953 3666 3628 3772 
Q 3303 3878 2944 3878 
Q 2300 3878 1931 3465 
Q 1563 3053 1563 2328 
Q 1563 1606 1931 1193 
Q 2300 781 2944 781 
Q 3303 781 3628 887 
Q 3953 994 4288 1222 
L 4288 256 
z
" transform="scale(0.015625)"/>
      </defs>
      <use xlink:href="#DejaVuSans-Bold-43"/>
     </g>
    </g>
   </g>
   <g id="text_2">
    <g clip-path="url(#p7dbd4a2f70)">
     <!-- H -->
     <g style="fill: #ffffff; opacity: 0.9" transform="translate(234.810155 114.907086)scale(0.12 -0.12)">
      <defs>
       <path id="DejaVuSans-Bold-48" d="M 588 4666 
L 1791 4666 
L 1791 2888 
L 3566 2888 
L 3566 4666 
L 4769 4666 
L 4769 0 
L 3566 0 
L 3566 1978 
L 1791 1978 
L 1791 0 
L 588 0 
L 588 4666 
z
" transform="scale(0.015625)"/>
      </defs>
      <use xlink:href="#DejaVuSans-Bold-48"/>
     </g>
    </g>
   </g>
   <g id="text_3">
    <g clip-path="url(#p7dbd4a2f70)">
     <!-- C -->
     <g style="fill: #ffffff; opacity: 0.9" transform="translate(184.171622 103.50961)scale(0.12 -0.12)">
      <use xlink:href="#DejaVuSans-Bold-43"/>
     </g>
    </g>
   </g>
   <g id="text_4">
    <g clip-path="url(#p7dbd4a2f70)">
     <!-- H -->
     <g style="fill: #ffffff; opacity: 0.9" transform="translate(172.403814 57.114886)scale(0.12 -0.12)">
      <use xlink:href="#DejaVuSans-Bold-48"/>
     </g>
    </g>
   </g>
   <g id="text_5">
    <g clip-path="url(#p7dbd4a2f70)">
     <!-- C -->
     <g style="fill: #ffffff; opacity: 0.9" transform="translate(117.002505 170.577354)scale(0.12 -0.12)">
      <use xlink:href="#DejaVuSans-Bold-43"/>
     </g>
    </g>
   </g>
   <g id="text_6">
    <g clip-path="url(#p7dbd4a2f70)">
     <!-- H -->
     <g style="fill: #ffffff; opacity: 0.9" transform="translate(50.347345 180.604301)scale(0.12 -0.12)">
      <use xlink:href="#DejaVuSans-Bold-48"/>
     </g>
    </g>
   </g>
   <g id="text_7">
    <g clip-path="url(#p7dbd4a2f70)">
     <!-- C -->
     <g style="fill: #ffffff; opacity: 0.9" transform="translate(174.436362 196.409039)scale(0.12 -0.12)">
      <use xlink:href="#DejaVuSans-Bold-43"/>
     </g>
    </g>
   </g>
   <g id="text_8">
    <g clip-path="url(#p7dbd4a2f70)">
     <!-- H -->
     <g style="fill: #ffffff; opacity: 0.9" transform="translate(192.600115 240.387614)scale(0.12 -0.12)">
      <use xlink:href="#DejaVuSans-Bold-48"/>
     </g>
    </g>
   </g>
   <g id="text_9">
    <g clip-path="url(#p7dbd4a2f70)">
     <!-- S -->
     <g style="fill: #ffffff; opacity: 0.9" transform="translate(215.037783 156.116287)scale(0.12 -0.12)">
      <defs>
       <path id="DejaVuSans-Bold-53" d="M 3834 4519 
L 3834 3531 
Q 3450 3703 3084 3790 
Q 2719 3878 2394 3878 
Q 1963 3878 1756 3759 
Q 1550 3641 1550 3391 
Q 1550 3203 1689 3098 
Q 1828 2994 2194 2919 
L 2706 2816 
Q 3484 2659 3812 2340 
Q 4141 2022 4141 1434 
Q 4141 663 3683 286 
Q 3225 -91 2284 -91 
Q 1841 -91 1394 -6 
Q 947 78 500 244 
L 500 1259 
Q 947 1022 1364 901 
Q 1781 781 2169 781 
Q 2563 781 2772 912 
Q 2981 1044 2981 1288 
Q 2981 1506 2839 1625 
Q 2697 1744 2272 1838 
L 1806 1941 
Q 1106 2091 782 2419 
Q 459 2747 459 3303 
Q 459 4000 909 4375 
Q 1359 4750 2203 4750 
Q 2588 4750 2994 4692 
Q 3400 4634 3834 4519 
z
" transform="scale(0.015625)"/>
      </defs>
      <use xlink:href="#DejaVuSans-Bold-53"/>
     </g>
    </g>
   </g>
  </g>
 </g>
 <defs>
  <clipPath id="p7dbd4a2f70">
   <rect x="36" y="34.56" width="223.2" height="221.76"/>
  </clipPath>
 </defs>
</svg>
