<?xml version="1.0" encoding="utf-8" standalone="no"?>
<!DOCTYPE svg PUBLIC "-//W3C//DTD SVG 1.1//EN"
  "http://www.w3.org/Graphics/SVG/1.1/DTD/svg11.dtd">
<svg xmlns:xlink="http://www.w3.org/1999/xlink" width="433.595826pt" height="291.864087pt" viewBox="0 0 433.595826 291.864087" xmlns="http://www.w3.org/2000/svg" version="1.1">
 <metadata>
  <rdf:RDF xmlns:dc="http://purl.org/dc/elements/1.1/" xmlns:cc="http://creativecommons.org/ns#" xmlns:rdf="http://www.w3.org/1999/02/22-rdf-syntax-ns#">
   <cc:Work>
    <dc:type rdf:resource="http://purl.org/dc/dcmitype/StillImage"/>
    <dc:date>2022-09-21T17:42:34.773807</dc:date>
    <dc:format>image/svg+xml</dc:format>
    <dc:creator>
     <cc:Agent>
      <dc:title>Matplotlib v3.5.1, https://matplotlib.org/</dc:title>
     </cc:Agent>
    </dc:creator>
   </cc:Work>
  </rdf:RDF>
 </metadata>
 <defs>
  <style type="text/css">*{stroke-linejoin: round; stroke-linecap: butt}</style>
 </defs>
 <g id="figure_1">
  <g id="patch_1">
   <path d="M 0 291.864087 
L 433.595826 291.864087 
L 433.595826 0 
L 0 0 
z
" style="fill: #ffffff"/>
  </g>
  <g id="axes_1">
   <g id="patch_2">
    <path d="M 64.839375 242.129712 
L 416.685137 242.129712 
L 416.685137 7.2 
L 64.839375 7.2 
z
" style="fill: #ffffff"/>
   </g>
   <g id="matplotlib.axis_1">
    <g id="xtick_1">
     <g id="line2d_1">
      <path d="M 66.581186 242.129712 
L 66.581186 7.2 
" clip-path="url(#pc2ac275de4)" style="fill: none; stroke: #cccccc; stroke-linecap: round"/>
     </g>
     <g id="line2d_2">
      <defs>
       <path id="mab15057de5" d="M 0 0 
L 0 6 
" style="stroke: #262626; stroke-width: 1.25"/>
      </defs>
      <g>
       <use xlink:href="#mab15057de5" x="66.581186" y="242.129712" style="fill: #262626; stroke: #262626; stroke-width: 1.25"/>
      </g>
     </g>
     <g id="text_1">
      <!-- 0 -->
      <g style="fill: #262626" transform="translate(62.763686 260.747837)scale(0.12 -0.12)">
       <defs>
        <path id="DejaVuSans-30" d="M 2034 4250 
Q 1547 4250 1301 3770 
Q 1056 3291 1056 2328 
Q 1056 1369 1301 889 
Q 1547 409 2034 409 
Q 2525 409 2770 889 
Q 3016 1369 3016 2328 
Q 3016 3291 2770 3770 
Q 2525 4250 2034 4250 
z
M 2034 4750 
Q 2819 4750 3233 4129 
Q 3647 3509 3647 2328 
Q 3647 1150 3233 529 
Q 2819 -91 2034 -91 
Q 1250 -91 836 529 
Q 422 1150 422 2328 
Q 422 3509 836 4129 
Q 1250 4750 2034 4750 
z
" transform="scale(0.015625)"/>
       </defs>
       <use xlink:href="#DejaVuSans-30"/>
      </g>
     </g>
    </g>
    <g id="xtick_2">
     <g id="line2d_3">
      <path d="M 110.126453 242.129712 
L 110.126453 7.2 
" clip-path="url(#pc2ac275de4)" style="fill: none; stroke: #cccccc; stroke-linecap: round"/>
     </g>
     <g id="line2d_4">
      <g>
       <use xlink:href="#mab15057de5" x="110.126453" y="242.129712" style="fill: #262626; stroke: #262626; stroke-width: 1.25"/>
      </g>
     </g>
     <g id="text_2">
      <!-- 25 -->
      <g style="fill: #262626" transform="translate(102.491453 260.747837)scale(0.12 -0.12)">
       <defs>
        <path id="DejaVuSans-32" d="M 1228 531 
L 3431 531 
L 3431 0 
L 469 0 
L 469 531 
Q 828 903 1448 1529 
Q 2069 2156 2228 2338 
Q 2531 2678 2651 2914 
Q 2772 3150 2772 3378 
Q 2772 3750 2511 3984 
Q 2250 4219 1831 4219 
Q 1534 4219 1204 4116 
Q 875 4013 500 3803 
L 500 4441 
Q 881 4594 1212 4672 
Q 1544 4750 1819 4750 
Q 2544 4750 2975 4387 
Q 3406 4025 3406 3419 
Q 3406 3131 3298 2873 
Q 3191 2616 2906 2266 
Q 2828 2175 2409 1742 
Q 1991 1309 1228 531 
z
" transform="scale(0.015625)"/>
        <path id="DejaVuSans-35" d="M 691 4666 
L 3169 4666 
L 3169 4134 
L 1269 4134 
L 1269 2991 
Q 1406 3038 1543 3061 
Q 1681 3084 1819 3084 
Q 2600 3084 3056 2656 
Q 3513 2228 3513 1497 
Q 3513 744 3044 326 
Q 2575 -91 1722 -91 
Q 1428 -91 1123 -41 
Q 819 9 494 109 
L 494 744 
Q 775 591 1075 516 
Q 1375 441 1709 441 
Q 2250 441 2565 725 
Q 2881 1009 2881 1497 
Q 2881 1984 2565 2268 
Q 2250 2553 1709 2553 
Q 1456 2553 1204 2497 
Q 953 2441 691 2322 
L 691 4666 
z
" transform="scale(0.015625)"/>
       </defs>
       <use xlink:href="#DejaVuSans-32"/>
       <use xlink:href="#DejaVuSans-35" x="63.623047"/>
      </g>
     </g>
    </g>
    <g id="xtick_3">
     <g id="line2d_5">
      <path d="M 153.671721 242.129712 
L 153.671721 7.2 
" clip-path="url(#pc2ac275de4)" style="fill: none; stroke: #cccccc; stroke-linecap: round"/>
     </g>
     <g id="line2d_6">
      <g>
       <use xlink:href="#mab15057de5" x="153.671721" y="242.129712" style="fill: #262626; stroke: #262626; stroke-width: 1.25"/>
      </g>
     </g>
     <g id="text_3">
      <!-- 50 -->
      <g style="fill: #262626" transform="translate(146.036721 260.747837)scale(0.12 -0.12)">
       <use xlink:href="#DejaVuSans-35"/>
       <use xlink:href="#DejaVuSans-30" x="63.623047"/>
      </g>
     </g>
    </g>
    <g id="xtick_4">
     <g id="line2d_7">
      <path d="M 197.216988 242.129712 
L 197.216988 7.2 
" clip-path="url(#pc2ac275de4)" style="fill: none; stroke: #cccccc; stroke-linecap: round"/>
     </g>
     <g id="line2d_8">
      <g>
       <use xlink:href="#mab15057de5" x="197.216988" y="242.129712" style="fill: #262626; stroke: #262626; stroke-width: 1.25"/>
      </g>
     </g>
     <g id="text_4">
      <!-- 75 -->
      <g style="fill: #262626" transform="translate(189.581988 260.747837)scale(0.12 -0.12)">
       <defs>
        <path id="DejaVuSans-37" d="M 525 4666 
L 3525 4666 
L 3525 4397 
L 1831 0 
L 1172 0 
L 2766 4134 
L 525 4134 
L 525 4666 
z
" transform="scale(0.015625)"/>
       </defs>
       <use xlink:href="#DejaVuSans-37"/>
       <use xlink:href="#DejaVuSans-35" x="63.623047"/>
      </g>
     </g>
    </g>
    <g id="xtick_5">
     <g id="line2d_9">
      <path d="M 240.762256 242.129712 
L 240.762256 7.2 
" clip-path="url(#pc2ac275de4)" style="fill: none; stroke: #cccccc; stroke-linecap: round"/>
     </g>
     <g id="line2d_10">
      <g>
       <use xlink:href="#mab15057de5" x="240.762256" y="242.129712" style="fill: #262626; stroke: #262626; stroke-width: 1.25"/>
      </g>
     </g>
     <g id="text_5">
      <!-- 100 -->
      <g style="fill: #262626" transform="translate(229.309756 260.747837)scale(0.12 -0.12)">
       <defs>
        <path id="DejaVuSans-31" d="M 794 531 
L 1825 531 
L 1825 4091 
L 703 3866 
L 703 4441 
L 1819 4666 
L 2450 4666 
L 2450 531 
L 3481 531 
L 3481 0 
L 794 0 
L 794 531 
z
" transform="scale(0.015625)"/>
       </defs>
       <use xlink:href="#DejaVuSans-31"/>
       <use xlink:href="#DejaVuSans-30" x="63.623047"/>
       <use xlink:href="#DejaVuSans-30" x="127.246094"/>
      </g>
     </g>
    </g>
    <g id="xtick_6">
     <g id="line2d_11">
      <path d="M 284.307523 242.129712 
L 284.307523 7.2 
" clip-path="url(#pc2ac275de4)" style="fill: none; stroke: #cccccc; stroke-linecap: round"/>
     </g>
     <g id="line2d_12">
      <g>
       <use xlink:href="#mab15057de5" x="284.307523" y="242.129712" style="fill: #262626; stroke: #262626; stroke-width: 1.25"/>
      </g>
     </g>
     <g id="text_6">
      <!-- 125 -->
      <g style="fill: #262626" transform="translate(272.855023 260.747837)scale(0.12 -0.12)">
       <use xlink:href="#DejaVuSans-31"/>
       <use xlink:href="#DejaVuSans-32" x="63.623047"/>
       <use xlink:href="#DejaVuSans-35" x="127.246094"/>
      </g>
     </g>
    </g>
    <g id="xtick_7">
     <g id="line2d_13">
      <path d="M 327.852791 242.129712 
L 327.852791 7.2 
" clip-path="url(#pc2ac275de4)" style="fill: none; stroke: #cccccc; stroke-linecap: round"/>
     </g>
     <g id="line2d_14">
      <g>
       <use xlink:href="#mab15057de5" x="327.852791" y="242.129712" style="fill: #262626; stroke: #262626; stroke-width: 1.25"/>
      </g>
     </g>
     <g id="text_7">
      <!-- 150 -->
      <g style="fill: #262626" transform="translate(316.400291 260.747837)scale(0.12 -0.12)">
       <use xlink:href="#DejaVuSans-31"/>
       <use xlink:href="#DejaVuSans-35" x="63.623047"/>
       <use xlink:href="#DejaVuSans-30" x="127.246094"/>
      </g>
     </g>
    </g>
    <g id="xtick_8">
     <g id="line2d_15">
      <path d="M 371.398059 242.129712 
L 371.398059 7.2 
" clip-path="url(#pc2ac275de4)" style="fill: none; stroke: #cccccc; stroke-linecap: round"/>
     </g>
     <g id="line2d_16">
      <g>
       <use xlink:href="#mab15057de5" x="371.398059" y="242.129712" style="fill: #262626; stroke: #262626; stroke-width: 1.25"/>
      </g>
     </g>
     <g id="text_8">
      <!-- 175 -->
      <g style="fill: #262626" transform="translate(359.945559 260.747837)scale(0.12 -0.12)">
       <use xlink:href="#DejaVuSans-31"/>
       <use xlink:href="#DejaVuSans-37" x="63.623047"/>
       <use xlink:href="#DejaVuSans-35" x="127.246094"/>
      </g>
     </g>
    </g>
    <g id="xtick_9">
     <g id="line2d_17">
      <path d="M 414.943326 242.129712 
L 414.943326 7.2 
" clip-path="url(#pc2ac275de4)" style="fill: none; stroke: #cccccc; stroke-linecap: round"/>
     </g>
     <g id="line2d_18">
      <g>
       <use xlink:href="#mab15057de5" x="414.943326" y="242.129712" style="fill: #262626; stroke: #262626; stroke-width: 1.25"/>
      </g>
     </g>
     <g id="text_9">
      <!-- 200 -->
      <g style="fill: #262626" transform="translate(403.490826 260.747837)scale(0.12 -0.12)">
       <use xlink:href="#DejaVuSans-32"/>
       <use xlink:href="#DejaVuSans-30" x="63.623047"/>
       <use xlink:href="#DejaVuSans-30" x="127.246094"/>
      </g>
     </g>
    </g>
    <g id="text_10">
     <!-- Epoch -->
     <g style="fill: #262626" transform="translate(213.202568 280.920649)scale(0.18 -0.18)">
      <defs>
       <path id="DejaVuSans-45" d="M 628 4666 
L 3578 4666 
L 3578 4134 
L 1259 4134 
L 1259 2753 
L 3481 2753 
L 3481 2222 
L 1259 2222 
L 1259 531 
L 3634 531 
L 3634 0 
L 628 0 
L 628 4666 
z
" transform="scale(0.015625)"/>
       <path id="DejaVuSans-70" d="M 1159 525 
L 1159 -1331 
L 581 -1331 
L 581 3500 
L 1159 3500 
L 1159 2969 
Q 1341 3281 1617 3432 
Q 1894 3584 2278 3584 
Q 2916 3584 3314 3078 
Q 3713 2572 3713 1747 
Q 3713 922 3314 415 
Q 2916 -91 2278 -91 
Q 1894 -91 1617 61 
Q 1341 213 1159 525 
z
M 3116 1747 
Q 3116 2381 2855 2742 
Q 2594 3103 2138 3103 
Q 1681 3103 1420 2742 
Q 1159 2381 1159 1747 
Q 1159 1113 1420 752 
Q 1681 391 2138 391 
Q 2594 391 2855 752 
Q 3116 1113 3116 1747 
z
" transform="scale(0.015625)"/>
       <path id="DejaVuSans-6f" d="M 1959 3097 
Q 1497 3097 1228 2736 
Q 959 2375 959 1747 
Q 959 1119 1226 758 
Q 1494 397 1959 397 
Q 2419 397 2687 759 
Q 2956 1122 2956 1747 
Q 2956 2369 2687 2733 
Q 2419 3097 1959 3097 
z
M 1959 3584 
Q 2709 3584 3137 3096 
Q 3566 2609 3566 1747 
Q 3566 888 3137 398 
Q 2709 -91 1959 -91 
Q 1206 -91 779 398 
Q 353 888 353 1747 
Q 353 2609 779 3096 
Q 1206 3584 1959 3584 
z
" transform="scale(0.015625)"/>
       <path id="DejaVuSans-63" d="M 3122 3366 
L 3122 2828 
Q 2878 2963 2633 3030 
Q 2388 3097 2138 3097 
Q 1578 3097 1268 2742 
Q 959 2388 959 1747 
Q 959 1106 1268 751 
Q 1578 397 2138 397 
Q 2388 397 2633 464 
Q 2878 531 3122 666 
L 3122 134 
Q 2881 22 2623 -34 
Q 2366 -91 2075 -91 
Q 1284 -91 818 406 
Q 353 903 353 1747 
Q 353 2603 823 3093 
Q 1294 3584 2113 3584 
Q 2378 3584 2631 3529 
Q 2884 3475 3122 3366 
z
" transform="scale(0.015625)"/>
       <path id="DejaVuSans-68" d="M 3513 2113 
L 3513 0 
L 2938 0 
L 2938 2094 
Q 2938 2591 2744 2837 
Q 2550 3084 2163 3084 
Q 1697 3084 1428 2787 
Q 1159 2491 1159 1978 
L 1159 0 
L 581 0 
L 581 4863 
L 1159 4863 
L 1159 2956 
Q 1366 3272 1645 3428 
Q 1925 3584 2291 3584 
Q 2894 3584 3203 3211 
Q 3513 2838 3513 2113 
z
" transform="scale(0.015625)"/>
      </defs>
      <use xlink:href="#DejaVuSans-45"/>
      <use xlink:href="#DejaVuSans-70" x="63.183594"/>
      <use xlink:href="#DejaVuSans-6f" x="126.660156"/>
      <use xlink:href="#DejaVuSans-63" x="187.841797"/>
      <use xlink:href="#DejaVuSans-68" x="242.822266"/>
     </g>
    </g>
   </g>
   <g id="matplotlib.axis_2">
    <g id="ytick_1">
     <g id="line2d_19">
      <path d="M 64.839375 242.129712 
L 416.685137 242.129712 
" clip-path="url(#pc2ac275de4)" style="fill: none; stroke: #cccccc; stroke-linecap: round"/>
     </g>
     <g id="line2d_20">
      <defs>
       <path id="mb5aa8ac686" d="M 0 0 
L -6 0 
" style="stroke: #262626; stroke-width: 1.25"/>
      </defs>
      <g>
       <use xlink:href="#mb5aa8ac686" x="64.839375" y="242.129712" style="fill: #262626; stroke: #262626; stroke-width: 1.25"/>
      </g>
     </g>
     <g id="text_11">
      <!-- 0.00 -->
      <g style="fill: #262626" transform="translate(28.620625 246.688774)scale(0.12 -0.12)">
       <defs>
        <path id="DejaVuSans-2e" d="M 684 794 
L 1344 794 
L 1344 0 
L 684 0 
L 684 794 
z
" transform="scale(0.015625)"/>
       </defs>
       <use xlink:href="#DejaVuSans-30"/>
       <use xlink:href="#DejaVuSans-2e" x="63.623047"/>
       <use xlink:href="#DejaVuSans-30" x="95.410156"/>
       <use xlink:href="#DejaVuSans-30" x="159.033203"/>
      </g>
     </g>
    </g>
    <g id="ytick_2">
     <g id="line2d_21">
      <path d="M 64.839375 193.186022 
L 416.685137 193.186022 
" clip-path="url(#pc2ac275de4)" style="fill: none; stroke: #cccccc; stroke-linecap: round"/>
     </g>
     <g id="line2d_22">
      <g>
       <use xlink:href="#mb5aa8ac686" x="64.839375" y="193.186022" style="fill: #262626; stroke: #262626; stroke-width: 1.25"/>
      </g>
     </g>
     <g id="text_12">
      <!-- 0.25 -->
      <g style="fill: #262626" transform="translate(28.620625 197.745084)scale(0.12 -0.12)">
       <use xlink:href="#DejaVuSans-30"/>
       <use xlink:href="#DejaVuSans-2e" x="63.623047"/>
       <use xlink:href="#DejaVuSans-32" x="95.410156"/>
       <use xlink:href="#DejaVuSans-35" x="159.033203"/>
      </g>
     </g>
    </g>
    <g id="ytick_3">
     <g id="line2d_23">
      <path d="M 64.839375 144.242332 
L 416.685137 144.242332 
" clip-path="url(#pc2ac275de4)" style="fill: none; stroke: #cccccc; stroke-linecap: round"/>
     </g>
     <g id="line2d_24">
      <g>
       <use xlink:href="#mb5aa8ac686" x="64.839375" y="144.242332" style="fill: #262626; stroke: #262626; stroke-width: 1.25"/>
      </g>
     </g>
     <g id="text_13">
      <!-- 0.50 -->
      <g style="fill: #262626" transform="translate(28.620625 148.801394)scale(0.12 -0.12)">
       <use xlink:href="#DejaVuSans-30"/>
       <use xlink:href="#DejaVuSans-2e" x="63.623047"/>
       <use xlink:href="#DejaVuSans-35" x="95.410156"/>
       <use xlink:href="#DejaVuSans-30" x="159.033203"/>
      </g>
     </g>
    </g>
    <g id="ytick_4">
     <g id="line2d_25">
      <path d="M 64.839375 95.298642 
L 416.685137 95.298642 
" clip-path="url(#pc2ac275de4)" style="fill: none; stroke: #cccccc; stroke-linecap: round"/>
     </g>
     <g id="line2d_26">
      <g>
       <use xlink:href="#mb5aa8ac686" x="64.839375" y="95.298642" style="fill: #262626; stroke: #262626; stroke-width: 1.25"/>
      </g>
     </g>
     <g id="text_14">
      <!-- 0.75 -->
      <g style="fill: #262626" transform="translate(28.620625 99.857704)scale(0.12 -0.12)">
       <use xlink:href="#DejaVuSans-30"/>
       <use xlink:href="#DejaVuSans-2e" x="63.623047"/>
       <use xlink:href="#DejaVuSans-37" x="95.410156"/>
       <use xlink:href="#DejaVuSans-35" x="159.033203"/>
      </g>
     </g>
    </g>
    <g id="ytick_5">
     <g id="line2d_27">
      <path d="M 64.839375 46.354952 
L 416.685137 46.354952 
" clip-path="url(#pc2ac275de4)" style="fill: none; stroke: #cccccc; stroke-linecap: round"/>
     </g>
     <g id="line2d_28">
      <g>
       <use xlink:href="#mb5aa8ac686" x="64.839375" y="46.354952" style="fill: #262626; stroke: #262626; stroke-width: 1.25"/>
      </g>
     </g>
     <g id="text_15">
      <!-- 1.00 -->
      <g style="fill: #262626" transform="translate(28.620625 50.914014)scale(0.12 -0.12)">
       <use xlink:href="#DejaVuSans-31"/>
       <use xlink:href="#DejaVuSans-2e" x="63.623047"/>
       <use xlink:href="#DejaVuSans-30" x="95.410156"/>
       <use xlink:href="#DejaVuSans-30" x="159.033203"/>
      </g>
     </g>
    </g>
    <g id="text_16">
     <!-- MAE / eV -->
     <g style="fill: #262626" transform="translate(20.877188 164.720481)rotate(-90)scale(0.18 -0.18)">
      <defs>
       <path id="DejaVuSans-4d" d="M 628 4666 
L 1569 4666 
L 2759 1491 
L 3956 4666 
L 4897 4666 
L 4897 0 
L 4281 0 
L 4281 4097 
L 3078 897 
L 2444 897 
L 1241 4097 
L 1241 0 
L 628 0 
L 628 4666 
z
" transform="scale(0.015625)"/>
       <path id="DejaVuSans-41" d="M 2188 4044 
L 1331 1722 
L 3047 1722 
L 2188 4044 
z
M 1831 4666 
L 2547 4666 
L 4325 0 
L 3669 0 
L 3244 1197 
L 1141 1197 
L 716 0 
L 50 0 
L 1831 4666 
z
" transform="scale(0.015625)"/>
       <path id="DejaVuSans-20" transform="scale(0.015625)"/>
       <path id="DejaVuSans-2f" d="M 1625 4666 
L 2156 4666 
L 531 -594 
L 0 -594 
L 1625 4666 
z
" transform="scale(0.015625)"/>
       <path id="DejaVuSans-65" d="M 3597 1894 
L 3597 1613 
L 953 1613 
Q 991 1019 1311 708 
Q 1631 397 2203 397 
Q 2534 397 2845 478 
Q 3156 559 3463 722 
L 3463 178 
Q 3153 47 2828 -22 
Q 2503 -91 2169 -91 
Q 1331 -91 842 396 
Q 353 884 353 1716 
Q 353 2575 817 3079 
Q 1281 3584 2069 3584 
Q 2775 3584 3186 3129 
Q 3597 2675 3597 1894 
z
M 3022 2063 
Q 3016 2534 2758 2815 
Q 2500 3097 2075 3097 
Q 1594 3097 1305 2825 
Q 1016 2553 972 2059 
L 3022 2063 
z
" transform="scale(0.015625)"/>
       <path id="DejaVuSans-56" d="M 1831 0 
L 50 4666 
L 709 4666 
L 2188 738 
L 3669 4666 
L 4325 4666 
L 2547 0 
L 1831 0 
z
" transform="scale(0.015625)"/>
      </defs>
      <use xlink:href="#DejaVuSans-4d"/>
      <use xlink:href="#DejaVuSans-41" x="86.279297"/>
      <use xlink:href="#DejaVuSans-45" x="154.6875"/>
      <use xlink:href="#DejaVuSans-20" x="217.871094"/>
      <use xlink:href="#DejaVuSans-2f" x="249.658203"/>
      <use xlink:href="#DejaVuSans-20" x="283.349609"/>
      <use xlink:href="#DejaVuSans-65" x="315.136719"/>
      <use xlink:href="#DejaVuSans-56" x="376.660156"/>
     </g>
    </g>
   </g>
   <g id="line2d_29">
    <path d="M 115.004755 -1 
L 115.351885 13.165552 
L 117.1104 -1 
M 122.613553 -1 
L 124.060939 13.679873 
L 125.80275 3.728806 
L 126.073721 -1 
M 128.235598 -1 
L 129.286371 38.030265 
L 131.028182 53.362443 
L 132.281026 -1 
M 133.156437 -1 
L 134.511803 73.413288 
L 136.253614 94.742716 
L 137.995424 98.437366 
L 139.737235 76.020691 
L 141.479046 70.736657 
L 143.220857 74.620533 
L 144.962667 99.12405 
L 146.704478 36.099251 
L 148.446289 99.437042 
L 150.188099 82.41467 
L 151.92991 87.648894 
L 153.671721 85.98941 
L 155.413532 113.280523 
L 157.155342 121.031513 
L 158.897153 127.416334 
L 160.638964 125.237454 
L 162.380774 118.981331 
L 164.122585 104.867801 
L 165.864396 97.966748 
L 167.606206 128.531884 
L 169.348017 117.240711 
L 171.089828 134.781987 
L 172.831639 150.825481 
L 174.573449 159.604498 
L 176.31526 148.845081 
L 178.057071 151.200083 
L 179.798881 159.337566 
L 181.540692 141.017977 
L 183.282503 158.043077 
L 185.024313 141.124779 
L 186.766124 151.126462 
L 188.507935 162.205401 
L 190.249746 132.577849 
L 191.991556 137.622026 
L 193.733367 155.773118 
L 195.475178 146.149461 
L 197.216988 148.627226 
L 198.958799 166.491216 
L 200.70061 162.728062 
L 202.44242 124.382537 
L 204.184231 161.925381 
L 205.926042 160.46569 
L 207.667853 172.89865 
L 209.409663 158.983867 
L 211.151474 166.014937 
L 212.893285 165.392849 
L 214.635095 160.185939 
L 216.376906 163.546857 
L 218.118717 171.711745 
L 219.860527 177.944255 
L 221.602338 165.412867 
L 223.344149 159.018008 
L 225.08596 175.267031 
L 226.82777 166.507525 
L 228.569581 175.484955 
L 230.311392 169.813446 
L 232.053202 172.496975 
L 233.795013 178.37758 
L 235.536824 168.481452 
L 237.278635 178.868625 
L 239.020445 181.936173 
L 240.762256 166.539751 
L 242.504067 175.392254 
L 244.245877 169.441462 
L 245.987688 179.485908 
L 247.729499 183.25824 
L 249.471309 184.90919 
L 251.21312 182.861614 
L 252.954931 174.548533 
L 254.696742 188.744595 
L 256.438552 183.954358 
L 258.180363 181.921372 
L 259.922174 183.135543 
L 261.663984 186.780825 
L 263.405795 188.019545 
L 265.147606 184.868985 
L 266.889416 189.292879 
L 268.631227 188.668303 
L 270.373038 193.486227 
L 272.114849 190.039921 
L 273.856659 191.270661 
L 275.59847 185.859288 
L 277.340281 190.703189 
L 279.082091 190.237798 
L 280.823902 178.664717 
L 282.565713 194.58472 
L 284.307523 192.061491 
L 286.049334 193.270713 
L 287.791145 195.513362 
L 289.532956 194.754248 
L 291.274766 194.942217 
L 293.016577 191.004535 
L 294.758388 196.246991 
L 296.500198 193.467317 
L 298.242009 196.873451 
L 299.98382 194.628203 
L 301.72563 194.964997 
L 303.467441 197.103176 
L 305.209252 196.088034 
L 306.951063 197.324318 
L 308.692873 197.548984 
L 310.434684 197.249146 
L 312.176495 196.531121 
L 313.918305 195.63553 
L 315.660116 198.146746 
L 317.401927 197.662582 
L 319.143738 198.784982 
L 320.885548 198.978986 
L 322.627359 199.555438 
L 324.36917 199.12424 
L 326.11098 198.926384 
L 327.852791 200.286742 
L 329.594602 200.115832 
L 331.336412 199.448773 
L 333.078223 199.963665 
L 334.820034 200.027197 
L 336.561845 199.718349 
L 340.045466 200.816644 
L 341.787277 200.216882 
L 343.529087 200.613805 
L 350.49633 200.932151 
L 352.238141 201.129903 
L 353.979952 201.008333 
L 355.721762 201.210549 
L 357.463573 201.082609 
L 359.205384 201.345672 
L 364.430816 201.096899 
L 366.172626 201.003369 
L 367.914437 201.366284 
L 369.656248 201.394147 
L 371.398059 200.990383 
L 374.88168 201.555878 
L 376.623491 201.464269 
L 378.365301 201.703051 
L 381.848923 201.596884 
L 383.590733 201.788536 
L 385.332544 201.756171 
L 387.074355 201.566718 
L 388.816166 201.768872 
L 390.557976 201.807775 
L 392.299787 201.590236 
L 394.041598 201.547714 
L 397.525219 201.994806 
L 399.26703 202.081024 
L 402.750651 201.896195 
L 413.201515 202.110398 
L 413.201515 202.110398 
" clip-path="url(#pc2ac275de4)" style="fill: none; stroke: #5fbcd3; stroke-width: 2; stroke-linecap: round"/>
   </g>
   <g id="line2d_30">
    <path d="M 101.290715 -1 
L 101.4174 11.185035 
L 101.4656 -1 
M 113.435119 -1 
L 113.610075 39.845308 
L 114.098065 -1 
M 120.041278 -1 
L 120.577317 88.421732 
L 122.319128 40.357277 
L 123.108302 -1 
M 124.784818 -1 
L 125.80275 69.203606 
L 127.504517 -1 
M 132.332309 -1 
L 132.769992 71.961875 
L 134.511803 67.029761 
L 136.253614 122.045379 
L 137.995424 96.351424 
L 139.737235 56.987916 
L 141.479046 122.803669 
L 143.220857 134.352784 
L 144.714024 -1 
M 145.567454 -1 
L 146.704478 41.374346 
L 148.446289 98.080838 
L 150.188099 80.38076 
L 151.92991 34.410954 
L 153.671721 38.411281 
L 155.413532 132.468175 
L 157.155342 110.811648 
L 158.897153 154.328706 
L 160.638964 118.292023 
L 162.226177 -1 
M 162.676557 -1 
L 164.122585 55.804429 
L 165.864396 145.598679 
L 167.606206 57.132291 
L 169.348017 95.333776 
L 172.831639 156.789479 
L 174.573449 48.504929 
L 176.31526 114.312679 
L 178.057071 96.493296 
L 179.798881 82.288016 
L 181.540692 166.804461 
L 183.282503 117.691365 
L 185.024313 140.858925 
L 186.766124 167.991496 
L 188.507935 75.592068 
L 190.249746 86.247022 
L 191.991556 133.591867 
L 193.733367 166.817476 
L 195.475178 160.469977 
L 197.216988 171.921572 
L 198.958799 133.37665 
L 200.70061 52.600959 
L 202.44242 176.455611 
L 204.184231 167.491489 
L 205.926042 175.777451 
L 207.667853 166.280304 
L 209.409663 123.251953 
L 211.151474 170.27689 
L 212.893285 124.067124 
L 214.635095 73.67226 
L 216.376906 171.385502 
L 218.118717 180.255441 
L 219.860527 97.692197 
L 221.602338 143.472792 
L 223.344149 143.645195 
L 225.08596 181.29315 
L 226.82777 177.432839 
L 228.569581 181.256514 
L 230.311392 132.752258 
L 232.053202 181.591631 
L 233.795013 166.89423 
L 235.536824 183.564038 
L 237.278635 182.518462 
L 239.020445 171.739883 
L 240.762256 176.858095 
L 242.504067 104.170171 
L 244.245877 167.246164 
L 245.987688 182.203259 
L 247.729499 173.642601 
L 249.471309 161.093499 
L 251.21312 183.641961 
L 252.954931 180.169674 
L 254.696742 161.8155 
L 256.438552 180.45994 
L 258.180363 180.42233 
L 259.922174 169.666783 
L 261.663984 166.173652 
L 263.405795 179.565798 
L 265.147606 183.007669 
L 266.889416 165.226308 
L 268.631227 185.147526 
L 270.373038 182.920166 
L 272.114849 179.802096 
L 273.856659 163.96203 
L 275.59847 169.487964 
L 277.340281 174.113973 
L 279.082091 162.69997 
L 280.823902 189.716619 
L 282.565713 180.419743 
L 284.307523 186.040604 
L 286.049334 190.653728 
L 287.791145 186.86399 
L 289.532956 187.737002 
L 291.274766 182.143644 
L 293.016577 187.17889 
L 294.758388 189.430933 
L 296.500198 185.007241 
L 298.242009 190.933486 
L 299.98382 184.121554 
L 301.72563 190.515309 
L 303.467441 186.956418 
L 305.209252 188.750257 
L 306.951063 189.838595 
L 308.692873 189.668752 
L 310.434684 186.131412 
L 312.176495 178.545122 
L 313.918305 187.945229 
L 315.660116 190.651451 
L 317.401927 189.965495 
L 320.885548 190.72041 
L 322.627359 187.050075 
L 324.36917 192.298321 
L 326.11098 191.290564 
L 327.852791 191.573461 
L 331.336412 186.363933 
L 333.078223 191.258599 
L 334.820034 190.255841 
L 336.561845 191.947136 
L 338.303655 192.175615 
L 341.787277 191.961158 
L 343.529087 190.742514 
L 345.270898 191.732322 
L 347.012709 192.365537 
L 348.754519 191.206142 
L 350.49633 192.098216 
L 352.238141 191.932959 
L 353.979952 191.633846 
L 355.721762 192.615888 
L 357.463573 191.537861 
L 359.205384 192.223317 
L 360.947194 191.531177 
L 362.689005 192.024818 
L 364.430816 191.3995 
L 366.172626 192.313148 
L 367.914437 192.437298 
L 369.656248 192.205841 
L 371.398059 191.568656 
L 373.139869 191.600761 
L 374.88168 192.136663 
L 376.623491 191.745503 
L 378.365301 192.272889 
L 380.107112 191.783799 
L 381.848923 192.211524 
L 383.590733 192.362947 
L 385.332544 191.750762 
L 387.074355 191.894139 
L 388.816166 192.305046 
L 390.557976 192.07894 
L 392.299787 191.991081 
L 394.041598 192.391297 
L 395.783408 192.486251 
L 397.525219 192.231117 
L 401.008841 192.082209 
L 402.750651 191.5871 
L 406.234273 192.458829 
L 407.976083 192.052671 
L 409.717894 192.262313 
L 413.201515 192.439665 
L 413.201515 192.439665 
" clip-path="url(#pc2ac275de4)" style="fill: none; stroke: #de8787; stroke-width: 2; stroke-linecap: round"/>
   </g>
   <g id="line2d_31">
    <path d="M 101.1469 -1 
L 101.4174 27.762434 
L 101.526447 -1 
M 113.448251 -1 
L 113.610075 34.981269 
L 114.114764 -1 
M 120.006712 -1 
L 120.577317 91.983521 
L 122.319128 41.466334 
L 123.224163 -1 
M 124.648965 -1 
L 125.80275 76.040116 
L 127.54456 10.940815 
L 127.676777 -1 
M 132.306509 -1 
L 132.769992 76.803253 
L 134.511803 68.657259 
L 136.253614 130.073984 
L 137.995424 89.299028 
L 139.737235 56.176046 
L 141.479046 122.910569 
L 143.220857 121.737252 
L 144.646406 -1 
M 145.736718 -1 
L 148.446289 96.922371 
L 150.188099 77.368619 
L 151.92991 33.476107 
L 153.671721 30.028536 
L 155.413532 132.465165 
L 157.155342 110.335235 
L 158.897153 145.592813 
L 160.638964 116.02397 
L 162.133861 -1 
M 162.891864 -1 
L 164.122585 45.544571 
L 165.864396 137.244704 
L 167.606206 53.222458 
L 169.348017 93.458627 
L 171.089828 120.652001 
L 172.831639 152.531392 
L 174.573449 47.927124 
L 176.31526 110.368973 
L 178.057071 94.756882 
L 179.798881 77.575763 
L 181.540692 161.613242 
L 183.282503 113.233599 
L 186.766124 162.630846 
L 188.507935 70.907022 
L 190.249746 83.532886 
L 191.991556 128.964218 
L 193.733367 162.351066 
L 195.475178 151.203372 
L 197.216988 165.262074 
L 198.958799 128.609417 
L 200.70061 49.529097 
L 202.44242 164.823369 
L 204.184231 164.548883 
L 205.926042 163.752581 
L 207.667853 157.402876 
L 209.409663 117.855568 
L 211.151474 162.614466 
L 212.893285 114.095146 
L 214.635095 70.583229 
L 216.376906 167.695068 
L 218.118717 172.122315 
L 219.860527 93.380285 
L 221.602338 139.094227 
L 223.344149 142.529785 
L 225.08596 178.528248 
L 226.82777 169.146583 
L 228.569581 178.795305 
L 230.311392 129.957555 
L 232.053202 176.5333 
L 233.795013 165.150545 
L 235.536824 176.122726 
L 237.278635 175.504082 
L 239.020445 168.020534 
L 240.762256 174.060433 
L 242.504067 103.246139 
L 244.245877 164.070905 
L 245.987688 175.89682 
L 247.729499 167.931371 
L 249.471309 155.593905 
L 251.21312 177.445611 
L 252.954931 177.552733 
L 254.696742 156.193341 
L 256.438552 179.649794 
L 258.180363 175.228851 
L 259.922174 167.221744 
L 261.663984 159.818551 
L 263.405795 177.000039 
L 265.147606 179.983422 
L 266.889416 160.241181 
L 268.631227 183.036195 
L 270.373038 178.263199 
L 272.114849 175.045447 
L 273.856659 160.504789 
L 275.59847 165.711345 
L 277.340281 173.269622 
L 279.082091 158.955923 
L 280.823902 185.61805 
L 282.565713 179.885744 
L 284.307523 181.34619 
L 286.049334 185.143577 
L 287.791145 184.077006 
L 289.532956 185.137387 
L 291.274766 177.917588 
L 294.758388 185.939353 
L 296.500198 180.356988 
L 298.242009 185.531959 
L 299.98382 177.98875 
L 301.72563 187.432499 
L 303.467441 183.329647 
L 305.209252 185.810237 
L 306.951063 186.310987 
L 308.692873 185.367455 
L 310.434684 183.556699 
L 312.176495 176.429316 
L 313.918305 183.605447 
L 315.660116 186.635134 
L 317.401927 187.116433 
L 319.143738 186.221248 
L 320.885548 187.23437 
L 322.627359 184.267809 
L 324.36917 188.350189 
L 327.852791 187.951409 
L 329.594602 187.111827 
L 331.336412 184.636932 
L 333.078223 186.686854 
L 334.820034 187.912038 
L 336.561845 187.662445 
L 340.045466 188.10953 
L 341.787277 187.189861 
L 343.529087 188.09144 
L 345.270898 187.603151 
L 347.012709 188.415275 
L 348.754519 188.315093 
L 350.49633 188.466491 
L 352.238141 187.918721 
L 353.979952 187.99373 
L 355.721762 188.362221 
L 357.463573 188.152054 
L 359.205384 188.465864 
L 360.947194 188.080654 
L 362.689005 188.464387 
L 364.430816 188.286092 
L 366.172626 188.527839 
L 367.914437 188.454249 
L 369.656248 188.707456 
L 371.398059 187.897615 
L 373.139869 187.59647 
L 374.88168 188.548308 
L 376.623491 188.551372 
L 378.365301 188.772249 
L 380.107112 188.539143 
L 381.848923 188.670845 
L 383.590733 188.440617 
L 385.332544 188.083415 
L 387.074355 188.493017 
L 392.299787 188.486345 
L 394.041598 188.850421 
L 399.26703 188.452636 
L 401.008841 188.684668 
L 402.750651 188.406489 
L 404.492462 188.558117 
L 406.234273 188.53306 
L 407.976083 188.380409 
L 409.717894 188.727255 
L 413.201515 188.685705 
L 413.201515 188.685705 
" clip-path="url(#pc2ac275de4)" style="fill: none; stroke: #ffd42a; stroke-width: 2; stroke-linecap: round"/>
   </g>
   <g id="patch_3">
    <path d="M 64.839375 242.129712 
L 64.839375 7.2 
" style="fill: none; stroke: #262626; stroke-width: 1.25; stroke-linejoin: miter; stroke-linecap: square"/>
   </g>
   <g id="patch_4">
    <path d="M 64.839375 242.129712 
L 416.685137 242.129712 
" style="fill: none; stroke: #262626; stroke-width: 1.25; stroke-linejoin: miter; stroke-linecap: square"/>
   </g>
   <g id="legend_1">
    <g id="patch_5">
     <path d="M 310.627637 69.64125 
L 408.285137 69.64125 
Q 410.685137 69.64125 410.685137 67.24125 
L 410.685137 15.6 
Q 410.685137 13.2 408.285137 13.2 
L 310.627637 13.2 
Q 308.227637 13.2 308.227637 15.6 
L 308.227637 67.24125 
Q 308.227637 69.64125 310.627637 69.64125 
z
" style="fill: #ffffff; opacity: 0.8; stroke: #cccccc; stroke-linejoin: miter"/>
    </g>
    <g id="line2d_32">
     <path d="M 313.027637 22.918125 
L 325.027637 22.918125 
L 337.027637 22.918125 
" style="fill: none; stroke: #5fbcd3; stroke-width: 2; stroke-linecap: round"/>
    </g>
    <g id="text_17">
     <!-- Train -->
     <g style="fill: #262626" transform="translate(346.627637 27.118125)scale(0.12 -0.12)">
      <defs>
       <path id="DejaVuSans-54" d="M -19 4666 
L 3928 4666 
L 3928 4134 
L 2272 4134 
L 2272 0 
L 1638 0 
L 1638 4134 
L -19 4134 
L -19 4666 
z
" transform="scale(0.015625)"/>
       <path id="DejaVuSans-72" d="M 2631 2963 
Q 2534 3019 2420 3045 
Q 2306 3072 2169 3072 
Q 1681 3072 1420 2755 
Q 1159 2438 1159 1844 
L 1159 0 
L 581 0 
L 581 3500 
L 1159 3500 
L 1159 2956 
Q 1341 3275 1631 3429 
Q 1922 3584 2338 3584 
Q 2397 3584 2469 3576 
Q 2541 3569 2628 3553 
L 2631 2963 
z
" transform="scale(0.015625)"/>
       <path id="DejaVuSans-61" d="M 2194 1759 
Q 1497 1759 1228 1600 
Q 959 1441 959 1056 
Q 959 750 1161 570 
Q 1363 391 1709 391 
Q 2188 391 2477 730 
Q 2766 1069 2766 1631 
L 2766 1759 
L 2194 1759 
z
M 3341 1997 
L 3341 0 
L 2766 0 
L 2766 531 
Q 2569 213 2275 61 
Q 1981 -91 1556 -91 
Q 1019 -91 701 211 
Q 384 513 384 1019 
Q 384 1609 779 1909 
Q 1175 2209 1959 2209 
L 2766 2209 
L 2766 2266 
Q 2766 2663 2505 2880 
Q 2244 3097 1772 3097 
Q 1472 3097 1187 3025 
Q 903 2953 641 2809 
L 641 3341 
Q 956 3463 1253 3523 
Q 1550 3584 1831 3584 
Q 2591 3584 2966 3190 
Q 3341 2797 3341 1997 
z
" transform="scale(0.015625)"/>
       <path id="DejaVuSans-69" d="M 603 3500 
L 1178 3500 
L 1178 0 
L 603 0 
L 603 3500 
z
M 603 4863 
L 1178 4863 
L 1178 4134 
L 603 4134 
L 603 4863 
z
" transform="scale(0.015625)"/>
       <path id="DejaVuSans-6e" d="M 3513 2113 
L 3513 0 
L 2938 0 
L 2938 2094 
Q 2938 2591 2744 2837 
Q 2550 3084 2163 3084 
Q 1697 3084 1428 2787 
Q 1159 2491 1159 1978 
L 1159 0 
L 581 0 
L 581 3500 
L 1159 3500 
L 1159 2956 
Q 1366 3272 1645 3428 
Q 1925 3584 2291 3584 
Q 2894 3584 3203 3211 
Q 3513 2838 3513 2113 
z
" transform="scale(0.015625)"/>
      </defs>
      <use xlink:href="#DejaVuSans-54"/>
      <use xlink:href="#DejaVuSans-72" x="46.333984"/>
      <use xlink:href="#DejaVuSans-61" x="87.447266"/>
      <use xlink:href="#DejaVuSans-69" x="148.726562"/>
      <use xlink:href="#DejaVuSans-6e" x="176.509766"/>
     </g>
    </g>
    <g id="line2d_33">
     <path d="M 313.027637 40.531875 
L 325.027637 40.531875 
L 337.027637 40.531875 
" style="fill: none; stroke: #de8787; stroke-width: 2; stroke-linecap: round"/>
    </g>
    <g id="text_18">
     <!-- Validation -->
     <g style="fill: #262626" transform="translate(346.627637 44.731875)scale(0.12 -0.12)">
      <defs>
       <path id="DejaVuSans-6c" d="M 603 4863 
L 1178 4863 
L 1178 0 
L 603 0 
L 603 4863 
z
" transform="scale(0.015625)"/>
       <path id="DejaVuSans-64" d="M 2906 2969 
L 2906 4863 
L 3481 4863 
L 3481 0 
L 2906 0 
L 2906 525 
Q 2725 213 2448 61 
Q 2172 -91 1784 -91 
Q 1150 -91 751 415 
Q 353 922 353 1747 
Q 353 2572 751 3078 
Q 1150 3584 1784 3584 
Q 2172 3584 2448 3432 
Q 2725 3281 2906 2969 
z
M 947 1747 
Q 947 1113 1208 752 
Q 1469 391 1925 391 
Q 2381 391 2643 752 
Q 2906 1113 2906 1747 
Q 2906 2381 2643 2742 
Q 2381 3103 1925 3103 
Q 1469 3103 1208 2742 
Q 947 2381 947 1747 
z
" transform="scale(0.015625)"/>
       <path id="DejaVuSans-74" d="M 1172 4494 
L 1172 3500 
L 2356 3500 
L 2356 3053 
L 1172 3053 
L 1172 1153 
Q 1172 725 1289 603 
Q 1406 481 1766 481 
L 2356 481 
L 2356 0 
L 1766 0 
Q 1100 0 847 248 
Q 594 497 594 1153 
L 594 3053 
L 172 3053 
L 172 3500 
L 594 3500 
L 594 4494 
L 1172 4494 
z
" transform="scale(0.015625)"/>
      </defs>
      <use xlink:href="#DejaVuSans-56"/>
      <use xlink:href="#DejaVuSans-61" x="60.658203"/>
      <use xlink:href="#DejaVuSans-6c" x="121.9375"/>
      <use xlink:href="#DejaVuSans-69" x="149.720703"/>
      <use xlink:href="#DejaVuSans-64" x="177.503906"/>
      <use xlink:href="#DejaVuSans-61" x="240.980469"/>
      <use xlink:href="#DejaVuSans-74" x="302.259766"/>
      <use xlink:href="#DejaVuSans-69" x="341.46875"/>
      <use xlink:href="#DejaVuSans-6f" x="369.251953"/>
      <use xlink:href="#DejaVuSans-6e" x="430.433594"/>
     </g>
    </g>
    <g id="line2d_34">
     <path d="M 313.027637 58.145625 
L 325.027637 58.145625 
L 337.027637 58.145625 
" style="fill: none; stroke: #ffd42a; stroke-width: 2; stroke-linecap: round"/>
    </g>
    <g id="text_19">
     <!-- Test -->
     <g style="fill: #262626" transform="translate(346.627637 62.345625)scale(0.12 -0.12)">
      <defs>
       <path id="DejaVuSans-73" d="M 2834 3397 
L 2834 2853 
Q 2591 2978 2328 3040 
Q 2066 3103 1784 3103 
Q 1356 3103 1142 2972 
Q 928 2841 928 2578 
Q 928 2378 1081 2264 
Q 1234 2150 1697 2047 
L 1894 2003 
Q 2506 1872 2764 1633 
Q 3022 1394 3022 966 
Q 3022 478 2636 193 
Q 2250 -91 1575 -91 
Q 1294 -91 989 -36 
Q 684 19 347 128 
L 347 722 
Q 666 556 975 473 
Q 1284 391 1588 391 
Q 1994 391 2212 530 
Q 2431 669 2431 922 
Q 2431 1156 2273 1281 
Q 2116 1406 1581 1522 
L 1381 1569 
Q 847 1681 609 1914 
Q 372 2147 372 2553 
Q 372 3047 722 3315 
Q 1072 3584 1716 3584 
Q 2034 3584 2315 3537 
Q 2597 3491 2834 3397 
z
" transform="scale(0.015625)"/>
      </defs>
      <use xlink:href="#DejaVuSans-54"/>
      <use xlink:href="#DejaVuSans-65" x="44.083984"/>
      <use xlink:href="#DejaVuSans-73" x="105.607422"/>
      <use xlink:href="#DejaVuSans-74" x="157.707031"/>
     </g>
    </g>
   </g>
  </g>
 </g>
 <defs>
  <clipPath id="pc2ac275de4">
   <rect x="64.839375" y="7.2" width="351.845762" height="234.929712"/>
  </clipPath>
 </defs>
</svg>
