<?xml version="1.0" encoding="utf-8" standalone="no"?>
<!DOCTYPE svg PUBLIC "-//W3C//DTD SVG 1.1//EN"
  "http://www.w3.org/Graphics/SVG/1.1/DTD/svg11.dtd">
<svg xmlns:xlink="http://www.w3.org/1999/xlink" width="433.595826pt" height="291.864087pt" viewBox="0 0 433.595826 291.864087" xmlns="http://www.w3.org/2000/svg" version="1.1">
 <metadata>
  <rdf:RDF xmlns:dc="http://purl.org/dc/elements/1.1/" xmlns:cc="http://creativecommons.org/ns#" xmlns:rdf="http://www.w3.org/1999/02/22-rdf-syntax-ns#">
   <cc:Work>
    <dc:type rdf:resource="http://purl.org/dc/dcmitype/StillImage"/>
    <dc:date>2022-09-21T17:34:12.671877</dc:date>
    <dc:format>image/svg+xml</dc:format>
    <dc:creator>
     <cc:Agent>
      <dc:title>Matplotlib v3.5.1, https://matplotlib.org/</dc:title>
     </cc:Agent>
    </dc:creator>
   </cc:Work>
  </rdf:RDF>
 </metadata>
 <defs>
  <style type="text/css">*{stroke-linejoin: round; stroke-linecap: butt}</style>
 </defs>
 <g id="figure_1">
  <g id="patch_1">
   <path d="M 0 291.864087 
L 433.595826 291.864087 
L 433.595826 0 
L 0 0 
z
" style="fill: #ffffff"/>
  </g>
  <g id="axes_1">
   <g id="patch_2">
    <path d="M 64.839375 242.129712 
L 416.685137 242.129712 
L 416.685137 7.2 
L 64.839375 7.2 
z
" style="fill: #ffffff"/>
   </g>
   <g id="matplotlib.axis_1">
    <g id="xtick_1">
     <g id="line2d_1">
      <path d="M 66.581186 242.129712 
L 66.581186 7.2 
" clip-path="url(#pc39f440de5)" style="fill: none; stroke: #cccccc; stroke-linecap: round"/>
     </g>
     <g id="line2d_2">
      <defs>
       <path id="mb14430462e" d="M 0 0 
L 0 6 
" style="stroke: #262626; stroke-width: 1.25"/>
      </defs>
      <g>
       <use xlink:href="#mb14430462e" x="66.581186" y="242.129712" style="fill: #262626; stroke: #262626; stroke-width: 1.25"/>
      </g>
     </g>
     <g id="text_1">
      <!-- 0 -->
      <g style="fill: #262626" transform="translate(62.763686 260.747837)scale(0.12 -0.12)">
       <defs>
        <path id="DejaVuSans-30" d="M 2034 4250 
Q 1547 4250 1301 3770 
Q 1056 3291 1056 2328 
Q 1056 1369 1301 889 
Q 1547 409 2034 409 
Q 2525 409 2770 889 
Q 3016 1369 3016 2328 
Q 3016 3291 2770 3770 
Q 2525 4250 2034 4250 
z
M 2034 4750 
Q 2819 4750 3233 4129 
Q 3647 3509 3647 2328 
Q 3647 1150 3233 529 
Q 2819 -91 2034 -91 
Q 1250 -91 836 529 
Q 422 1150 422 2328 
Q 422 3509 836 4129 
Q 1250 4750 2034 4750 
z
" transform="scale(0.015625)"/>
       </defs>
       <use xlink:href="#DejaVuSans-30"/>
      </g>
     </g>
    </g>
    <g id="xtick_2">
     <g id="line2d_3">
      <path d="M 110.126453 242.129712 
L 110.126453 7.2 
" clip-path="url(#pc39f440de5)" style="fill: none; stroke: #cccccc; stroke-linecap: round"/>
     </g>
     <g id="line2d_4">
      <g>
       <use xlink:href="#mb14430462e" x="110.126453" y="242.129712" style="fill: #262626; stroke: #262626; stroke-width: 1.25"/>
      </g>
     </g>
     <g id="text_2">
      <!-- 25 -->
      <g style="fill: #262626" transform="translate(102.491453 260.747837)scale(0.12 -0.12)">
       <defs>
        <path id="DejaVuSans-32" d="M 1228 531 
L 3431 531 
L 3431 0 
L 469 0 
L 469 531 
Q 828 903 1448 1529 
Q 2069 2156 2228 2338 
Q 2531 2678 2651 2914 
Q 2772 3150 2772 3378 
Q 2772 3750 2511 3984 
Q 2250 4219 1831 4219 
Q 1534 4219 1204 4116 
Q 875 4013 500 3803 
L 500 4441 
Q 881 4594 1212 4672 
Q 1544 4750 1819 4750 
Q 2544 4750 2975 4387 
Q 3406 4025 3406 3419 
Q 3406 3131 3298 2873 
Q 3191 2616 2906 2266 
Q 2828 2175 2409 1742 
Q 1991 1309 1228 531 
z
" transform="scale(0.015625)"/>
        <path id="DejaVuSans-35" d="M 691 4666 
L 3169 4666 
L 3169 4134 
L 1269 4134 
L 1269 2991 
Q 1406 3038 1543 3061 
Q 1681 3084 1819 3084 
Q 2600 3084 3056 2656 
Q 3513 2228 3513 1497 
Q 3513 744 3044 326 
Q 2575 -91 1722 -91 
Q 1428 -91 1123 -41 
Q 819 9 494 109 
L 494 744 
Q 775 591 1075 516 
Q 1375 441 1709 441 
Q 2250 441 2565 725 
Q 2881 1009 2881 1497 
Q 2881 1984 2565 2268 
Q 2250 2553 1709 2553 
Q 1456 2553 1204 2497 
Q 953 2441 691 2322 
L 691 4666 
z
" transform="scale(0.015625)"/>
       </defs>
       <use xlink:href="#DejaVuSans-32"/>
       <use xlink:href="#DejaVuSans-35" x="63.623047"/>
      </g>
     </g>
    </g>
    <g id="xtick_3">
     <g id="line2d_5">
      <path d="M 153.671721 242.129712 
L 153.671721 7.2 
" clip-path="url(#pc39f440de5)" style="fill: none; stroke: #cccccc; stroke-linecap: round"/>
     </g>
     <g id="line2d_6">
      <g>
       <use xlink:href="#mb14430462e" x="153.671721" y="242.129712" style="fill: #262626; stroke: #262626; stroke-width: 1.25"/>
      </g>
     </g>
     <g id="text_3">
      <!-- 50 -->
      <g style="fill: #262626" transform="translate(146.036721 260.747837)scale(0.12 -0.12)">
       <use xlink:href="#DejaVuSans-35"/>
       <use xlink:href="#DejaVuSans-30" x="63.623047"/>
      </g>
     </g>
    </g>
    <g id="xtick_4">
     <g id="line2d_7">
      <path d="M 197.216988 242.129712 
L 197.216988 7.2 
" clip-path="url(#pc39f440de5)" style="fill: none; stroke: #cccccc; stroke-linecap: round"/>
     </g>
     <g id="line2d_8">
      <g>
       <use xlink:href="#mb14430462e" x="197.216988" y="242.129712" style="fill: #262626; stroke: #262626; stroke-width: 1.25"/>
      </g>
     </g>
     <g id="text_4">
      <!-- 75 -->
      <g style="fill: #262626" transform="translate(189.581988 260.747837)scale(0.12 -0.12)">
       <defs>
        <path id="DejaVuSans-37" d="M 525 4666 
L 3525 4666 
L 3525 4397 
L 1831 0 
L 1172 0 
L 2766 4134 
L 525 4134 
L 525 4666 
z
" transform="scale(0.015625)"/>
       </defs>
       <use xlink:href="#DejaVuSans-37"/>
       <use xlink:href="#DejaVuSans-35" x="63.623047"/>
      </g>
     </g>
    </g>
    <g id="xtick_5">
     <g id="line2d_9">
      <path d="M 240.762256 242.129712 
L 240.762256 7.2 
" clip-path="url(#pc39f440de5)" style="fill: none; stroke: #cccccc; stroke-linecap: round"/>
     </g>
     <g id="line2d_10">
      <g>
       <use xlink:href="#mb14430462e" x="240.762256" y="242.129712" style="fill: #262626; stroke: #262626; stroke-width: 1.25"/>
      </g>
     </g>
     <g id="text_5">
      <!-- 100 -->
      <g style="fill: #262626" transform="translate(229.309756 260.747837)scale(0.12 -0.12)">
       <defs>
        <path id="DejaVuSans-31" d="M 794 531 
L 1825 531 
L 1825 4091 
L 703 3866 
L 703 4441 
L 1819 4666 
L 2450 4666 
L 2450 531 
L 3481 531 
L 3481 0 
L 794 0 
L 794 531 
z
" transform="scale(0.015625)"/>
       </defs>
       <use xlink:href="#DejaVuSans-31"/>
       <use xlink:href="#DejaVuSans-30" x="63.623047"/>
       <use xlink:href="#DejaVuSans-30" x="127.246094"/>
      </g>
     </g>
    </g>
    <g id="xtick_6">
     <g id="line2d_11">
      <path d="M 284.307523 242.129712 
L 284.307523 7.2 
" clip-path="url(#pc39f440de5)" style="fill: none; stroke: #cccccc; stroke-linecap: round"/>
     </g>
     <g id="line2d_12">
      <g>
       <use xlink:href="#mb14430462e" x="284.307523" y="242.129712" style="fill: #262626; stroke: #262626; stroke-width: 1.25"/>
      </g>
     </g>
     <g id="text_6">
      <!-- 125 -->
      <g style="fill: #262626" transform="translate(272.855023 260.747837)scale(0.12 -0.12)">
       <use xlink:href="#DejaVuSans-31"/>
       <use xlink:href="#DejaVuSans-32" x="63.623047"/>
       <use xlink:href="#DejaVuSans-35" x="127.246094"/>
      </g>
     </g>
    </g>
    <g id="xtick_7">
     <g id="line2d_13">
      <path d="M 327.852791 242.129712 
L 327.852791 7.2 
" clip-path="url(#pc39f440de5)" style="fill: none; stroke: #cccccc; stroke-linecap: round"/>
     </g>
     <g id="line2d_14">
      <g>
       <use xlink:href="#mb14430462e" x="327.852791" y="242.129712" style="fill: #262626; stroke: #262626; stroke-width: 1.25"/>
      </g>
     </g>
     <g id="text_7">
      <!-- 150 -->
      <g style="fill: #262626" transform="translate(316.400291 260.747837)scale(0.12 -0.12)">
       <use xlink:href="#DejaVuSans-31"/>
       <use xlink:href="#DejaVuSans-35" x="63.623047"/>
       <use xlink:href="#DejaVuSans-30" x="127.246094"/>
      </g>
     </g>
    </g>
    <g id="xtick_8">
     <g id="line2d_15">
      <path d="M 371.398059 242.129712 
L 371.398059 7.2 
" clip-path="url(#pc39f440de5)" style="fill: none; stroke: #cccccc; stroke-linecap: round"/>
     </g>
     <g id="line2d_16">
      <g>
       <use xlink:href="#mb14430462e" x="371.398059" y="242.129712" style="fill: #262626; stroke: #262626; stroke-width: 1.25"/>
      </g>
     </g>
     <g id="text_8">
      <!-- 175 -->
      <g style="fill: #262626" transform="translate(359.945559 260.747837)scale(0.12 -0.12)">
       <use xlink:href="#DejaVuSans-31"/>
       <use xlink:href="#DejaVuSans-37" x="63.623047"/>
       <use xlink:href="#DejaVuSans-35" x="127.246094"/>
      </g>
     </g>
    </g>
    <g id="xtick_9">
     <g id="line2d_17">
      <path d="M 414.943326 242.129712 
L 414.943326 7.2 
" clip-path="url(#pc39f440de5)" style="fill: none; stroke: #cccccc; stroke-linecap: round"/>
     </g>
     <g id="line2d_18">
      <g>
       <use xlink:href="#mb14430462e" x="414.943326" y="242.129712" style="fill: #262626; stroke: #262626; stroke-width: 1.25"/>
      </g>
     </g>
     <g id="text_9">
      <!-- 200 -->
      <g style="fill: #262626" transform="translate(403.490826 260.747837)scale(0.12 -0.12)">
       <use xlink:href="#DejaVuSans-32"/>
       <use xlink:href="#DejaVuSans-30" x="63.623047"/>
       <use xlink:href="#DejaVuSans-30" x="127.246094"/>
      </g>
     </g>
    </g>
    <g id="text_10">
     <!-- Epoch -->
     <g style="fill: #262626" transform="translate(213.202568 280.920649)scale(0.18 -0.18)">
      <defs>
       <path id="DejaVuSans-45" d="M 628 4666 
L 3578 4666 
L 3578 4134 
L 1259 4134 
L 1259 2753 
L 3481 2753 
L 3481 2222 
L 1259 2222 
L 1259 531 
L 3634 531 
L 3634 0 
L 628 0 
L 628 4666 
z
" transform="scale(0.015625)"/>
       <path id="DejaVuSans-70" d="M 1159 525 
L 1159 -1331 
L 581 -1331 
L 581 3500 
L 1159 3500 
L 1159 2969 
Q 1341 3281 1617 3432 
Q 1894 3584 2278 3584 
Q 2916 3584 3314 3078 
Q 3713 2572 3713 1747 
Q 3713 922 3314 415 
Q 2916 -91 2278 -91 
Q 1894 -91 1617 61 
Q 1341 213 1159 525 
z
M 3116 1747 
Q 3116 2381 2855 2742 
Q 2594 3103 2138 3103 
Q 1681 3103 1420 2742 
Q 1159 2381 1159 1747 
Q 1159 1113 1420 752 
Q 1681 391 2138 391 
Q 2594 391 2855 752 
Q 3116 1113 3116 1747 
z
" transform="scale(0.015625)"/>
       <path id="DejaVuSans-6f" d="M 1959 3097 
Q 1497 3097 1228 2736 
Q 959 2375 959 1747 
Q 959 1119 1226 758 
Q 1494 397 1959 397 
Q 2419 397 2687 759 
Q 2956 1122 2956 1747 
Q 2956 2369 2687 2733 
Q 2419 3097 1959 3097 
z
M 1959 3584 
Q 2709 3584 3137 3096 
Q 3566 2609 3566 1747 
Q 3566 888 3137 398 
Q 2709 -91 1959 -91 
Q 1206 -91 779 398 
Q 353 888 353 1747 
Q 353 2609 779 3096 
Q 1206 3584 1959 3584 
z
" transform="scale(0.015625)"/>
       <path id="DejaVuSans-63" d="M 3122 3366 
L 3122 2828 
Q 2878 2963 2633 3030 
Q 2388 3097 2138 3097 
Q 1578 3097 1268 2742 
Q 959 2388 959 1747 
Q 959 1106 1268 751 
Q 1578 397 2138 397 
Q 2388 397 2633 464 
Q 2878 531 3122 666 
L 3122 134 
Q 2881 22 2623 -34 
Q 2366 -91 2075 -91 
Q 1284 -91 818 406 
Q 353 903 353 1747 
Q 353 2603 823 3093 
Q 1294 3584 2113 3584 
Q 2378 3584 2631 3529 
Q 2884 3475 3122 3366 
z
" transform="scale(0.015625)"/>
       <path id="DejaVuSans-68" d="M 3513 2113 
L 3513 0 
L 2938 0 
L 2938 2094 
Q 2938 2591 2744 2837 
Q 2550 3084 2163 3084 
Q 1697 3084 1428 2787 
Q 1159 2491 1159 1978 
L 1159 0 
L 581 0 
L 581 4863 
L 1159 4863 
L 1159 2956 
Q 1366 3272 1645 3428 
Q 1925 3584 2291 3584 
Q 2894 3584 3203 3211 
Q 3513 2838 3513 2113 
z
" transform="scale(0.015625)"/>
      </defs>
      <use xlink:href="#DejaVuSans-45"/>
      <use xlink:href="#DejaVuSans-70" x="63.183594"/>
      <use xlink:href="#DejaVuSans-6f" x="126.660156"/>
      <use xlink:href="#DejaVuSans-63" x="187.841797"/>
      <use xlink:href="#DejaVuSans-68" x="242.822266"/>
     </g>
    </g>
   </g>
   <g id="matplotlib.axis_2">
    <g id="ytick_1">
     <g id="line2d_19">
      <path d="M 64.839375 242.129712 
L 416.685137 242.129712 
" clip-path="url(#pc39f440de5)" style="fill: none; stroke: #cccccc; stroke-linecap: round"/>
     </g>
     <g id="line2d_20">
      <defs>
       <path id="m925f94f590" d="M 0 0 
L -6 0 
" style="stroke: #262626; stroke-width: 1.25"/>
      </defs>
      <g>
       <use xlink:href="#m925f94f590" x="64.839375" y="242.129712" style="fill: #262626; stroke: #262626; stroke-width: 1.25"/>
      </g>
     </g>
     <g id="text_11">
      <!-- 0.00 -->
      <g style="fill: #262626" transform="translate(28.620625 246.688774)scale(0.12 -0.12)">
       <defs>
        <path id="DejaVuSans-2e" d="M 684 794 
L 1344 794 
L 1344 0 
L 684 0 
L 684 794 
z
" transform="scale(0.015625)"/>
       </defs>
       <use xlink:href="#DejaVuSans-30"/>
       <use xlink:href="#DejaVuSans-2e" x="63.623047"/>
       <use xlink:href="#DejaVuSans-30" x="95.410156"/>
       <use xlink:href="#DejaVuSans-30" x="159.033203"/>
      </g>
     </g>
    </g>
    <g id="ytick_2">
     <g id="line2d_21">
      <path d="M 64.839375 193.186022 
L 416.685137 193.186022 
" clip-path="url(#pc39f440de5)" style="fill: none; stroke: #cccccc; stroke-linecap: round"/>
     </g>
     <g id="line2d_22">
      <g>
       <use xlink:href="#m925f94f590" x="64.839375" y="193.186022" style="fill: #262626; stroke: #262626; stroke-width: 1.25"/>
      </g>
     </g>
     <g id="text_12">
      <!-- 0.25 -->
      <g style="fill: #262626" transform="translate(28.620625 197.745084)scale(0.12 -0.12)">
       <use xlink:href="#DejaVuSans-30"/>
       <use xlink:href="#DejaVuSans-2e" x="63.623047"/>
       <use xlink:href="#DejaVuSans-32" x="95.410156"/>
       <use xlink:href="#DejaVuSans-35" x="159.033203"/>
      </g>
     </g>
    </g>
    <g id="ytick_3">
     <g id="line2d_23">
      <path d="M 64.839375 144.242332 
L 416.685137 144.242332 
" clip-path="url(#pc39f440de5)" style="fill: none; stroke: #cccccc; stroke-linecap: round"/>
     </g>
     <g id="line2d_24">
      <g>
       <use xlink:href="#m925f94f590" x="64.839375" y="144.242332" style="fill: #262626; stroke: #262626; stroke-width: 1.25"/>
      </g>
     </g>
     <g id="text_13">
      <!-- 0.50 -->
      <g style="fill: #262626" transform="translate(28.620625 148.801394)scale(0.12 -0.12)">
       <use xlink:href="#DejaVuSans-30"/>
       <use xlink:href="#DejaVuSans-2e" x="63.623047"/>
       <use xlink:href="#DejaVuSans-35" x="95.410156"/>
       <use xlink:href="#DejaVuSans-30" x="159.033203"/>
      </g>
     </g>
    </g>
    <g id="ytick_4">
     <g id="line2d_25">
      <path d="M 64.839375 95.298642 
L 416.685137 95.298642 
" clip-path="url(#pc39f440de5)" style="fill: none; stroke: #cccccc; stroke-linecap: round"/>
     </g>
     <g id="line2d_26">
      <g>
       <use xlink:href="#m925f94f590" x="64.839375" y="95.298642" style="fill: #262626; stroke: #262626; stroke-width: 1.25"/>
      </g>
     </g>
     <g id="text_14">
      <!-- 0.75 -->
      <g style="fill: #262626" transform="translate(28.620625 99.857704)scale(0.12 -0.12)">
       <use xlink:href="#DejaVuSans-30"/>
       <use xlink:href="#DejaVuSans-2e" x="63.623047"/>
       <use xlink:href="#DejaVuSans-37" x="95.410156"/>
       <use xlink:href="#DejaVuSans-35" x="159.033203"/>
      </g>
     </g>
    </g>
    <g id="ytick_5">
     <g id="line2d_27">
      <path d="M 64.839375 46.354952 
L 416.685137 46.354952 
" clip-path="url(#pc39f440de5)" style="fill: none; stroke: #cccccc; stroke-linecap: round"/>
     </g>
     <g id="line2d_28">
      <g>
       <use xlink:href="#m925f94f590" x="64.839375" y="46.354952" style="fill: #262626; stroke: #262626; stroke-width: 1.25"/>
      </g>
     </g>
     <g id="text_15">
      <!-- 1.00 -->
      <g style="fill: #262626" transform="translate(28.620625 50.914014)scale(0.12 -0.12)">
       <use xlink:href="#DejaVuSans-31"/>
       <use xlink:href="#DejaVuSans-2e" x="63.623047"/>
       <use xlink:href="#DejaVuSans-30" x="95.410156"/>
       <use xlink:href="#DejaVuSans-30" x="159.033203"/>
      </g>
     </g>
    </g>
    <g id="text_16">
     <!-- MAE / eV -->
     <g style="fill: #262626" transform="translate(20.877188 164.720481)rotate(-90)scale(0.18 -0.18)">
      <defs>
       <path id="DejaVuSans-4d" d="M 628 4666 
L 1569 4666 
L 2759 1491 
L 3956 4666 
L 4897 4666 
L 4897 0 
L 4281 0 
L 4281 4097 
L 3078 897 
L 2444 897 
L 1241 4097 
L 1241 0 
L 628 0 
L 628 4666 
z
" transform="scale(0.015625)"/>
       <path id="DejaVuSans-41" d="M 2188 4044 
L 1331 1722 
L 3047 1722 
L 2188 4044 
z
M 1831 4666 
L 2547 4666 
L 4325 0 
L 3669 0 
L 3244 1197 
L 1141 1197 
L 716 0 
L 50 0 
L 1831 4666 
z
" transform="scale(0.015625)"/>
       <path id="DejaVuSans-20" transform="scale(0.015625)"/>
       <path id="DejaVuSans-2f" d="M 1625 4666 
L 2156 4666 
L 531 -594 
L 0 -594 
L 1625 4666 
z
" transform="scale(0.015625)"/>
       <path id="DejaVuSans-65" d="M 3597 1894 
L 3597 1613 
L 953 1613 
Q 991 1019 1311 708 
Q 1631 397 2203 397 
Q 2534 397 2845 478 
Q 3156 559 3463 722 
L 3463 178 
Q 3153 47 2828 -22 
Q 2503 -91 2169 -91 
Q 1331 -91 842 396 
Q 353 884 353 1716 
Q 353 2575 817 3079 
Q 1281 3584 2069 3584 
Q 2775 3584 3186 3129 
Q 3597 2675 3597 1894 
z
M 3022 2063 
Q 3016 2534 2758 2815 
Q 2500 3097 2075 3097 
Q 1594 3097 1305 2825 
Q 1016 2553 972 2059 
L 3022 2063 
z
" transform="scale(0.015625)"/>
       <path id="DejaVuSans-56" d="M 1831 0 
L 50 4666 
L 709 4666 
L 2188 738 
L 3669 4666 
L 4325 4666 
L 2547 0 
L 1831 0 
z
" transform="scale(0.015625)"/>
      </defs>
      <use xlink:href="#DejaVuSans-4d"/>
      <use xlink:href="#DejaVuSans-41" x="86.279297"/>
      <use xlink:href="#DejaVuSans-45" x="154.6875"/>
      <use xlink:href="#DejaVuSans-20" x="217.871094"/>
      <use xlink:href="#DejaVuSans-2f" x="249.658203"/>
      <use xlink:href="#DejaVuSans-20" x="283.349609"/>
      <use xlink:href="#DejaVuSans-65" x="315.136719"/>
      <use xlink:href="#DejaVuSans-56" x="376.660156"/>
     </g>
    </g>
   </g>
   <g id="line2d_29">
    <path d="M 121.747934 -1 
L 122.319128 10.244245 
L 124.060939 18.222698 
L 125.80275 13.425097 
L 127.54456 77.000653 
L 129.286371 94.947671 
L 131.028182 88.664917 
L 132.769992 25.629028 
L 134.511803 62.146024 
L 136.253614 81.172414 
L 137.995424 83.355749 
L 139.737235 59.745049 
L 141.479046 70.700131 
L 143.220857 49.119593 
L 144.962667 105.453147 
L 146.704478 131.633395 
L 148.446289 123.279856 
L 150.188099 133.575557 
L 151.92991 71.199504 
L 153.671721 128.075056 
L 155.413532 108.225528 
L 157.155342 150.621014 
L 158.897153 167.621069 
L 160.638964 148.474267 
L 162.380774 148.040534 
L 164.122585 130.261286 
L 165.864396 159.669302 
L 167.606206 173.205187 
L 169.348017 167.146816 
L 171.089828 166.642278 
L 172.831639 171.90331 
L 174.573449 167.62725 
L 176.31526 158.517407 
L 178.057071 157.291767 
L 179.798881 154.854304 
L 181.540692 181.404836 
L 183.282503 164.234887 
L 185.024313 160.547472 
L 186.766124 177.286854 
L 188.507935 147.209684 
L 190.249746 163.185033 
L 191.991556 185.250012 
L 193.733367 183.438846 
L 195.475178 174.714103 
L 197.216988 183.261847 
L 198.958799 186.269069 
L 200.70061 187.693137 
L 202.44242 180.441753 
L 204.184231 183.732185 
L 205.926042 181.948686 
L 207.667853 189.594104 
L 209.409663 188.244902 
L 211.151474 187.480428 
L 212.893285 192.758311 
L 214.635095 193.118645 
L 216.376906 192.591283 
L 218.118717 194.291903 
L 219.860527 191.212456 
L 221.602338 193.579995 
L 223.344149 196.814418 
L 225.08596 196.453098 
L 226.82777 193.775306 
L 228.569581 192.744907 
L 230.311392 193.353887 
L 232.053202 190.544563 
L 233.795013 196.489236 
L 235.536824 195.424632 
L 237.278635 195.58645 
L 239.020445 191.443289 
L 240.762256 194.761783 
L 242.504067 197.409682 
L 244.245877 189.455475 
L 245.987688 195.187397 
L 247.729499 194.483806 
L 249.471309 197.871052 
L 251.21312 198.618003 
L 252.954931 199.755067 
L 254.696742 195.860412 
L 256.438552 197.845457 
L 258.180363 196.606997 
L 259.922174 199.941988 
L 261.663984 197.894954 
L 263.405795 199.940443 
L 265.147606 198.402267 
L 266.889416 200.233673 
L 268.631227 201.520145 
L 270.373038 199.908572 
L 272.114849 200.579392 
L 273.856659 200.409802 
L 275.59847 201.008947 
L 277.340281 200.698336 
L 279.082091 201.867067 
L 280.823902 200.545958 
L 282.565713 200.718028 
L 284.307523 201.218243 
L 286.049334 201.229594 
L 287.791145 202.527256 
L 289.532956 202.401208 
L 291.274766 201.404917 
L 293.016577 202.843539 
L 294.758388 202.797657 
L 296.500198 201.585792 
L 298.242009 202.508617 
L 299.98382 202.643502 
L 301.72563 201.673604 
L 303.467441 203.42444 
L 305.209252 203.460097 
L 306.951063 202.76848 
L 308.692873 203.660421 
L 310.434684 203.181644 
L 312.176495 202.924007 
L 313.918305 203.474491 
L 315.660116 203.382025 
L 317.401927 203.038249 
L 320.885548 203.838766 
L 322.627359 203.867458 
L 324.36917 204.114743 
L 326.11098 204.05192 
L 327.852791 203.558246 
L 331.336412 204.033389 
L 333.078223 203.761262 
L 334.820034 204.077176 
L 338.303655 203.845207 
L 343.529087 204.230624 
L 347.012709 204.181658 
L 348.754519 203.764475 
L 350.49633 203.822703 
L 352.238141 204.314695 
L 355.721762 204.107066 
L 357.463573 204.367002 
L 359.205384 204.141113 
L 360.947194 204.358337 
L 369.656248 204.383794 
L 371.398059 204.575175 
L 373.139869 204.153909 
L 374.88168 204.434626 
L 376.623491 204.438442 
L 378.365301 204.266966 
L 380.107112 204.411289 
L 381.848923 204.096897 
L 383.590733 204.544241 
L 385.332544 204.378198 
L 387.074355 204.59738 
L 388.816166 204.303927 
L 392.299787 204.545149 
L 394.041598 204.407794 
L 397.525219 204.597078 
L 399.26703 204.314759 
L 401.008841 204.63149 
L 402.750651 204.350611 
L 404.492462 204.371356 
L 406.234273 204.534874 
L 413.201515 204.678013 
L 413.201515 204.678013 
" clip-path="url(#pc39f440de5)" style="fill: none; stroke: #5fbcd3; stroke-width: 2; stroke-linecap: round"/>
   </g>
   <g id="line2d_30">
    <path d="M 104.191951 -1 
L 104.901021 76.050588 
L 105.287096 -1 
M 108.299151 -1 
L 108.384643 12.965623 
L 110.126453 103.248882 
L 110.699236 -1 
M 118.667666 -1 
L 118.835507 63.635984 
L 119.529657 -1 
M 123.301875 -1 
L 124.060939 123.55901 
L 127.54456 50.327111 
L 129.286371 90.427757 
L 131.028182 85.960893 
L 132.769992 136.300229 
L 134.242614 -1 
M 135.419727 -1 
L 136.253614 22.05131 
L 137.995424 92.254527 
L 139.737235 44.558989 
L 140.88168 -1 
M 141.784186 -1 
L 143.220857 110.963775 
L 144.962667 102.889406 
L 146.704478 84.381374 
L 148.446289 104.964249 
L 150.188099 122.317284 
L 151.92991 103.859203 
L 153.226267 -1 
M 153.966957 -1 
L 155.413532 175.545085 
L 157.155342 155.528273 
L 158.897153 102.558329 
L 160.638964 161.738771 
L 162.380774 133.207486 
L 164.122585 171.244631 
L 165.864396 136.6364 
L 167.606206 134.117093 
L 169.348017 158.023692 
L 171.089828 177.961605 
L 172.831639 160.626228 
L 174.573449 176.409835 
L 176.31526 118.08529 
L 178.057071 53.182815 
L 179.798881 184.477487 
L 181.540692 35.194629 
L 183.282503 158.874239 
L 185.024313 166.530636 
L 186.766124 86.522061 
L 188.507935 170.073144 
L 190.249746 156.913911 
L 191.991556 176.994476 
L 193.733367 155.31787 
L 195.475178 188.612814 
L 197.216988 175.897192 
L 198.958799 181.751946 
L 200.70061 173.706832 
L 202.44242 162.403667 
L 204.184231 170.046039 
L 205.926042 163.925412 
L 207.667853 172.097064 
L 209.409663 172.049252 
L 211.151474 184.5616 
L 212.893285 185.005358 
L 214.635095 182.394126 
L 216.376906 183.099068 
L 219.860527 194.207831 
L 221.602338 190.065358 
L 223.344149 188.639622 
L 225.08596 186.989886 
L 226.82777 188.729398 
L 228.569581 185.530259 
L 230.311392 194.419648 
L 232.053202 192.351803 
L 233.795013 194.881788 
L 235.536824 194.224197 
L 237.278635 173.461085 
L 239.020445 195.628675 
L 240.762256 195.547499 
L 242.504067 179.355974 
L 244.245877 193.419856 
L 245.987688 157.204742 
L 247.729499 190.963554 
L 249.471309 193.594736 
L 251.21312 195.541318 
L 252.954931 194.261146 
L 254.696742 187.949573 
L 256.438552 187.615808 
L 258.180363 188.915483 
L 259.922174 180.68052 
L 261.663984 196.22375 
L 263.405795 192.041139 
L 265.147606 197.876085 
L 266.889416 197.216681 
L 268.631227 197.431227 
L 270.373038 195.783644 
L 272.114849 195.797614 
L 273.856659 197.793265 
L 275.59847 185.442358 
L 277.340281 196.154101 
L 279.082091 189.296559 
L 280.823902 195.536556 
L 282.565713 197.75388 
L 284.307523 197.073324 
L 286.049334 197.586778 
L 287.791145 197.112769 
L 289.532956 197.264923 
L 291.274766 198.200374 
L 296.500198 197.320694 
L 298.242009 196.61133 
L 299.98382 197.021578 
L 301.72563 196.596238 
L 303.467441 197.532062 
L 305.209252 197.344561 
L 306.951063 196.94856 
L 308.692873 197.799965 
L 310.434684 197.45041 
L 312.176495 197.782072 
L 313.918305 197.386345 
L 315.660116 198.146984 
L 317.401927 196.906867 
L 319.143738 198.163707 
L 324.36917 197.825202 
L 326.11098 197.99748 
L 327.852791 198.393819 
L 329.594602 198.487383 
L 333.078223 198.304018 
L 334.820034 197.402187 
L 336.561845 198.29837 
L 338.303655 197.593738 
L 340.045466 198.351027 
L 341.787277 198.512668 
L 343.529087 198.459943 
L 345.270898 198.192123 
L 348.754519 198.577468 
L 350.49633 198.467089 
L 353.979952 198.595966 
L 357.463573 198.15306 
L 359.205384 198.622607 
L 362.689005 198.403922 
L 367.914437 198.640021 
L 369.656248 198.316097 
L 371.398059 198.595719 
L 378.365301 198.427717 
L 380.107112 198.513234 
L 381.848923 198.430796 
L 387.074355 198.647934 
L 390.557976 198.438778 
L 392.299787 198.430696 
L 395.783408 198.709187 
L 397.525219 198.522624 
L 401.008841 198.675472 
L 406.234273 198.610652 
L 407.976083 198.676107 
L 409.717894 198.591337 
L 411.459705 198.691509 
L 413.201515 198.647355 
L 413.201515 198.647355 
" clip-path="url(#pc39f440de5)" style="fill: none; stroke: #de8787; stroke-width: 2; stroke-linecap: round"/>
   </g>
   <g id="line2d_31">
    <path d="M 104.160395 -1 
L 104.901021 77.394807 
L 105.269417 -1 
M 108.325165 -1 
L 108.384643 9.332777 
L 110.126453 108.94612 
L 110.738945 -1 
M 115.24419 -1 
L 115.351885 15.213909 
L 115.39737 -1 
M 118.652464 -1 
L 118.835507 70.007205 
L 119.522014 -1 
M 123.219662 -1 
L 124.060939 130.446241 
L 127.54456 52.421557 
L 129.286371 94.964763 
L 131.028182 86.31485 
L 132.769992 133.243909 
L 134.119525 -1 
M 135.499002 -1 
L 136.253614 28.828045 
L 137.995424 85.00095 
L 139.737235 45.919923 
L 140.678439 -1 
M 141.925671 -1 
L 143.220857 114.739439 
L 144.962667 101.219704 
L 146.704478 83.62691 
L 148.446289 99.788729 
L 150.188099 121.98794 
L 151.92991 98.047685 
L 153.24905 -1 
M 153.939587 -1 
L 155.413532 173.629986 
L 157.155342 155.379578 
L 158.897153 94.134069 
L 160.638964 163.030134 
L 162.380774 129.966487 
L 164.122585 175.119742 
L 165.864396 132.926684 
L 167.606206 136.494233 
L 169.348017 153.198646 
L 171.089828 180.103091 
L 172.831639 160.062402 
L 174.573449 174.660449 
L 176.31526 115.005288 
L 178.057071 49.811861 
L 179.798881 184.244117 
L 181.540692 28.125984 
L 183.282503 159.658463 
L 185.024313 162.332972 
L 186.766124 83.634689 
L 188.507935 163.58146 
L 190.249746 157.150553 
L 191.991556 176.589205 
L 193.733367 153.58511 
L 195.475178 188.91494 
L 197.216988 179.168516 
L 198.958799 176.804916 
L 200.70061 173.936492 
L 202.44242 162.935229 
L 204.184231 167.089138 
L 205.926042 161.929751 
L 207.667853 169.160883 
L 209.409663 172.656119 
L 211.151474 184.386166 
L 212.893285 184.506711 
L 214.635095 182.783505 
L 216.376906 185.144088 
L 218.118717 188.593668 
L 219.860527 194.361977 
L 221.602338 190.902033 
L 223.344149 188.392065 
L 225.08596 186.872552 
L 226.82777 189.397876 
L 228.569581 185.731317 
L 230.311392 195.377171 
L 232.053202 192.781075 
L 233.795013 194.203187 
L 235.536824 195.020152 
L 237.278635 174.431418 
L 239.020445 192.953634 
L 240.762256 194.416366 
L 242.504067 180.522013 
L 244.245877 193.613039 
L 245.987688 154.821082 
L 247.729499 189.531142 
L 249.471309 193.912694 
L 251.21312 196.183323 
L 252.954931 193.247906 
L 254.696742 187.514998 
L 256.438552 188.143661 
L 258.180363 189.903346 
L 259.922174 174.889921 
L 261.663984 195.799215 
L 263.405795 188.281645 
L 265.147606 198.012261 
L 266.889416 196.293402 
L 268.631227 196.859672 
L 270.373038 195.34917 
L 273.856659 197.035282 
L 275.59847 184.008983 
L 277.340281 196.378479 
L 279.082091 188.115536 
L 280.823902 195.670626 
L 282.565713 197.822556 
L 284.307523 197.480992 
L 286.049334 196.831468 
L 291.274766 197.206553 
L 293.016577 197.395522 
L 294.758388 196.938228 
L 296.500198 197.534729 
L 298.242009 196.662009 
L 299.98382 196.78591 
L 301.72563 196.738433 
L 303.467441 197.124732 
L 306.951063 196.138737 
L 308.692873 197.145327 
L 310.434684 197.106639 
L 312.176495 197.890365 
L 313.918305 196.446489 
L 315.660116 198.166962 
L 317.401927 196.733205 
L 319.143738 197.972031 
L 324.36917 197.390618 
L 327.852791 197.606562 
L 329.594602 198.062272 
L 331.336412 197.817258 
L 333.078223 197.909778 
L 334.820034 197.010691 
L 336.561845 197.77506 
L 338.303655 196.963698 
L 340.045466 197.832514 
L 341.787277 198.113914 
L 343.529087 197.85148 
L 345.270898 197.968224 
L 347.012709 197.681567 
L 348.754519 197.976628 
L 353.979952 197.868576 
L 355.721762 197.578551 
L 357.463573 197.419773 
L 359.205384 198.070763 
L 362.689005 198.01974 
L 364.430816 198.086317 
L 366.172626 198.266341 
L 369.656248 198.04874 
L 371.398059 198.08469 
L 373.139869 198.251291 
L 374.88168 197.642173 
L 376.623491 197.816196 
L 378.365301 198.14672 
L 380.107112 198.176078 
L 381.848923 198.026729 
L 383.590733 197.764123 
L 385.332544 198.12762 
L 387.074355 198.132462 
L 388.816166 197.736061 
L 390.557976 198.058264 
L 392.299787 197.848854 
L 394.041598 198.189848 
L 395.783408 197.897036 
L 397.525219 197.987889 
L 399.26703 197.903517 
L 401.008841 198.244404 
L 402.750651 198.322109 
L 404.492462 197.957391 
L 409.717894 198.144958 
L 411.459705 197.986087 
L 413.201515 198.099945 
L 413.201515 198.099945 
" clip-path="url(#pc39f440de5)" style="fill: none; stroke: #ffd42a; stroke-width: 2; stroke-linecap: round"/>
   </g>
   <g id="patch_3">
    <path d="M 64.839375 242.129712 
L 64.839375 7.2 
" style="fill: none; stroke: #262626; stroke-width: 1.25; stroke-linejoin: miter; stroke-linecap: square"/>
   </g>
   <g id="patch_4">
    <path d="M 64.839375 242.129712 
L 416.685137 242.129712 
" style="fill: none; stroke: #262626; stroke-width: 1.25; stroke-linejoin: miter; stroke-linecap: square"/>
   </g>
   <g id="legend_1">
    <g id="patch_5">
     <path d="M 310.627637 69.64125 
L 408.285137 69.64125 
Q 410.685137 69.64125 410.685137 67.24125 
L 410.685137 15.6 
Q 410.685137 13.2 408.285137 13.2 
L 310.627637 13.2 
Q 308.227637 13.2 308.227637 15.6 
L 308.227637 67.24125 
Q 308.227637 69.64125 310.627637 69.64125 
z
" style="fill: #ffffff; opacity: 0.8; stroke: #cccccc; stroke-linejoin: miter"/>
    </g>
    <g id="line2d_32">
     <path d="M 313.027637 22.918125 
L 325.027637 22.918125 
L 337.027637 22.918125 
" style="fill: none; stroke: #5fbcd3; stroke-width: 2; stroke-linecap: round"/>
    </g>
    <g id="text_17">
     <!-- Train -->
     <g style="fill: #262626" transform="translate(346.627637 27.118125)scale(0.12 -0.12)">
      <defs>
       <path id="DejaVuSans-54" d="M -19 4666 
L 3928 4666 
L 3928 4134 
L 2272 4134 
L 2272 0 
L 1638 0 
L 1638 4134 
L -19 4134 
L -19 4666 
z
" transform="scale(0.015625)"/>
       <path id="DejaVuSans-72" d="M 2631 2963 
Q 2534 3019 2420 3045 
Q 2306 3072 2169 3072 
Q 1681 3072 1420 2755 
Q 1159 2438 1159 1844 
L 1159 0 
L 581 0 
L 581 3500 
L 1159 3500 
L 1159 2956 
Q 1341 3275 1631 3429 
Q 1922 3584 2338 3584 
Q 2397 3584 2469 3576 
Q 2541 3569 2628 3553 
L 2631 2963 
z
" transform="scale(0.015625)"/>
       <path id="DejaVuSans-61" d="M 2194 1759 
Q 1497 1759 1228 1600 
Q 959 1441 959 1056 
Q 959 750 1161 570 
Q 1363 391 1709 391 
Q 2188 391 2477 730 
Q 2766 1069 2766 1631 
L 2766 1759 
L 2194 1759 
z
M 3341 1997 
L 3341 0 
L 2766 0 
L 2766 531 
Q 2569 213 2275 61 
Q 1981 -91 1556 -91 
Q 1019 -91 701 211 
Q 384 513 384 1019 
Q 384 1609 779 1909 
Q 1175 2209 1959 2209 
L 2766 2209 
L 2766 2266 
Q 2766 2663 2505 2880 
Q 2244 3097 1772 3097 
Q 1472 3097 1187 3025 
Q 903 2953 641 2809 
L 641 3341 
Q 956 3463 1253 3523 
Q 1550 3584 1831 3584 
Q 2591 3584 2966 3190 
Q 3341 2797 3341 1997 
z
" transform="scale(0.015625)"/>
       <path id="DejaVuSans-69" d="M 603 3500 
L 1178 3500 
L 1178 0 
L 603 0 
L 603 3500 
z
M 603 4863 
L 1178 4863 
L 1178 4134 
L 603 4134 
L 603 4863 
z
" transform="scale(0.015625)"/>
       <path id="DejaVuSans-6e" d="M 3513 2113 
L 3513 0 
L 2938 0 
L 2938 2094 
Q 2938 2591 2744 2837 
Q 2550 3084 2163 3084 
Q 1697 3084 1428 2787 
Q 1159 2491 1159 1978 
L 1159 0 
L 581 0 
L 581 3500 
L 1159 3500 
L 1159 2956 
Q 1366 3272 1645 3428 
Q 1925 3584 2291 3584 
Q 2894 3584 3203 3211 
Q 3513 2838 3513 2113 
z
" transform="scale(0.015625)"/>
      </defs>
      <use xlink:href="#DejaVuSans-54"/>
      <use xlink:href="#DejaVuSans-72" x="46.333984"/>
      <use xlink:href="#DejaVuSans-61" x="87.447266"/>
      <use xlink:href="#DejaVuSans-69" x="148.726562"/>
      <use xlink:href="#DejaVuSans-6e" x="176.509766"/>
     </g>
    </g>
    <g id="line2d_33">
     <path d="M 313.027637 40.531875 
L 325.027637 40.531875 
L 337.027637 40.531875 
" style="fill: none; stroke: #de8787; stroke-width: 2; stroke-linecap: round"/>
    </g>
    <g id="text_18">
     <!-- Validation -->
     <g style="fill: #262626" transform="translate(346.627637 44.731875)scale(0.12 -0.12)">
      <defs>
       <path id="DejaVuSans-6c" d="M 603 4863 
L 1178 4863 
L 1178 0 
L 603 0 
L 603 4863 
z
" transform="scale(0.015625)"/>
       <path id="DejaVuSans-64" d="M 2906 2969 
L 2906 4863 
L 3481 4863 
L 3481 0 
L 2906 0 
L 2906 525 
Q 2725 213 2448 61 
Q 2172 -91 1784 -91 
Q 1150 -91 751 415 
Q 353 922 353 1747 
Q 353 2572 751 3078 
Q 1150 3584 1784 3584 
Q 2172 3584 2448 3432 
Q 2725 3281 2906 2969 
z
M 947 1747 
Q 947 1113 1208 752 
Q 1469 391 1925 391 
Q 2381 391 2643 752 
Q 2906 1113 2906 1747 
Q 2906 2381 2643 2742 
Q 2381 3103 1925 3103 
Q 1469 3103 1208 2742 
Q 947 2381 947 1747 
z
" transform="scale(0.015625)"/>
       <path id="DejaVuSans-74" d="M 1172 4494 
L 1172 3500 
L 2356 3500 
L 2356 3053 
L 1172 3053 
L 1172 1153 
Q 1172 725 1289 603 
Q 1406 481 1766 481 
L 2356 481 
L 2356 0 
L 1766 0 
Q 1100 0 847 248 
Q 594 497 594 1153 
L 594 3053 
L 172 3053 
L 172 3500 
L 594 3500 
L 594 4494 
L 1172 4494 
z
" transform="scale(0.015625)"/>
      </defs>
      <use xlink:href="#DejaVuSans-56"/>
      <use xlink:href="#DejaVuSans-61" x="60.658203"/>
      <use xlink:href="#DejaVuSans-6c" x="121.9375"/>
      <use xlink:href="#DejaVuSans-69" x="149.720703"/>
      <use xlink:href="#DejaVuSans-64" x="177.503906"/>
      <use xlink:href="#DejaVuSans-61" x="240.980469"/>
      <use xlink:href="#DejaVuSans-74" x="302.259766"/>
      <use xlink:href="#DejaVuSans-69" x="341.46875"/>
      <use xlink:href="#DejaVuSans-6f" x="369.251953"/>
      <use xlink:href="#DejaVuSans-6e" x="430.433594"/>
     </g>
    </g>
    <g id="line2d_34">
     <path d="M 313.027637 58.145625 
L 325.027637 58.145625 
L 337.027637 58.145625 
" style="fill: none; stroke: #ffd42a; stroke-width: 2; stroke-linecap: round"/>
    </g>
    <g id="text_19">
     <!-- Test -->
     <g style="fill: #262626" transform="translate(346.627637 62.345625)scale(0.12 -0.12)">
      <defs>
       <path id="DejaVuSans-73" d="M 2834 3397 
L 2834 2853 
Q 2591 2978 2328 3040 
Q 2066 3103 1784 3103 
Q 1356 3103 1142 2972 
Q 928 2841 928 2578 
Q 928 2378 1081 2264 
Q 1234 2150 1697 2047 
L 1894 2003 
Q 2506 1872 2764 1633 
Q 3022 1394 3022 966 
Q 3022 478 2636 193 
Q 2250 -91 1575 -91 
Q 1294 -91 989 -36 
Q 684 19 347 128 
L 347 722 
Q 666 556 975 473 
Q 1284 391 1588 391 
Q 1994 391 2212 530 
Q 2431 669 2431 922 
Q 2431 1156 2273 1281 
Q 2116 1406 1581 1522 
L 1381 1569 
Q 847 1681 609 1914 
Q 372 2147 372 2553 
Q 372 3047 722 3315 
Q 1072 3584 1716 3584 
Q 2034 3584 2315 3537 
Q 2597 3491 2834 3397 
z
" transform="scale(0.015625)"/>
      </defs>
      <use xlink:href="#DejaVuSans-54"/>
      <use xlink:href="#DejaVuSans-65" x="44.083984"/>
      <use xlink:href="#DejaVuSans-73" x="105.607422"/>
      <use xlink:href="#DejaVuSans-74" x="157.707031"/>
     </g>
    </g>
   </g>
  </g>
 </g>
 <defs>
  <clipPath id="pc39f440de5">
   <rect x="64.839375" y="7.2" width="351.845762" height="234.929712"/>
  </clipPath>
 </defs>
</svg>
