<?xml version="1.0" encoding="utf-8" standalone="no"?>
<!DOCTYPE svg PUBLIC "-//W3C//DTD SVG 1.1//EN"
  "http://www.w3.org/Graphics/SVG/1.1/DTD/svg11.dtd">
<svg xmlns:xlink="http://www.w3.org/1999/xlink" width="288pt" height="288pt" viewBox="0 0 288 288" xmlns="http://www.w3.org/2000/svg" version="1.1">
 <metadata>
  <rdf:RDF xmlns:dc="http://purl.org/dc/elements/1.1/" xmlns:cc="http://creativecommons.org/ns#" xmlns:rdf="http://www.w3.org/1999/02/22-rdf-syntax-ns#">
   <cc:Work>
    <dc:type rdf:resource="http://purl.org/dc/dcmitype/StillImage"/>
    <dc:date>2022-09-21T18:19:17.370759</dc:date>
    <dc:format>image/svg+xml</dc:format>
    <dc:creator>
     <cc:Agent>
      <dc:title>Matplotlib v3.5.1, https://matplotlib.org/</dc:title>
     </cc:Agent>
    </dc:creator>
   </cc:Work>
  </rdf:RDF>
 </metadata>
 <defs>
  <style type="text/css">*{stroke-linejoin: round; stroke-linecap: butt}</style>
 </defs>
 <g id="figure_1">
  <g id="patch_1">
   <path d="M 0 288 
L 288 288 
L 288 0 
L 0 0 
z
" style="fill: #ffffff"/>
  </g>
  <g id="axes_1">
   <g id="patch_2">
    <path d="M 36 256.32 
L 259.2 256.32 
L 259.2 34.56 
L 36 34.56 
z
" style="fill: #ffffff"/>
   </g>
   <g id="matplotlib.axis_1">
    <g id="xtick_1"/>
    <g id="xtick_2"/>
    <g id="xtick_3"/>
    <g id="xtick_4"/>
    <g id="xtick_5"/>
   </g>
   <g id="matplotlib.axis_2">
    <g id="ytick_1"/>
    <g id="ytick_2"/>
    <g id="ytick_3"/>
    <g id="ytick_4"/>
    <g id="ytick_5"/>
   </g>
   <g id="LineCollection_1">
    <path d="M 164.334961 113.879443 
L 192.974045 126.827514 
" clip-path="url(#p6c3575a9b9)" style="fill: none; stroke: #1a1a1a; stroke-opacity: 0.9; stroke-width: 1.2"/>
    <path d="M 164.334961 113.879443 
L 209.67567 94.828755 
" clip-path="url(#p6c3575a9b9)" style="fill: none; stroke: #1a1a1a; stroke-opacity: 0.9; stroke-width: 1.2"/>
    <path d="M 164.334961 113.879443 
L 139.672034 98.797117 
" clip-path="url(#p6c3575a9b9)" style="fill: none; stroke: #1a1a1a; stroke-opacity: 0.9; stroke-width: 1.2"/>
    <path d="M 164.334961 113.879443 
L 160.657366 67.607307 
" clip-path="url(#p6c3575a9b9)" style="fill: none; stroke: #1a1a1a; stroke-opacity: 0.9; stroke-width: 1.2"/>
    <path d="M 164.334961 113.879443 
L 119.158719 133.488118 
" clip-path="url(#p6c3575a9b9)" style="fill: none; stroke: #1a1a1a; stroke-opacity: 0.9; stroke-width: 1.2"/>
    <path d="M 164.334961 113.879443 
L 170.506382 158.694654 
" clip-path="url(#p6c3575a9b9)" style="fill: none; stroke: #1a1a1a; stroke-opacity: 0.9; stroke-width: 1.2"/>
    <path d="M 239.831405 115.897042 
L 192.974045 126.827514 
" clip-path="url(#p6c3575a9b9)" style="fill: none; stroke: #1a1a1a; stroke-opacity: 0.9; stroke-width: 1.2"/>
    <path d="M 239.831405 115.897042 
L 209.67567 94.828755 
" clip-path="url(#p6c3575a9b9)" style="fill: none; stroke: #1a1a1a; stroke-opacity: 0.9; stroke-width: 1.2"/>
    <path d="M 192.974045 126.827514 
L 209.67567 94.828755 
" clip-path="url(#p6c3575a9b9)" style="fill: none; stroke: #1a1a1a; stroke-opacity: 0.9; stroke-width: 1.2"/>
    <path d="M 192.974045 126.827514 
L 139.672034 98.797117 
" clip-path="url(#p6c3575a9b9)" style="fill: none; stroke: #1a1a1a; stroke-opacity: 0.9; stroke-width: 1.2"/>
    <path d="M 192.974045 126.827514 
L 200.404589 173.372157 
" clip-path="url(#p6c3575a9b9)" style="fill: none; stroke: #1a1a1a; stroke-opacity: 0.9; stroke-width: 1.2"/>
    <path d="M 192.974045 126.827514 
L 170.506382 158.694654 
" clip-path="url(#p6c3575a9b9)" style="fill: none; stroke: #1a1a1a; stroke-opacity: 0.9; stroke-width: 1.2"/>
    <path d="M 127.530305 53.803636 
L 139.672034 98.797117 
" clip-path="url(#p6c3575a9b9)" style="fill: none; stroke: #1a1a1a; stroke-opacity: 0.9; stroke-width: 1.2"/>
    <path d="M 127.530305 53.803636 
L 160.657366 67.607307 
" clip-path="url(#p6c3575a9b9)" style="fill: none; stroke: #1a1a1a; stroke-opacity: 0.9; stroke-width: 1.2"/>
    <path d="M 139.672034 98.797117 
L 160.657366 67.607307 
" clip-path="url(#p6c3575a9b9)" style="fill: none; stroke: #1a1a1a; stroke-opacity: 0.9; stroke-width: 1.2"/>
    <path d="M 139.672034 98.797117 
L 96.222327 122.229577 
" clip-path="url(#p6c3575a9b9)" style="fill: none; stroke: #1a1a1a; stroke-opacity: 0.9; stroke-width: 1.2"/>
    <path d="M 139.672034 98.797117 
L 119.158719 133.488118 
" clip-path="url(#p6c3575a9b9)" style="fill: none; stroke: #1a1a1a; stroke-opacity: 0.9; stroke-width: 1.2"/>
    <path d="M 96.222327 122.229577 
L 119.158719 133.488118 
" clip-path="url(#p6c3575a9b9)" style="fill: none; stroke: #1a1a1a; stroke-opacity: 0.9; stroke-width: 1.2"/>
    <path d="M 96.222327 122.229577 
L 68.457329 108.598709 
" clip-path="url(#p6c3575a9b9)" style="fill: none; stroke: #1a1a1a; stroke-opacity: 0.9; stroke-width: 1.2"/>
    <path d="M 96.222327 122.229577 
L 101.123952 169.396589 
" clip-path="url(#p6c3575a9b9)" style="fill: none; stroke: #1a1a1a; stroke-opacity: 0.9; stroke-width: 1.2"/>
    <path d="M 119.158719 133.488118 
L 68.457329 108.598709 
" clip-path="url(#p6c3575a9b9)" style="fill: none; stroke: #1a1a1a; stroke-opacity: 0.9; stroke-width: 1.2"/>
    <path d="M 119.158719 133.488118 
L 128.349907 179.785166 
" clip-path="url(#p6c3575a9b9)" style="fill: none; stroke: #1a1a1a; stroke-opacity: 0.9; stroke-width: 1.2"/>
    <path d="M 119.158719 133.488118 
L 101.123952 169.396589 
" clip-path="url(#p6c3575a9b9)" style="fill: none; stroke: #1a1a1a; stroke-opacity: 0.9; stroke-width: 1.2"/>
    <path d="M 55.368595 185.969965 
L 101.123952 169.396589 
" clip-path="url(#p6c3575a9b9)" style="fill: none; stroke: #1a1a1a; stroke-opacity: 0.9; stroke-width: 1.2"/>
    <path d="M 55.368595 185.969965 
L 86.378723 203.649349 
" clip-path="url(#p6c3575a9b9)" style="fill: none; stroke: #1a1a1a; stroke-opacity: 0.9; stroke-width: 1.2"/>
    <path d="M 128.349907 179.785166 
L 101.123952 169.396589 
" clip-path="url(#p6c3575a9b9)" style="fill: none; stroke: #1a1a1a; stroke-opacity: 0.9; stroke-width: 1.2"/>
    <path d="M 128.349907 179.785166 
L 86.378723 203.649349 
" clip-path="url(#p6c3575a9b9)" style="fill: none; stroke: #1a1a1a; stroke-opacity: 0.9; stroke-width: 1.2"/>
    <path d="M 128.349907 179.785166 
L 156.032011 194.486048 
" clip-path="url(#p6c3575a9b9)" style="fill: none; stroke: #1a1a1a; stroke-opacity: 0.9; stroke-width: 1.2"/>
    <path d="M 128.349907 179.785166 
L 138.115417 225.888239 
" clip-path="url(#p6c3575a9b9)" style="fill: none; stroke: #1a1a1a; stroke-opacity: 0.9; stroke-width: 1.2"/>
    <path d="M 128.349907 179.785166 
L 170.506382 158.694654 
" clip-path="url(#p6c3575a9b9)" style="fill: none; stroke: #1a1a1a; stroke-opacity: 0.9; stroke-width: 1.2"/>
    <path d="M 101.123952 169.396589 
L 86.378723 203.649349 
" clip-path="url(#p6c3575a9b9)" style="fill: none; stroke: #1a1a1a; stroke-opacity: 0.9; stroke-width: 1.2"/>
    <path d="M 101.123952 169.396589 
L 156.032011 194.486048 
" clip-path="url(#p6c3575a9b9)" style="fill: none; stroke: #1a1a1a; stroke-opacity: 0.9; stroke-width: 1.2"/>
    <path d="M 173.665616 237.076364 
L 156.032011 194.486048 
" clip-path="url(#p6c3575a9b9)" style="fill: none; stroke: #1a1a1a; stroke-opacity: 0.9; stroke-width: 1.2"/>
    <path d="M 173.665616 237.076364 
L 138.115417 225.888239 
" clip-path="url(#p6c3575a9b9)" style="fill: none; stroke: #1a1a1a; stroke-opacity: 0.9; stroke-width: 1.2"/>
    <path d="M 156.032011 194.486048 
L 138.115417 225.888239 
" clip-path="url(#p6c3575a9b9)" style="fill: none; stroke: #1a1a1a; stroke-opacity: 0.9; stroke-width: 1.2"/>
    <path d="M 156.032011 194.486048 
L 200.404589 173.372157 
" clip-path="url(#p6c3575a9b9)" style="fill: none; stroke: #1a1a1a; stroke-opacity: 0.9; stroke-width: 1.2"/>
    <path d="M 156.032011 194.486048 
L 170.506382 158.694654 
" clip-path="url(#p6c3575a9b9)" style="fill: none; stroke: #1a1a1a; stroke-opacity: 0.9; stroke-width: 1.2"/>
    <path d="M 200.404589 173.372157 
L 170.506382 158.694654 
" clip-path="url(#p6c3575a9b9)" style="fill: none; stroke: #1a1a1a; stroke-opacity: 0.9; stroke-width: 1.2"/>
   </g>
   <g id="PathCollection_1">
    <defs>
     <path id="C0_0_5343e3cae6" d="M 0 10 
C 2.652031 10 5.195799 8.946337 7.071068 7.071068 
C 8.946337 5.195799 10 2.652031 10 -0 
C 10 -2.652031 8.946337 -5.195799 7.071068 -7.071068 
C 5.195799 -8.946337 2.652031 -10 0 -10 
C -2.652031 -10 -5.195799 -8.946337 -7.071068 -7.071068 
C -8.946337 -5.195799 -10 -2.652031 -10 0 
C -10 2.652031 -8.946337 5.195799 -7.071068 7.071068 
C -5.195799 8.946337 -2.652031 10 0 10 
z
"/>
    </defs>
    <g clip-path="url(#p6c3575a9b9)">
     <use xlink:href="#C0_0_5343e3cae6" x="164.334961" y="113.879443" style="fill: #006985; fill-opacity: 0.9; stroke: #006985; stroke-opacity: 0.9"/>
    </g>
    <g clip-path="url(#p6c3575a9b9)">
     <use xlink:href="#C0_0_5343e3cae6" x="239.831405" y="115.897042" style="fill: #006985; fill-opacity: 0.9; stroke: #006985; stroke-opacity: 0.9"/>
    </g>
    <g clip-path="url(#p6c3575a9b9)">
     <use xlink:href="#C0_0_5343e3cae6" x="192.974045" y="126.827514" style="fill: #666666; fill-opacity: 0.9; stroke: #666666; stroke-opacity: 0.9"/>
    </g>
    <g clip-path="url(#p6c3575a9b9)">
     <use xlink:href="#C0_0_5343e3cae6" x="209.67567" y="94.828755" style="fill: #bfbfbf; fill-opacity: 0.9; stroke: #bfbfbf; stroke-opacity: 0.9"/>
    </g>
    <g clip-path="url(#p6c3575a9b9)">
     <use xlink:href="#C0_0_5343e3cae6" x="127.530305" y="53.803636" style="fill: #006985; fill-opacity: 0.9; stroke: #006985; stroke-opacity: 0.9"/>
    </g>
    <g clip-path="url(#p6c3575a9b9)">
     <use xlink:href="#C0_0_5343e3cae6" x="139.672034" y="98.797117" style="fill: #666666; fill-opacity: 0.9; stroke: #666666; stroke-opacity: 0.9"/>
    </g>
    <g clip-path="url(#p6c3575a9b9)">
     <use xlink:href="#C0_0_5343e3cae6" x="160.657366" y="67.607307" style="fill: #bfbfbf; fill-opacity: 0.9; stroke: #bfbfbf; stroke-opacity: 0.9"/>
    </g>
    <g clip-path="url(#p6c3575a9b9)">
     <use xlink:href="#C0_0_5343e3cae6" x="96.222327" y="122.229577" style="fill: #006985; fill-opacity: 0.9; stroke: #006985; stroke-opacity: 0.9"/>
    </g>
    <g clip-path="url(#p6c3575a9b9)">
     <use xlink:href="#C0_0_5343e3cae6" x="119.158719" y="133.488118" style="fill: #666666; fill-opacity: 0.9; stroke: #666666; stroke-opacity: 0.9"/>
    </g>
    <g clip-path="url(#p6c3575a9b9)">
     <use xlink:href="#C0_0_5343e3cae6" x="68.457329" y="108.598709" style="fill: #bfbfbf; fill-opacity: 0.9; stroke: #bfbfbf; stroke-opacity: 0.9"/>
    </g>
    <g clip-path="url(#p6c3575a9b9)">
     <use xlink:href="#C0_0_5343e3cae6" x="55.368595" y="185.969965" style="fill: #006985; fill-opacity: 0.9; stroke: #006985; stroke-opacity: 0.9"/>
    </g>
    <g clip-path="url(#p6c3575a9b9)">
     <use xlink:href="#C0_0_5343e3cae6" x="128.349907" y="179.785166" style="fill: #006985; fill-opacity: 0.9; stroke: #006985; stroke-opacity: 0.9"/>
    </g>
    <g clip-path="url(#p6c3575a9b9)">
     <use xlink:href="#C0_0_5343e3cae6" x="101.123952" y="169.396589" style="fill: #666666; fill-opacity: 0.9; stroke: #666666; stroke-opacity: 0.9"/>
    </g>
    <g clip-path="url(#p6c3575a9b9)">
     <use xlink:href="#C0_0_5343e3cae6" x="86.378723" y="203.649349" style="fill: #bfbfbf; fill-opacity: 0.9; stroke: #bfbfbf; stroke-opacity: 0.9"/>
    </g>
    <g clip-path="url(#p6c3575a9b9)">
     <use xlink:href="#C0_0_5343e3cae6" x="173.665616" y="237.076364" style="fill: #006985; fill-opacity: 0.9; stroke: #006985; stroke-opacity: 0.9"/>
    </g>
    <g clip-path="url(#p6c3575a9b9)">
     <use xlink:href="#C0_0_5343e3cae6" x="156.032011" y="194.486048" style="fill: #666666; fill-opacity: 0.9; stroke: #666666; stroke-opacity: 0.9"/>
    </g>
    <g clip-path="url(#p6c3575a9b9)">
     <use xlink:href="#C0_0_5343e3cae6" x="138.115417" y="225.888239" style="fill: #bfbfbf; fill-opacity: 0.9; stroke: #bfbfbf; stroke-opacity: 0.9"/>
    </g>
    <g clip-path="url(#p6c3575a9b9)">
     <use xlink:href="#C0_0_5343e3cae6" x="200.404589" y="173.372157" style="fill: #006985; fill-opacity: 0.9; stroke: #006985; stroke-opacity: 0.9"/>
    </g>
    <g clip-path="url(#p6c3575a9b9)">
     <use xlink:href="#C0_0_5343e3cae6" x="170.506382" y="158.694654" style="fill: #0d0dff; fill-opacity: 0.9; stroke: #0d0dff; stroke-opacity: 0.9"/>
    </g>
   </g>
   <g id="patch_3">
    <path d="M 36 256.32 
L 36 34.56 
" style="fill: none; stroke: #262626; stroke-width: 1.25; stroke-linejoin: miter; stroke-linecap: square"/>
   </g>
   <g id="patch_4">
    <path d="M 36 256.32 
L 259.2 256.32 
" style="fill: none; stroke: #262626; stroke-width: 1.25; stroke-linejoin: miter; stroke-linecap: square"/>
   </g>
   <g id="text_1">
    <g clip-path="url(#p6c3575a9b9)">
     <!-- Pd -->
     <g style="fill: #ffffff; opacity: 0.9" transform="translate(155.642461 117.190693)scale(0.12 -0.12)">
      <defs>
       <path id="DejaVuSans-Bold-50" d="M 588 4666 
L 2584 4666 
Q 3475 4666 3951 4270 
Q 4428 3875 4428 3144 
Q 4428 2409 3951 2014 
Q 3475 1619 2584 1619 
L 1791 1619 
L 1791 0 
L 588 0 
L 588 4666 
z
M 1791 3794 
L 1791 2491 
L 2456 2491 
Q 2806 2491 2997 2661 
Q 3188 2831 3188 3144 
Q 3188 3456 2997 3625 
Q 2806 3794 2456 3794 
L 1791 3794 
z
" transform="scale(0.015625)"/>
       <path id="DejaVuSans-Bold-64" d="M 2919 2988 
L 2919 4863 
L 4044 4863 
L 4044 0 
L 2919 0 
L 2919 506 
Q 2688 197 2409 53 
Q 2131 -91 1766 -91 
Q 1119 -91 703 423 
Q 288 938 288 1747 
Q 288 2556 703 3070 
Q 1119 3584 1766 3584 
Q 2128 3584 2408 3439 
Q 2688 3294 2919 2988 
z
M 2181 722 
Q 2541 722 2730 984 
Q 2919 1247 2919 1747 
Q 2919 2247 2730 2509 
Q 2541 2772 2181 2772 
Q 1825 2772 1636 2509 
Q 1447 2247 1447 1747 
Q 1447 1247 1636 984 
Q 1825 722 2181 722 
z
" transform="scale(0.015625)"/>
      </defs>
      <use xlink:href="#DejaVuSans-Bold-50"/>
      <use xlink:href="#DejaVuSans-Bold-64" x="73.291016"/>
     </g>
    </g>
   </g>
   <g id="text_2">
    <g clip-path="url(#p6c3575a9b9)">
     <!-- Pd -->
     <g style="fill: #ffffff; opacity: 0.9" transform="translate(231.138905 119.208292)scale(0.12 -0.12)">
      <use xlink:href="#DejaVuSans-Bold-50"/>
      <use xlink:href="#DejaVuSans-Bold-64" x="73.291016"/>
     </g>
    </g>
   </g>
   <g id="text_3">
    <g clip-path="url(#p6c3575a9b9)">
     <!-- C -->
     <g style="fill: #ffffff; opacity: 0.9" transform="translate(188.570607 130.138764)scale(0.12 -0.12)">
      <defs>
       <path id="DejaVuSans-Bold-43" d="M 4288 256 
Q 3956 84 3597 -3 
Q 3238 -91 2847 -91 
Q 1681 -91 1000 561 
Q 319 1213 319 2328 
Q 319 3447 1000 4098 
Q 1681 4750 2847 4750 
Q 3238 4750 3597 4662 
Q 3956 4575 4288 4403 
L 4288 3438 
Q 3953 3666 3628 3772 
Q 3303 3878 2944 3878 
Q 2300 3878 1931 3465 
Q 1563 3053 1563 2328 
Q 1563 1606 1931 1193 
Q 2300 781 2944 781 
Q 3303 781 3628 887 
Q 3953 994 4288 1222 
L 4288 256 
z
" transform="scale(0.015625)"/>
      </defs>
      <use xlink:href="#DejaVuSans-Bold-43"/>
     </g>
    </g>
   </g>
   <g id="text_4">
    <g clip-path="url(#p6c3575a9b9)">
     <!-- H -->
     <g style="fill: #ffffff; opacity: 0.9" transform="translate(204.65442 98.140005)scale(0.12 -0.12)">
      <defs>
       <path id="DejaVuSans-Bold-48" d="M 588 4666 
L 1791 4666 
L 1791 2888 
L 3566 2888 
L 3566 4666 
L 4769 4666 
L 4769 0 
L 3566 0 
L 3566 1978 
L 1791 1978 
L 1791 0 
L 588 0 
L 588 4666 
z
" transform="scale(0.015625)"/>
      </defs>
      <use xlink:href="#DejaVuSans-Bold-48"/>
     </g>
    </g>
   </g>
   <g id="text_5">
    <g clip-path="url(#p6c3575a9b9)">
     <!-- Pd -->
     <g style="fill: #ffffff; opacity: 0.9" transform="translate(118.837805 57.114886)scale(0.12 -0.12)">
      <use xlink:href="#DejaVuSans-Bold-50"/>
      <use xlink:href="#DejaVuSans-Bold-64" x="73.291016"/>
     </g>
    </g>
   </g>
   <g id="text_6">
    <g clip-path="url(#p6c3575a9b9)">
     <!-- C -->
     <g style="fill: #ffffff; opacity: 0.9" transform="translate(135.268597 102.108367)scale(0.12 -0.12)">
      <use xlink:href="#DejaVuSans-Bold-43"/>
     </g>
    </g>
   </g>
   <g id="text_7">
    <g clip-path="url(#p6c3575a9b9)">
     <!-- H -->
     <g style="fill: #ffffff; opacity: 0.9" transform="translate(155.636116 70.918557)scale(0.12 -0.12)">
      <use xlink:href="#DejaVuSans-Bold-48"/>
     </g>
    </g>
   </g>
   <g id="text_8">
    <g clip-path="url(#p6c3575a9b9)">
     <!-- Pd -->
     <g style="fill: #ffffff; opacity: 0.9" transform="translate(87.529827 125.540827)scale(0.12 -0.12)">
      <use xlink:href="#DejaVuSans-Bold-50"/>
      <use xlink:href="#DejaVuSans-Bold-64" x="73.291016"/>
     </g>
    </g>
   </g>
   <g id="text_9">
    <g clip-path="url(#p6c3575a9b9)">
     <!-- C -->
     <g style="fill: #ffffff; opacity: 0.9" transform="translate(114.755282 136.799368)scale(0.12 -0.12)">
      <use xlink:href="#DejaVuSans-Bold-43"/>
     </g>
    </g>
   </g>
   <g id="text_10">
    <g clip-path="url(#p6c3575a9b9)">
     <!-- H -->
     <g style="fill: #ffffff; opacity: 0.9" transform="translate(63.436079 111.909959)scale(0.12 -0.12)">
      <use xlink:href="#DejaVuSans-Bold-48"/>
     </g>
    </g>
   </g>
   <g id="text_11">
    <g clip-path="url(#p6c3575a9b9)">
     <!-- Pd -->
     <g style="fill: #ffffff; opacity: 0.9" transform="translate(46.676095 189.281215)scale(0.12 -0.12)">
      <use xlink:href="#DejaVuSans-Bold-50"/>
      <use xlink:href="#DejaVuSans-Bold-64" x="73.291016"/>
     </g>
    </g>
   </g>
   <g id="text_12">
    <g clip-path="url(#p6c3575a9b9)">
     <!-- Pd -->
     <g style="fill: #ffffff; opacity: 0.9" transform="translate(119.657407 183.096416)scale(0.12 -0.12)">
      <use xlink:href="#DejaVuSans-Bold-50"/>
      <use xlink:href="#DejaVuSans-Bold-64" x="73.291016"/>
     </g>
    </g>
   </g>
   <g id="text_13">
    <g clip-path="url(#p6c3575a9b9)">
     <!-- C -->
     <g style="fill: #ffffff; opacity: 0.9" transform="translate(96.720515 172.707839)scale(0.12 -0.12)">
      <use xlink:href="#DejaVuSans-Bold-43"/>
     </g>
    </g>
   </g>
   <g id="text_14">
    <g clip-path="url(#p6c3575a9b9)">
     <!-- H -->
     <g style="fill: #ffffff; opacity: 0.9" transform="translate(81.357473 206.960599)scale(0.12 -0.12)">
      <use xlink:href="#DejaVuSans-Bold-48"/>
     </g>
    </g>
   </g>
   <g id="text_15">
    <g clip-path="url(#p6c3575a9b9)">
     <!-- Pd -->
     <g style="fill: #ffffff; opacity: 0.9" transform="translate(164.973116 240.387614)scale(0.12 -0.12)">
      <use xlink:href="#DejaVuSans-Bold-50"/>
      <use xlink:href="#DejaVuSans-Bold-64" x="73.291016"/>
     </g>
    </g>
   </g>
   <g id="text_16">
    <g clip-path="url(#p6c3575a9b9)">
     <!-- C -->
     <g style="fill: #ffffff; opacity: 0.9" transform="translate(151.628574 197.797298)scale(0.12 -0.12)">
      <use xlink:href="#DejaVuSans-Bold-43"/>
     </g>
    </g>
   </g>
   <g id="text_17">
    <g clip-path="url(#p6c3575a9b9)">
     <!-- H -->
     <g style="fill: #ffffff; opacity: 0.9" transform="translate(133.094167 229.199489)scale(0.12 -0.12)">
      <use xlink:href="#DejaVuSans-Bold-48"/>
     </g>
    </g>
   </g>
   <g id="text_18">
    <g clip-path="url(#p6c3575a9b9)">
     <!-- Pd -->
     <g style="fill: #ffffff; opacity: 0.9" transform="translate(191.712089 176.683407)scale(0.12 -0.12)">
      <use xlink:href="#DejaVuSans-Bold-50"/>
      <use xlink:href="#DejaVuSans-Bold-64" x="73.291016"/>
     </g>
    </g>
   </g>
   <g id="text_19">
    <g clip-path="url(#p6c3575a9b9)">
     <!-- N -->
     <g style="fill: #ffffff; opacity: 0.9" transform="translate(165.485132 162.005904)scale(0.12 -0.12)">
      <defs>
       <path id="DejaVuSans-Bold-4e" d="M 588 4666 
L 1931 4666 
L 3628 1466 
L 3628 4666 
L 4769 4666 
L 4769 0 
L 3425 0 
L 1728 3200 
L 1728 0 
L 588 0 
L 588 4666 
z
" transform="scale(0.015625)"/>
      </defs>
      <use xlink:href="#DejaVuSans-Bold-4e"/>
     </g>
    </g>
   </g>
  </g>
 </g>
 <defs>
  <clipPath id="p6c3575a9b9">
   <rect x="36" y="34.56" width="223.2" height="221.76"/>
  </clipPath>
 </defs>
</svg>
