<?xml version="1.0" encoding="utf-8" standalone="no"?>
<!DOCTYPE svg PUBLIC "-//W3C//DTD SVG 1.1//EN"
  "http://www.w3.org/Graphics/SVG/1.1/DTD/svg11.dtd">
<svg xmlns:xlink="http://www.w3.org/1999/xlink" width="288pt" height="288pt" viewBox="0 0 288 288" xmlns="http://www.w3.org/2000/svg" version="1.1">
 <metadata>
  <rdf:RDF xmlns:dc="http://purl.org/dc/elements/1.1/" xmlns:cc="http://creativecommons.org/ns#" xmlns:rdf="http://www.w3.org/1999/02/22-rdf-syntax-ns#">
   <cc:Work>
    <dc:type rdf:resource="http://purl.org/dc/dcmitype/StillImage"/>
    <dc:date>2022-09-21T18:19:17.442924</dc:date>
    <dc:format>image/svg+xml</dc:format>
    <dc:creator>
     <cc:Agent>
      <dc:title>Matplotlib v3.5.1, https://matplotlib.org/</dc:title>
     </cc:Agent>
    </dc:creator>
   </cc:Work>
  </rdf:RDF>
 </metadata>
 <defs>
  <style type="text/css">*{stroke-linejoin: round; stroke-linecap: butt}</style>
 </defs>
 <g id="figure_1">
  <g id="patch_1">
   <path d="M 0 288 
L 288 288 
L 288 0 
L 0 0 
z
" style="fill: #ffffff"/>
  </g>
  <g id="axes_1">
   <g id="patch_2">
    <path d="M 36 256.32 
L 259.2 256.32 
L 259.2 34.56 
L 36 34.56 
z
" style="fill: #ffffff"/>
   </g>
   <g id="matplotlib.axis_1">
    <g id="xtick_1"/>
    <g id="xtick_2"/>
    <g id="xtick_3"/>
    <g id="xtick_4"/>
   </g>
   <g id="matplotlib.axis_2">
    <g id="ytick_1"/>
    <g id="ytick_2"/>
    <g id="ytick_3"/>
    <g id="ytick_4"/>
    <g id="ytick_5"/>
   </g>
   <g id="LineCollection_1">
    <path d="M 198.618066 102.964809 
L 192.475981 141.229524 
" clip-path="url(#p841c7a6b1f)" style="fill: none; stroke: #1a1a1a; stroke-opacity: 0.9; stroke-width: 1.2"/>
    <path d="M 198.618066 102.964809 
L 239.831405 135.552877 
" clip-path="url(#p841c7a6b1f)" style="fill: none; stroke: #1a1a1a; stroke-opacity: 0.9; stroke-width: 1.2"/>
    <path d="M 198.618066 102.964809 
L 185.197325 124.791639 
" clip-path="url(#p841c7a6b1f)" style="fill: none; stroke: #1a1a1a; stroke-opacity: 0.9; stroke-width: 1.2"/>
    <path d="M 198.618066 102.964809 
L 230.227588 93.672452 
" clip-path="url(#p841c7a6b1f)" style="fill: none; stroke: #1a1a1a; stroke-opacity: 0.9; stroke-width: 1.2"/>
    <path d="M 198.618066 102.964809 
L 138.608314 115.42838 
" clip-path="url(#p841c7a6b1f)" style="fill: none; stroke: #1a1a1a; stroke-opacity: 0.9; stroke-width: 1.2"/>
    <path d="M 198.618066 102.964809 
L 161.422187 102.299176 
" clip-path="url(#p841c7a6b1f)" style="fill: none; stroke: #1a1a1a; stroke-opacity: 0.9; stroke-width: 1.2"/>
    <path d="M 224.379092 174.255797 
L 192.475981 141.229524 
" clip-path="url(#p841c7a6b1f)" style="fill: none; stroke: #1a1a1a; stroke-opacity: 0.9; stroke-width: 1.2"/>
    <path d="M 224.379092 174.255797 
L 239.831405 135.552877 
" clip-path="url(#p841c7a6b1f)" style="fill: none; stroke: #1a1a1a; stroke-opacity: 0.9; stroke-width: 1.2"/>
    <path d="M 224.379092 174.255797 
L 173.533796 185.559946 
" clip-path="url(#p841c7a6b1f)" style="fill: none; stroke: #1a1a1a; stroke-opacity: 0.9; stroke-width: 1.2"/>
    <path d="M 224.379092 174.255797 
L 209.008999 213.568372 
" clip-path="url(#p841c7a6b1f)" style="fill: none; stroke: #1a1a1a; stroke-opacity: 0.9; stroke-width: 1.2"/>
    <path d="M 192.475981 141.229524 
L 239.831405 135.552877 
" clip-path="url(#p841c7a6b1f)" style="fill: none; stroke: #1a1a1a; stroke-opacity: 0.9; stroke-width: 1.2"/>
    <path d="M 192.475981 141.229524 
L 185.197325 124.791639 
" clip-path="url(#p841c7a6b1f)" style="fill: none; stroke: #1a1a1a; stroke-opacity: 0.9; stroke-width: 1.2"/>
    <path d="M 192.475981 141.229524 
L 116.459635 141.938748 
" clip-path="url(#p841c7a6b1f)" style="fill: none; stroke: #1a1a1a; stroke-opacity: 0.9; stroke-width: 1.2"/>
    <path d="M 192.475981 141.229524 
L 138.608314 115.42838 
" clip-path="url(#p841c7a6b1f)" style="fill: none; stroke: #1a1a1a; stroke-opacity: 0.9; stroke-width: 1.2"/>
    <path d="M 185.197325 124.791639 
L 230.227588 93.672452 
" clip-path="url(#p841c7a6b1f)" style="fill: none; stroke: #1a1a1a; stroke-opacity: 0.9; stroke-width: 1.2"/>
    <path d="M 185.197325 124.791639 
L 143.385379 83.560368 
" clip-path="url(#p841c7a6b1f)" style="fill: none; stroke: #1a1a1a; stroke-opacity: 0.9; stroke-width: 1.2"/>
    <path d="M 185.197325 124.791639 
L 161.422187 102.299176 
" clip-path="url(#p841c7a6b1f)" style="fill: none; stroke: #1a1a1a; stroke-opacity: 0.9; stroke-width: 1.2"/>
    <path d="M 185.197325 124.791639 
L 192.865954 188.265289 
" clip-path="url(#p841c7a6b1f)" style="fill: none; stroke: #1a1a1a; stroke-opacity: 0.9; stroke-width: 1.2"/>
    <path d="M 185.197325 124.791639 
L 141.069679 147.239711 
" clip-path="url(#p841c7a6b1f)" style="fill: none; stroke: #1a1a1a; stroke-opacity: 0.9; stroke-width: 1.2"/>
    <path d="M 116.459635 141.938748 
L 138.608314 115.42838 
" clip-path="url(#p841c7a6b1f)" style="fill: none; stroke: #1a1a1a; stroke-opacity: 0.9; stroke-width: 1.2"/>
    <path d="M 116.459635 141.938748 
L 84.77812 101.447823 
" clip-path="url(#p841c7a6b1f)" style="fill: none; stroke: #1a1a1a; stroke-opacity: 0.9; stroke-width: 1.2"/>
    <path d="M 116.459635 141.938748 
L 108.86059 182.923167 
" clip-path="url(#p841c7a6b1f)" style="fill: none; stroke: #1a1a1a; stroke-opacity: 0.9; stroke-width: 1.2"/>
    <path d="M 116.459635 141.938748 
L 93.344712 150.999118 
" clip-path="url(#p841c7a6b1f)" style="fill: none; stroke: #1a1a1a; stroke-opacity: 0.9; stroke-width: 1.2"/>
    <path d="M 138.608314 115.42838 
L 84.77812 101.447823 
" clip-path="url(#p841c7a6b1f)" style="fill: none; stroke: #1a1a1a; stroke-opacity: 0.9; stroke-width: 1.2"/>
    <path d="M 138.608314 115.42838 
L 141.069679 147.239711 
" clip-path="url(#p841c7a6b1f)" style="fill: none; stroke: #1a1a1a; stroke-opacity: 0.9; stroke-width: 1.2"/>
    <path d="M 138.608314 115.42838 
L 93.344712 150.999118 
" clip-path="url(#p841c7a6b1f)" style="fill: none; stroke: #1a1a1a; stroke-opacity: 0.9; stroke-width: 1.2"/>
    <path d="M 143.385379 83.560368 
L 161.422187 102.299176 
" clip-path="url(#p841c7a6b1f)" style="fill: none; stroke: #1a1a1a; stroke-opacity: 0.9; stroke-width: 1.2"/>
    <path d="M 143.385379 83.560368 
L 159.599839 53.803636 
" clip-path="url(#p841c7a6b1f)" style="fill: none; stroke: #1a1a1a; stroke-opacity: 0.9; stroke-width: 1.2"/>
    <path d="M 143.385379 83.560368 
L 118.049471 121.606036 
" clip-path="url(#p841c7a6b1f)" style="fill: none; stroke: #1a1a1a; stroke-opacity: 0.9; stroke-width: 1.2"/>
    <path d="M 161.422187 102.299176 
L 159.599839 53.803636 
" clip-path="url(#p841c7a6b1f)" style="fill: none; stroke: #1a1a1a; stroke-opacity: 0.9; stroke-width: 1.2"/>
    <path d="M 161.422187 102.299176 
L 141.069679 147.239711 
" clip-path="url(#p841c7a6b1f)" style="fill: none; stroke: #1a1a1a; stroke-opacity: 0.9; stroke-width: 1.2"/>
    <path d="M 161.422187 102.299176 
L 165.891416 144.825457 
" clip-path="url(#p841c7a6b1f)" style="fill: none; stroke: #1a1a1a; stroke-opacity: 0.9; stroke-width: 1.2"/>
    <path d="M 161.422187 102.299176 
L 118.049471 121.606036 
" clip-path="url(#p841c7a6b1f)" style="fill: none; stroke: #1a1a1a; stroke-opacity: 0.9; stroke-width: 1.2"/>
    <path d="M 153.767988 214.441899 
L 173.533796 185.559946 
" clip-path="url(#p841c7a6b1f)" style="fill: none; stroke: #1a1a1a; stroke-opacity: 0.9; stroke-width: 1.2"/>
    <path d="M 153.767988 214.441899 
L 209.008999 213.568372 
" clip-path="url(#p841c7a6b1f)" style="fill: none; stroke: #1a1a1a; stroke-opacity: 0.9; stroke-width: 1.2"/>
    <path d="M 153.767988 214.441899 
L 108.86059 182.923167 
" clip-path="url(#p841c7a6b1f)" style="fill: none; stroke: #1a1a1a; stroke-opacity: 0.9; stroke-width: 1.2"/>
    <path d="M 153.767988 214.441899 
L 134.83775 213.15275 
" clip-path="url(#p841c7a6b1f)" style="fill: none; stroke: #1a1a1a; stroke-opacity: 0.9; stroke-width: 1.2"/>
    <path d="M 153.767988 214.441899 
L 173.381294 237.076364 
" clip-path="url(#p841c7a6b1f)" style="fill: none; stroke: #1a1a1a; stroke-opacity: 0.9; stroke-width: 1.2"/>
    <path d="M 153.767988 214.441899 
L 140.451776 174.205964 
" clip-path="url(#p841c7a6b1f)" style="fill: none; stroke: #1a1a1a; stroke-opacity: 0.9; stroke-width: 1.2"/>
    <path d="M 173.533796 185.559946 
L 209.008999 213.568372 
" clip-path="url(#p841c7a6b1f)" style="fill: none; stroke: #1a1a1a; stroke-opacity: 0.9; stroke-width: 1.2"/>
    <path d="M 173.533796 185.559946 
L 134.83775 213.15275 
" clip-path="url(#p841c7a6b1f)" style="fill: none; stroke: #1a1a1a; stroke-opacity: 0.9; stroke-width: 1.2"/>
    <path d="M 173.533796 185.559946 
L 141.069679 147.239711 
" clip-path="url(#p841c7a6b1f)" style="fill: none; stroke: #1a1a1a; stroke-opacity: 0.9; stroke-width: 1.2"/>
    <path d="M 173.533796 185.559946 
L 165.891416 144.825457 
" clip-path="url(#p841c7a6b1f)" style="fill: none; stroke: #1a1a1a; stroke-opacity: 0.9; stroke-width: 1.2"/>
    <path d="M 173.533796 185.559946 
L 140.451776 174.205964 
" clip-path="url(#p841c7a6b1f)" style="fill: none; stroke: #1a1a1a; stroke-opacity: 0.9; stroke-width: 1.2"/>
    <path d="M 87.992944 201.744481 
L 108.86059 182.923167 
" clip-path="url(#p841c7a6b1f)" style="fill: none; stroke: #1a1a1a; stroke-opacity: 0.9; stroke-width: 1.2"/>
    <path d="M 87.992944 201.744481 
L 55.368595 198.162923 
" clip-path="url(#p841c7a6b1f)" style="fill: none; stroke: #1a1a1a; stroke-opacity: 0.9; stroke-width: 1.2"/>
    <path d="M 87.992944 201.744481 
L 134.83775 213.15275 
" clip-path="url(#p841c7a6b1f)" style="fill: none; stroke: #1a1a1a; stroke-opacity: 0.9; stroke-width: 1.2"/>
    <path d="M 87.992944 201.744481 
L 93.344712 150.999118 
" clip-path="url(#p841c7a6b1f)" style="fill: none; stroke: #1a1a1a; stroke-opacity: 0.9; stroke-width: 1.2"/>
    <path d="M 108.86059 182.923167 
L 55.368595 198.162923 
" clip-path="url(#p841c7a6b1f)" style="fill: none; stroke: #1a1a1a; stroke-opacity: 0.9; stroke-width: 1.2"/>
    <path d="M 108.86059 182.923167 
L 134.83775 213.15275 
" clip-path="url(#p841c7a6b1f)" style="fill: none; stroke: #1a1a1a; stroke-opacity: 0.9; stroke-width: 1.2"/>
    <path d="M 108.86059 182.923167 
L 141.069679 147.239711 
" clip-path="url(#p841c7a6b1f)" style="fill: none; stroke: #1a1a1a; stroke-opacity: 0.9; stroke-width: 1.2"/>
    <path d="M 108.86059 182.923167 
L 93.344712 150.999118 
" clip-path="url(#p841c7a6b1f)" style="fill: none; stroke: #1a1a1a; stroke-opacity: 0.9; stroke-width: 1.2"/>
    <path d="M 192.865954 188.265289 
L 134.83775 213.15275 
" clip-path="url(#p841c7a6b1f)" style="fill: none; stroke: #1a1a1a; stroke-opacity: 0.9; stroke-width: 1.2"/>
    <path d="M 192.865954 188.265289 
L 173.381294 237.076364 
" clip-path="url(#p841c7a6b1f)" style="fill: none; stroke: #1a1a1a; stroke-opacity: 0.9; stroke-width: 1.2"/>
    <path d="M 134.83775 213.15275 
L 173.381294 237.076364 
" clip-path="url(#p841c7a6b1f)" style="fill: none; stroke: #1a1a1a; stroke-opacity: 0.9; stroke-width: 1.2"/>
    <path d="M 141.069679 147.239711 
L 118.049471 121.606036 
" clip-path="url(#p841c7a6b1f)" style="fill: none; stroke: #1a1a1a; stroke-opacity: 0.9; stroke-width: 1.2"/>
    <path d="M 141.069679 147.239711 
L 93.344712 150.999118 
" clip-path="url(#p841c7a6b1f)" style="fill: none; stroke: #1a1a1a; stroke-opacity: 0.9; stroke-width: 1.2"/>
    <path d="M 141.069679 147.239711 
L 140.451776 174.205964 
" clip-path="url(#p841c7a6b1f)" style="fill: none; stroke: #1a1a1a; stroke-opacity: 0.9; stroke-width: 1.2"/>
    <path d="M 165.891416 144.825457 
L 118.049471 121.606036 
" clip-path="url(#p841c7a6b1f)" style="fill: none; stroke: #1a1a1a; stroke-opacity: 0.9; stroke-width: 1.2"/>
    <path d="M 165.891416 144.825457 
L 140.451776 174.205964 
" clip-path="url(#p841c7a6b1f)" style="fill: none; stroke: #1a1a1a; stroke-opacity: 0.9; stroke-width: 1.2"/>
    <path d="M 118.049471 121.606036 
L 93.344712 150.999118 
" clip-path="url(#p841c7a6b1f)" style="fill: none; stroke: #1a1a1a; stroke-opacity: 0.9; stroke-width: 1.2"/>
    <path d="M 118.049471 121.606036 
L 140.451776 174.205964 
" clip-path="url(#p841c7a6b1f)" style="fill: none; stroke: #1a1a1a; stroke-opacity: 0.9; stroke-width: 1.2"/>
   </g>
   <g id="PathCollection_1">
    <defs>
     <path id="C0_0_ab3da6e405" d="M 0 10 
C 2.652031 10 5.195799 8.946337 7.071068 7.071068 
C 8.946337 5.195799 10 2.652031 10 -0 
C 10 -2.652031 8.946337 -5.195799 7.071068 -7.071068 
C 5.195799 -8.946337 2.652031 -10 0 -10 
C -2.652031 -10 -5.195799 -8.946337 -7.071068 -7.071068 
C -8.946337 -5.195799 -10 -2.652031 -10 0 
C -10 2.652031 -8.946337 5.195799 -7.071068 7.071068 
C -5.195799 8.946337 -2.652031 10 0 10 
z
"/>
    </defs>
    <g clip-path="url(#p841c7a6b1f)">
     <use xlink:href="#C0_0_ab3da6e405" x="198.618066" y="102.964809" style="fill: #248f8f; fill-opacity: 0.9; stroke: #248f8f; stroke-opacity: 0.9"/>
    </g>
    <g clip-path="url(#p841c7a6b1f)">
     <use xlink:href="#C0_0_ab3da6e405" x="224.379092" y="174.255797" style="fill: #248f8f; fill-opacity: 0.9; stroke: #248f8f; stroke-opacity: 0.9"/>
    </g>
    <g clip-path="url(#p841c7a6b1f)">
     <use xlink:href="#C0_0_ab3da6e405" x="192.475981" y="141.229524" style="fill: #666666; fill-opacity: 0.9; stroke: #666666; stroke-opacity: 0.9"/>
    </g>
    <g clip-path="url(#p841c7a6b1f)">
     <use xlink:href="#C0_0_ab3da6e405" x="239.831405" y="135.552877" style="fill: #bfbfbf; fill-opacity: 0.9; stroke: #bfbfbf; stroke-opacity: 0.9"/>
    </g>
    <g clip-path="url(#p841c7a6b1f)">
     <use xlink:href="#C0_0_ab3da6e405" x="185.197325" y="124.791639" style="fill: #666666; fill-opacity: 0.9; stroke: #666666; stroke-opacity: 0.9"/>
    </g>
    <g clip-path="url(#p841c7a6b1f)">
     <use xlink:href="#C0_0_ab3da6e405" x="230.227588" y="93.672452" style="fill: #bfbfbf; fill-opacity: 0.9; stroke: #bfbfbf; stroke-opacity: 0.9"/>
    </g>
    <g clip-path="url(#p841c7a6b1f)">
     <use xlink:href="#C0_0_ab3da6e405" x="116.459635" y="141.938748" style="fill: #248f8f; fill-opacity: 0.9; stroke: #248f8f; stroke-opacity: 0.9"/>
    </g>
    <g clip-path="url(#p841c7a6b1f)">
     <use xlink:href="#C0_0_ab3da6e405" x="138.608314" y="115.42838" style="fill: #666666; fill-opacity: 0.9; stroke: #666666; stroke-opacity: 0.9"/>
    </g>
    <g clip-path="url(#p841c7a6b1f)">
     <use xlink:href="#C0_0_ab3da6e405" x="84.77812" y="101.447823" style="fill: #bfbfbf; fill-opacity: 0.9; stroke: #bfbfbf; stroke-opacity: 0.9"/>
    </g>
    <g clip-path="url(#p841c7a6b1f)">
     <use xlink:href="#C0_0_ab3da6e405" x="143.385379" y="83.560368" style="fill: #248f8f; fill-opacity: 0.9; stroke: #248f8f; stroke-opacity: 0.9"/>
    </g>
    <g clip-path="url(#p841c7a6b1f)">
     <use xlink:href="#C0_0_ab3da6e405" x="161.422187" y="102.299176" style="fill: #666666; fill-opacity: 0.9; stroke: #666666; stroke-opacity: 0.9"/>
    </g>
    <g clip-path="url(#p841c7a6b1f)">
     <use xlink:href="#C0_0_ab3da6e405" x="159.599839" y="53.803636" style="fill: #bfbfbf; fill-opacity: 0.9; stroke: #bfbfbf; stroke-opacity: 0.9"/>
    </g>
    <g clip-path="url(#p841c7a6b1f)">
     <use xlink:href="#C0_0_ab3da6e405" x="153.767988" y="214.441899" style="fill: #248f8f; fill-opacity: 0.9; stroke: #248f8f; stroke-opacity: 0.9"/>
    </g>
    <g clip-path="url(#p841c7a6b1f)">
     <use xlink:href="#C0_0_ab3da6e405" x="173.533796" y="185.559946" style="fill: #666666; fill-opacity: 0.9; stroke: #666666; stroke-opacity: 0.9"/>
    </g>
    <g clip-path="url(#p841c7a6b1f)">
     <use xlink:href="#C0_0_ab3da6e405" x="209.008999" y="213.568372" style="fill: #bfbfbf; fill-opacity: 0.9; stroke: #bfbfbf; stroke-opacity: 0.9"/>
    </g>
    <g clip-path="url(#p841c7a6b1f)">
     <use xlink:href="#C0_0_ab3da6e405" x="87.992944" y="201.744481" style="fill: #248f8f; fill-opacity: 0.9; stroke: #248f8f; stroke-opacity: 0.9"/>
    </g>
    <g clip-path="url(#p841c7a6b1f)">
     <use xlink:href="#C0_0_ab3da6e405" x="108.86059" y="182.923167" style="fill: #666666; fill-opacity: 0.9; stroke: #666666; stroke-opacity: 0.9"/>
    </g>
    <g clip-path="url(#p841c7a6b1f)">
     <use xlink:href="#C0_0_ab3da6e405" x="55.368595" y="198.162923" style="fill: #bfbfbf; fill-opacity: 0.9; stroke: #bfbfbf; stroke-opacity: 0.9"/>
    </g>
    <g clip-path="url(#p841c7a6b1f)">
     <use xlink:href="#C0_0_ab3da6e405" x="192.865954" y="188.265289" style="fill: #248f8f; fill-opacity: 0.9; stroke: #248f8f; stroke-opacity: 0.9"/>
    </g>
    <g clip-path="url(#p841c7a6b1f)">
     <use xlink:href="#C0_0_ab3da6e405" x="134.83775" y="213.15275" style="fill: #666666; fill-opacity: 0.9; stroke: #666666; stroke-opacity: 0.9"/>
    </g>
    <g clip-path="url(#p841c7a6b1f)">
     <use xlink:href="#C0_0_ab3da6e405" x="173.381294" y="237.076364" style="fill: #bfbfbf; fill-opacity: 0.9; stroke: #bfbfbf; stroke-opacity: 0.9"/>
    </g>
    <g clip-path="url(#p841c7a6b1f)">
     <use xlink:href="#C0_0_ab3da6e405" x="141.069679" y="147.239711" style="fill: #248f8f; fill-opacity: 0.9; stroke: #248f8f; stroke-opacity: 0.9"/>
    </g>
    <g clip-path="url(#p841c7a6b1f)">
     <use xlink:href="#C0_0_ab3da6e405" x="165.891416" y="144.825457" style="fill: #248f8f; fill-opacity: 0.9; stroke: #248f8f; stroke-opacity: 0.9"/>
    </g>
    <g clip-path="url(#p841c7a6b1f)">
     <use xlink:href="#C0_0_ab3da6e405" x="118.049471" y="121.606036" style="fill: #666666; fill-opacity: 0.9; stroke: #666666; stroke-opacity: 0.9"/>
    </g>
    <g clip-path="url(#p841c7a6b1f)">
     <use xlink:href="#C0_0_ab3da6e405" x="93.344712" y="150.999118" style="fill: #666666; fill-opacity: 0.9; stroke: #666666; stroke-opacity: 0.9"/>
    </g>
    <g clip-path="url(#p841c7a6b1f)">
     <use xlink:href="#C0_0_ab3da6e405" x="140.451776" y="174.205964" style="fill: #0d0dff; fill-opacity: 0.9; stroke: #0d0dff; stroke-opacity: 0.9"/>
    </g>
   </g>
   <g id="patch_3">
    <path d="M 36 256.32 
L 36 34.56 
" style="fill: none; stroke: #262626; stroke-width: 1.25; stroke-linejoin: miter; stroke-linecap: square"/>
   </g>
   <g id="patch_4">
    <path d="M 36 256.32 
L 259.2 256.32 
" style="fill: none; stroke: #262626; stroke-width: 1.25; stroke-linejoin: miter; stroke-linecap: square"/>
   </g>
   <g id="text_1">
    <g clip-path="url(#p841c7a6b1f)">
     <!-- Ru -->
     <g style="fill: #ffffff; opacity: 0.9" transform="translate(189.726816 106.276059)scale(0.12 -0.12)">
      <defs>
       <path id="DejaVuSans-Bold-52" d="M 2297 2597 
Q 2675 2597 2839 2737 
Q 3003 2878 3003 3200 
Q 3003 3519 2839 3656 
Q 2675 3794 2297 3794 
L 1791 3794 
L 1791 2597 
L 2297 2597 
z
M 1791 1766 
L 1791 0 
L 588 0 
L 588 4666 
L 2425 4666 
Q 3347 4666 3776 4356 
Q 4206 4047 4206 3378 
Q 4206 2916 3982 2619 
Q 3759 2322 3309 2181 
Q 3556 2125 3751 1926 
Q 3947 1728 4147 1325 
L 4800 0 
L 3519 0 
L 2950 1159 
Q 2778 1509 2601 1637 
Q 2425 1766 2131 1766 
L 1791 1766 
z
" transform="scale(0.015625)"/>
       <path id="DejaVuSans-Bold-75" d="M 500 1363 
L 500 3500 
L 1625 3500 
L 1625 3150 
Q 1625 2866 1622 2436 
Q 1619 2006 1619 1863 
Q 1619 1441 1641 1255 
Q 1663 1069 1716 984 
Q 1784 875 1895 815 
Q 2006 756 2150 756 
Q 2500 756 2700 1025 
Q 2900 1294 2900 1772 
L 2900 3500 
L 4019 3500 
L 4019 0 
L 2900 0 
L 2900 506 
Q 2647 200 2364 54 
Q 2081 -91 1741 -91 
Q 1134 -91 817 281 
Q 500 653 500 1363 
z
" transform="scale(0.015625)"/>
      </defs>
      <use xlink:href="#DejaVuSans-Bold-52"/>
      <use xlink:href="#DejaVuSans-Bold-75" x="77.001953"/>
     </g>
    </g>
   </g>
   <g id="text_2">
    <g clip-path="url(#p841c7a6b1f)">
     <!-- Ru -->
     <g style="fill: #ffffff; opacity: 0.9" transform="translate(215.487842 177.567047)scale(0.12 -0.12)">
      <use xlink:href="#DejaVuSans-Bold-52"/>
      <use xlink:href="#DejaVuSans-Bold-75" x="77.001953"/>
     </g>
    </g>
   </g>
   <g id="text_3">
    <g clip-path="url(#p841c7a6b1f)">
     <!-- C -->
     <g style="fill: #ffffff; opacity: 0.9" transform="translate(188.072543 144.540774)scale(0.12 -0.12)">
      <defs>
       <path id="DejaVuSans-Bold-43" d="M 4288 256 
Q 3956 84 3597 -3 
Q 3238 -91 2847 -91 
Q 1681 -91 1000 561 
Q 319 1213 319 2328 
Q 319 3447 1000 4098 
Q 1681 4750 2847 4750 
Q 3238 4750 3597 4662 
Q 3956 4575 4288 4403 
L 4288 3438 
Q 3953 3666 3628 3772 
Q 3303 3878 2944 3878 
Q 2300 3878 1931 3465 
Q 1563 3053 1563 2328 
Q 1563 1606 1931 1193 
Q 2300 781 2944 781 
Q 3303 781 3628 887 
Q 3953 994 4288 1222 
L 4288 256 
z
" transform="scale(0.015625)"/>
      </defs>
      <use xlink:href="#DejaVuSans-Bold-43"/>
     </g>
    </g>
   </g>
   <g id="text_4">
    <g clip-path="url(#p841c7a6b1f)">
     <!-- H -->
     <g style="fill: #ffffff; opacity: 0.9" transform="translate(234.810155 138.864127)scale(0.12 -0.12)">
      <defs>
       <path id="DejaVuSans-Bold-48" d="M 588 4666 
L 1791 4666 
L 1791 2888 
L 3566 2888 
L 3566 4666 
L 4769 4666 
L 4769 0 
L 3566 0 
L 3566 1978 
L 1791 1978 
L 1791 0 
L 588 0 
L 588 4666 
z
" transform="scale(0.015625)"/>
      </defs>
      <use xlink:href="#DejaVuSans-Bold-48"/>
     </g>
    </g>
   </g>
   <g id="text_5">
    <g clip-path="url(#p841c7a6b1f)">
     <!-- C -->
     <g style="fill: #ffffff; opacity: 0.9" transform="translate(180.793888 128.102889)scale(0.12 -0.12)">
      <use xlink:href="#DejaVuSans-Bold-43"/>
     </g>
    </g>
   </g>
   <g id="text_6">
    <g clip-path="url(#p841c7a6b1f)">
     <!-- H -->
     <g style="fill: #ffffff; opacity: 0.9" transform="translate(225.206338 96.983702)scale(0.12 -0.12)">
      <use xlink:href="#DejaVuSans-Bold-48"/>
     </g>
    </g>
   </g>
   <g id="text_7">
    <g clip-path="url(#p841c7a6b1f)">
     <!-- Ru -->
     <g style="fill: #ffffff; opacity: 0.9" transform="translate(107.568385 145.249998)scale(0.12 -0.12)">
      <use xlink:href="#DejaVuSans-Bold-52"/>
      <use xlink:href="#DejaVuSans-Bold-75" x="77.001953"/>
     </g>
    </g>
   </g>
   <g id="text_8">
    <g clip-path="url(#p841c7a6b1f)">
     <!-- C -->
     <g style="fill: #ffffff; opacity: 0.9" transform="translate(134.204877 118.73963)scale(0.12 -0.12)">
      <use xlink:href="#DejaVuSans-Bold-43"/>
     </g>
    </g>
   </g>
   <g id="text_9">
    <g clip-path="url(#p841c7a6b1f)">
     <!-- H -->
     <g style="fill: #ffffff; opacity: 0.9" transform="translate(79.75687 104.759073)scale(0.12 -0.12)">
      <use xlink:href="#DejaVuSans-Bold-48"/>
     </g>
    </g>
   </g>
   <g id="text_10">
    <g clip-path="url(#p841c7a6b1f)">
     <!-- Ru -->
     <g style="fill: #ffffff; opacity: 0.9" transform="translate(134.494129 86.871618)scale(0.12 -0.12)">
      <use xlink:href="#DejaVuSans-Bold-52"/>
      <use xlink:href="#DejaVuSans-Bold-75" x="77.001953"/>
     </g>
    </g>
   </g>
   <g id="text_11">
    <g clip-path="url(#p841c7a6b1f)">
     <!-- C -->
     <g style="fill: #ffffff; opacity: 0.9" transform="translate(157.01875 105.610426)scale(0.12 -0.12)">
      <use xlink:href="#DejaVuSans-Bold-43"/>
     </g>
    </g>
   </g>
   <g id="text_12">
    <g clip-path="url(#p841c7a6b1f)">
     <!-- H -->
     <g style="fill: #ffffff; opacity: 0.9" transform="translate(154.578589 57.114886)scale(0.12 -0.12)">
      <use xlink:href="#DejaVuSans-Bold-48"/>
     </g>
    </g>
   </g>
   <g id="text_13">
    <g clip-path="url(#p841c7a6b1f)">
     <!-- Ru -->
     <g style="fill: #ffffff; opacity: 0.9" transform="translate(144.876738 217.753149)scale(0.12 -0.12)">
      <use xlink:href="#DejaVuSans-Bold-52"/>
      <use xlink:href="#DejaVuSans-Bold-75" x="77.001953"/>
     </g>
    </g>
   </g>
   <g id="text_14">
    <g clip-path="url(#p841c7a6b1f)">
     <!-- C -->
     <g style="fill: #ffffff; opacity: 0.9" transform="translate(169.130358 188.871196)scale(0.12 -0.12)">
      <use xlink:href="#DejaVuSans-Bold-43"/>
     </g>
    </g>
   </g>
   <g id="text_15">
    <g clip-path="url(#p841c7a6b1f)">
     <!-- H -->
     <g style="fill: #ffffff; opacity: 0.9" transform="translate(203.987749 216.879622)scale(0.12 -0.12)">
      <use xlink:href="#DejaVuSans-Bold-48"/>
     </g>
    </g>
   </g>
   <g id="text_16">
    <g clip-path="url(#p841c7a6b1f)">
     <!-- Ru -->
     <g style="fill: #ffffff; opacity: 0.9" transform="translate(79.101694 205.055731)scale(0.12 -0.12)">
      <use xlink:href="#DejaVuSans-Bold-52"/>
      <use xlink:href="#DejaVuSans-Bold-75" x="77.001953"/>
     </g>
    </g>
   </g>
   <g id="text_17">
    <g clip-path="url(#p841c7a6b1f)">
     <!-- C -->
     <g style="fill: #ffffff; opacity: 0.9" transform="translate(104.457152 186.234417)scale(0.12 -0.12)">
      <use xlink:href="#DejaVuSans-Bold-43"/>
     </g>
    </g>
   </g>
   <g id="text_18">
    <g clip-path="url(#p841c7a6b1f)">
     <!-- H -->
     <g style="fill: #ffffff; opacity: 0.9" transform="translate(50.347345 201.474173)scale(0.12 -0.12)">
      <use xlink:href="#DejaVuSans-Bold-48"/>
     </g>
    </g>
   </g>
   <g id="text_19">
    <g clip-path="url(#p841c7a6b1f)">
     <!-- Ru -->
     <g style="fill: #ffffff; opacity: 0.9" transform="translate(183.974704 191.576539)scale(0.12 -0.12)">
      <use xlink:href="#DejaVuSans-Bold-52"/>
      <use xlink:href="#DejaVuSans-Bold-75" x="77.001953"/>
     </g>
    </g>
   </g>
   <g id="text_20">
    <g clip-path="url(#p841c7a6b1f)">
     <!-- C -->
     <g style="fill: #ffffff; opacity: 0.9" transform="translate(130.434312 216.464)scale(0.12 -0.12)">
      <use xlink:href="#DejaVuSans-Bold-43"/>
     </g>
    </g>
   </g>
   <g id="text_21">
    <g clip-path="url(#p841c7a6b1f)">
     <!-- H -->
     <g style="fill: #ffffff; opacity: 0.9" transform="translate(168.360044 240.387614)scale(0.12 -0.12)">
      <use xlink:href="#DejaVuSans-Bold-48"/>
     </g>
    </g>
   </g>
   <g id="text_22">
    <g clip-path="url(#p841c7a6b1f)">
     <!-- Ru -->
     <g style="fill: #ffffff; opacity: 0.9" transform="translate(132.178429 150.550961)scale(0.12 -0.12)">
      <use xlink:href="#DejaVuSans-Bold-52"/>
      <use xlink:href="#DejaVuSans-Bold-75" x="77.001953"/>
     </g>
    </g>
   </g>
   <g id="text_23">
    <g clip-path="url(#p841c7a6b1f)">
     <!-- Ru -->
     <g style="fill: #ffffff; opacity: 0.9" transform="translate(157.000166 148.136707)scale(0.12 -0.12)">
      <use xlink:href="#DejaVuSans-Bold-52"/>
      <use xlink:href="#DejaVuSans-Bold-75" x="77.001953"/>
     </g>
    </g>
   </g>
   <g id="text_24">
    <g clip-path="url(#p841c7a6b1f)">
     <!-- C -->
     <g style="fill: #ffffff; opacity: 0.9" transform="translate(113.646034 124.917286)scale(0.12 -0.12)">
      <use xlink:href="#DejaVuSans-Bold-43"/>
     </g>
    </g>
   </g>
   <g id="text_25">
    <g clip-path="url(#p841c7a6b1f)">
     <!-- C -->
     <g style="fill: #ffffff; opacity: 0.9" transform="translate(88.941275 154.310368)scale(0.12 -0.12)">
      <use xlink:href="#DejaVuSans-Bold-43"/>
     </g>
    </g>
   </g>
   <g id="text_26">
    <g clip-path="url(#p841c7a6b1f)">
     <!-- N -->
     <g style="fill: #ffffff; opacity: 0.9" transform="translate(135.430526 177.517214)scale(0.12 -0.12)">
      <defs>
       <path id="DejaVuSans-Bold-4e" d="M 588 4666 
L 1931 4666 
L 3628 1466 
L 3628 4666 
L 4769 4666 
L 4769 0 
L 3425 0 
L 1728 3200 
L 1728 0 
L 588 0 
L 588 4666 
z
" transform="scale(0.015625)"/>
      </defs>
      <use xlink:href="#DejaVuSans-Bold-4e"/>
     </g>
    </g>
   </g>
  </g>
 </g>
 <defs>
  <clipPath id="p841c7a6b1f">
   <rect x="36" y="34.56" width="223.2" height="221.76"/>
  </clipPath>
 </defs>
</svg>
