<?xml version="1.0" encoding="utf-8" standalone="no"?>
<!DOCTYPE svg PUBLIC "-//W3C//DTD SVG 1.1//EN"
  "http://www.w3.org/Graphics/SVG/1.1/DTD/svg11.dtd">
<svg xmlns:xlink="http://www.w3.org/1999/xlink" width="425.19685pt" height="595.275591pt" viewBox="0 0 425.19685 595.275591" xmlns="http://www.w3.org/2000/svg" version="1.1">
 <metadata>
  <rdf:RDF xmlns:dc="http://purl.org/dc/elements/1.1/" xmlns:cc="http://creativecommons.org/ns#" xmlns:rdf="http://www.w3.org/1999/02/22-rdf-syntax-ns#">
   <cc:Work>
    <dc:type rdf:resource="http://purl.org/dc/dcmitype/StillImage"/>
    <dc:date>2023-01-30T16:27:04.000695</dc:date>
    <dc:format>image/svg+xml</dc:format>
    <dc:creator>
     <cc:Agent>
      <dc:title>Matplotlib v3.6.2, https://matplotlib.org/</dc:title>
     </cc:Agent>
    </dc:creator>
   </cc:Work>
  </rdf:RDF>
 </metadata>
 <defs>
  <style type="text/css">*{stroke-linejoin: round; stroke-linecap: butt}</style>
 </defs>
 <g id="figure_1">
  <g id="patch_1">
   <path d="M 0 595.275591 
L 425.19685 595.275591 
L 425.19685 0 
L 0 0 
L 0 595.275591 
z
" style="fill: none"/>
  </g>
  <g id="axes_1">
   <g id="patch_2">
    <path d="M 45.576875 158.761697 
L 406.02685 158.761697 
L 406.02685 25.49625 
L 45.576875 25.49625 
L 45.576875 158.761697 
z
" style="fill: none"/>
   </g>
   <g id="matplotlib.axis_1">
    <g id="xtick_1">
     <g id="line2d_1">
      <defs>
       <path id="m15ef16ab50" d="M 0 0 
L 0 3.5 
" style="stroke: #000000; stroke-width: 0.8"/>
      </defs>
      <g>
       <use xlink:href="#m15ef16ab50" x="58.960329" y="158.761697" style="stroke: #000000; stroke-width: 0.8"/>
      </g>
     </g>
     <g id="text_1">
      <!-- −140 -->
      <g transform="translate(47.69861 172.919509) scale(0.1 -0.1)">
       <defs>
        <path id="ArialMT-2212" d="M 3381 1997 
L 356 1997 
L 356 2522 
L 3381 2522 
L 3381 1997 
z
" transform="scale(0.015625)"/>
        <path id="ArialMT-31" d="M 2384 0 
L 1822 0 
L 1822 3584 
Q 1619 3391 1289 3197 
Q 959 3003 697 2906 
L 697 3450 
Q 1169 3672 1522 3987 
Q 1875 4303 2022 4600 
L 2384 4600 
L 2384 0 
z
" transform="scale(0.015625)"/>
        <path id="ArialMT-34" d="M 2069 0 
L 2069 1097 
L 81 1097 
L 81 1613 
L 2172 4581 
L 2631 4581 
L 2631 1613 
L 3250 1613 
L 3250 1097 
L 2631 1097 
L 2631 0 
L 2069 0 
z
M 2069 1613 
L 2069 3678 
L 634 1613 
L 2069 1613 
z
" transform="scale(0.015625)"/>
        <path id="ArialMT-30" d="M 266 2259 
Q 266 3072 433 3567 
Q 600 4063 929 4331 
Q 1259 4600 1759 4600 
Q 2128 4600 2406 4451 
Q 2684 4303 2865 4023 
Q 3047 3744 3150 3342 
Q 3253 2941 3253 2259 
Q 3253 1453 3087 958 
Q 2922 463 2592 192 
Q 2263 -78 1759 -78 
Q 1097 -78 719 397 
Q 266 969 266 2259 
z
M 844 2259 
Q 844 1131 1108 757 
Q 1372 384 1759 384 
Q 2147 384 2411 759 
Q 2675 1134 2675 2259 
Q 2675 3391 2411 3762 
Q 2147 4134 1753 4134 
Q 1366 4134 1134 3806 
Q 844 3388 844 2259 
z
" transform="scale(0.015625)"/>
       </defs>
       <use xlink:href="#ArialMT-2212"/>
       <use xlink:href="#ArialMT-31" x="58.398438"/>
       <use xlink:href="#ArialMT-34" x="114.013672"/>
       <use xlink:href="#ArialMT-30" x="169.628906"/>
      </g>
     </g>
    </g>
    <g id="xtick_2">
     <g id="line2d_2">
      <g>
       <use xlink:href="#m15ef16ab50" x="107.922551" y="158.761697" style="stroke: #000000; stroke-width: 0.8"/>
      </g>
     </g>
     <g id="text_2">
      <!-- −120 -->
      <g transform="translate(96.660832 172.919509) scale(0.1 -0.1)">
       <defs>
        <path id="ArialMT-32" d="M 3222 541 
L 3222 0 
L 194 0 
Q 188 203 259 391 
Q 375 700 629 1000 
Q 884 1300 1366 1694 
Q 2113 2306 2375 2664 
Q 2638 3022 2638 3341 
Q 2638 3675 2398 3904 
Q 2159 4134 1775 4134 
Q 1369 4134 1125 3890 
Q 881 3647 878 3216 
L 300 3275 
Q 359 3922 746 4261 
Q 1134 4600 1788 4600 
Q 2447 4600 2831 4234 
Q 3216 3869 3216 3328 
Q 3216 3053 3103 2787 
Q 2991 2522 2730 2228 
Q 2469 1934 1863 1422 
Q 1356 997 1212 845 
Q 1069 694 975 541 
L 3222 541 
z
" transform="scale(0.015625)"/>
       </defs>
       <use xlink:href="#ArialMT-2212"/>
       <use xlink:href="#ArialMT-31" x="58.398438"/>
       <use xlink:href="#ArialMT-32" x="114.013672"/>
       <use xlink:href="#ArialMT-30" x="169.628906"/>
      </g>
     </g>
    </g>
    <g id="xtick_3">
     <g id="line2d_3">
      <g>
       <use xlink:href="#m15ef16ab50" x="156.884773" y="158.761697" style="stroke: #000000; stroke-width: 0.8"/>
      </g>
     </g>
     <g id="text_3">
      <!-- −100 -->
      <g transform="translate(145.623054 172.919509) scale(0.1 -0.1)">
       <use xlink:href="#ArialMT-2212"/>
       <use xlink:href="#ArialMT-31" x="58.398438"/>
       <use xlink:href="#ArialMT-30" x="114.013672"/>
       <use xlink:href="#ArialMT-30" x="169.628906"/>
      </g>
     </g>
    </g>
    <g id="xtick_4">
     <g id="line2d_4">
      <g>
       <use xlink:href="#m15ef16ab50" x="205.846995" y="158.761697" style="stroke: #000000; stroke-width: 0.8"/>
      </g>
     </g>
     <g id="text_4">
      <!-- −80 -->
      <g transform="translate(197.365745 172.919509) scale(0.1 -0.1)">
       <defs>
        <path id="ArialMT-38" d="M 1131 2484 
Q 781 2613 612 2850 
Q 444 3088 444 3419 
Q 444 3919 803 4259 
Q 1163 4600 1759 4600 
Q 2359 4600 2725 4251 
Q 3091 3903 3091 3403 
Q 3091 3084 2923 2848 
Q 2756 2613 2416 2484 
Q 2838 2347 3058 2040 
Q 3278 1734 3278 1309 
Q 3278 722 2862 322 
Q 2447 -78 1769 -78 
Q 1091 -78 675 323 
Q 259 725 259 1325 
Q 259 1772 486 2073 
Q 713 2375 1131 2484 
z
M 1019 3438 
Q 1019 3113 1228 2906 
Q 1438 2700 1772 2700 
Q 2097 2700 2305 2904 
Q 2513 3109 2513 3406 
Q 2513 3716 2298 3927 
Q 2084 4138 1766 4138 
Q 1444 4138 1231 3931 
Q 1019 3725 1019 3438 
z
M 838 1322 
Q 838 1081 952 856 
Q 1066 631 1291 507 
Q 1516 384 1775 384 
Q 2178 384 2440 643 
Q 2703 903 2703 1303 
Q 2703 1709 2433 1975 
Q 2163 2241 1756 2241 
Q 1359 2241 1098 1978 
Q 838 1716 838 1322 
z
" transform="scale(0.015625)"/>
       </defs>
       <use xlink:href="#ArialMT-2212"/>
       <use xlink:href="#ArialMT-38" x="58.398438"/>
       <use xlink:href="#ArialMT-30" x="114.013672"/>
      </g>
     </g>
    </g>
    <g id="xtick_5">
     <g id="line2d_5">
      <g>
       <use xlink:href="#m15ef16ab50" x="254.809217" y="158.761697" style="stroke: #000000; stroke-width: 0.8"/>
      </g>
     </g>
     <g id="text_5">
      <!-- −60 -->
      <g transform="translate(246.327967 172.919509) scale(0.1 -0.1)">
       <defs>
        <path id="ArialMT-36" d="M 3184 3459 
L 2625 3416 
Q 2550 3747 2413 3897 
Q 2184 4138 1850 4138 
Q 1581 4138 1378 3988 
Q 1113 3794 959 3422 
Q 806 3050 800 2363 
Q 1003 2672 1297 2822 
Q 1591 2972 1913 2972 
Q 2475 2972 2870 2558 
Q 3266 2144 3266 1488 
Q 3266 1056 3080 686 
Q 2894 316 2569 119 
Q 2244 -78 1831 -78 
Q 1128 -78 684 439 
Q 241 956 241 2144 
Q 241 3472 731 4075 
Q 1159 4600 1884 4600 
Q 2425 4600 2770 4297 
Q 3116 3994 3184 3459 
z
M 888 1484 
Q 888 1194 1011 928 
Q 1134 663 1356 523 
Q 1578 384 1822 384 
Q 2178 384 2434 671 
Q 2691 959 2691 1453 
Q 2691 1928 2437 2201 
Q 2184 2475 1800 2475 
Q 1419 2475 1153 2201 
Q 888 1928 888 1484 
z
" transform="scale(0.015625)"/>
       </defs>
       <use xlink:href="#ArialMT-2212"/>
       <use xlink:href="#ArialMT-36" x="58.398438"/>
       <use xlink:href="#ArialMT-30" x="114.013672"/>
      </g>
     </g>
    </g>
    <g id="xtick_6">
     <g id="line2d_6">
      <g>
       <use xlink:href="#m15ef16ab50" x="303.771439" y="158.761697" style="stroke: #000000; stroke-width: 0.8"/>
      </g>
     </g>
     <g id="text_6">
      <!-- −40 -->
      <g transform="translate(295.290189 172.919509) scale(0.1 -0.1)">
       <use xlink:href="#ArialMT-2212"/>
       <use xlink:href="#ArialMT-34" x="58.398438"/>
       <use xlink:href="#ArialMT-30" x="114.013672"/>
      </g>
     </g>
    </g>
    <g id="xtick_7">
     <g id="line2d_7">
      <g>
       <use xlink:href="#m15ef16ab50" x="352.733661" y="158.761697" style="stroke: #000000; stroke-width: 0.8"/>
      </g>
     </g>
     <g id="text_7">
      <!-- −20 -->
      <g transform="translate(344.252411 172.919509) scale(0.1 -0.1)">
       <use xlink:href="#ArialMT-2212"/>
       <use xlink:href="#ArialMT-32" x="58.398438"/>
       <use xlink:href="#ArialMT-30" x="114.013672"/>
      </g>
     </g>
    </g>
    <g id="xtick_8">
     <g id="line2d_8">
      <g>
       <use xlink:href="#m15ef16ab50" x="401.695883" y="158.761697" style="stroke: #000000; stroke-width: 0.8"/>
      </g>
     </g>
     <g id="text_8">
      <!-- 0 -->
      <g transform="translate(398.915414 172.919509) scale(0.1 -0.1)">
       <use xlink:href="#ArialMT-30"/>
      </g>
     </g>
    </g>
    <g id="text_9">
     <!-- $\mathit{E}_{tot}^{DFT} - \mathit{E}_{slab}^{DFT}$ / eV -->
     <g transform="translate(189.751863 190.907009) scale(0.1 -0.1)">
      <defs>
       <path id="DejaVuSans-Oblique-45" d="M 1081 4666 
L 4031 4666 
L 3928 4134 
L 1606 4134 
L 1338 2753 
L 3566 2753 
L 3463 2222 
L 1234 2222 
L 909 531 
L 3284 531 
L 3181 0 
L 172 0 
L 1081 4666 
z
" transform="scale(0.015625)"/>
       <path id="ArialMT-44" d="M 494 0 
L 494 4581 
L 2072 4581 
Q 2606 4581 2888 4516 
Q 3281 4425 3559 4188 
Q 3922 3881 4101 3404 
Q 4281 2928 4281 2316 
Q 4281 1794 4159 1391 
Q 4038 988 3847 723 
Q 3656 459 3429 307 
Q 3203 156 2883 78 
Q 2563 0 2147 0 
L 494 0 
z
M 1100 541 
L 2078 541 
Q 2531 541 2789 625 
Q 3047 709 3200 863 
Q 3416 1078 3536 1442 
Q 3656 1806 3656 2325 
Q 3656 3044 3420 3430 
Q 3184 3816 2847 3947 
Q 2603 4041 2063 4041 
L 1100 4041 
L 1100 541 
z
" transform="scale(0.015625)"/>
       <path id="ArialMT-46" d="M 525 0 
L 525 4581 
L 3616 4581 
L 3616 4041 
L 1131 4041 
L 1131 2622 
L 3281 2622 
L 3281 2081 
L 1131 2081 
L 1131 0 
L 525 0 
z
" transform="scale(0.015625)"/>
       <path id="ArialMT-54" d="M 1659 0 
L 1659 4041 
L 150 4041 
L 150 4581 
L 3781 4581 
L 3781 4041 
L 2266 4041 
L 2266 0 
L 1659 0 
z
" transform="scale(0.015625)"/>
       <path id="ArialMT-74" d="M 1650 503 
L 1731 6 
Q 1494 -44 1306 -44 
Q 1000 -44 831 53 
Q 663 150 594 308 
Q 525 466 525 972 
L 525 2881 
L 113 2881 
L 113 3319 
L 525 3319 
L 525 4141 
L 1084 4478 
L 1084 3319 
L 1650 3319 
L 1650 2881 
L 1084 2881 
L 1084 941 
Q 1084 700 1114 631 
Q 1144 563 1211 522 
Q 1278 481 1403 481 
Q 1497 481 1650 503 
z
" transform="scale(0.015625)"/>
       <path id="ArialMT-6f" d="M 213 1659 
Q 213 2581 725 3025 
Q 1153 3394 1769 3394 
Q 2453 3394 2887 2945 
Q 3322 2497 3322 1706 
Q 3322 1066 3130 698 
Q 2938 331 2570 128 
Q 2203 -75 1769 -75 
Q 1072 -75 642 372 
Q 213 819 213 1659 
z
M 791 1659 
Q 791 1022 1069 705 
Q 1347 388 1769 388 
Q 2188 388 2466 706 
Q 2744 1025 2744 1678 
Q 2744 2294 2464 2611 
Q 2184 2928 1769 2928 
Q 1347 2928 1069 2612 
Q 791 2297 791 1659 
z
" transform="scale(0.015625)"/>
       <path id="ArialMT-73" d="M 197 991 
L 753 1078 
Q 800 744 1014 566 
Q 1228 388 1613 388 
Q 2000 388 2187 545 
Q 2375 703 2375 916 
Q 2375 1106 2209 1216 
Q 2094 1291 1634 1406 
Q 1016 1563 777 1677 
Q 538 1791 414 1992 
Q 291 2194 291 2438 
Q 291 2659 392 2848 
Q 494 3038 669 3163 
Q 800 3259 1026 3326 
Q 1253 3394 1513 3394 
Q 1903 3394 2198 3281 
Q 2494 3169 2634 2976 
Q 2775 2784 2828 2463 
L 2278 2388 
Q 2241 2644 2061 2787 
Q 1881 2931 1553 2931 
Q 1166 2931 1000 2803 
Q 834 2675 834 2503 
Q 834 2394 903 2306 
Q 972 2216 1119 2156 
Q 1203 2125 1616 2013 
Q 2213 1853 2448 1751 
Q 2684 1650 2818 1456 
Q 2953 1263 2953 975 
Q 2953 694 2789 445 
Q 2625 197 2315 61 
Q 2006 -75 1616 -75 
Q 969 -75 630 194 
Q 291 463 197 991 
z
" transform="scale(0.015625)"/>
       <path id="ArialMT-6c" d="M 409 0 
L 409 4581 
L 972 4581 
L 972 0 
L 409 0 
z
" transform="scale(0.015625)"/>
       <path id="ArialMT-61" d="M 2588 409 
Q 2275 144 1986 34 
Q 1697 -75 1366 -75 
Q 819 -75 525 192 
Q 231 459 231 875 
Q 231 1119 342 1320 
Q 453 1522 633 1644 
Q 813 1766 1038 1828 
Q 1203 1872 1538 1913 
Q 2219 1994 2541 2106 
Q 2544 2222 2544 2253 
Q 2544 2597 2384 2738 
Q 2169 2928 1744 2928 
Q 1347 2928 1158 2789 
Q 969 2650 878 2297 
L 328 2372 
Q 403 2725 575 2942 
Q 747 3159 1072 3276 
Q 1397 3394 1825 3394 
Q 2250 3394 2515 3294 
Q 2781 3194 2906 3042 
Q 3031 2891 3081 2659 
Q 3109 2516 3109 2141 
L 3109 1391 
Q 3109 606 3145 398 
Q 3181 191 3288 0 
L 2700 0 
Q 2613 175 2588 409 
z
M 2541 1666 
Q 2234 1541 1622 1453 
Q 1275 1403 1131 1340 
Q 988 1278 909 1158 
Q 831 1038 831 891 
Q 831 666 1001 516 
Q 1172 366 1500 366 
Q 1825 366 2078 508 
Q 2331 650 2450 897 
Q 2541 1088 2541 1459 
L 2541 1666 
z
" transform="scale(0.015625)"/>
       <path id="ArialMT-62" d="M 941 0 
L 419 0 
L 419 4581 
L 981 4581 
L 981 2947 
Q 1338 3394 1891 3394 
Q 2197 3394 2470 3270 
Q 2744 3147 2920 2923 
Q 3097 2700 3197 2384 
Q 3297 2069 3297 1709 
Q 3297 856 2875 390 
Q 2453 -75 1863 -75 
Q 1275 -75 941 416 
L 941 0 
z
M 934 1684 
Q 934 1088 1097 822 
Q 1363 388 1816 388 
Q 2184 388 2453 708 
Q 2722 1028 2722 1663 
Q 2722 2313 2464 2622 
Q 2206 2931 1841 2931 
Q 1472 2931 1203 2611 
Q 934 2291 934 1684 
z
" transform="scale(0.015625)"/>
       <path id="ArialMT-20" transform="scale(0.015625)"/>
       <path id="ArialMT-2f" d="M 0 -78 
L 1328 4659 
L 1778 4659 
L 453 -78 
L 0 -78 
z
" transform="scale(0.015625)"/>
       <path id="ArialMT-65" d="M 2694 1069 
L 3275 997 
Q 3138 488 2766 206 
Q 2394 -75 1816 -75 
Q 1088 -75 661 373 
Q 234 822 234 1631 
Q 234 2469 665 2931 
Q 1097 3394 1784 3394 
Q 2450 3394 2872 2941 
Q 3294 2488 3294 1666 
Q 3294 1616 3291 1516 
L 816 1516 
Q 847 969 1125 678 
Q 1403 388 1819 388 
Q 2128 388 2347 550 
Q 2566 713 2694 1069 
z
M 847 1978 
L 2700 1978 
Q 2663 2397 2488 2606 
Q 2219 2931 1791 2931 
Q 1403 2931 1139 2672 
Q 875 2413 847 1978 
z
" transform="scale(0.015625)"/>
       <path id="ArialMT-56" d="M 1803 0 
L 28 4581 
L 684 4581 
L 1875 1253 
Q 2019 853 2116 503 
Q 2222 878 2363 1253 
L 3600 4581 
L 4219 4581 
L 2425 0 
L 1803 0 
z
" transform="scale(0.015625)"/>
      </defs>
      <use xlink:href="#DejaVuSans-Oblique-45" transform="translate(0 0.201563)"/>
      <use xlink:href="#ArialMT-44" transform="translate(67.582656 69.895313) scale(0.7)"/>
      <use xlink:href="#ArialMT-46" transform="translate(118.134414 69.895313) scale(0.7)"/>
      <use xlink:href="#ArialMT-54" transform="translate(160.893203 69.895313) scale(0.7)"/>
      <use xlink:href="#ArialMT-74" transform="translate(63.183594 -49.579687) scale(0.7)"/>
      <use xlink:href="#ArialMT-6f" transform="translate(82.631836 -49.579687) scale(0.7)"/>
      <use xlink:href="#ArialMT-74" transform="translate(121.5625 -49.579687) scale(0.7)"/>
      <use xlink:href="#ArialMT-2212" transform="translate(228.112539 0.201563)"/>
      <use xlink:href="#DejaVuSans-Oblique-45" transform="translate(305.993398 0.201563)"/>
      <use xlink:href="#ArialMT-44" transform="translate(373.576055 69.895313) scale(0.7)"/>
      <use xlink:href="#ArialMT-46" transform="translate(424.127813 69.895313) scale(0.7)"/>
      <use xlink:href="#ArialMT-54" transform="translate(466.886602 69.895313) scale(0.7)"/>
      <use xlink:href="#ArialMT-73" transform="translate(369.176992 -49.579687) scale(0.7)"/>
      <use xlink:href="#ArialMT-6c" transform="translate(404.176992 -49.579687) scale(0.7)"/>
      <use xlink:href="#ArialMT-61" transform="translate(419.72875 -49.579687) scale(0.7)"/>
      <use xlink:href="#ArialMT-62" transform="translate(458.659414 -49.579687) scale(0.7)"/>
      <use xlink:href="#ArialMT-20" transform="translate(514.623516 0.201563)"/>
      <use xlink:href="#ArialMT-2f" transform="translate(542.406719 0.201563)"/>
      <use xlink:href="#ArialMT-20" transform="translate(570.189922 0.201563)"/>
      <use xlink:href="#ArialMT-65" transform="translate(597.973125 0.201563)"/>
      <use xlink:href="#ArialMT-56" transform="translate(653.588359 0.201563)"/>
     </g>
    </g>
   </g>
   <g id="matplotlib.axis_2">
    <g id="ytick_1">
     <g id="line2d_9">
      <defs>
       <path id="m6073dc0bd3" d="M 0 0 
L -3.5 0 
" style="stroke: #000000; stroke-width: 0.8"/>
      </defs>
      <g>
       <use xlink:href="#m6073dc0bd3" x="45.576875" y="158.761697" style="stroke: #000000; stroke-width: 0.8"/>
      </g>
     </g>
     <g id="text_10">
      <!-- 0.0 -->
      <g transform="translate(24.676875 162.340603) scale(0.1 -0.1)">
       <defs>
        <path id="ArialMT-2e" d="M 581 0 
L 581 641 
L 1222 641 
L 1222 0 
L 581 0 
z
" transform="scale(0.015625)"/>
       </defs>
       <use xlink:href="#ArialMT-30"/>
       <use xlink:href="#ArialMT-2e" x="55.615234"/>
       <use xlink:href="#ArialMT-30" x="83.398438"/>
      </g>
     </g>
    </g>
    <g id="ytick_2">
     <g id="line2d_10">
      <g>
       <use xlink:href="#m6073dc0bd3" x="45.576875" y="131.420341" style="stroke: #000000; stroke-width: 0.8"/>
      </g>
     </g>
     <g id="text_11">
      <!-- 0.5 -->
      <g transform="translate(24.676875 134.999247) scale(0.1 -0.1)">
       <defs>
        <path id="ArialMT-35" d="M 266 1200 
L 856 1250 
Q 922 819 1161 601 
Q 1400 384 1738 384 
Q 2144 384 2425 690 
Q 2706 997 2706 1503 
Q 2706 1984 2436 2262 
Q 2166 2541 1728 2541 
Q 1456 2541 1237 2417 
Q 1019 2294 894 2097 
L 366 2166 
L 809 4519 
L 3088 4519 
L 3088 3981 
L 1259 3981 
L 1013 2750 
Q 1425 3038 1878 3038 
Q 2478 3038 2890 2622 
Q 3303 2206 3303 1553 
Q 3303 931 2941 478 
Q 2500 -78 1738 -78 
Q 1113 -78 717 272 
Q 322 622 266 1200 
z
" transform="scale(0.015625)"/>
       </defs>
       <use xlink:href="#ArialMT-30"/>
       <use xlink:href="#ArialMT-2e" x="55.615234"/>
       <use xlink:href="#ArialMT-35" x="83.398438"/>
      </g>
     </g>
    </g>
    <g id="ytick_3">
     <g id="line2d_11">
      <g>
       <use xlink:href="#m6073dc0bd3" x="45.576875" y="104.078985" style="stroke: #000000; stroke-width: 0.8"/>
      </g>
     </g>
     <g id="text_12">
      <!-- 1.0 -->
      <g transform="translate(24.676875 107.657891) scale(0.1 -0.1)">
       <use xlink:href="#ArialMT-31"/>
       <use xlink:href="#ArialMT-2e" x="55.615234"/>
       <use xlink:href="#ArialMT-30" x="83.398438"/>
      </g>
     </g>
    </g>
    <g id="ytick_4">
     <g id="line2d_12">
      <g>
       <use xlink:href="#m6073dc0bd3" x="45.576875" y="76.737629" style="stroke: #000000; stroke-width: 0.8"/>
      </g>
     </g>
     <g id="text_13">
      <!-- 1.5 -->
      <g transform="translate(24.676875 80.316535) scale(0.1 -0.1)">
       <use xlink:href="#ArialMT-31"/>
       <use xlink:href="#ArialMT-2e" x="55.615234"/>
       <use xlink:href="#ArialMT-35" x="83.398438"/>
      </g>
     </g>
    </g>
    <g id="ytick_5">
     <g id="line2d_13">
      <g>
       <use xlink:href="#m6073dc0bd3" x="45.576875" y="49.396273" style="stroke: #000000; stroke-width: 0.8"/>
      </g>
     </g>
     <g id="text_14">
      <!-- 2.0 -->
      <g transform="translate(24.676875 52.97518) scale(0.1 -0.1)">
       <use xlink:href="#ArialMT-32"/>
       <use xlink:href="#ArialMT-2e" x="55.615234"/>
       <use xlink:href="#ArialMT-30" x="83.398438"/>
      </g>
     </g>
    </g>
    <g id="text_15">
     <!-- Density / - -->
     <g transform="translate(18.572188 114.63288) rotate(-90) scale(0.1 -0.1)">
      <defs>
       <path id="ArialMT-6e" d="M 422 0 
L 422 3319 
L 928 3319 
L 928 2847 
Q 1294 3394 1984 3394 
Q 2284 3394 2536 3286 
Q 2788 3178 2913 3003 
Q 3038 2828 3088 2588 
Q 3119 2431 3119 2041 
L 3119 0 
L 2556 0 
L 2556 2019 
Q 2556 2363 2490 2533 
Q 2425 2703 2258 2804 
Q 2091 2906 1866 2906 
Q 1506 2906 1245 2678 
Q 984 2450 984 1813 
L 984 0 
L 422 0 
z
" transform="scale(0.015625)"/>
       <path id="ArialMT-69" d="M 425 3934 
L 425 4581 
L 988 4581 
L 988 3934 
L 425 3934 
z
M 425 0 
L 425 3319 
L 988 3319 
L 988 0 
L 425 0 
z
" transform="scale(0.015625)"/>
       <path id="ArialMT-79" d="M 397 -1278 
L 334 -750 
Q 519 -800 656 -800 
Q 844 -800 956 -737 
Q 1069 -675 1141 -563 
Q 1194 -478 1313 -144 
Q 1328 -97 1363 -6 
L 103 3319 
L 709 3319 
L 1400 1397 
Q 1534 1031 1641 628 
Q 1738 1016 1872 1384 
L 2581 3319 
L 3144 3319 
L 1881 -56 
Q 1678 -603 1566 -809 
Q 1416 -1088 1222 -1217 
Q 1028 -1347 759 -1347 
Q 597 -1347 397 -1278 
z
" transform="scale(0.015625)"/>
       <path id="ArialMT-2d" d="M 203 1375 
L 203 1941 
L 1931 1941 
L 1931 1375 
L 203 1375 
z
" transform="scale(0.015625)"/>
      </defs>
      <use xlink:href="#ArialMT-44"/>
      <use xlink:href="#ArialMT-65" x="72.216797"/>
      <use xlink:href="#ArialMT-6e" x="127.832031"/>
      <use xlink:href="#ArialMT-73" x="183.447266"/>
      <use xlink:href="#ArialMT-69" x="233.447266"/>
      <use xlink:href="#ArialMT-74" x="255.664062"/>
      <use xlink:href="#ArialMT-79" x="283.447266"/>
      <use xlink:href="#ArialMT-20" x="333.447266"/>
      <use xlink:href="#ArialMT-2f" x="361.230469"/>
      <use xlink:href="#ArialMT-20" x="389.013672"/>
      <use xlink:href="#ArialMT-2d" x="416.796875"/>
     </g>
    </g>
    <g id="text_16">
     <!-- 1e−2 -->
     <g transform="translate(45.576875 22.49625) scale(0.1 -0.1)">
      <use xlink:href="#ArialMT-31"/>
      <use xlink:href="#ArialMT-65" x="55.615234"/>
      <use xlink:href="#ArialMT-2212" x="111.230469"/>
      <use xlink:href="#ArialMT-32" x="169.628906"/>
     </g>
    </g>
   </g>
   <g id="line2d_14">
    <path d="M 67.375229 158.74446 
L 75.417449 158.62734 
L 80.242781 158.401092 
L 85.068112 157.948912 
L 89.893444 157.203991 
L 94.718776 156.173318 
L 99.544108 154.920939 
L 104.369439 153.465137 
L 107.586327 152.328039 
L 110.803215 150.990359 
L 114.020103 149.41444 
L 118.845435 146.701834 
L 122.062323 144.895629 
L 125.279211 143.383284 
L 126.887654 142.817301 
L 128.496098 142.409869 
L 130.104542 142.172744 
L 131.712986 142.105739 
L 133.32143 142.196232 
L 136.538318 142.743127 
L 142.972094 144.171439 
L 144.580538 144.337282 
L 146.188982 144.33863 
L 147.797426 144.13064 
L 149.405869 143.664561 
L 151.014313 142.885245 
L 152.622757 141.729568 
L 154.231201 140.126584 
L 155.839645 138.000054 
L 157.448089 135.273668 
L 159.056533 131.878797 
L 160.664977 127.764102 
L 162.273421 122.905853 
L 163.881865 117.31744 
L 165.490309 111.056448 
L 168.707197 96.981805 
L 173.532528 74.738184 
L 175.140972 67.884347 
L 176.749416 61.646455 
L 178.35786 56.173849 
L 179.966304 51.564258 
L 181.574748 47.858588 
L 183.183192 45.041583 
L 184.791636 43.047862 
L 186.40008 41.772222 
L 188.008524 41.082656 
L 189.616968 40.834468 
L 191.225412 40.883928 
L 199.267631 41.911188 
L 205.701407 41.997232 
L 207.309851 42.203506 
L 208.918295 42.595966 
L 210.526739 43.216035 
L 212.135183 44.089911 
L 213.743627 45.227309 
L 215.352071 46.622019 
L 216.960514 48.253843 
L 220.177402 52.094819 
L 225.002734 58.639719 
L 228.219622 62.973962 
L 231.43651 66.888407 
L 233.044954 68.608621 
L 234.653398 70.144381 
L 236.261842 71.487938 
L 237.870285 72.642004 
L 239.478729 73.619715 
L 242.695617 75.145934 
L 250.737837 78.2517 
L 252.346281 79.090315 
L 253.954725 80.088962 
L 255.563169 81.274669 
L 257.171613 82.667097 
L 258.780057 84.277497 
L 260.3885 86.107705 
L 261.996944 88.149296 
L 265.213832 92.778937 
L 270.039164 100.498641 
L 273.256052 105.548912 
L 276.47294 110.029944 
L 278.081384 111.962802 
L 279.689828 113.666794 
L 281.298272 115.143169 
L 282.906715 116.407842 
L 284.515159 117.489167 
L 287.732047 119.255955 
L 295.774267 123.143173 
L 300.599599 125.87929 
L 310.250262 131.569979 
L 315.075594 134.148982 
L 319.900926 136.510331 
L 324.726258 138.642799 
L 329.551589 140.558485 
L 342.419141 145.439462 
L 345.636029 146.907671 
L 350.46136 149.438437 
L 358.50358 153.900706 
L 361.720468 155.401498 
L 364.937356 156.594223 
L 368.154244 157.460811 
L 371.371132 158.036651 
L 374.588019 158.386937 
L 379.413351 158.641022 
L 387.455571 158.749298 
L 387.455571 158.749298 
" clip-path="url(#pa3e18b5e41)" style="fill: none; stroke: #5fbcd3; stroke-width: 2; stroke-linecap: square"/>
   </g>
   <g id="line2d_15">
    <path d="M 61.960965 158.742876 
L 71.596194 158.602087 
L 76.413808 158.372113 
L 81.231423 157.911235 
L 84.443166 157.413659 
L 87.654909 156.721934 
L 90.866652 155.811875 
L 94.078395 154.679783 
L 97.290138 153.349813 
L 103.713624 150.338893 
L 108.531238 148.114832 
L 111.742981 146.811154 
L 114.954724 145.723447 
L 118.166467 144.886172 
L 121.37821 144.314537 
L 124.589953 144.01285 
L 127.801696 143.977753 
L 131.013439 144.190853 
L 135.831054 144.848766 
L 140.648668 145.50483 
L 142.25454 145.590555 
L 143.860411 145.544365 
L 145.466283 145.319624 
L 147.072154 144.86591 
L 148.678026 144.130307 
L 150.283897 143.059119 
L 151.889769 141.600011 
L 153.49564 139.704556 
L 155.101512 137.33112 
L 156.707383 134.447953 
L 158.313255 131.036288 
L 159.919126 127.093205 
L 161.524998 122.633946 
L 163.130869 117.69341 
L 166.342612 106.607362 
L 171.160227 88.305991 
L 174.37197 76.262878 
L 177.583713 65.34407 
L 179.189584 60.512681 
L 180.795456 56.169893 
L 182.401327 52.339244 
L 184.007199 49.02115 
L 185.61307 46.194798 
L 187.218942 43.82144 
L 188.824813 41.848758 
L 190.430685 40.215933 
L 192.036556 38.858968 
L 193.642428 37.715847 
L 196.854171 35.859667 
L 200.065914 34.341497 
L 203.277657 33.071927 
L 206.4894 32.161347 
L 208.095271 31.911285 
L 209.701143 31.841691 
L 211.307014 31.983132 
L 212.912886 32.360965 
L 214.518758 32.99319 
L 216.124629 33.889096 
L 217.730501 35.048701 
L 219.336372 36.462949 
L 220.942244 38.114531 
L 222.548115 39.979185 
L 225.759858 44.225727 
L 228.971601 48.9334 
L 237.000959 61.044934 
L 240.212702 65.572274 
L 245.030316 71.888167 
L 254.665545 84.144117 
L 257.877288 88.653941 
L 261.089031 93.519366 
L 265.906646 101.365994 
L 272.330132 111.944807 
L 275.541875 116.757831 
L 278.753618 120.965536 
L 280.359489 122.796638 
L 281.965361 124.432401 
L 283.571232 125.869982 
L 285.177104 127.112253 
L 286.782975 128.167439 
L 288.388847 129.048574 
L 289.994718 129.772823 
L 293.206461 130.835143 
L 296.418204 131.542515 
L 304.447562 132.992106 
L 307.659305 133.803021 
L 310.871048 134.82318 
L 315.688662 136.662499 
L 326.929763 141.405916 
L 331.747377 143.601627 
L 336.564992 146.08623 
L 342.988478 149.7884 
L 347.806092 152.517768 
L 351.017835 154.127551 
L 354.229578 155.483676 
L 357.441321 156.555678 
L 360.653064 157.351164 
L 363.864807 157.905665 
L 367.07655 158.269007 
L 371.894165 158.567212 
L 378.317651 158.715189 
L 381.529394 158.74077 
L 381.529394 158.74077 
" clip-path="url(#pa3e18b5e41)" style="fill: none; stroke: #de8787; stroke-width: 2; stroke-linecap: square"/>
   </g>
   <g id="line2d_16">
    <path d="M 68.216862 158.750511 
L 79.523301 158.629262 
L 85.984123 158.351298 
L 90.829739 157.910579 
L 94.06015 157.447128 
L 97.290561 156.8081 
L 100.520972 155.963572 
L 103.751383 154.89564 
L 106.981794 153.608454 
L 111.827411 151.357251 
L 118.288233 148.24848 
L 121.518644 146.936277 
L 124.749055 145.942665 
L 127.979466 145.323263 
L 131.209877 145.054084 
L 136.055494 145.050022 
L 139.285905 145.033231 
L 142.516316 144.723446 
L 144.131521 144.373751 
L 145.746727 143.845212 
L 147.361932 143.098456 
L 148.977138 142.091914 
L 150.592344 140.782169 
L 152.207549 139.124874 
L 153.822755 137.076398 
L 155.43796 134.596223 
L 157.053166 131.650029 
L 158.668371 128.213256 
L 160.283577 124.274807 
L 161.898782 119.840479 
L 163.513988 114.93566 
L 166.744399 103.921624 
L 171.590015 85.671078 
L 174.820426 73.633041 
L 178.050837 62.730065 
L 179.666043 57.918332 
L 181.281248 53.604713 
L 182.896454 49.812518 
L 184.511659 46.541349 
L 186.126865 43.76983 
L 187.742071 41.459861 
L 189.357276 39.561926 
L 190.972482 38.020871 
L 192.587687 36.781579 
L 194.202893 35.794017 
L 195.818098 35.017202 
L 197.433304 34.421809 
L 199.048509 33.991249 
L 200.663715 33.721257 
L 202.27892 33.618158 
L 203.894126 33.696092 
L 205.509331 33.973588 
L 207.124537 34.469919 
L 208.739742 35.201634 
L 210.354948 36.17965 
L 211.970153 37.407152 
L 213.585359 38.878464 
L 215.200564 40.578893 
L 216.81577 42.485473 
L 220.046181 46.792848 
L 224.891797 53.935786 
L 229.737414 61.027061 
L 232.967825 65.342628 
L 236.198236 69.161967 
L 239.428647 72.426982 
L 242.659058 75.156042 
L 245.889469 77.442863 
L 250.735086 80.412178 
L 253.965497 82.402279 
L 257.195908 84.663277 
L 260.426319 87.370793 
L 263.65673 90.605638 
L 266.887141 94.324048 
L 278.19358 108.207482 
L 281.423991 111.515235 
L 284.654402 114.373908 
L 287.884813 116.885042 
L 299.191251 125.217832 
L 304.036868 129.227722 
L 312.112896 136.065858 
L 315.343307 138.598544 
L 318.573718 140.902558 
L 321.804129 142.929374 
L 325.03454 144.654426 
L 328.264951 146.079572 
L 331.495362 147.234663 
L 334.725773 148.176422 
L 341.186595 149.739883 
L 346.032212 150.951061 
L 350.877828 152.371547 
L 363.799472 156.399751 
L 367.029883 157.142194 
L 370.260294 157.712232 
L 375.105911 158.270693 
L 379.951527 158.560642 
L 386.41235 158.712171 
L 389.642761 158.739255 
L 389.642761 158.739255 
" clip-path="url(#pa3e18b5e41)" style="fill: none; stroke: #ffd42a; stroke-width: 2; stroke-linecap: square"/>
   </g>
   <g id="patch_3">
    <path d="M 45.576875 158.761697 
L 45.576875 25.49625 
" style="fill: none; stroke: #000000; stroke-width: 0.8; stroke-linejoin: miter; stroke-linecap: square"/>
   </g>
   <g id="patch_4">
    <path d="M 406.02685 158.761697 
L 406.02685 25.49625 
" style="fill: none; stroke: #000000; stroke-width: 0.8; stroke-linejoin: miter; stroke-linecap: square"/>
   </g>
   <g id="patch_5">
    <path d="M 45.576875 158.761697 
L 406.02685 158.761697 
" style="fill: none; stroke: #000000; stroke-width: 0.8; stroke-linejoin: miter; stroke-linecap: square"/>
   </g>
   <g id="patch_6">
    <path d="M 45.576875 25.49625 
L 406.02685 25.49625 
" style="fill: none; stroke: #000000; stroke-width: 0.8; stroke-linejoin: miter; stroke-linecap: square"/>
   </g>
   <g id="text_17">
    <!-- Target distribution -->
    <g transform="translate(178.449675 19.49625) scale(0.12 -0.12)">
     <defs>
      <path id="ArialMT-72" d="M 416 0 
L 416 3319 
L 922 3319 
L 922 2816 
Q 1116 3169 1280 3281 
Q 1444 3394 1641 3394 
Q 1925 3394 2219 3213 
L 2025 2691 
Q 1819 2813 1613 2813 
Q 1428 2813 1281 2702 
Q 1134 2591 1072 2394 
Q 978 2094 978 1738 
L 978 0 
L 416 0 
z
" transform="scale(0.015625)"/>
      <path id="ArialMT-67" d="M 319 -275 
L 866 -356 
Q 900 -609 1056 -725 
Q 1266 -881 1628 -881 
Q 2019 -881 2231 -725 
Q 2444 -569 2519 -288 
Q 2563 -116 2559 434 
Q 2191 0 1641 0 
Q 956 0 581 494 
Q 206 988 206 1678 
Q 206 2153 378 2554 
Q 550 2956 876 3175 
Q 1203 3394 1644 3394 
Q 2231 3394 2613 2919 
L 2613 3319 
L 3131 3319 
L 3131 450 
Q 3131 -325 2973 -648 
Q 2816 -972 2473 -1159 
Q 2131 -1347 1631 -1347 
Q 1038 -1347 672 -1080 
Q 306 -813 319 -275 
z
M 784 1719 
Q 784 1066 1043 766 
Q 1303 466 1694 466 
Q 2081 466 2343 764 
Q 2606 1063 2606 1700 
Q 2606 2309 2336 2618 
Q 2066 2928 1684 2928 
Q 1309 2928 1046 2623 
Q 784 2319 784 1719 
z
" transform="scale(0.015625)"/>
      <path id="ArialMT-64" d="M 2575 0 
L 2575 419 
Q 2259 -75 1647 -75 
Q 1250 -75 917 144 
Q 584 363 401 755 
Q 219 1147 219 1656 
Q 219 2153 384 2558 
Q 550 2963 881 3178 
Q 1213 3394 1622 3394 
Q 1922 3394 2156 3267 
Q 2391 3141 2538 2938 
L 2538 4581 
L 3097 4581 
L 3097 0 
L 2575 0 
z
M 797 1656 
Q 797 1019 1065 703 
Q 1334 388 1700 388 
Q 2069 388 2326 689 
Q 2584 991 2584 1609 
Q 2584 2291 2321 2609 
Q 2059 2928 1675 2928 
Q 1300 2928 1048 2622 
Q 797 2316 797 1656 
z
" transform="scale(0.015625)"/>
      <path id="ArialMT-75" d="M 2597 0 
L 2597 488 
Q 2209 -75 1544 -75 
Q 1250 -75 995 37 
Q 741 150 617 320 
Q 494 491 444 738 
Q 409 903 409 1263 
L 409 3319 
L 972 3319 
L 972 1478 
Q 972 1038 1006 884 
Q 1059 663 1231 536 
Q 1403 409 1656 409 
Q 1909 409 2131 539 
Q 2353 669 2445 892 
Q 2538 1116 2538 1541 
L 2538 3319 
L 3100 3319 
L 3100 0 
L 2597 0 
z
" transform="scale(0.015625)"/>
     </defs>
     <use xlink:href="#ArialMT-54"/>
     <use xlink:href="#ArialMT-61" x="49.958984"/>
     <use xlink:href="#ArialMT-72" x="105.574219"/>
     <use xlink:href="#ArialMT-67" x="138.875"/>
     <use xlink:href="#ArialMT-65" x="194.490234"/>
     <use xlink:href="#ArialMT-74" x="250.105469"/>
     <use xlink:href="#ArialMT-20" x="277.888672"/>
     <use xlink:href="#ArialMT-64" x="305.671875"/>
     <use xlink:href="#ArialMT-69" x="361.287109"/>
     <use xlink:href="#ArialMT-73" x="383.503906"/>
     <use xlink:href="#ArialMT-74" x="433.503906"/>
     <use xlink:href="#ArialMT-72" x="461.287109"/>
     <use xlink:href="#ArialMT-69" x="494.587891"/>
     <use xlink:href="#ArialMT-62" x="516.804688"/>
     <use xlink:href="#ArialMT-75" x="572.419922"/>
     <use xlink:href="#ArialMT-74" x="628.035156"/>
     <use xlink:href="#ArialMT-69" x="655.818359"/>
     <use xlink:href="#ArialMT-6f" x="678.035156"/>
     <use xlink:href="#ArialMT-6e" x="733.650391"/>
    </g>
   </g>
   <g id="legend_1">
    <g id="patch_7">
     <path d="M 323.8456 75.932188 
L 399.02685 75.932188 
Q 401.02685 75.932188 401.02685 73.932188 
L 401.02685 32.49625 
Q 401.02685 30.49625 399.02685 30.49625 
L 323.8456 30.49625 
Q 321.8456 30.49625 321.8456 32.49625 
L 321.8456 73.932188 
Q 321.8456 75.932188 323.8456 75.932188 
z
" style="fill: #ffffff; opacity: 0.8; stroke: #cccccc; stroke-linejoin: miter"/>
    </g>
    <g id="line2d_17">
     <path d="M 325.8456 38.154063 
L 335.8456 38.154063 
L 345.8456 38.154063 
" style="fill: none; stroke: #5fbcd3; stroke-width: 2; stroke-linecap: square"/>
    </g>
    <g id="text_18">
     <!-- Train -->
     <g transform="translate(353.8456 41.654063) scale(0.1 -0.1)">
      <use xlink:href="#ArialMT-54"/>
      <use xlink:href="#ArialMT-72" x="57.333984"/>
      <use xlink:href="#ArialMT-61" x="90.634766"/>
      <use xlink:href="#ArialMT-69" x="146.25"/>
      <use xlink:href="#ArialMT-6e" x="168.466797"/>
     </g>
    </g>
    <g id="line2d_18">
     <path d="M 325.8456 52.299375 
L 335.8456 52.299375 
L 345.8456 52.299375 
" style="fill: none; stroke: #de8787; stroke-width: 2; stroke-linecap: square"/>
    </g>
    <g id="text_19">
     <!-- Validation -->
     <g transform="translate(353.8456 55.799375) scale(0.1 -0.1)">
      <use xlink:href="#ArialMT-56"/>
      <use xlink:href="#ArialMT-61" x="59.324219"/>
      <use xlink:href="#ArialMT-6c" x="114.939453"/>
      <use xlink:href="#ArialMT-69" x="137.15625"/>
      <use xlink:href="#ArialMT-64" x="159.373047"/>
      <use xlink:href="#ArialMT-61" x="214.988281"/>
      <use xlink:href="#ArialMT-74" x="270.603516"/>
      <use xlink:href="#ArialMT-69" x="298.386719"/>
      <use xlink:href="#ArialMT-6f" x="320.603516"/>
      <use xlink:href="#ArialMT-6e" x="376.21875"/>
     </g>
    </g>
    <g id="line2d_19">
     <path d="M 325.8456 66.444687 
L 335.8456 66.444687 
L 345.8456 66.444687 
" style="fill: none; stroke: #ffd42a; stroke-width: 2; stroke-linecap: square"/>
    </g>
    <g id="text_20">
     <!-- Test -->
     <g transform="translate(353.8456 69.944687) scale(0.1 -0.1)">
      <use xlink:href="#ArialMT-54"/>
      <use xlink:href="#ArialMT-65" x="49.958984"/>
      <use xlink:href="#ArialMT-73" x="105.574219"/>
      <use xlink:href="#ArialMT-74" x="155.574219"/>
     </g>
    </g>
   </g>
  </g>
  <g id="axes_2">
   <g id="patch_8">
    <path d="M 45.576875 357.478644 
L 406.02685 357.478644 
L 406.02685 224.213197 
L 45.576875 224.213197 
L 45.576875 357.478644 
z
" style="fill: none"/>
   </g>
   <g id="matplotlib.axis_3">
    <g id="xtick_9">
     <g id="line2d_20">
      <g>
       <use xlink:href="#m15ef16ab50" x="45.576875" y="357.478644" style="stroke: #000000; stroke-width: 0.8"/>
      </g>
     </g>
     <g id="text_21">
      <!-- 0 -->
      <g transform="translate(42.796406 371.636456) scale(0.1 -0.1)">
       <use xlink:href="#ArialMT-30"/>
      </g>
     </g>
    </g>
    <g id="xtick_10">
     <g id="line2d_21">
      <g>
       <use xlink:href="#m15ef16ab50" x="135.689369" y="357.478644" style="stroke: #000000; stroke-width: 0.8"/>
      </g>
     </g>
     <g id="text_22">
      <!-- 50 -->
      <g transform="translate(130.128431 371.636456) scale(0.1 -0.1)">
       <use xlink:href="#ArialMT-35"/>
       <use xlink:href="#ArialMT-30" x="55.615234"/>
      </g>
     </g>
    </g>
    <g id="xtick_11">
     <g id="line2d_22">
      <g>
       <use xlink:href="#m15ef16ab50" x="225.801863" y="357.478644" style="stroke: #000000; stroke-width: 0.8"/>
      </g>
     </g>
     <g id="text_23">
      <!-- 100 -->
      <g transform="translate(217.460456 371.636456) scale(0.1 -0.1)">
       <use xlink:href="#ArialMT-31"/>
       <use xlink:href="#ArialMT-30" x="55.615234"/>
       <use xlink:href="#ArialMT-30" x="111.230469"/>
      </g>
     </g>
    </g>
    <g id="xtick_12">
     <g id="line2d_23">
      <g>
       <use xlink:href="#m15ef16ab50" x="315.914357" y="357.478644" style="stroke: #000000; stroke-width: 0.8"/>
      </g>
     </g>
     <g id="text_24">
      <!-- 150 -->
      <g transform="translate(307.57295 371.636456) scale(0.1 -0.1)">
       <use xlink:href="#ArialMT-31"/>
       <use xlink:href="#ArialMT-35" x="55.615234"/>
       <use xlink:href="#ArialMT-30" x="111.230469"/>
      </g>
     </g>
    </g>
    <g id="xtick_13">
     <g id="line2d_24">
      <g>
       <use xlink:href="#m15ef16ab50" x="406.02685" y="357.478644" style="stroke: #000000; stroke-width: 0.8"/>
      </g>
     </g>
     <g id="text_25">
      <!-- 200 -->
      <g transform="translate(397.685444 371.636456) scale(0.1 -0.1)">
       <use xlink:href="#ArialMT-32"/>
       <use xlink:href="#ArialMT-30" x="55.615234"/>
       <use xlink:href="#ArialMT-30" x="111.230469"/>
      </g>
     </g>
    </g>
    <g id="text_26">
     <!-- Epoch -->
     <g transform="translate(211.6253 384.781769) scale(0.1 -0.1)">
      <defs>
       <path id="ArialMT-45" d="M 506 0 
L 506 4581 
L 3819 4581 
L 3819 4041 
L 1113 4041 
L 1113 2638 
L 3647 2638 
L 3647 2100 
L 1113 2100 
L 1113 541 
L 3925 541 
L 3925 0 
L 506 0 
z
" transform="scale(0.015625)"/>
       <path id="ArialMT-70" d="M 422 -1272 
L 422 3319 
L 934 3319 
L 934 2888 
Q 1116 3141 1344 3267 
Q 1572 3394 1897 3394 
Q 2322 3394 2647 3175 
Q 2972 2956 3137 2557 
Q 3303 2159 3303 1684 
Q 3303 1175 3120 767 
Q 2938 359 2589 142 
Q 2241 -75 1856 -75 
Q 1575 -75 1351 44 
Q 1128 163 984 344 
L 984 -1272 
L 422 -1272 
z
M 931 1641 
Q 931 1000 1190 694 
Q 1450 388 1819 388 
Q 2194 388 2461 705 
Q 2728 1022 2728 1688 
Q 2728 2322 2467 2637 
Q 2206 2953 1844 2953 
Q 1484 2953 1207 2617 
Q 931 2281 931 1641 
z
" transform="scale(0.015625)"/>
       <path id="ArialMT-63" d="M 2588 1216 
L 3141 1144 
Q 3050 572 2676 248 
Q 2303 -75 1759 -75 
Q 1078 -75 664 370 
Q 250 816 250 1647 
Q 250 2184 428 2587 
Q 606 2991 970 3192 
Q 1334 3394 1763 3394 
Q 2303 3394 2647 3120 
Q 2991 2847 3088 2344 
L 2541 2259 
Q 2463 2594 2264 2762 
Q 2066 2931 1784 2931 
Q 1359 2931 1093 2626 
Q 828 2322 828 1663 
Q 828 994 1084 691 
Q 1341 388 1753 388 
Q 2084 388 2306 591 
Q 2528 794 2588 1216 
z
" transform="scale(0.015625)"/>
       <path id="ArialMT-68" d="M 422 0 
L 422 4581 
L 984 4581 
L 984 2938 
Q 1378 3394 1978 3394 
Q 2347 3394 2619 3248 
Q 2891 3103 3008 2847 
Q 3125 2591 3125 2103 
L 3125 0 
L 2563 0 
L 2563 2103 
Q 2563 2525 2380 2717 
Q 2197 2909 1863 2909 
Q 1613 2909 1392 2779 
Q 1172 2650 1078 2428 
Q 984 2206 984 1816 
L 984 0 
L 422 0 
z
" transform="scale(0.015625)"/>
      </defs>
      <use xlink:href="#ArialMT-45"/>
      <use xlink:href="#ArialMT-70" x="66.699219"/>
      <use xlink:href="#ArialMT-6f" x="122.314453"/>
      <use xlink:href="#ArialMT-63" x="177.929688"/>
      <use xlink:href="#ArialMT-68" x="227.929688"/>
     </g>
    </g>
   </g>
   <g id="matplotlib.axis_4">
    <g id="ytick_6">
     <g id="line2d_25">
      <g>
       <use xlink:href="#m6073dc0bd3" x="45.576875" y="357.478644" style="stroke: #000000; stroke-width: 0.8"/>
      </g>
     </g>
     <g id="text_27">
      <!-- 0.0 -->
      <g transform="translate(24.676875 361.05755) scale(0.1 -0.1)">
       <use xlink:href="#ArialMT-30"/>
       <use xlink:href="#ArialMT-2e" x="55.615234"/>
       <use xlink:href="#ArialMT-30" x="83.398438"/>
      </g>
     </g>
    </g>
    <g id="ytick_7">
     <g id="line2d_26">
      <g>
       <use xlink:href="#m6073dc0bd3" x="45.576875" y="324.162282" style="stroke: #000000; stroke-width: 0.8"/>
      </g>
     </g>
     <g id="text_28">
      <!-- 0.5 -->
      <g transform="translate(24.676875 327.741188) scale(0.1 -0.1)">
       <use xlink:href="#ArialMT-30"/>
       <use xlink:href="#ArialMT-2e" x="55.615234"/>
       <use xlink:href="#ArialMT-35" x="83.398438"/>
      </g>
     </g>
    </g>
    <g id="ytick_8">
     <g id="line2d_27">
      <g>
       <use xlink:href="#m6073dc0bd3" x="45.576875" y="290.84592" style="stroke: #000000; stroke-width: 0.8"/>
      </g>
     </g>
     <g id="text_29">
      <!-- 1.0 -->
      <g transform="translate(24.676875 294.424827) scale(0.1 -0.1)">
       <use xlink:href="#ArialMT-31"/>
       <use xlink:href="#ArialMT-2e" x="55.615234"/>
       <use xlink:href="#ArialMT-30" x="83.398438"/>
      </g>
     </g>
    </g>
    <g id="ytick_9">
     <g id="line2d_28">
      <g>
       <use xlink:href="#m6073dc0bd3" x="45.576875" y="257.529559" style="stroke: #000000; stroke-width: 0.8"/>
      </g>
     </g>
     <g id="text_30">
      <!-- 1.5 -->
      <g transform="translate(24.676875 261.108465) scale(0.1 -0.1)">
       <use xlink:href="#ArialMT-31"/>
       <use xlink:href="#ArialMT-2e" x="55.615234"/>
       <use xlink:href="#ArialMT-35" x="83.398438"/>
      </g>
     </g>
    </g>
    <g id="ytick_10">
     <g id="line2d_29">
      <g>
       <use xlink:href="#m6073dc0bd3" x="45.576875" y="224.213197" style="stroke: #000000; stroke-width: 0.8"/>
      </g>
     </g>
     <g id="text_31">
      <!-- 2.0 -->
      <g transform="translate(24.676875 227.792103) scale(0.1 -0.1)">
       <use xlink:href="#ArialMT-32"/>
       <use xlink:href="#ArialMT-2e" x="55.615234"/>
       <use xlink:href="#ArialMT-30" x="83.398438"/>
      </g>
     </g>
    </g>
    <g id="text_32">
     <!-- MAE / eV -->
     <g transform="translate(18.689375 311.963889) rotate(-90) scale(0.1 -0.1)">
      <defs>
       <path id="ArialMT-4d" d="M 475 0 
L 475 4581 
L 1388 4581 
L 2472 1338 
Q 2622 884 2691 659 
Q 2769 909 2934 1394 
L 4031 4581 
L 4847 4581 
L 4847 0 
L 4263 0 
L 4263 3834 
L 2931 0 
L 2384 0 
L 1059 3900 
L 1059 0 
L 475 0 
z
" transform="scale(0.015625)"/>
       <path id="ArialMT-41" d="M -9 0 
L 1750 4581 
L 2403 4581 
L 4278 0 
L 3588 0 
L 3053 1388 
L 1138 1388 
L 634 0 
L -9 0 
z
M 1313 1881 
L 2866 1881 
L 2388 3150 
Q 2169 3728 2063 4100 
Q 1975 3659 1816 3225 
L 1313 1881 
z
" transform="scale(0.015625)"/>
      </defs>
      <use xlink:href="#ArialMT-4d"/>
      <use xlink:href="#ArialMT-41" x="83.300781"/>
      <use xlink:href="#ArialMT-45" x="150"/>
      <use xlink:href="#ArialMT-20" x="216.699219"/>
      <use xlink:href="#ArialMT-2f" x="244.482422"/>
      <use xlink:href="#ArialMT-20" x="272.265625"/>
      <use xlink:href="#ArialMT-65" x="300.048828"/>
      <use xlink:href="#ArialMT-56" x="355.664062"/>
     </g>
    </g>
   </g>
   <g id="line2d_30">
    <path d="M 55.492598 -1 
L 56.390374 34.389894 
L 58.192624 50.734901 
L 59.994874 17.171999 
L 61.797124 122.178507 
L 63.599374 161.591763 
L 65.401624 179.795823 
L 67.203874 187.938342 
L 69.006123 258.055957 
L 70.808373 204.230043 
L 72.610623 223.606839 
L 74.412873 277.992468 
L 76.215123 270.836113 
L 78.017373 279.818205 
L 79.819623 276.253354 
L 81.621873 214.358217 
L 83.424122 234.82779 
L 85.226372 277.632651 
L 87.028622 286.887937 
L 88.830872 303.132994 
L 90.633122 281.570645 
L 92.435372 280.058082 
L 94.237622 303.139658 
L 96.039872 311.695299 
L 97.842121 309.716308 
L 99.644371 310.655829 
L 101.446621 312.188382 
L 103.248871 310.842401 
L 105.051121 308.630194 
L 106.853371 314.400588 
L 108.655621 319.011572 
L 110.457871 319.098195 
L 112.26012 304.832129 
L 114.06237 306.984366 
L 115.86462 307.510764 
L 117.66687 297.40258 
L 119.46912 314.667119 
L 121.27137 326.334509 
L 123.07362 328.733287 
L 124.87587 324.40216 
L 126.678119 327.320673 
L 128.480369 317.399061 
L 130.282619 321.823473 
L 132.084869 320.550788 
L 133.887119 327.933694 
L 135.689369 321.710198 
L 137.491619 323.28273 
L 139.293869 328.979828 
L 141.096118 321.77683 
L 142.898368 312.588178 
L 144.700618 330.039288 
L 146.502868 329.572859 
L 148.305118 333.584149 
L 150.107368 331.731759 
L 151.909618 334.54366 
L 153.711868 329.239696 
L 155.514117 331.785066 
L 157.316367 337.322245 
L 159.118617 335.609784 
L 160.920867 339.354543 
L 162.723117 339.974227 
L 164.525367 337.795337 
L 166.327617 335.882978 
L 168.129867 337.948592 
L 169.932117 338.408358 
L 171.734366 340.394013 
L 173.536616 337.975246 
L 175.338866 340.420667 
L 177.141116 338.994726 
L 178.943366 341.706678 
L 180.745616 331.911668 
L 182.547866 341.933229 
L 184.350116 342.306373 
L 186.152365 343.858915 
L 187.954615 343.925548 
L 189.756865 343.399149 
L 191.559115 345.284855 
L 193.361365 345.444774 
L 195.163615 345.284855 
L 196.965865 345.851233 
L 198.768115 345.811254 
L 200.570364 344.985008 
L 202.372614 345.251539 
L 204.174864 342.926057 
L 205.977114 345.697978 
L 207.779364 346.27102 
L 209.581614 344.265375 
L 211.383864 343.825599 
L 213.186114 343.718986 
L 214.988363 346.084448 
L 216.790613 346.644163 
L 218.592863 346.790755 
L 220.395113 345.84457 
L 222.197363 343.998844 
L 223.999613 345.857897 
L 225.801863 346.997316 
L 229.406362 347.710286 
L 231.208612 347.763593 
L 233.010862 348.04345 
L 236.615362 347.410439 
L 238.417612 347.103929 
L 242.022112 348.036787 
L 243.824361 347.883532 
L 245.626611 347.323817 
L 249.231111 347.876868 
L 251.033361 348.08343 
L 252.835611 348.096756 
L 256.440111 348.656471 
L 258.24236 348.130073 
L 260.04461 348.08343 
L 261.84686 348.270001 
L 263.64911 348.236685 
L 265.45136 348.583175 
L 267.25361 348.7964 
L 270.85811 349.002961 
L 272.660359 348.196705 
L 274.462609 348.676461 
L 276.264859 348.836379 
L 278.067109 349.222849 
L 281.671609 348.929665 
L 283.473859 348.989635 
L 287.078359 348.883022 
L 288.880608 349.062931 
L 290.682858 349.029614 
L 294.287358 349.562676 
L 296.089608 349.169543 
L 297.891858 349.376105 
L 299.694108 349.302809 
L 301.496358 349.10291 
L 303.298607 349.476054 
L 305.100857 349.522697 
L 306.903107 349.309472 
L 308.705357 349.502707 
L 312.309857 349.516033 
L 315.914357 349.582666 
L 317.716606 349.595993 
L 319.518856 349.755911 
L 324.925606 349.52936 
L 326.727856 349.729258 
L 328.530106 349.462727 
L 330.332356 349.755911 
L 339.343605 349.802554 
L 342.948105 349.922493 
L 344.750355 349.782564 
L 346.552604 349.83587 
L 348.354854 349.762574 
L 351.959354 349.795891 
L 359.168354 349.995789 
L 360.970603 349.849197 
L 362.772853 349.969136 
L 364.575103 349.882513 
L 366.377353 350.002452 
L 368.179603 349.949146 
L 369.981853 350.035768 
L 375.388602 349.85586 
L 378.993102 350.035768 
L 406.02685 350.102401 
L 406.02685 350.102401 
" clip-path="url(#p3ff3ed7581)" style="fill: none; stroke: #5fbcd3; stroke-width: 2; stroke-linecap: square"/>
   </g>
   <g id="line2d_31">
    <path d="M 57.792159 -1 
L 58.192624 52.454026 
L 58.409119 -1 
M 61.922001 -1 
L 63.599374 149.258046 
L 64.895037 -1 
M 65.751865 -1 
L 67.203874 242.557186 
L 69.006123 263.313279 
L 70.808373 172.706102 
L 72.610623 271.149287 
L 74.412873 295.65014 
L 76.215123 250.46649 
L 78.017373 267.55112 
L 79.819623 107.565951 
L 81.621873 306.877754 
L 83.424122 169.441098 
L 85.226372 213.778512 
L 87.028622 273.254881 
L 88.830872 291.145768 
L 90.633122 120.765894 
L 92.435372 302.753188 
L 94.237622 290.952533 
L 96.039872 275.600353 
L 97.842121 321.377034 
L 99.644371 291.165757 
L 101.446621 308.956695 
L 103.248871 303.166311 
L 105.051121 305.984875 
L 106.853371 316.452876 
L 108.655621 332.07825 
L 110.457871 323.182781 
L 112.26012 324.78863 
L 114.06237 292.045309 
L 115.86462 277.799233 
L 117.66687 309.689654 
L 119.46912 327.214061 
L 121.27137 333.757394 
L 123.07362 323.562587 
L 124.87587 332.784556 
L 126.678119 304.092506 
L 128.480369 317.778867 
L 130.282619 320.144329 
L 132.084869 335.882978 
L 133.887119 305.378517 
L 135.689369 335.70307 
L 137.491619 324.72866 
L 139.293869 295.563517 
L 141.096118 334.816854 
L 142.898368 311.808575 
L 144.700618 332.38476 
L 146.502868 337.588776 
L 148.305118 335.929621 
L 150.107368 326.181254 
L 151.909618 313.394434 
L 153.711868 312.967984 
L 155.514117 297.882336 
L 157.316367 337.428857 
L 159.118617 320.051043 
L 160.920867 330.745595 
L 162.723117 336.022907 
L 164.525367 339.947574 
L 168.129867 325.468283 
L 169.932117 341.193606 
L 171.734366 336.929112 
L 173.536616 335.809682 
L 175.338866 328.02698 
L 177.141116 334.290456 
L 178.943366 315.293467 
L 180.745616 337.655408 
L 182.547866 336.262785 
L 184.350116 339.127992 
L 186.152365 340.047523 
L 187.954615 340.027533 
L 189.756865 339.28791 
L 191.559115 339.954237 
L 193.361365 342.446301 
L 195.163615 343.519088 
L 196.965865 341.4668 
L 198.768115 340.947065 
L 200.570364 343.525751 
L 202.372614 341.606729 
L 204.174864 337.995235 
L 205.977114 343.479109 
L 207.779364 340.720514 
L 209.581614 343.419139 
L 211.383864 336.456019 
L 213.186114 337.622092 
L 214.988363 344.865069 
L 216.790613 344.238722 
L 218.592863 340.787146 
L 220.395113 338.18847 
L 222.197363 339.807645 
L 223.999613 343.832262 
L 225.801863 343.632364 
L 227.604113 344.76512 
L 229.406362 344.78511 
L 231.208612 345.064967 
L 233.010862 344.958355 
L 234.813112 343.219241 
L 238.417612 341.353525 
L 240.219862 344.985008 
L 242.022112 345.464764 
L 243.824361 344.705151 
L 245.626611 344.758457 
L 247.428861 342.466291 
L 249.231111 345.11161 
L 251.033361 344.798436 
L 252.835611 344.925039 
L 254.637861 345.164916 
L 256.440111 344.638518 
L 258.24236 343.985517 
L 260.04461 345.078294 
L 261.84686 345.344825 
L 263.64911 345.011661 
L 267.25361 345.604692 
L 269.05586 344.578548 
L 270.85811 343.905558 
L 272.660359 345.291519 
L 276.264859 345.731295 
L 278.067109 344.8051 
L 279.869359 345.618019 
L 287.078359 345.578039 
L 288.880608 345.158253 
L 290.682858 345.684652 
L 292.485108 345.797927 
L 296.089608 345.571376 
L 297.891858 345.897876 
L 299.694108 344.878396 
L 301.496358 344.931702 
L 303.298607 345.651335 
L 305.100857 345.891213 
L 308.705357 345.86456 
L 310.507607 345.238212 
L 312.309857 345.344825 
L 314.112107 345.751284 
L 315.914357 345.624682 
L 317.716606 345.897876 
L 319.518856 345.784601 
L 321.321106 344.638518 
L 323.123356 345.384804 
L 324.925606 345.771274 
L 326.727856 345.198233 
L 328.530106 345.817917 
L 330.332356 345.671325 
L 342.948105 345.911203 
L 344.750355 345.657999 
L 350.157104 345.877887 
L 353.761604 345.684652 
L 357.366104 345.90454 
L 360.970603 345.857897 
L 368.179603 345.984499 
L 369.981853 345.697978 
L 371.784103 345.797927 
L 373.586353 345.764611 
L 375.388602 345.937856 
L 380.795352 345.711305 
L 382.597602 345.937856 
L 402.422351 345.84457 
L 404.224601 345.917866 
L 406.02685 345.857897 
L 406.02685 345.857897 
" clip-path="url(#p3ff3ed7581)" style="fill: none; stroke: #de8787; stroke-width: 2; stroke-linecap: square"/>
   </g>
   <g id="line2d_32">
    <path d="M 52.755087 -1 
L 52.785875 5.717833 
L 54.588124 32.777382 
L 54.942025 -1 
M 57.456625 -1 
L 58.192624 94.419315 
L 58.57989 -1 
M 61.994601 -1 
L 63.599374 159.539475 
L 64.92277 -1 
M 65.743606 -1 
L 67.203874 247.041568 
L 69.006123 269.090336 
L 70.808373 187.958332 
L 72.610623 283.449688 
L 74.412873 297.302631 
L 76.215123 257.34965 
L 78.017373 264.672587 
L 79.819623 113.602876 
L 81.621873 308.163765 
L 83.424122 171.333468 
L 85.226372 217.370016 
L 87.028622 274.45427 
L 88.830872 295.716772 
L 90.633122 128.062177 
L 92.435372 304.925415 
L 94.237622 291.59887 
L 96.039872 281.517339 
L 97.842121 322.14331 
L 99.644371 294.717282 
L 101.446621 310.202726 
L 103.248871 299.534827 
L 105.051121 305.218599 
L 106.853371 313.627648 
L 108.655621 332.238168 
L 110.457871 329.779421 
L 112.26012 324.755313 
L 114.06237 295.490221 
L 115.86462 281.830513 
L 117.66687 307.903897 
L 119.46912 325.568232 
L 121.27137 332.624638 
L 123.07362 321.377034 
L 124.87587 334.430385 
L 126.678119 303.559444 
L 128.480369 315.26015 
L 130.282619 319.358063 
L 132.084869 336.096203 
L 133.887119 306.984366 
L 135.689369 335.756376 
L 137.491619 324.848599 
L 139.293869 296.929488 
L 141.096118 335.376569 
L 142.898368 313.620985 
L 144.700618 333.4842 
L 146.502868 339.487808 
L 148.305118 336.495999 
L 150.107368 327.047479 
L 151.909618 314.493874 
L 153.711868 313.374444 
L 155.514117 297.549172 
L 157.316367 337.888623 
L 159.118617 320.957248 
L 160.920867 333.630792 
L 162.723117 338.18847 
L 164.525367 341.626719 
L 166.327617 335.716396 
L 168.129867 327.793765 
L 169.932117 341.300218 
L 171.734366 337.002408 
L 173.536616 336.469346 
L 175.338866 327.420622 
L 177.141116 334.25714 
L 178.943366 316.812693 
L 180.745616 339.281247 
L 182.547866 338.095184 
L 184.350116 338.061868 
L 186.152365 340.780483 
L 187.954615 341.173616 
L 189.756865 339.754339 
L 191.559115 340.334044 
L 193.361365 343.599047 
L 195.163615 344.518579 
L 196.965865 342.772802 
L 198.768115 341.520106 
L 200.570364 343.978854 
L 202.372614 342.253066 
L 204.174864 338.861461 
L 205.977114 344.232058 
L 207.779364 341.500117 
L 209.581614 344.198742 
L 211.383864 338.55495 
L 213.186114 338.721532 
L 214.988363 345.004998 
L 216.790613 344.578548 
L 218.592863 341.16029 
L 220.395113 338.841471 
L 223.999613 344.545232 
L 225.801863 344.212068 
L 227.604113 345.258202 
L 229.406362 345.164916 
L 231.208612 345.378141 
L 233.010862 345.451437 
L 236.615362 342.366342 
L 238.417612 341.626719 
L 240.219862 345.204896 
L 242.022112 345.697978 
L 243.824361 345.444774 
L 245.626611 345.371478 
L 247.428861 343.712323 
L 249.231111 345.431447 
L 251.033361 345.564713 
L 252.835611 345.324835 
L 254.637861 345.631345 
L 258.24236 344.185415 
L 260.04461 345.618019 
L 261.84686 345.677988 
L 263.64911 345.524733 
L 265.45136 345.857897 
L 267.25361 345.804591 
L 269.05586 344.76512 
L 270.85811 344.998335 
L 272.660359 345.764611 
L 276.264859 345.924529 
L 278.067109 345.118274 
L 279.869359 345.937856 
L 281.671609 346.097775 
L 283.473859 345.957846 
L 285.276109 345.977836 
L 287.078359 346.117764 
L 288.880608 345.757948 
L 290.682858 346.171071 
L 292.485108 346.197724 
L 294.287358 346.017815 
L 297.891858 346.21105 
L 299.694108 345.677988 
L 301.496358 345.691315 
L 303.298607 346.171071 
L 306.903107 346.171071 
L 310.507607 345.84457 
L 312.309857 345.891213 
L 314.112107 346.104438 
L 319.518856 346.19106 
L 321.321106 345.431447 
L 323.123356 346.024479 
L 324.925606 346.237703 
L 326.727856 345.851233 
L 328.530106 346.204387 
L 332.134605 346.131091 
L 342.948105 346.25103 
L 344.750355 346.011152 
L 346.552604 346.224377 
L 351.959354 346.204387 
L 353.761604 346.037805 
L 357.366104 346.304336 
L 360.970603 346.317663 
L 368.179603 346.357642 
L 369.981853 346.23104 
L 378.993102 346.324326 
L 380.795352 346.23104 
L 384.399852 346.344316 
L 386.202102 346.237703 
L 389.806602 346.304336 
L 393.411101 346.27102 
L 398.817851 346.337652 
L 404.224601 346.310999 
L 406.02685 346.304336 
L 406.02685 346.304336 
" clip-path="url(#p3ff3ed7581)" style="fill: none; stroke: #ffd42a; stroke-width: 2; stroke-linecap: square"/>
   </g>
   <g id="patch_9">
    <path d="M 45.576875 357.478644 
L 45.576875 224.213197 
" style="fill: none; stroke: #000000; stroke-width: 0.8; stroke-linejoin: miter; stroke-linecap: square"/>
   </g>
   <g id="patch_10">
    <path d="M 406.02685 357.478644 
L 406.02685 224.213197 
" style="fill: none; stroke: #000000; stroke-width: 0.8; stroke-linejoin: miter; stroke-linecap: square"/>
   </g>
   <g id="patch_11">
    <path d="M 45.576875 357.478644 
L 406.02685 357.478644 
" style="fill: none; stroke: #000000; stroke-width: 0.8; stroke-linejoin: miter; stroke-linecap: square"/>
   </g>
   <g id="patch_12">
    <path d="M 45.576875 224.213197 
L 406.02685 224.213197 
" style="fill: none; stroke: #000000; stroke-width: 0.8; stroke-linejoin: miter; stroke-linecap: square"/>
   </g>
   <g id="text_33">
    <!-- Training process -->
    <g transform="translate(181.677488 218.213197) scale(0.12 -0.12)">
     <use xlink:href="#ArialMT-54"/>
     <use xlink:href="#ArialMT-72" x="57.333984"/>
     <use xlink:href="#ArialMT-61" x="90.634766"/>
     <use xlink:href="#ArialMT-69" x="146.25"/>
     <use xlink:href="#ArialMT-6e" x="168.466797"/>
     <use xlink:href="#ArialMT-69" x="224.082031"/>
     <use xlink:href="#ArialMT-6e" x="246.298828"/>
     <use xlink:href="#ArialMT-67" x="301.914062"/>
     <use xlink:href="#ArialMT-20" x="357.529297"/>
     <use xlink:href="#ArialMT-70" x="385.3125"/>
     <use xlink:href="#ArialMT-72" x="440.927734"/>
     <use xlink:href="#ArialMT-6f" x="474.228516"/>
     <use xlink:href="#ArialMT-63" x="529.84375"/>
     <use xlink:href="#ArialMT-65" x="579.84375"/>
     <use xlink:href="#ArialMT-73" x="635.458984"/>
     <use xlink:href="#ArialMT-73" x="685.458984"/>
    </g>
   </g>
   <g id="patch_13">
    <path d="M 388.004352 350.815371 
L 406.02685 350.815371 
L 406.02685 344.152099 
L 388.004352 344.152099 
L 388.004352 350.815371 
z
" clip-path="url(#p3ff3ed7581)" style="fill: none; opacity: 0.5; stroke: #808080; stroke-linejoin: miter"/>
   </g>
   <g id="patch_14">
    <path d="M 261.84686 324.162282 
Q 324.925606 337.488827 388.004352 350.815371 
" style="fill: none; opacity: 0.5; stroke: #808080; stroke-linecap: round"/>
   </g>
   <g id="patch_15">
    <path d="M 369.981853 284.182648 
Q 388.004352 314.167373 406.02685 344.152099 
" style="fill: none; opacity: 0.5; stroke: #808080; stroke-linecap: round"/>
   </g>
   <g id="axes_3">
    <g id="patch_16">
     <path d="M 261.84686 324.162282 
L 369.981853 324.162282 
L 369.981853 284.182648 
L 261.84686 284.182648 
z
" style="fill: #ffffff"/>
    </g>
    <g id="matplotlib.axis_5">
     <g id="ytick_11">
      <g id="line2d_33">
       <g>
        <use xlink:href="#m6073dc0bd3" x="261.84686" y="324.162282" style="stroke: #000000; stroke-width: 0.8"/>
       </g>
      </g>
      <g id="text_34">
       <!-- 0.1 -->
       <g transform="translate(240.94686 327.741188) scale(0.1 -0.1)">
        <use xlink:href="#ArialMT-30"/>
        <use xlink:href="#ArialMT-2e" x="55.615234"/>
        <use xlink:href="#ArialMT-31" x="83.398438"/>
       </g>
      </g>
     </g>
     <g id="ytick_12">
      <g id="line2d_34">
       <g>
        <use xlink:href="#m6073dc0bd3" x="261.84686" y="284.182648" style="stroke: #000000; stroke-width: 0.8"/>
       </g>
      </g>
      <g id="text_35">
       <!-- 0.2 -->
       <g transform="translate(240.94686 287.761554) scale(0.1 -0.1)">
        <use xlink:href="#ArialMT-30"/>
        <use xlink:href="#ArialMT-2e" x="55.615234"/>
        <use xlink:href="#ArialMT-32" x="83.398438"/>
       </g>
      </g>
     </g>
    </g>
    <g id="line2d_35">
     <path d="M -1 318.223431 
L 2.322878 317.965439 
L 13.136377 318.285276 
L 23.949876 317.8455 
L 34.763376 318.205317 
L 45.576875 318.045398 
L 78.017373 318.605113 
L 88.830872 319.244787 
L 99.644371 318.365235 
L 110.457871 319.084868 
L 121.27137 318.565133 
L 132.084869 319.284767 
L 142.898368 318.96493 
L 153.711868 319.484665 
L 164.525367 319.084868 
L 175.338866 318.565133 
L 186.152365 318.405215 
L 196.965865 319.244787 
L 207.779364 319.484665 
L 218.592863 319.524644 
L 240.219862 319.204807 
L 261.84686 319.644583 
L 272.660359 319.524644 
L 283.473859 319.724543 
L 294.287358 319.724543 
L 305.100857 319.324746 
L 315.914357 319.524644 
L 326.727856 319.604604 
L 337.541355 319.524644 
L 348.354854 319.724543 
L 359.168354 319.644583 
L 369.981853 319.884461 
L 369.981853 319.884461 
" clip-path="url(#p7ca1dbb978)" style="fill: none; stroke: #5fbcd3; stroke-width: 1.5; stroke-linecap: square"/>
    </g>
    <g id="line2d_36">
     <path d="M -1 293.684888 
L 2.322878 293.218045 
L 13.136377 293.857719 
L 23.949876 294.377455 
L 34.763376 294.537373 
L 45.576875 294.097597 
L 56.390374 293.377964 
L 67.203874 294.217536 
L 78.017373 294.697292 
L 88.830872 294.377455 
L 110.457871 294.457414 
L 121.27137 294.89719 
L 132.084869 294.297495 
L 142.898368 295.177047 
L 153.711868 293.457923 
L 164.525367 294.057618 
L 175.338866 293.857719 
L 186.152365 294.89719 
L 207.779364 294.377455 
L 218.592863 293.537882 
L 229.406362 294.89719 
L 251.033361 294.737271 
L 261.84686 294.377455 
L 272.660359 294.697292 
L 283.473859 294.097597 
L 294.287358 294.617332 
L 315.914357 294.377455 
L 326.727856 294.817231 
L 337.541355 294.377455 
L 348.354854 294.337475 
L 359.168354 294.777251 
L 369.981853 294.417434 
L 369.981853 294.417434 
" clip-path="url(#p7ca1dbb978)" style="fill: none; stroke: #de8787; stroke-width: 1.5; stroke-linecap: square"/>
    </g>
    <g id="line2d_37">
     <path d="M -1 295.779238 
L 2.322878 295.336966 
L 13.136377 296.616314 
L 34.763376 296.976131 
L 45.576875 296.496375 
L 56.390374 295.496884 
L 67.203874 296.616314 
L 78.017373 297.09607 
L 88.830872 296.896172 
L 99.644371 297.176029 
L 121.27137 297.335948 
L 132.084869 297.09607 
L 142.898368 297.415907 
L 153.711868 296.656294 
L 186.152365 297.255988 
L 196.965865 297.176029 
L 207.779364 297.216009 
L 218.592863 296.656294 
L 229.406362 297.255988 
L 240.219862 297.335948 
L 251.033361 296.696273 
L 261.84686 297.09607 
L 272.660359 297.09607 
L 283.473859 296.856192 
L 294.287358 296.896172 
L 305.100857 297.136049 
L 315.914357 297.136049 
L 326.727856 297.295968 
L 337.541355 297.05609 
L 369.981853 297.09607 
L 369.981853 297.09607 
" clip-path="url(#p7ca1dbb978)" style="fill: none; stroke: #ffd42a; stroke-width: 1.5; stroke-linecap: square"/>
    </g>
    <g id="patch_17">
     <path d="M 261.84686 324.162282 
L 261.84686 284.182648 
" style="fill: none; stroke: #000000; stroke-width: 0.8; stroke-linejoin: miter; stroke-linecap: square"/>
    </g>
    <g id="patch_18">
     <path d="M 369.981853 324.162282 
L 369.981853 284.182648 
" style="fill: none; stroke: #000000; stroke-width: 0.8; stroke-linejoin: miter; stroke-linecap: square"/>
    </g>
    <g id="patch_19">
     <path d="M 261.84686 324.162282 
L 369.981853 324.162282 
" style="fill: none; stroke: #000000; stroke-width: 0.8; stroke-linejoin: miter; stroke-linecap: square"/>
    </g>
    <g id="patch_20">
     <path d="M 261.84686 284.182648 
L 369.981853 284.182648 
" style="fill: none; stroke: #000000; stroke-width: 0.8; stroke-linejoin: miter; stroke-linecap: square"/>
    </g>
   </g>
   <g id="legend_2">
    <g id="patch_21">
     <path d="M 323.8456 274.649134 
L 399.02685 274.649134 
Q 401.02685 274.649134 401.02685 272.649134 
L 401.02685 231.213197 
Q 401.02685 229.213197 399.02685 229.213197 
L 323.8456 229.213197 
Q 321.8456 229.213197 321.8456 231.213197 
L 321.8456 272.649134 
Q 321.8456 274.649134 323.8456 274.649134 
z
" style="fill: #ffffff; opacity: 0.8; stroke: #cccccc; stroke-linejoin: miter"/>
    </g>
    <g id="line2d_38">
     <path d="M 325.8456 236.871009 
L 335.8456 236.871009 
L 345.8456 236.871009 
" style="fill: none; stroke: #5fbcd3; stroke-width: 2; stroke-linecap: square"/>
    </g>
    <g id="text_36">
     <!-- Train -->
     <g transform="translate(353.8456 240.371009) scale(0.1 -0.1)">
      <use xlink:href="#ArialMT-54"/>
      <use xlink:href="#ArialMT-72" x="57.333984"/>
      <use xlink:href="#ArialMT-61" x="90.634766"/>
      <use xlink:href="#ArialMT-69" x="146.25"/>
      <use xlink:href="#ArialMT-6e" x="168.466797"/>
     </g>
    </g>
    <g id="line2d_39">
     <path d="M 325.8456 251.016322 
L 335.8456 251.016322 
L 345.8456 251.016322 
" style="fill: none; stroke: #de8787; stroke-width: 2; stroke-linecap: square"/>
    </g>
    <g id="text_37">
     <!-- Validation -->
     <g transform="translate(353.8456 254.516322) scale(0.1 -0.1)">
      <use xlink:href="#ArialMT-56"/>
      <use xlink:href="#ArialMT-61" x="59.324219"/>
      <use xlink:href="#ArialMT-6c" x="114.939453"/>
      <use xlink:href="#ArialMT-69" x="137.15625"/>
      <use xlink:href="#ArialMT-64" x="159.373047"/>
      <use xlink:href="#ArialMT-61" x="214.988281"/>
      <use xlink:href="#ArialMT-74" x="270.603516"/>
      <use xlink:href="#ArialMT-69" x="298.386719"/>
      <use xlink:href="#ArialMT-6f" x="320.603516"/>
      <use xlink:href="#ArialMT-6e" x="376.21875"/>
     </g>
    </g>
    <g id="line2d_40">
     <path d="M 325.8456 265.161634 
L 335.8456 265.161634 
L 345.8456 265.161634 
" style="fill: none; stroke: #ffd42a; stroke-width: 2; stroke-linecap: square"/>
    </g>
    <g id="text_38">
     <!-- Test -->
     <g transform="translate(353.8456 268.661634) scale(0.1 -0.1)">
      <use xlink:href="#ArialMT-54"/>
      <use xlink:href="#ArialMT-65" x="49.958984"/>
      <use xlink:href="#ArialMT-73" x="105.574219"/>
      <use xlink:href="#ArialMT-74" x="155.574219"/>
     </g>
    </g>
   </g>
  </g>
  <g id="axes_4">
   <g id="patch_22">
    <path d="M 45.576875 556.195591 
L 406.02685 556.195591 
L 406.02685 422.930144 
L 45.576875 422.930144 
L 45.576875 556.195591 
z
" style="fill: none"/>
   </g>
   <g id="matplotlib.axis_6">
    <g id="xtick_14">
     <g id="line2d_41">
      <g>
       <use xlink:href="#m15ef16ab50" x="45.576875" y="556.195591" style="stroke: #000000; stroke-width: 0.8"/>
      </g>
     </g>
     <g id="text_39">
      <!-- 0 -->
      <g transform="translate(42.796406 570.353403) scale(0.1 -0.1)">
       <use xlink:href="#ArialMT-30"/>
      </g>
     </g>
    </g>
    <g id="xtick_15">
     <g id="line2d_42">
      <g>
       <use xlink:href="#m15ef16ab50" x="135.689369" y="556.195591" style="stroke: #000000; stroke-width: 0.8"/>
      </g>
     </g>
     <g id="text_40">
      <!-- 50 -->
      <g transform="translate(130.128431 570.353403) scale(0.1 -0.1)">
       <use xlink:href="#ArialMT-35"/>
       <use xlink:href="#ArialMT-30" x="55.615234"/>
      </g>
     </g>
    </g>
    <g id="xtick_16">
     <g id="line2d_43">
      <g>
       <use xlink:href="#m15ef16ab50" x="225.801863" y="556.195591" style="stroke: #000000; stroke-width: 0.8"/>
      </g>
     </g>
     <g id="text_41">
      <!-- 100 -->
      <g transform="translate(217.460456 570.353403) scale(0.1 -0.1)">
       <use xlink:href="#ArialMT-31"/>
       <use xlink:href="#ArialMT-30" x="55.615234"/>
       <use xlink:href="#ArialMT-30" x="111.230469"/>
      </g>
     </g>
    </g>
    <g id="xtick_17">
     <g id="line2d_44">
      <g>
       <use xlink:href="#m15ef16ab50" x="315.914357" y="556.195591" style="stroke: #000000; stroke-width: 0.8"/>
      </g>
     </g>
     <g id="text_42">
      <!-- 150 -->
      <g transform="translate(307.57295 570.353403) scale(0.1 -0.1)">
       <use xlink:href="#ArialMT-31"/>
       <use xlink:href="#ArialMT-35" x="55.615234"/>
       <use xlink:href="#ArialMT-30" x="111.230469"/>
      </g>
     </g>
    </g>
    <g id="xtick_18">
     <g id="line2d_45">
      <g>
       <use xlink:href="#m15ef16ab50" x="406.02685" y="556.195591" style="stroke: #000000; stroke-width: 0.8"/>
      </g>
     </g>
     <g id="text_43">
      <!-- 200 -->
      <g transform="translate(397.685444 570.353403) scale(0.1 -0.1)">
       <use xlink:href="#ArialMT-32"/>
       <use xlink:href="#ArialMT-30" x="55.615234"/>
       <use xlink:href="#ArialMT-30" x="111.230469"/>
      </g>
     </g>
    </g>
    <g id="text_44">
     <!-- Epoch -->
     <g transform="translate(211.6253 583.498716) scale(0.1 -0.1)">
      <use xlink:href="#ArialMT-45"/>
      <use xlink:href="#ArialMT-70" x="66.699219"/>
      <use xlink:href="#ArialMT-6f" x="122.314453"/>
      <use xlink:href="#ArialMT-63" x="177.929688"/>
      <use xlink:href="#ArialMT-68" x="227.929688"/>
     </g>
    </g>
   </g>
   <g id="matplotlib.axis_7">
    <g id="ytick_13">
     <g id="line2d_46">
      <g>
       <use xlink:href="#m6073dc0bd3" x="45.576875" y="556.195591" style="stroke: #000000; stroke-width: 0.8"/>
      </g>
     </g>
     <g id="text_45">
      <!-- −6 -->
      <g transform="translate(27.175313 559.774497) scale(0.1 -0.1)">
       <use xlink:href="#ArialMT-2212"/>
       <use xlink:href="#ArialMT-36" x="58.398438"/>
      </g>
     </g>
    </g>
    <g id="ytick_14">
     <g id="line2d_47">
      <g>
       <use xlink:href="#m6073dc0bd3" x="45.576875" y="518.119749" style="stroke: #000000; stroke-width: 0.8"/>
      </g>
     </g>
     <g id="text_46">
      <!-- −5 -->
      <g transform="translate(27.175313 521.698655) scale(0.1 -0.1)">
       <use xlink:href="#ArialMT-2212"/>
       <use xlink:href="#ArialMT-35" x="58.398438"/>
      </g>
     </g>
    </g>
    <g id="ytick_15">
     <g id="line2d_48">
      <g>
       <use xlink:href="#m6073dc0bd3" x="45.576875" y="480.043907" style="stroke: #000000; stroke-width: 0.8"/>
      </g>
     </g>
     <g id="text_47">
      <!-- −4 -->
      <g transform="translate(27.175313 483.622813) scale(0.1 -0.1)">
       <use xlink:href="#ArialMT-2212"/>
       <use xlink:href="#ArialMT-34" x="58.398438"/>
      </g>
     </g>
    </g>
    <g id="ytick_16">
     <g id="line2d_49">
      <g>
       <use xlink:href="#m6073dc0bd3" x="45.576875" y="441.968065" style="stroke: #000000; stroke-width: 0.8"/>
      </g>
     </g>
     <g id="text_48">
      <!-- −3 -->
      <g transform="translate(27.175313 445.546971) scale(0.1 -0.1)">
       <defs>
        <path id="ArialMT-33" d="M 269 1209 
L 831 1284 
Q 928 806 1161 595 
Q 1394 384 1728 384 
Q 2125 384 2398 659 
Q 2672 934 2672 1341 
Q 2672 1728 2419 1979 
Q 2166 2231 1775 2231 
Q 1616 2231 1378 2169 
L 1441 2663 
Q 1497 2656 1531 2656 
Q 1891 2656 2178 2843 
Q 2466 3031 2466 3422 
Q 2466 3731 2256 3934 
Q 2047 4138 1716 4138 
Q 1388 4138 1169 3931 
Q 950 3725 888 3313 
L 325 3413 
Q 428 3978 793 4289 
Q 1159 4600 1703 4600 
Q 2078 4600 2393 4439 
Q 2709 4278 2876 4000 
Q 3044 3722 3044 3409 
Q 3044 3113 2884 2869 
Q 2725 2625 2413 2481 
Q 2819 2388 3044 2092 
Q 3269 1797 3269 1353 
Q 3269 753 2831 336 
Q 2394 -81 1725 -81 
Q 1122 -81 723 278 
Q 325 638 269 1209 
z
" transform="scale(0.015625)"/>
       </defs>
       <use xlink:href="#ArialMT-2212"/>
       <use xlink:href="#ArialMT-33" x="58.398438"/>
      </g>
     </g>
    </g>
    <g id="text_49">
     <!-- $log_{10}(lr)$ / - -->
     <g transform="translate(20.075313 512.412867) rotate(-90) scale(0.1 -0.1)">
      <defs>
       <path id="ArialMT-28" d="M 1497 -1347 
Q 1031 -759 709 28 
Q 388 816 388 1659 
Q 388 2403 628 3084 
Q 909 3875 1497 4659 
L 1900 4659 
Q 1522 4009 1400 3731 
Q 1209 3300 1100 2831 
Q 966 2247 966 1656 
Q 966 153 1900 -1347 
L 1497 -1347 
z
" transform="scale(0.015625)"/>
       <path id="ArialMT-29" d="M 791 -1347 
L 388 -1347 
Q 1322 153 1322 1656 
Q 1322 2244 1188 2822 
Q 1081 3291 891 3722 
Q 769 4003 388 4659 
L 791 4659 
Q 1378 3875 1659 3084 
Q 1900 2403 1900 1659 
Q 1900 816 1576 28 
Q 1253 -759 791 -1347 
z
" transform="scale(0.015625)"/>
      </defs>
      <use xlink:href="#ArialMT-6c" transform="translate(0 0.203125)"/>
      <use xlink:href="#ArialMT-6f" transform="translate(22.216797 0.203125)"/>
      <use xlink:href="#ArialMT-67" transform="translate(77.832031 0.203125)"/>
      <use xlink:href="#ArialMT-31" transform="translate(135.189609 -29.665625) scale(0.7)"/>
      <use xlink:href="#ArialMT-30" transform="translate(174.120273 -29.665625) scale(0.7)"/>
      <use xlink:href="#ArialMT-28" transform="translate(218.029063 0.203125)"/>
      <use xlink:href="#ArialMT-6c" transform="translate(251.329844 0.203125)"/>
      <use xlink:href="#ArialMT-72" transform="translate(273.546641 0.203125)"/>
      <use xlink:href="#ArialMT-29" transform="translate(306.847422 0.203125)"/>
      <use xlink:href="#ArialMT-20" transform="translate(340.148203 0.203125)"/>
      <use xlink:href="#ArialMT-2f" transform="translate(367.931406 0.203125)"/>
      <use xlink:href="#ArialMT-20" transform="translate(395.714609 0.203125)"/>
      <use xlink:href="#ArialMT-2d" transform="translate(423.497813 0.203125)"/>
     </g>
    </g>
   </g>
   <g id="line2d_50">
    <path d="M 47.379125 441.968065 
L 92.435372 441.968065 
L 94.237622 447.866087 
L 119.46912 447.866087 
L 121.27137 453.76411 
L 142.898368 453.76411 
L 144.700618 459.662132 
L 157.316367 459.662132 
L 159.118617 465.560155 
L 180.745616 465.560155 
L 182.547866 471.455226 
L 191.559115 471.455226 
L 193.361365 477.363089 
L 211.383864 477.363089 
L 213.186114 483.245049 
L 225.801863 483.245049 
L 227.604113 489.166022 
L 252.835611 489.166022 
L 254.637861 495.031268 
L 263.64911 495.031268 
L 265.45136 500.976135 
L 287.078359 500.976135 
L 288.880608 506.823972 
L 308.705357 506.823972 
L 310.507607 512.793735 
L 328.530106 512.793735 
L 330.332356 518.623426 
L 339.343605 518.623426 
L 341.145855 524.497113 
L 353.761604 524.497113 
L 355.563854 530.604899 
L 378.993102 530.604899 
L 380.795352 536.452736 
L 389.806602 536.452736 
L 391.608851 542.422499 
L 400.620101 542.422499 
L 402.422351 548.42355 
L 406.02685 548.42355 
L 406.02685 548.42355 
" clip-path="url(#pbc93c3cc92)" style="fill: none; stroke: #1f77b4; stroke-width: 2; stroke-linecap: square"/>
   </g>
   <g id="patch_23">
    <path d="M 45.576875 556.195591 
L 45.576875 422.930144 
" style="fill: none; stroke: #000000; stroke-width: 0.8; stroke-linejoin: miter; stroke-linecap: square"/>
   </g>
   <g id="patch_24">
    <path d="M 406.02685 556.195591 
L 406.02685 422.930144 
" style="fill: none; stroke: #000000; stroke-width: 0.8; stroke-linejoin: miter; stroke-linecap: square"/>
   </g>
   <g id="patch_25">
    <path d="M 45.576875 556.195591 
L 406.02685 556.195591 
" style="fill: none; stroke: #000000; stroke-width: 0.8; stroke-linejoin: miter; stroke-linecap: square"/>
   </g>
   <g id="patch_26">
    <path d="M 45.576875 422.930144 
L 406.02685 422.930144 
" style="fill: none; stroke: #000000; stroke-width: 0.8; stroke-linejoin: miter; stroke-linecap: square"/>
   </g>
   <g id="text_50">
    <!-- Learning rate -->
    <g transform="translate(190.446863 416.930144) scale(0.12 -0.12)">
     <defs>
      <path id="ArialMT-4c" d="M 469 0 
L 469 4581 
L 1075 4581 
L 1075 541 
L 3331 541 
L 3331 0 
L 469 0 
z
" transform="scale(0.015625)"/>
     </defs>
     <use xlink:href="#ArialMT-4c"/>
     <use xlink:href="#ArialMT-65" x="55.615234"/>
     <use xlink:href="#ArialMT-61" x="111.230469"/>
     <use xlink:href="#ArialMT-72" x="166.845703"/>
     <use xlink:href="#ArialMT-6e" x="200.146484"/>
     <use xlink:href="#ArialMT-69" x="255.761719"/>
     <use xlink:href="#ArialMT-6e" x="277.978516"/>
     <use xlink:href="#ArialMT-67" x="333.59375"/>
     <use xlink:href="#ArialMT-20" x="389.208984"/>
     <use xlink:href="#ArialMT-72" x="416.992188"/>
     <use xlink:href="#ArialMT-61" x="450.292969"/>
     <use xlink:href="#ArialMT-74" x="505.908203"/>
     <use xlink:href="#ArialMT-65" x="533.691406"/>
    </g>
   </g>
  </g>
 </g>
 <defs>
  <clipPath id="pa3e18b5e41">
   <rect x="45.576875" y="25.49625" width="360.449975" height="133.265447"/>
  </clipPath>
  <clipPath id="p3ff3ed7581">
   <rect x="45.576875" y="224.213197" width="360.449975" height="133.265447"/>
  </clipPath>
  <clipPath id="p7ca1dbb978">
   <rect x="261.84686" y="284.182648" width="108.134993" height="39.979634"/>
  </clipPath>
  <clipPath id="pbc93c3cc92">
   <rect x="45.576875" y="422.930144" width="360.449975" height="133.265447"/>
  </clipPath>
 </defs>
</svg>
